<?xml version="1.0" encoding="UTF-8" standalone="no"?>
<!-- Generator: Adobe Illustrator 21.0.2, SVG Export Plug-In . SVG Version: 6.00 Build 0)  -->

<svg
   version="1.1"
   id="Layer_1"
   x="0px"
   y="0px"
   viewBox="0 0 750 750"
   style="enable-background:new 0 0 750 750;"
   xml:space="preserve"
   sodipodi:docname="Baby Yoda.svg"
   inkscape:version="1.3 (0e150ed, 2023-07-21)"
   xmlns:inkscape="http://www.inkscape.org/namespaces/inkscape"
   xmlns:sodipodi="http://sodipodi.sourceforge.net/DTD/sodipodi-0.dtd"
   xmlns="http://www.w3.org/2000/svg"
   xmlns:svg="http://www.w3.org/2000/svg"><sodipodi:namedview
   id="namedview3"
   pagecolor="#ffffff"
   bordercolor="#000000"
   borderopacity="0.25"
   inkscape:showpageshadow="2"
   inkscape:pageopacity="0.0"
   inkscape:pagecheckerboard="0"
   inkscape:deskcolor="#d1d1d1"
   inkscape:zoom="0.82585447"
   inkscape:cx="279.10486"
   inkscape:cy="413.51111"
   inkscape:window-width="1440"
   inkscape:window-height="872"
   inkscape:window-x="0"
   inkscape:window-y="28"
   inkscape:window-maximized="0"
   inkscape:current-layer="layer1"
   showguides="false" /><defs
   id="defs3"><rect
     x="146.89927"
     y="680.17421"
     width="64.268429"
     height="29.073813"
     id="rect49" /></defs>&#10;<g
   inkscape:groupmode="layer"
   id="layer1"
   inkscape:label="Layer 1"
   style="enable-background:new 0 0 750 750;display:inline"><rect
     style="enable-background:new 0 0 750 750;display:inline;fill:none;fill-opacity:1;stroke:#000000;stroke-width:4.30118;stroke-dasharray:none;stroke-linecap:butt;stroke-linejoin:round"
     id="rect47"
     width="57.947155"
     height="24.978815"
     x="266.3306"
     y="613.22058" /><rect
     style="enable-background:new 0 0 750 750;display:inline;fill:none;fill-opacity:1;stroke:#000000;stroke-width:4.30118;stroke-dasharray:none;stroke-linejoin:round"
     id="rect47-2"
     width="57.947155"
     height="24.978815"
     x="455.76648"
     y="615.62299" /><path
     d="m 715.87458,151.76137 c -0.21038,-5.06574 -2.735,-7.09203 -7.25826,-5.51603 -6.83749,2.25144 -13.67499,4.50288 -20.40729,6.97946 -27.03439,9.68118 -54.59475,15.76006 -83.20703,16.66064 -23.98382,0.788 -46.28457,-5.85374 -67.4282,-16.99836 -7.78422,-4.05258 -15.67364,-5.40345 -23.98382,-3.6023 -6.62711,1.46344 -11.04518,6.07889 -14.09575,12.38291 -1.15712,2.36401 -2.94539,2.47658 -4.62846,0.22515 -1.26231,-1.80115 -2.41942,-3.71488 -3.89211,-5.29088 -37.86483,-43.01133 -75.17627,-37.25681 -72.68781,-51.33278 0.42077,-2.0263 1.05192,-4.39031 -1.3675,-5.516025 -2.20904,-1.01314 -4.1025,-0.22514 -5.47,2.026295 -0.84153,1.35086 -1.68307,2.81429 -2.31422,4.27773 -0.73635,1.80115 -1.68308,2.58915 -3.57654,2.02629 -1.78827,-0.56286 -3.57653,-0.67543 -5.3648,-1.12572 -4.31288,-1.12572 -4.52327,-1.91372 -2.10385,-6.07888 1.26231,-2.138855 2.94539,-3.940005 3.57654,-6.529163 0.31558,-1.576007 0.84154,-2.926869 -0.84154,-3.940016 -1.47269,-1.013147 -2.84019,-1.013147 -4.20769,0.225144 -2.10384,1.688578 -3.57653,3.827444 -4.73364,6.19145 -2.62981,5.290875 -5.78558,7.880035 -12.09711,6.641735 -7.67903,-1.576 -7.78422,-0.788 -8.94133,-9.005741 -0.31558,-2.138866 -0.94673,-4.277732 -3.57654,-4.16516 -2.84019,0.112572 -3.36615,2.138866 -3.26096,4.728019 v 1.350863 c 0,7.317169 -0.21038,7.654879 -7.04788,8.893179 -7.9946,1.46343 -16.0944,2.364 -24.08901,3.94001 -31.13689,6.52917 -58.27648,20.8258 -78.36819,48.0682 -3.47134,4.72802 -4.31288,4.72802 -7.67903,-0.11257 -0.52596,-0.67543 -0.84154,-1.57601 -1.26231,-2.36401 -3.26095,-6.64174 -8.41537,-9.79376 -15.35806,-9.56861 -3.68172,0.11257 -7.25826,0.67543 -10.7296,1.91372 -5.04923,1.80115 -10.09845,3.6023 -15.25287,5.06573 -5.15442,1.46344 -10.41403,2.0263 -15.77883,2.70173 -5.3648,0.67543 -10.62441,0.56286 -15.98921,0.90057 -4.94404,0.33772 -9.88807,-0.45028 -14.72691,-0.90057 -23.14229,-2.25144 -45.75861,-8.33032 -68.585325,-12.49548 -13.885367,-2.58915 -27.349968,-7.42975 -40.919762,-11.48233 -3.050574,-0.90058 -6.20634,-0.90058 -8.204992,1.576 -1.998652,2.47658 -0.841537,5.74117 0.420769,8.44289 3.576535,7.76746 7.468646,15.42235 11.46595,22.96467 16.620367,30.8447 34.082273,60.90139 55.64668,88.25636 8.0998,10.24404 16.72556,19.92523 25.87728,28.93098 7.04788,6.97945 15.56845,11.82005 24.19421,16.32292 2.94538,0.22515 5.57518,1.57601 7.88941,4.05259 0.52596,0.11257 1.15711,0.33772 1.89346,0.67543 14.8321,7.31717 30.61093,9.11832 46.60014,9.68118 8.73096,0.33772 17.35672,0.56286 26.08767,0.78801 1.15711,0 3.05057,-0.45029 2.52461,1.80115 -0.84153,3.6023 -1.3675,7.76746 -4.31288,10.0189 -6.31153,4.72801 -9.78287,11.48233 -12.93864,18.46179 -6.52191,14.52177 -9.99326,29.6064 -4.94403,45.70418 0.63115,1.91372 -0.10519,3.48973 -1.15712,5.06574 -5.04922,7.76746 -9.04652,16.09778 -13.14902,24.4281 -3.68173,7.31717 -4.41807,14.74692 -2.94538,22.62695 0.63115,3.48973 1.68307,6.97945 2.6298,10.35661 0.52596,1.80115 0.73635,3.48973 0.31558,5.29088 -1.89346,7.76746 -3.9973,15.53492 -7.67903,22.73952 -7.15307,14.29663 -13.4646,28.93098 -17.77748,44.4659 -4.31288,15.1972 -6.8375,30.61955 -4.73365,46.49219 1.2623,9.68118 4.83884,18.34922 9.4673,26.67954 9.67768,17.44864 25.66689,22.17666 42.91841,23.52752 9.4673,0.78801 19.03979,-0.11257 28.61228,-0.67543 16.09441,-0.90057 32.18882,-2.02629 48.17803,-3.48973 13.25422,-1.12572 26.50843,-3.26458 41.55092,-2.92687 8.83614,-0.45028 19.25017,1.01315 29.6642,2.92687 4.62846,0.90058 8.20499,0.78801 10.20364,-4.61545 1.05192,-2.81429 2.94538,-3.03944 5.25961,-1.35086 45.92923,32.89362 107.85056,1.92667 154.63254,7.76746 7.57384,0.90058 13.04383,-0.788 18.19825,-6.52917 5.57518,-6.19145 12.0971,-11.48233 15.14767,-20.03779 4.52327,-12.27034 2.20904,-24.31553 -0.73634,-36.24815 -5.99596,-24.4281 -16.30479,-46.49219 -32.71478,-64.95398 -6.6271,-7.42975 -6.31153,-11.48234 -0.31557,-19.2498 7.46864,-9.68118 10.30883,-18.7995 1.78827,-32.75842 -2.20904,-3.6023 -5.78558,-6.52917 -5.78558,-11.25719 0,-5.96631 -1.47269,-11.14461 -5.04922,-15.87263 -3.26096,-4.16516 -4.94403,-8.55547 -1.05192,-13.6212 0.84153,-1.01315 1.15711,-2.8143 1.2623,-4.27773 1.68308,-20.26294 -1.15711,-35.79786 -17.67229,-46.60476 -1.57788,-1.01315 -2.31422,-2.25144 -2.41942,-4.27774 -0.10519,-5.29088 -0.42077,-10.46918 -0.63115,-15.76006 -0.31558,-5.40345 -2.84019,-9.2309 -6.83749,-12.27034 -1.3675,-1.01314 -4.52327,-0.56286 -3.78692,-3.15201 0.73634,-2.36401 3.47134,-1.12572 5.3648,-1.01315 0.52596,0 1.05192,0.33772 1.57788,0.45029 12.41268,2.02629 24.40459,5.51602 37.34323,4.27773 22.61633,-2.13886 43.33919,-9.34346 62.0634,-22.62695 19.03979,-13.6212 35.1342,-30.95727 49.33514,-50.09449 17.88268,-24.09038 35.55497,-48.63105 49.01957,-76.0986 2.735,-4.50287 5.68038,-8.7806 5.3648,-14.18405 z M 238.93315,302.38255 c -0.73635,1.01315 -1.89346,0.90058 -3.05058,0.67544 -8.41537,-1.68858 -16.51517,-4.61545 -24.40459,-7.99261 -15.35806,-6.52917 -29.97977,-14.63434 -43.75995,-24.4281 -1.3675,-0.90057 -2.20904,-1.91372 -2.62981,-3.03944 -1.68307,-0.67543 -3.15576,-1.68858 -4.52326,-2.92687 -0.63116,-0.11257 -1.47269,-0.56286 -2.20904,-1.23829 -33.87189,-28.0304 -63.851665,-60.33853 -92.56914,-94.1101 -1.157114,-1.35086 -2.524613,-2.8143 -2.314228,-5.62859 8.204991,2.70172 16.094406,5.1783 24.089014,7.88003 18.198254,6.19145 36.396504,12.72062 54.910334,17.78636 18.51383,5.06573 37.02765,6.97945 55.96225,4.27773 8.0998,-1.12572 11.15037,2.02629 11.15037,10.8069 -0.21038,17.89893 0.73635,35.68529 6.41673,52.79622 4.41807,13.39605 10.93999,25.55382 19.03978,36.811 1.15712,1.68858 2.31423,3.37716 3.36616,5.17831 0.52596,0.90058 1.47269,1.91372 0.52596,3.15201 z m -13.25422,96.9244 c 3.78692,-0.22514 7.46865,0.90058 10.93999,2.47658 11.15037,4.72802 17.04113,14.40921 19.77613,26.11668 2.10385,9.34347 -0.84154,17.89893 -6.94268,26.22925 -2.735,-9.68118 -6.10115,-17.78636 -9.99326,-25.77896 -3.68173,-7.31717 -9.25692,-11.25719 -16.1996,-13.84634 -2.62981,-1.01315 -6.31153,-0.90058 -6.10115,-5.29088 0.10519,-4.16516 5.15442,-9.79376 8.52057,-9.90633 z m 18.09306,57.07395 c 0,8.10518 -4.62846,14.4092 -10.20365,14.07149 -5.68037,-0.33772 -9.88806,-7.42975 -8.94133,-15.30978 0.10519,-1.23829 0.10519,-2.36401 0.31557,-3.6023 0.94673,-4.61545 4.94404,-8.66804 8.41538,-8.89318 3.36615,-0.22514 7.99461,3.6023 9.4673,7.76746 0.63115,1.91372 1.15711,3.94002 0.94673,5.96631 z m -29.34863,-37.03615 c 4.1025,-2.92687 8.41538,-2.25144 11.46595,1.91372 2.41942,3.37716 3.99731,7.2046 3.36615,11.70748 0.1052,3.15201 -0.31557,6.07888 -1.68307,9.00575 -1.99865,4.27773 -5.04923,5.85374 -9.4673,5.85374 -3.89211,0 -5.89076,-2.47659 -7.46865,-5.51603 -4.41807,-7.54231 -2.41942,-18.57436 3.78692,-22.96466 z m 175.25021,154.33606 c -1.78827,8.55546 -4.1025,17.11093 -7.15307,25.32867 -1.89346,5.17831 -5.04923,9.11833 -11.78153,8.33032 -31.45246,-3.48972 -62.69455,0.22515 -94.14702,1.12572 -7.57383,0.22515 -14.93729,2.13887 -22.51113,1.68858 -7.57384,-0.45029 -15.04248,-0.90057 -22.61632,-1.576 -14.09575,-1.2383 -25.03574,-7.20461 -29.97978,-22.28924 -1.99865,-6.07888 -3.36615,-12.38291 -3.78692,-18.7995 -1.15711,-18.34922 -1.57788,-36.58587 5.68038,-53.92194 1.3675,-3.26458 2.84019,-6.52917 4.31288,-9.68118 1.15712,-2.47658 2.735,-2.92687 4.52327,-0.78801 3.47134,3.94002 7.04787,7.76746 10.41403,11.82005 4.73364,5.85374 10.83479,9.34347 17.35671,12.27034 1.05192,0.45029 2.735,1.23829 3.57653,0.22514 1.15712,-1.46343 -0.63115,-2.36401 -1.3675,-3.26458 -6.20634,-7.76746 -12.72825,-15.19721 -18.93459,-22.96467 -9.15172,-11.5949 -11.25557,-25.10353 -12.0971,-39.40016 -0.1052,-2.02629 0.73634,-3.6023 2.73499,-3.94002 2.41942,-0.45028 3.15577,1.35087 3.47135,3.48973 0.52596,4.16516 2.52461,7.54232 4.73364,10.91948 3.15577,4.72802 7.15307,5.51602 12.2023,4.3903 7.78422,-1.80115 13.78018,-6.30403 19.14498,-12.38291 3.78692,-4.3903 7.04788,-9.23089 10.20364,-14.29663 3.99731,-6.4166 4.83884,-13.17091 3.05058,-20.60065 -2.94538,-12.72063 -6.52192,-25.10353 -15.98922,-34.33443 -2.94538,-2.8143 -6.41672,-4.16516 -9.99326,-5.51602 -11.04518,-4.39031 -16.30479,-22.17666 -9.67768,-32.75842 3.89211,-6.19146 13.5698,-5.74117 16.72556,1.12572 2.94538,6.41659 6.20634,12.72062 9.57249,18.91207 11.88672,21.61381 29.87459,31.97042 52.80649,33.659 23.98382,1.80115 47.54687,-0.11257 71.00473,-5.51602 4.94403,-1.12572 5.78557,-0.45029 6.62711,5.06573 3.36615,21.50123 4.94403,43.11504 6.31153,64.84141 0.63115,10.35661 0.73635,20.71323 0.84154,31.06984 -0.31558,22.51438 -0.42077,45.36647 -5.25961,67.76828 z M 249.24198,325.0095 c 0,-1.23829 0.21039,-2.81429 1.68308,-3.37715 1.68307,-0.67543 2.52461,0.90057 3.36615,2.02629 4.94403,6.30403 9.99326,12.60805 16.0944,17.67379 9.36211,7.88003 20.61768,11.70748 31.87324,15.42235 17.77748,5.74116 35.87054,5.74116 54.17398,4.05259 9.4673,-0.90058 18.9346,-2.36401 28.29671,-4.16516 2.6298,-0.45029 3.57653,0.33771 4.10249,3.15201 0.94673,5.40345 0.84154,10.8069 0.84154,16.09778 v 1.80115 c -0.21039,18.91208 0.10519,14.85949 -13.99056,18.12407 -20.40729,4.61545 -40.91977,4.39031 -61.22186,-0.56286 -14.09576,-3.37715 -27.45517,-9.23089 -39.34189,-18.12407 -6.83749,-5.06574 -12.93864,-10.91947 -17.88267,-18.12407 -6.94269,-9.90633 -7.99461,-21.95152 -7.99461,-33.99672 z m 295.90566,116.84963 c 2.10384,3.71487 3.15577,7.65488 3.05057,12.04519 0.21039,4.95316 -1.05192,9.45604 -4.20768,13.17091 -4.1025,4.72802 -9.99326,4.3903 -13.88537,-0.56286 -5.36481,-6.86689 -5.15442,-19.70008 0.42076,-26.34182 4.1025,-4.95317 11.25557,-4.16516 14.62172,1.68858 z m -17.25152,29.94412 c -0.10519,4.05259 -0.73635,7.76746 -3.36615,10.8069 -3.68173,4.27773 -8.0998,4.16516 -11.36076,-0.45029 -3.9973,-5.62859 -3.78692,-15.53492 0.31558,-21.05094 3.05057,-4.16516 7.36345,-4.27773 10.83479,-0.45029 2.735,3.15201 3.36616,7.09203 3.57654,11.14462 z m 9.57249,-46.60476 c 0.42077,1.68857 0.63115,3.37715 -0.84154,4.50287 -10.30883,7.88003 -16.72556,19.58751 -24.61497,29.83155 -1.26231,1.57601 -2.735,3.15202 -4.31288,4.27773 -3.26096,2.25144 -5.57519,1.12572 -6.20634,-2.92686 -0.31558,-2.0263 -0.42077,-4.16516 -0.63116,-6.75432 1.15712,-15.1972 5.68038,-29.38126 15.56845,-41.08874 4.31288,-5.1783 9.15172,-4.95316 13.67499,-0.11257 3.26095,3.48973 6.20634,7.2046 7.36345,12.27034 z m -20.93325,-69.79458 c 4.20769,-0.33771 6.7323,3.94002 8.20499,7.42975 4.31288,10.0189 5.47,20.60066 3.26096,31.52013 -0.63115,2.92687 -1.89346,4.95316 -4.73365,5.51602 -15.04248,3.03944 -23.87863,13.39606 -29.03304,28.0304 -0.84154,2.47658 -1.78827,4.95317 -2.735,7.54232 -5.47,16.09778 -0.73635,29.71898 8.83614,42.10189 2.735,3.6023 5.99596,6.75431 9.15172,9.90632 6.52192,6.4166 14.09576,6.4166 20.72287,0.33772 1.99865,-1.80115 3.78692,-3.82745 6.10115,-6.07888 2.84019,9.00575 3.05057,16.88578 -3.15577,24.20295 -5.04923,6.07888 -10.8348,11.36976 -16.30479,16.99836 -1.26231,1.35086 -3.05058,2.47658 -1.78827,4.84059 1.26231,2.36401 3.05058,2.13886 5.04923,1.46343 8.31018,-2.70172 15.25287,-7.31717 20.30209,-15.08463 0.84154,-1.35086 1.68308,-2.70173 3.15577,-3.71487 8.0998,10.24404 11.57114,22.73952 14.93729,35.34757 5.04923,18.91208 3.26096,37.37387 -3.15577,55.49794 -1.36749,3.71487 -3.89211,5.6286 -7.46864,6.4166 -16.52975,3.59783 -123.44021,11.25311 -147.47947,-3.82744 -3.68172,-2.25144 -4.41807,-4.72802 -1.89346,-8.55547 13.99057,-21.16351 17.04114,-45.2539 15.98922,-70.13229 -1.05192,-23.86524 -5.15442,-47.39276 -10.20365,-70.58257 -3.15576,-14.74692 -5.3648,-29.71898 -7.25826,-44.69104 -0.52596,-3.94002 0,-5.06574 4.1025,-4.72802 19.77613,1.80115 39.65746,2.70173 59.3284,-0.45029 20.1969,-3.26458 34.81862,-15.30977 44.28592,-34.67214 1.15711,-2.25144 2.31422,-4.50288 3.05057,-6.86688 1.68307,-4.61545 4.83884,-7.42975 8.73095,-7.76747 z m -7.99461,-30.73212 c 1.4727,13.05834 1.15712,25.32867 -8.41537,36.023 -11.46595,12.8332 -25.87728,18.79951 -40.91977,24.09039 -11.99191,4.16516 -24.2994,5.85374 -36.71207,6.52917 -3.36616,0.22514 -6.73231,0 -10.09846,0 v 0.45029 c -3.57653,-0.22515 -7.25826,-0.56286 -10.83479,-0.67544 -2.62981,-0.11257 -3.89211,-0.90057 -2.84019,-4.16516 3.05057,-9.23089 2.735,-18.57436 -0.31558,-27.80525 -1.05192,-3.15202 0.52596,-4.39031 3.05058,-4.16516 6.7323,0.788 13.3594,-0.56286 19.98651,0.11257 17.46191,1.57601 33.97708,-1.12572 49.33515,-10.69433 10.30883,-6.4166 19.77613,-13.50863 27.24477,-23.52753 1.4727,-1.91372 3.15577,-2.58915 5.15442,-1.91372 2.52462,1.12572 5.04923,2.58916 5.3648,5.74117 z M 646.8685,233.7137 c -15.25287,15.53492 -31.97843,28.70583 -49.9663,40.18817 -21.45921,13.84634 -44.4963,23.18981 -69.11127,28.0304 -5.47,1.12572 -11.15038,1.01314 -16.72556,1.35086 -0.73635,0 -1.78827,0.33772 -2.31423,-0.56286 -0.63115,-1.23829 0.42077,-2.02629 0.94673,-2.70173 9.88807,-11.36976 14.62171,-25.66639 20.30209,-39.51273 5.36481,-13.05834 6.31154,-26.90468 7.88942,-40.63845 0.31558,-2.58915 0.52596,-5.06574 1.68307,-7.31717 1.3675,-2.70173 3.47135,-4.50288 6.52192,-3.71488 15.56845,4.39031 31.45247,2.58916 47.2313,2.0263 33.93018,-1.96737 67.20703,-12.63715 97.1732,-28.30133 -12.72825,17.78636 -28.79827,36.06879 -43.63037,51.15342 z m 56.90898,-70.69515 c -19.01709,32.48807 -108.29915,39.18194 -154.84292,36.4733 -5.25961,-0.33772 -10.62441,-1.23829 -15.88402,-1.80115 -3.89211,-0.45029 -5.04923,0.788 -4.20769,4.72802 2.20904,10.24404 1.26231,19.36236 -6.20634,27.35497 -6.7323,7.2046 -9.36211,16.88578 -11.15037,26.67953 -3.05058,16.88579 -6.94269,33.659 -15.04249,48.63106 -7.15307,13.28348 -17.77748,23.75267 -31.0317,29.94412 -10.93999,5.06574 -22.09036,10.35662 -34.60823,10.0189 -5.78557,-0.11257 -11.46595,-0.788 -16.93595,-2.8143 -2.84018,-1.12572 -5.57518,-1.35086 -8.52056,0.11258 -5.36481,2.70172 -10.72961,5.06573 -16.62037,6.30402 -8.41538,1.80115 -16.40998,-0.11257 -23.66825,-3.94001 -7.36345,-3.82745 -14.51652,-3.60231 -21.98517,-2.13887 -17.14632,3.26458 -34.08227,0.90057 -50.70264,-3.6023 -24.1942,-6.52917 -39.23669,-23.97781 -49.01956,-47.84305 -4.94403,-12.0452 -7.78422,-24.65325 -9.57249,-37.59902 -1.47269,-11.03204 -4.83884,-21.6138 -10.41403,-31.06984 -3.26096,-5.62859 -4.20769,-11.14461 -2.52461,-17.56121 0.94673,-3.82745 1.57788,-7.88003 1.99865,-11.93262 0.84154,-7.42975 -2.20904,-10.69433 -9.15172,-10.13147 -6.31153,0.56286 -12.51787,1.80115 -18.82941,1.80115 -8.94133,0.11257 -17.98786,0.33771 -26.9292,-0.45029 -22.40594,-1.91372 -44.07553,-10.58176 -65.42955,-17.56121 -13.359415,-4.39031 -26.824013,-8.4429 -40.288615,-12.15777 -3.050573,-0.788 -5.890763,-1.91372 -7.784222,-4.72802 -0.94673,-1.46343 -1.472691,-2.92687 -0.736346,-4.61545 0.841538,-1.91372 2.524613,-1.68857 3.997304,-1.35086 5.154418,0.90058 9.993259,3.03944 14.726908,5.06574 21.669596,9.11832 43.865151,15.87263 66.586671,20.71322 22.72151,4.95317 61.43224,15.08464 79.63049,-6.19145 1.99865,-2.25144 4.62846,-3.82744 7.36346,-5.17831 5.78557,-2.92687 10.09845,-1.68857 14.09575,3.48973 4.31288,5.51602 4.83884,11.93262 4.1025,18.68694 -1.15712,10.01889 -1.78827,20.03779 -1.15712,30.16926 0.21039,3.82745 0.10519,7.76746 1.89346,11.36976 2.84019,-14.18405 5.57519,-28.25554 11.99191,-40.97616 12.41268,-24.76582 29.6642,-44.24076 54.38437,-55.2728 46.29892,-24.54177 116.5768,-9.8481 140.2212,9.11832 17.35672,11.48233 31.97843,25.77896 42.49765,44.57847 6.62711,11.93262 9.57249,25.2161 11.99191,38.61216 0.42077,2.13886 0.21039,5.74116 2.20904,5.74116 2.20903,-0.11257 1.89346,-3.71487 2.10384,-5.96631 1.47269,-13.39605 -0.21038,-26.22925 -6.20634,-38.27444 -2.73499,-5.51602 -0.42077,-12.94577 4.73365,-17.11093 4.31288,-3.48973 9.78288,-3.15201 14.62172,1.01315 2.10384,1.80115 4.20769,3.6023 5.68038,5.96631 5.15441,7.9926 13.04383,10.69433 21.14363,12.27034 44.91707,9.00575 88.78222,4.61544 131.17467,-13.73377 5.15442,-2.25144 13.88537,-9.68119 19.67094,-8.21775 2.41942,0.67543 3.05058,1.91372 2.62981,3.37715 z m -349.86926,104.129 c 2.735,-2.13886 3.68173,-4.61544 3.26096,-8.10517 -0.84154,-8.66804 -2.41942,-17.2235 -5.15442,-25.44125 -3.78692,-11.48233 -8.62576,-22.28923 -18.19825,-30.16927 -16.93594,-13.84634 -36.71208,-14.18405 -52.38571,-0.11257 -14.20095,12.72062 -23.14229,29.38126 -29.66421,47.61791 -0.94673,2.47658 0.21039,4.05259 1.78827,5.40345 5.25961,4.95316 11.15038,9.00575 17.5671,11.93262 14.41133,6.52917 29.55901,7.31717 45.65341,7.76746 4.31288,-0.22514 9.36211,-0.22514 14.30614,-0.788 8.31019,-0.67543 16.09441,-2.70173 22.82671,-8.10518 z m -79.10453,-4.95316 c -0.31558,0.788 -1.15712,0.56286 -1.78827,0.45029 -8.31018,-1.35087 -12.2023,-8.66804 -8.83615,-16.77321 0.94673,-2.47659 1.3675,-5.17831 4.1025,-7.65489 -0.21038,8.55546 1.3675,15.98521 6.20634,22.4018 0.31558,0.33772 0.52596,1.12572 0.31558,1.57601 z m 19.77613,-35.57272 c -4.52326,-0.33771 -8.62576,-5.1783 -8.41538,-10.0189 0.21039,-5.06573 4.52327,-9.23089 9.25692,-8.89317 4.94403,0.22514 8.73095,4.61544 8.41537,9.68118 -0.21038,5.40345 -4.41807,9.56861 -9.25691,9.23089 z m 184.61231,-15.87263 c -5.57519,-6.19146 -11.67633,-11.36976 -19.77613,-12.72063 -15.98922,-2.58915 -29.7694,3.37716 -41.13015,14.74692 -11.67634,11.70748 -17.04114,27.46754 -20.82806,43.79047 -0.63115,2.81429 0.63115,5.1783 2.735,6.52917 3.15576,2.13886 6.20634,4.50287 9.67768,6.30402 11.04518,5.74117 22.82671,6.4166 35.87054,6.86689 3.89211,-0.22515 9.04653,0 13.99056,-1.01315 13.67499,-2.70173 26.50844,-7.42975 36.08093,-19.24979 3.57653,-4.39031 4.94403,-8.21775 2.735,-13.39606 -5.15442,-11.48233 -11.04519,-22.62695 -19.35537,-31.85784 z m -41.13015,18.91207 c -4.73365,0 -8.73095,-4.3903 -8.73095,-9.45604 0,-4.72801 3.9973,-9.23089 8.41537,-9.45603 5.25961,-0.22515 9.04653,3.71487 9.15173,9.23089 0.10519,5.6286 -3.57654,9.68118 -8.83615,9.68118 z m 43.54957,31.97042 c -1.3675,0.11257 -1.99865,-0.788 -1.3675,-1.80115 4.52327,-7.54232 2.10385,-16.4355 4.41808,-25.44125 3.89211,5.29088 5.99595,10.24405 6.20634,16.09778 0,3.37716 -6.31154,10.8069 -9.25692,11.14462 z m -55.43629,32.30813 c -0.42077,0 -0.84154,0.33772 -1.15711,0.45029 -11.67634,6.07888 -11.28984,6.18254 -22.44022,1.45453 -8.20499,-3.48973 -27.84165,-6.74541 -36.04665,-3.36825 -6.94268,2.8143 -13.99056,5.62859 -21.66959,3.6023 -4.52326,-1.12572 -9.04653,-1.91372 -13.56979,-3.03944 -1.57789,-0.33772 -3.15577,-0.90058 -4.20769,0.67543 -1.15711,1.57601 0.21038,2.8143 1.05192,3.94002 3.47134,5.06573 6.7323,10.35661 10.41403,15.1972 10.7296,13.95891 24.19421,18.86916 41.44573,19.54459 2.73499,0 5.75732,0.16737 8.38712,-0.39549 8.73096,-1.91372 15.70189,-3.38904 22.64458,-9.1302 7.46864,-6.19146 14.93729,-12.49548 20.51247,-20.8258 1.57789,-2.36401 4.1025,-5.06574 2.31423,-7.99261 -1.99865,-3.26458 -5.15441,-0.22514 -7.67903,-0.11257 z m -32.60958,31.52013 c -4.41807,2.70173 -9.4673,2.13887 -13.4646,2.70173 -6.83749,-0.45029 -12.93864,-0.45029 -18.61902,-3.03944 -2.20904,-1.01315 -4.52327,-2.0263 -4.62846,-5.06574 -0.10519,-2.92687 1.78827,-4.84059 3.99731,-5.74117 11.04518,-4.61544 22.09036,-4.84059 32.81996,1.12572 4.31288,2.36401 4.1025,7.42975 -0.10519,10.0189 z M 276.38157,189.36038 c -0.84154,-0.90058 -0.21038,-1.68858 0.21038,-2.47658 2.10385,-4.61545 5.99596,-7.09203 9.99326,-9.11833 7.67903,-4.05259 17.25152,-6.07888 29.87459,-6.07888 14.20094,1.01315 28.40189,8.89318 37.44842,26.11668 0.84154,1.57601 2.84019,3.6023 0.84154,5.17831 -1.78827,1.35086 -4.31288,1.01314 -6.31153,-0.56286 -0.84154,-0.67544 -1.57789,-1.68858 -2.10385,-2.70173 -8.41537,-16.21035 -26.61362,-25.55382 -44.28591,-20.8258 -7.36346,1.91372 -14.20095,4.39031 -20.40729,9.00575 -0.94673,0.67543 -1.89346,1.23829 -2.94538,1.80115 -0.73635,0.33772 -1.57789,0.45029 -2.31423,-0.33771 z m 134.75121,9.34346 c 6.7323,-13.73377 18.51382,-19.81265 31.87323,-23.18981 2.31423,-0.56285 4.62846,-1.35086 6.73231,-0.90057 10.83479,0.56286 20.30209,4.05259 28.40189,11.14462 1.15711,1.01314 3.57653,2.02629 2.20904,4.16516 -1.26231,2.02629 -3.05058,1.01314 -4.73365,-0.22515 -5.78557,-4.27773 -12.2023,-7.31717 -19.14498,-8.7806 -11.15038,-2.25144 -20.61768,2.47658 -29.55901,8.55546 -3.47134,2.36401 -6.31153,5.51602 -8.52057,9.23089 -0.84154,1.35087 -1.78827,2.70173 -3.05057,3.71488 -1.4727,1.23829 -3.36615,2.47658 -4.94404,1.12572 -1.78827,-1.57601 0,-3.37716 0.73635,-4.8406 z m -45.75861,78.68776 c 6.41672,5.74116 17.98787,6.30402 24.82536,1.23829 7.04788,-5.17831 7.04788,-13.28349 -0.10519,-18.34922 -3.47134,-2.47658 -7.46865,-3.26459 -11.57114,-3.26459 -4.94404,-0.11257 -9.36211,1.35087 -12.93864,4.27773 -5.47,4.8406 -5.57519,11.36977 -0.21039,16.09779 z m 8.52057,-12.72063 c 2.20904,-1.46343 4.62846,-1.91372 7.15307,-1.80115 1.78827,0 3.47134,0.22515 5.04922,0.788 2.94539,1.01315 5.78558,2.47659 5.78558,6.19146 0,3.48973 -2.84019,4.95316 -5.47,5.96631 -4.20769,1.57601 -8.52057,1.57601 -12.51787,-0.90058 -4.83884,-3.03944 -4.73365,-7.09203 0,-10.24404 z m 36.50169,-111.67131 c -1.05192,-1.68858 0.31558,-3.03944 1.26231,-4.27774 4.31288,-5.06573 10.20364,-5.74116 15.14768,-6.64174 6.52191,0.45029 11.46595,2.47658 16.19959,5.6286 1.3675,0.90057 2.31423,2.13886 2.84019,3.71487 0.42077,1.35086 0.52596,2.70173 -0.52596,3.71487 -1.2623,1.12572 -2.31423,0.11257 -3.36615,-0.67543 -8.83614,-7.09203 -17.98786,-6.75431 -27.56035,-1.80115 -1.26231,0.56286 -2.735,2.36401 -3.99731,0.33772 z m -47.54687,22.85209 c -0.94673,-1.68858 0.10519,-3.26458 1.3675,-4.27773 5.89076,-5.17831 12.72825,-7.99261 20.30209,-8.21775 5.15442,-0.22514 9.4673,2.25144 13.56979,5.17831 1.57789,1.12572 3.15577,2.70172 2.10385,4.84059 -1.05192,2.13886 -3.05057,0.788 -4.52327,0.11257 -10.09845,-5.17831 -19.67094,-4.50288 -28.82266,2.47658 -1.15711,0.78801 -2.94538,1.80115 -3.9973,-0.11257 z m -44.07553,-27.35497 c -0.31558,-2.36401 0.52596,-3.94002 2.10384,-5.51602 4.20769,-4.16516 9.57249,-4.61545 14.51652,-5.40345 4.73365,0.33771 8.83615,1.576 12.51788,4.3903 1.47269,1.12572 3.26095,2.70173 1.78826,4.84059 -1.2623,1.80115 -2.84019,0.11257 -3.9973,-0.67543 -5.15442,-3.26458 -10.41403,-3.82744 -16.1996,-2.25144 -3.36615,0.90058 -5.68038,3.15202 -7.78422,5.74117 -0.52596,0.56286 -0.94673,1.68858 -1.89346,1.35086 -1.05192,-0.56286 -0.94673,-1.576 -1.05192,-2.47658 z m 68.16454,102.66556 c 1.15712,0.11258 1.68308,0.90058 1.78827,2.13887 -0.42077,1.46344 -1.26231,1.68858 -2.62981,1.12572 -5.04922,-2.13887 -10.09845,-1.68858 -15.25286,-0.11257 -1.26231,0.33771 -2.62981,0.90057 -3.15577,-0.90058 -0.52596,-2.02629 1.05192,-2.70172 2.41942,-2.70172 5.68038,-0.33772 11.25557,-0.33772 16.83075,0.45028 z"
     id="path1"
     style="display:inline;fill:#000000;fill-opacity:1;stroke-width:1.0882"
     dxfpoint="1"
     sodipodi:nodetypes="ccccccccccccccccccccccccsccccccsssccccscccccccccsccccccccccccccccccccccccccscccccccccccccccccccccccccsccccscccccccccccccccccccssccccccsccccsccccccccccccsccccccccccccscccccccscccccscccccccccccccsccsccscccccccccccccscccsccccccccccccccccccccccccccccccccccccccccccccscccccccccccccccccccccccccccccccccccccccccccccccccccccccccccccccccccccccccccccccssccscccccccccccccccccccccccccccsccccccscccscccscccccccccccccccccscccscccccccscccssccccccsccccccccccccc" /><rect
     style="opacity:1;fill:none;fill-opacity:1;stroke:#000000;stroke-width:5.489;stroke-linecap:butt;stroke-dasharray:none;stroke-linejoin:round"
     id="rect48"
     width="516.14716"
     height="81.496918"
     x="125.86746"
     y="654.69189" /><rect
     style="display:inline;fill:none;fill-opacity:1;stroke:#000000;stroke-width:4.30118;stroke-linecap:butt;stroke-linejoin:round;stroke-dasharray:none"
     id="rect47-2-2"
     width="57.947155"
     height="24.978815"
     x="458.01685"
     y="675.57446" /><rect
     style="display:inline;fill:none;fill-opacity:1;stroke:#000000;stroke-width:4.30118;stroke-dasharray:none;stroke-linejoin:round"
     id="rect47-2-1"
     width="57.947155"
     height="24.978815"
     x="266.61441"
     y="674.37878" /></g>&#10;&#10;</svg>
