  0
SECTION
  2
HEADER
  9
$ACADVER
  1
AC1009
  0
ENDSEC
  0
SECTION
  2
ENTITIES
  0
POLYLINE
  5
90
  8
Layer_0
  62
0
  66
1
  10
0
  20
0
  30
0
  0
VERTEX
  5
90
  8
Layer_0
  10
58.245385
  20
52.931871
  0
VERTEX
  5
91
  8
Layer_0
  10
58.229512
  20
53.08111
  0
VERTEX
  5
92
  8
Layer_0
  10
58.195516
  20
53.205573
  0
VERTEX
  5
93
  8
Layer_0
  10
58.143711
  20
53.304698
  0
VERTEX
  5
94
  8
Layer_0
  10
58.074412
  20
53.377926
  0
VERTEX
  5
95
  8
Layer_0
  10
57.987931
  20
53.424695
  0
VERTEX
  5
96
  8
Layer_0
  10
57.884584
  20
53.444446
  0
VERTEX
  5
97
  8
Layer_0
  10
57.764685
  20
53.436617
  0
VERTEX
  5
98
  8
Layer_0
  10
57.628547
  20
53.400648
  42
0.008601515
  0
VERTEX
  5
99
  8
Layer_0
  10
55.894241
  20
52.807503
  0
VERTEX
  5
9a
  8
Layer_0
  10
55.030496
  20
52.513582
  0
VERTEX
  5
9b
  8
Layer_0
  10
54.162035
  20
52.249933
  0
VERTEX
  5
9c
  8
Layer_0
  10
53.288335
  20
52.018124
  0
VERTEX
  5
9d
  8
Layer_0
  10
52.408874
  20
51.819723
  0
VERTEX
  5
9e
  8
Layer_0
  10
51.523127
  20
51.656302
  0
VERTEX
  5
9f
  8
Layer_0
  10
50.63057
  20
51.529429
  0
VERTEX
  5
a0
  8
Layer_0
  10
49.730679
  20
51.440673
  0
VERTEX
  5
a1
  8
Layer_0
  10
48.82293
  20
51.391605
  0
VERTEX
  5
a2
  8
Layer_0
  10
48.065203
  20
51.395604
  0
VERTEX
  5
a3
  8
Layer_0
  10
47.320361
  20
51.455883
  0
VERTEX
  5
a4
  8
Layer_0
  10
46.587881
  20
51.569527
  0
VERTEX
  5
a5
  8
Layer_0
  10
45.867239
  20
51.733621
  0
VERTEX
  5
a6
  8
Layer_0
  10
45.157911
  20
51.94525
  0
VERTEX
  5
a7
  8
Layer_0
  10
44.459374
  20
52.2015
  0
VERTEX
  5
a8
  8
Layer_0
  10
43.771104
  20
52.499456
  0
VERTEX
  5
a9
  8
Layer_0
  10
43.092576
  20
52.836202
  0
VERTEX
  5
aa
  8
Layer_0
  10
42.594326
  20
53.050858
  0
VERTEX
  5
ab
  8
Layer_0
  10
42.09021
  20
53.175825
  0
VERTEX
  5
ac
  8
Layer_0
  10
41.577714
  20
53.207515
  0
VERTEX
  5
ad
  8
Layer_0
  10
41.054323
  20
53.142342
  0
VERTEX
  5
ae
  8
Layer_0
  10
40.851781
  20
53.083389
  0
VERTEX
  5
af
  8
Layer_0
  10
40.666002
  20
53.000782
  0
VERTEX
  5
b0
  8
Layer_0
  10
40.496147
  20
52.895976
  0
VERTEX
  5
b1
  8
Layer_0
  10
40.341379
  20
52.770429
  0
VERTEX
  5
b2
  8
Layer_0
  10
40.073746
  20
52.462944
  0
VERTEX
  5
b3
  8
Layer_0
  10
39.8564
  20
52.089986
  0
VERTEX
  5
b4
  8
Layer_0
  10
39.773565
  20
51.975333
  0
VERTEX
  5
b5
  8
Layer_0
  10
39.676485
  20
51.933329
  0
VERTEX
  5
b6
  8
Layer_0
  10
39.571026
  20
51.964869
  0
VERTEX
  5
b7
  8
Layer_0
  10
39.463054
  20
52.070852
  0
VERTEX
  5
b8
  8
Layer_0
  10
39.304372
  20
52.302849
  0
VERTEX
  5
b9
  8
Layer_0
  10
39.13228
  20
52.520496
  0
VERTEX
  5
ba
  8
Layer_0
  10
38.530285
  20
53.158721
  0
VERTEX
  5
bb
  8
Layer_0
  10
37.934278
  20
53.708352
  0
VERTEX
  5
bc
  8
Layer_0
  10
37.349145
  20
54.177929
  0
VERTEX
  5
bd
  8
Layer_0
  10
36.779771
  20
54.575992
  0
VERTEX
  5
be
  8
Layer_0
  10
36.231042
  20
54.91108
  0
VERTEX
  5
bf
  8
Layer_0
  10
35.707845
  20
55.191732
  0
VERTEX
  5
c0
  8
Layer_0
  10
35.215064
  20
55.426488
  0
VERTEX
  5
c1
  8
Layer_0
  10
34.757586
  20
55.623888
  0
VERTEX
  5
c2
  8
Layer_0
  10
34.340296
  20
55.79247
  0
VERTEX
  5
c3
  8
Layer_0
  10
33.96808
  20
55.940775
  0
VERTEX
  5
c4
  8
Layer_0
  10
33.645824
  20
56.077342
  0
VERTEX
  5
c5
  8
Layer_0
  10
33.378414
  20
56.210711
  0
VERTEX
  5
c6
  8
Layer_0
  10
33.170735
  20
56.34942
  0
VERTEX
  5
c7
  8
Layer_0
  10
33.027673
  20
56.502009
  0
VERTEX
  5
c8
  8
Layer_0
  10
32.954114
  20
56.677019
  0
VERTEX
  5
c9
  8
Layer_0
  10
32.954944
  20
56.882987
  0
VERTEX
  5
ca
  8
Layer_0
  10
32.980785
  20
57.015429
  0
VERTEX
  5
cb
  8
Layer_0
  10
32.98735
  20
57.146076
  0
VERTEX
  5
cc
  8
Layer_0
  10
32.948658
  20
57.262373
  0
VERTEX
  5
cd
  8
Layer_0
  10
32.838728
  20
57.351764
  0
VERTEX
  5
ce
  8
Layer_0
  10
32.703235
  20
57.388088
  0
VERTEX
  5
cf
  8
Layer_0
  10
32.579475
  20
57.369701
  0
VERTEX
  5
d0
  8
Layer_0
  10
32.469126
  20
57.299295
  0
VERTEX
  5
d1
  8
Layer_0
  10
32.373862
  20
57.17956
  42
0.037506008
  0
VERTEX
  5
d2
  8
Layer_0
  10
32.177189
  20
56.816017
  0
VERTEX
  5
d3
  8
Layer_0
  10
32.125926
  20
56.717809
  0
VERTEX
  5
d4
  8
Layer_0
  10
32.062091
  20
56.654578
  0
VERTEX
  5
d5
  8
Layer_0
  10
31.979818
  20
56.629016
  0
VERTEX
  5
d6
  8
Layer_0
  10
31.87324
  20
56.643815
  0
VERTEX
  5
d7
  8
Layer_0
  10
31.645278
  20
56.695237
  0
VERTEX
  5
d8
  8
Layer_0
  10
31.417313
  20
56.739484
  0
VERTEX
  5
d9
  8
Layer_0
  10
31.295965
  20
56.774631
  0
VERTEX
  5
da
  8
Layer_0
  10
31.205835
  20
56.810787
  0
VERTEX
  5
db
  8
Layer_0
  10
31.145456
  20
56.851651
  0
VERTEX
  5
dc
  8
Layer_0
  10
31.113364
  20
56.900925
  0
VERTEX
  5
dd
  8
Layer_0
  10
31.108091
  20
56.962306
  0
VERTEX
  5
de
  8
Layer_0
  10
31.12817
  20
57.039495
  0
VERTEX
  5
df
  8
Layer_0
  10
31.172135
  20
57.136191
  0
VERTEX
  5
e0
  8
Layer_0
  10
31.23852
  20
57.256094
  0
VERTEX
  5
e1
  8
Layer_0
  10
31.323726
  20
57.388535
  0
VERTEX
  5
e2
  8
Layer_0
  10
31.410609
  20
57.519183
  0
VERTEX
  5
e3
  8
Layer_0
  10
31.487435
  20
57.657005
  0
VERTEX
  5
e4
  8
Layer_0
  10
31.542469
  20
57.810972
  0
VERTEX
  5
e5
  8
Layer_0
  10
31.562724
  20
57.907687
  0
VERTEX
  5
e6
  8
Layer_0
  10
31.570407
  20
57.99633
  0
VERTEX
  5
e7
  8
Layer_0
  10
31.546242
  20
58.076004
  0
VERTEX
  5
e8
  8
Layer_0
  10
31.470951
  20
58.145813
  42
0.34768334
  0
VERTEX
  5
e9
  8
Layer_0
  10
31.113361
  20
58.126678
  42
0.11026179
  0
VERTEX
  5
ea
  8
Layer_0
  10
30.711075
  20
57.600502
  0
VERTEX
  5
eb
  8
Layer_0
  10
30.624733
  20
57.442835
  0
VERTEX
  5
ec
  8
Layer_0
  10
30.531582
  20
57.307815
  0
VERTEX
  5
ed
  8
Layer_0
  10
30.429002
  20
57.196563
  0
VERTEX
  5
ee
  8
Layer_0
  10
30.314375
  20
57.110199
  0
VERTEX
  5
ef
  8
Layer_0
  10
30.185081
  20
57.049846
  0
VERTEX
  5
f0
  8
Layer_0
  10
30.038501
  20
57.016624
  0
VERTEX
  5
f1
  8
Layer_0
  10
29.872017
  20
57.011654
  0
VERTEX
  5
f2
  8
Layer_0
  10
29.683009
  20
57.036057
  0
VERTEX
  5
f3
  8
Layer_0
  10
29.467024
  20
57.078753
  0
VERTEX
  5
f4
  8
Layer_0
  10
29.302792
  20
57.113937
  0
VERTEX
  5
f5
  8
Layer_0
  10
29.181721
  20
57.152933
  0
VERTEX
  5
f6
  8
Layer_0
  10
29.095222
  20
57.207064
  0
VERTEX
  5
f7
  8
Layer_0
  10
29.034704
  20
57.287654
  0
VERTEX
  5
f8
  8
Layer_0
  10
28.991577
  20
57.406025
  0
VERTEX
  5
f9
  8
Layer_0
  10
28.957249
  20
57.573501
  0
VERTEX
  5
fa
  8
Layer_0
  10
28.923131
  20
57.801406
  0
VERTEX
  5
fb
  8
Layer_0
  10
28.895753
  20
57.934744
  0
VERTEX
  5
fc
  8
Layer_0
  10
28.84491
  20
58.050144
  0
VERTEX
  5
fd
  8
Layer_0
  10
28.757189
  20
58.129669
  0
VERTEX
  5
fe
  8
Layer_0
  10
28.619182
  20
58.15538
  0
VERTEX
  5
ff
  8
Layer_0
  10
28.472794
  20
58.119504
  0
VERTEX
  5
100
  8
Layer_0
  10
28.38675
  20
58.033402
  0
VERTEX
  5
101
  8
Layer_0
  10
28.347639
  20
57.907837
  0
VERTEX
  5
102
  8
Layer_0
  10
28.342051
  20
57.753571
  0
VERTEX
  5
103
  8
Layer_0
  10
28.342051
  20
57.638771
  0
VERTEX
  5
104
  8
Layer_0
  10
28.340148
  20
57.432072
  0
VERTEX
  5
105
  8
Layer_0
  10
28.330178
  20
57.273135
  0
VERTEX
  5
106
  8
Layer_0
  10
28.305751
  20
57.15411
  0
VERTEX
  5
107
  8
Layer_0
  10
28.260476
  20
57.067149
  0
VERTEX
  5
108
  8
Layer_0
  10
28.187963
  20
57.004403
  0
VERTEX
  5
109
  8
Layer_0
  10
28.081821
  20
56.958027
  0
VERTEX
  5
10a
  8
Layer_0
  10
27.93566
  20
56.92017
  0
VERTEX
  5
10b
  8
Layer_0
  10
27.74309
  20
56.882986
  0
VERTEX
  5
10c
  8
Layer_0
  10
26.719494
  20
56.719154
  0
VERTEX
  5
10d
  8
Layer_0
  10
25.695897
  20
56.548146
  0
VERTEX
  5
10e
  8
Layer_0
  10
24.720019
  20
56.308264
  0
VERTEX
  5
10f
  8
Layer_0
  10
23.779027
  20
56.00134
  0
VERTEX
  5
110
  8
Layer_0
  10
22.875959
  20
55.622215
  0
VERTEX
  5
111
  8
Layer_0
  10
22.013853
  20
55.165734
  0
VERTEX
  5
112
  8
Layer_0
  10
21.195747
  20
54.626738
  0
VERTEX
  5
113
  8
Layer_0
  10
20.424679
  20
54.00007
  0
VERTEX
  5
114
  8
Layer_0
  10
20.057735
  20
53.652248
  0
VERTEX
  5
115
  8
Layer_0
  10
19.703689
  20
53.280575
  0
VERTEX
  5
116
  8
Layer_0
  10
19.362921
  20
52.884405
  0
VERTEX
  5
117
  8
Layer_0
  10
19.035813
  20
52.463093
  0
VERTEX
  5
118
  8
Layer_0
  10
18.934804
  20
52.331268
  0
VERTEX
  5
119
  8
Layer_0
  10
18.849614
  20
52.237225
  0
VERTEX
  5
11a
  8
Layer_0
  10
18.775111
  20
52.181076
  0
VERTEX
  5
11b
  8
Layer_0
  10
18.706159
  20
52.162932
  0
VERTEX
  5
11c
  8
Layer_0
  10
18.637628
  20
52.182907
  0
VERTEX
  5
11d
  8
Layer_0
  10
18.564381
  20
52.241111
  0
VERTEX
  5
11e
  8
Layer_0
  10
18.481288
  20
52.337658
  0
VERTEX
  5
11f
  8
Layer_0
  10
18.383213
  20
52.472659
  42
-0.042818569
  0
VERTEX
  5
120
  8
Layer_0
  10
18.275936
  20
52.673561
  0
VERTEX
  5
121
  8
Layer_0
  10
18.164487
  20
52.871347
  0
VERTEX
  5
122
  8
Layer_0
  10
18.038056
  20
53.041439
  0
VERTEX
  5
123
  8
Layer_0
  10
17.896749
  20
53.183952
  0
VERTEX
  5
124
  8
Layer_0
  10
17.740671
  20
53.298997
  0
VERTEX
  5
125
  8
Layer_0
  10
17.569926
  20
53.386688
  0
VERTEX
  5
126
  8
Layer_0
  10
17.384619
  20
53.447134
  0
VERTEX
  5
127
  8
Layer_0
  10
17.184855
  20
53.48045
  0
VERTEX
  5
128
  8
Layer_0
  10
16.970739
  20
53.486746
  42
0.078180058
  0
VERTEX
  5
129
  8
Layer_0
  10
16.058887
  20
53.324108
  42
-0.016502612
  0
VERTEX
  5
12a
  8
Layer_0
  10
14.76263
  20
52.8936
  0
VERTEX
  5
12b
  8
Layer_0
  10
14.098857
  20
52.753685
  0
VERTEX
  5
12c
  8
Layer_0
  10
13.421674
  20
52.663995
  0
VERTEX
  5
12d
  8
Layer_0
  10
12.742257
  20
52.614965
  0
VERTEX
  5
12e
  8
Layer_0
  10
12.062838
  20
52.58746
  0
VERTEX
  5
12f
  8
Layer_0
  10
11.747853
  20
52.581929
  0
VERTEX
  5
130
  8
Layer_0
  10
11.433706
  20
52.600614
  0
VERTEX
  5
131
  8
Layer_0
  10
11.121235
  20
52.631856
  0
VERTEX
  5
132
  8
Layer_0
  10
10.811279
  20
52.663995
  0
VERTEX
  5
133
  8
Layer_0
  10
9.3436298
  20
52.860863
  0
VERTEX
  5
134
  8
Layer_0
  10
7.8868762
  20
53.133967
  0
VERTEX
  5
135
  8
Layer_0
  10
6.4351511
  20
53.437566
  0
VERTEX
  5
136
  8
Layer_0
  10
4.9825873
  20
53.725917
  0
VERTEX
  5
137
  8
Layer_0
  10
4.1035627
  20
53.922786
  0
VERTEX
  5
138
  8
Layer_0
  10
3.233757
  20
54.16719
  0
VERTEX
  5
139
  8
Layer_0
  10
2.3689799
  20
54.434912
  0
VERTEX
  5
13a
  8
Layer_0
  10
1.5050408
  20
54.701738
  0
VERTEX
  5
13b
  8
Layer_0
  10
1.310602
  20
54.742696
  0
VERTEX
  5
13c
  8
Layer_0
  10
1.122868
  20
54.742397
  0
VERTEX
  5
13d
  8
Layer_0
  10
0.95189601
  20
54.688284
  0
VERTEX
  5
13e
  8
Layer_0
  10
0.8077431
  20
54.567802
  0
VERTEX
  5
13f
  8
Layer_0
  10
0.72658725
  20
54.399186
  0
VERTEX
  5
140
  8
Layer_0
  10
0.72169842
  20
54.21622
  0
VERTEX
  5
141
  8
Layer_0
  10
0.76877169
  20
54.029666
  0
VERTEX
  5
142
  8
Layer_0
  10
0.84350215
  20
53.850287
  42
0.013959727
  0
VERTEX
  5
143
  8
Layer_0
  10
1.8179307
  20
51.898643
  0
VERTEX
  5
144
  8
Layer_0
  10
2.8950258
  20
49.947752
  0
VERTEX
  5
145
  8
Layer_0
  10
4.0249214
  20
48.037218
  0
VERTEX
  5
146
  8
Layer_0
  10
4.6177884
  20
47.101851
  0
VERTEX
  5
147
  8
Layer_0
  10
5.2335983
  20
46.182292
  0
VERTEX
  5
148
  8
Layer_0
  10
5.8755988
  20
45.280446
  0
VERTEX
  5
149
  8
Layer_0
  10
6.5470374
  20
44.398219
  42
0.031111025
  0
VERTEX
  5
14a
  8
Layer_0
  10
8.7462063
  20
41.939537
  0
VERTEX
  5
14b
  8
Layer_0
  10
9.2170771
  20
41.526366
  0
VERTEX
  5
14c
  8
Layer_0
  10
9.7239867
  20
41.167011
  0
VERTEX
  5
14d
  8
Layer_0
  10
10.256039
  20
40.847119
  0
VERTEX
  5
14e
  8
Layer_0
  10
10.802339
  20
40.55234
  42
-0.18791082
  0
VERTEX
  5
14f
  8
Layer_0
  10
11.472816
  20
40.207932
  42
-0.054834925
  0
VERTEX
  5
150
  8
Layer_0
  10
11.633732
  20
40.150536
  0
VERTEX
  5
151
  8
Layer_0
  10
12.110068
  20
39.938606
  0
VERTEX
  5
152
  8
Layer_0
  10
12.593214
  20
39.766364
  0
VERTEX
  5
153
  8
Layer_0
  10
13.082436
  20
39.629551
  0
VERTEX
  5
154
  8
Layer_0
  10
13.577001
  20
39.523904
  0
VERTEX
  5
155
  8
Layer_0
  10
14.579226
  20
39.38907
  0
VERTEX
  5
156
  8
Layer_0
  10
15.594023
  20
39.327782
  42
0.0032183861
  0
VERTEX
  5
157
  8
Layer_0
  10
17.811071
  20
39.260811
  0
VERTEX
  5
158
  8
Layer_0
  10
17.892365
  20
39.263802
  0
VERTEX
  5
159
  8
Layer_0
  10
17.971984
  20
39.25603
  0
VERTEX
  5
15a
  8
Layer_0
  10
18.024785
  20
39.212381
  0
VERTEX
  5
15b
  8
Layer_0
  10
18.025623
  20
39.107743
  0
VERTEX
  5
15c
  8
Layer_0
  10
17.973382
  20
38.872459
  0
VERTEX
  5
15d
  8
Layer_0
  10
17.909407
  20
38.638967
  0
VERTEX
  5
15e
  8
Layer_0
  10
17.811908
  20
38.427002
  0
VERTEX
  5
15f
  8
Layer_0
  10
17.659095
  20
38.256294
  0
VERTEX
  5
160
  8
Layer_0
  10
17.298713
  20
37.925041
  0
VERTEX
  5
161
  8
Layer_0
  10
17.008732
  20
37.543562
  0
VERTEX
  5
162
  8
Layer_0
  10
16.769036
  20
37.126208
  0
VERTEX
  5
163
  8
Layer_0
  10
16.559511
  20
36.687327
  0
VERTEX
  5
164
  8
Layer_0
  10
16.364723
  20
36.222213
  0
VERTEX
  5
165
  8
Layer_0
  10
16.199687
  20
35.752166
  0
VERTEX
  5
166
  8
Layer_0
  10
16.069852
  20
35.276738
  0
VERTEX
  5
167
  8
Layer_0
  10
15.980664
  20
34.79548
  0
VERTEX
  5
168
  8
Layer_0
  10
15.937572
  20
34.307943
  0
VERTEX
  5
169
  8
Layer_0
  10
15.946023
  20
33.813679
  0
VERTEX
  5
16a
  8
Layer_0
  10
16.011464
  20
33.31224
  0
VERTEX
  5
16b
  8
Layer_0
  10
16.139344
  20
32.803178
  0
VERTEX
  5
16c
  8
Layer_0
  10
16.159179
  20
32.686133
  0
VERTEX
  5
16d
  8
Layer_0
  10
16.143814
  20
32.57716
  0
VERTEX
  5
16e
  8
Layer_0
  10
16.10163
  20
32.473569
  0
VERTEX
  5
16f
  8
Layer_0
  10
16.041008
  20
32.372669
  0
VERTEX
  5
170
  8
Layer_0
  10
15.734403
  20
31.869361
  0
VERTEX
  5
171
  8
Layer_0
  10
15.452104
  20
31.3526
  0
VERTEX
  5
172
  8
Layer_0
  10
15.184891
  20
30.826871
  0
VERTEX
  5
173
  8
Layer_0
  10
14.923544
  20
30.296657
  42
0.16418567
  0
VERTEX
  5
174
  8
Layer_0
  10
14.673233
  20
28.373718
  42
0.02360229
  0
VERTEX
  5
175
  8
Layer_0
  10
14.896725
  20
27.493565
  42
-0.12910944
  0
VERTEX
  5
176
  8
Layer_0
  10
14.923546
  20
27.043922
  0
VERTEX
  5
177
  8
Layer_0
  10
14.797691
  20
26.549584
  0
VERTEX
  5
178
  8
Layer_0
  10
14.654237
  20
26.05973
  0
VERTEX
  5
179
  8
Layer_0
  10
14.482288
  20
25.578845
  0
VERTEX
  5
17a
  8
Layer_0
  10
14.270947
  20
25.111413
  0
VERTEX
  5
17b
  8
Layer_0
  10
13.829968
  20
24.19404
  0
VERTEX
  5
17c
  8
Layer_0
  10
13.425026
  20
23.26142
  0
VERTEX
  5
17d
  8
Layer_0
  10
13.065343
  20
22.309068
  0
VERTEX
  5
17e
  8
Layer_0
  10
12.760135
  20
21.332501
  0
VERTEX
  5
17f
  8
Layer_0
  10
12.517506
  20
20.359967
  0
VERTEX
  5
180
  8
Layer_0
  10
12.354496
  20
19.378464
  0
VERTEX
  5
181
  8
Layer_0
  10
12.30992
  20
18.883789
  0
VERTEX
  5
182
  8
Layer_0
  10
12.293734
  20
18.3862
  0
VERTEX
  5
183
  8
Layer_0
  10
12.308767
  20
17.885471
  0
VERTEX
  5
184
  8
Layer_0
  10
12.357848
  20
17.38138
  0
VERTEX
  5
185
  8
Layer_0
  10
12.473505
  20
16.779566
  0
VERTEX
  5
186
  8
Layer_0
  10
12.652858
  20
16.204656
  0
VERTEX
  5
187
  8
Layer_0
  10
12.88585
  20
15.651271
  0
VERTEX
  5
188
  8
Layer_0
  10
13.162422
  20
15.114032
  0
VERTEX
  5
189
  8
Layer_0
  10
13.322813
  20
14.84847
  0
VERTEX
  5
18a
  8
Layer_0
  10
13.495147
  20
14.607081
  0
VERTEX
  5
18b
  8
Layer_0
  10
13.678795
  20
14.388704
  0
VERTEX
  5
18c
  8
Layer_0
  10
13.873129
  20
14.192174
  0
VERTEX
  5
18d
  8
Layer_0
  10
14.291339
  20
13.860006
  0
VERTEX
  5
18e
  8
Layer_0
  10
14.74475
  20
13.601271
  0
VERTEX
  5
18f
  8
Layer_0
  10
15.228333
  20
13.406664
  0
VERTEX
  5
190
  8
Layer_0
  10
15.737058
  20
13.26688
  0
VERTEX
  5
191
  8
Layer_0
  10
16.265898
  20
13.172612
  0
VERTEX
  5
192
  8
Layer_0
  10
16.809823
  20
13.114556
  0
VERTEX
  5
193
  8
Layer_0
  10
17.41479
  20
13.088545
  0
VERTEX
  5
194
  8
Layer_0
  10
18.022272
  20
13.100203
  0
VERTEX
  5
195
  8
Layer_0
  10
18.631429
  20
13.133387
  0
VERTEX
  5
196
  8
Layer_0
  10
19.241423
  20
13.171954
  42
0.0088440133
  0
VERTEX
  5
197
  8
Layer_0
  10
23.335812
  20
13.468533
  0
VERTEX
  5
198
  8
Layer_0
  10
24.182989
  20
13.551794
  0
VERTEX
  5
199
  8
Layer_0
  10
25.044413
  20
13.63954
  0
VERTEX
  5
19a
  8
Layer_0
  10
25.934334
  20
13.703966
  0
VERTEX
  5
19b
  8
Layer_0
  10
26.866998
  20
13.71727
  0
VERTEX
  5
19c
  8
Layer_0
  10
27.453248
  20
13.717418
  0
VERTEX
  5
19d
  8
Layer_0
  10
28.077211
  20
13.668239
  0
VERTEX
  5
19e
  8
Layer_0
  10
28.726318
  20
13.581391
  0
VERTEX
  5
19f
  8
Layer_0
  10
29.387995
  20
13.468532
  0
VERTEX
  5
1a0
  8
Layer_0
  10
29.665544
  20
13.432954
  0
VERTEX
  5
1a1
  8
Layer_0
  10
29.90538
  20
13.463748
  0
VERTEX
  5
1a2
  8
Layer_0
  10
30.009846
  20
13.514684
  0
VERTEX
  5
1a3
  8
Layer_0
  10
30.103311
  20
13.594994
  0
VERTEX
  5
1a4
  8
Layer_0
  10
30.185253
  20
13.708938
  0
VERTEX
  5
1a5
  8
Layer_0
  10
30.255147
  20
13.860775
  0
VERTEX
  5
1a6
  8
Layer_0
  10
30.335045
  20
13.999793
  0
VERTEX
  5
1a7
  8
Layer_0
  10
30.438411
  20
14.061679
  0
VERTEX
  5
1a8
  8
Layer_0
  10
30.561891
  20
14.051812
  0
VERTEX
  5
1a9
  8
Layer_0
  10
30.702133
  20
13.975575
  42
0.15314848
  0
VERTEX
  5
1aa
  8
Layer_0
  10
34.555145
  20
12.712746
  0
VERTEX
  5
1ab
  8
Layer_0
  10
35.68127
  20
12.710205
  0
VERTEX
  5
1ac
  8
Layer_0
  10
36.805719
  20
12.74982
  0
VERTEX
  5
1ad
  8
Layer_0
  10
37.926815
  20
12.837867
  0
VERTEX
  5
1ae
  8
Layer_0
  10
39.042883
  20
12.980623
  0
VERTEX
  5
1af
  8
Layer_0
  10
40.238009
  20
13.16613
  0
VERTEX
  5
1b0
  8
Layer_0
  10
41.436488
  20
13.316658
  0
VERTEX
  5
1b1
  8
Layer_0
  10
42.036985
  20
13.36339
  0
VERTEX
  5
1b2
  8
Layer_0
  10
42.63832
  20
13.382878
  0
VERTEX
  5
1b3
  8
Layer_0
  10
43.240494
  20
13.368956
  0
VERTEX
  5
1b4
  8
Layer_0
  10
43.843505
  20
13.315459
  0
VERTEX
  5
1b5
  8
Layer_0
  10
44.076793
  20
13.297317
  0
VERTEX
  5
1b6
  8
Layer_0
  10
44.295099
  20
13.30126
  0
VERTEX
  5
1b7
  8
Layer_0
  10
44.500205
  20
13.328746
  0
VERTEX
  5
1b8
  8
Layer_0
  10
44.693893
  20
13.381233
  0
VERTEX
  5
1b9
  8
Layer_0
  10
44.877942
  20
13.460178
  0
VERTEX
  5
1ba
  8
Layer_0
  10
45.054134
  20
13.567039
  0
VERTEX
  5
1bb
  8
Layer_0
  10
45.22425
  20
13.703273
  0
VERTEX
  5
1bc
  8
Layer_0
  10
45.390071
  20
13.870337
  0
VERTEX
  5
1bd
  8
Layer_0
  10
45.754645
  20
14.256153
  0
VERTEX
  5
1be
  8
Layer_0
  10
46.114189
  20
14.64645
  0
VERTEX
  5
1bf
  8
Layer_0
  10
46.281075
  20
14.853651
  0
VERTEX
  5
1c0
  8
Layer_0
  10
46.433503
  20
15.074417
  0
VERTEX
  5
1c1
  8
Layer_0
  10
46.567073
  20
15.312897
  0
VERTEX
  5
1c2
  8
Layer_0
  10
46.677386
  20
15.57324
  0
VERTEX
  5
1c3
  8
Layer_0
  10
46.795331
  20
15.963407
  0
VERTEX
  5
1c4
  8
Layer_0
  10
46.86498
  20
16.351893
  0
VERTEX
  5
1c5
  8
Layer_0
  10
46.892516
  20
16.738809
  0
VERTEX
  5
1c6
  8
Layer_0
  10
46.884119
  20
17.124269
  0
VERTEX
  5
1c7
  8
Layer_0
  10
46.784247
  20
17.891264
  0
VERTEX
  5
1c8
  8
Layer_0
  10
46.614813
  20
18.653776
  0
VERTEX
  5
1c9
  8
Layer_0
  10
46.406248
  20
19.422656
  0
VERTEX
  5
1ca
  8
Layer_0
  10
46.16154
  20
20.171468
  0
VERTEX
  5
1cb
  8
Layer_0
  10
45.878909
  20
20.89898
  0
VERTEX
  5
1cc
  8
Layer_0
  10
45.556573
  20
21.603957
  0
VERTEX
  5
1cd
  8
Layer_0
  10
45.192751
  20
22.285167
  0
VERTEX
  5
1ce
  8
Layer_0
  10
44.785662
  20
22.941375
  0
VERTEX
  5
1cf
  8
Layer_0
  10
44.333526
  20
23.571349
  0
VERTEX
  5
1d0
  8
Layer_0
  10
43.834561
  20
24.173856
  0
VERTEX
  5
1d1
  8
Layer_0
  10
43.650808
  20
24.39836
  0
VERTEX
  5
1d2
  8
Layer_0
  10
43.521113
  20
24.60302
  0
VERTEX
  5
1d3
  8
Layer_0
  10
43.444218
  20
24.7949
  0
VERTEX
  5
1d4
  8
Layer_0
  10
43.418865
  20
24.981062
  0
VERTEX
  5
1d5
  8
Layer_0
  10
43.443798
  20
25.168569
  0
VERTEX
  5
1d6
  8
Layer_0
  10
43.51776
  20
25.364484
  0
VERTEX
  5
1d7
  8
Layer_0
  10
43.639494
  20
25.575871
  0
VERTEX
  5
1d8
  8
Layer_0
  10
43.807742
  20
25.809792
  0
VERTEX
  5
1d9
  8
Layer_0
  10
44.026205
  20
26.116978
  0
VERTEX
  5
1da
  8
Layer_0
  10
44.201089
  20
26.425061
  0
VERTEX
  5
1db
  8
Layer_0
  10
44.325686
  20
26.739422
  0
VERTEX
  5
1dc
  8
Layer_0
  10
44.393293
  20
27.065443
  0
VERTEX
  5
1dd
  8
Layer_0
  10
44.397205
  20
27.408506
  0
VERTEX
  5
1de
  8
Layer_0
  10
44.330717
  20
27.77399
  0
VERTEX
  5
1df
  8
Layer_0
  10
44.187124
  20
28.167278
  0
VERTEX
  5
1e0
  8
Layer_0
  10
43.959721
  20
28.593752
  0
VERTEX
  5
1e1
  8
Layer_0
  10
43.803693
  20
28.815882
  0
VERTEX
  5
1e2
  8
Layer_0
  10
43.643475
  20
29.036219
  0
VERTEX
  5
1e3
  8
Layer_0
  10
43.518459
  20
29.274494
  0
VERTEX
  5
1e4
  8
Layer_0
  10
43.468033
  20
29.550438
  42
0.16333516
  0
VERTEX
  5
1e5
  8
Layer_0
  10
43.038929
  20
30.899364
  0
VERTEX
  5
1e6
  8
Layer_0
  10
42.861532
  20
31.169032
  0
VERTEX
  5
1e7
  8
Layer_0
  10
42.766268
  20
31.449462
  0
VERTEX
  5
1e8
  8
Layer_0
  10
42.759389
  20
31.594833
  0
VERTEX
  5
1e9
  8
Layer_0
  10
42.784985
  20
31.744241
  0
VERTEX
  5
1ea
  8
Layer_0
  10
42.847039
  20
31.898132
  0
VERTEX
  5
1eb
  8
Layer_0
  10
42.949532
  20
32.056957
  0
VERTEX
  5
1ec
  8
Layer_0
  10
43.026636
  20
32.224376
  0
VERTEX
  5
1ed
  8
Layer_0
  10
43.056808
  20
32.420497
  0
VERTEX
  5
1ee
  8
Layer_0
  10
43.090909
  20
33.047426
  0
VERTEX
  5
1ef
  8
Layer_0
  10
43.079858
  20
33.636685
  0
VERTEX
  5
1f0
  8
Layer_0
  10
43.01454
  20
34.188275
  0
VERTEX
  5
1f1
  8
Layer_0
  10
42.88584
  20
34.702195
  0
VERTEX
  5
1f2
  8
Layer_0
  10
42.684644
  20
35.178446
  0
VERTEX
  5
1f3
  8
Layer_0
  10
42.401839
  20
35.617028
  0
VERTEX
  5
1f4
  8
Layer_0
  10
42.226984
  20
35.822193
  0
VERTEX
  5
1f5
  8
Layer_0
  10
42.028309
  20
36.01794
  0
VERTEX
  5
1f6
  8
Layer_0
  10
41.804674
  20
36.20427
  0
VERTEX
  5
1f7
  8
Layer_0
  10
41.55494
  20
36.381182
  42
-0.24157276
  0
VERTEX
  5
1f8
  8
Layer_0
  10
41.349323
  20
36.744724
  42
0.0049686188
  0
VERTEX
  5
1f9
  8
Layer_0
  10
41.295685
  20
38.084084
  42
0.21898856
  0
VERTEX
  5
1fa
  8
Layer_0
  10
40.714603
  20
39.126877
  0
VERTEX
  5
1fb
  8
Layer_0
  10
40.60649
  20
39.174113
  0
VERTEX
  5
1fc
  8
Layer_0
  10
40.48664
  20
39.210587
  0
VERTEX
  5
1fd
  8
Layer_0
  10
40.400315
  20
39.272174
  0
VERTEX
  5
1fe
  8
Layer_0
  10
40.392771
  20
39.394749
  0
VERTEX
  5
1ff
  8
Layer_0
  10
40.467782
  20
39.494303
  0
VERTEX
  5
200
  8
Layer_0
  10
40.58386
  20
39.516725
  0
VERTEX
  5
201
  8
Layer_0
  10
40.718376
  20
39.499684
  0
VERTEX
  5
202
  8
Layer_0
  10
40.8487
  20
39.48085
  42
-0.05276793
  0
VERTEX
  5
203
  8
Layer_0
  10
40.982792
  20
39.442581
  0
VERTEX
  5
204
  8
Layer_0
  10
41.769065
  20
39.298333
  0
VERTEX
  5
205
  8
Layer_0
  10
42.552826
  20
39.156773
  0
VERTEX
  5
206
  8
Layer_0
  10
42.947169
  20
39.102417
  0
VERTEX
  5
207
  8
Layer_0
  10
43.344969
  20
39.067233
  0
VERTEX
  5
208
  8
Layer_0
  10
43.747589
  20
39.057386
  0
VERTEX
  5
209
  8
Layer_0
  10
44.156389
  20
39.079042
  0
VERTEX
  5
20a
  8
Layer_0
  10
44.869593
  20
39.167553
  0
VERTEX
  5
20b
  8
Layer_0
  10
45.567606
  20
39.297434
  0
VERTEX
  5
20c
  8
Layer_0
  10
46.250324
  20
39.469693
  0
VERTEX
  5
20d
  8
Layer_0
  10
46.917642
  20
39.68534
  0
VERTEX
  5
20e
  8
Layer_0
  10
47.569456
  20
39.945383
  0
VERTEX
  5
20f
  8
Layer_0
  10
48.205659
  20
40.250831
  0
VERTEX
  5
210
  8
Layer_0
  10
48.826149
  20
40.602694
  0
VERTEX
  5
211
  8
Layer_0
  10
49.430819
  20
41.001981
  0
VERTEX
  5
212
  8
Layer_0
  10
50.026044
  20
41.450559
  0
VERTEX
  5
213
  8
Layer_0
  10
50.598849
  20
41.926828
  0
VERTEX
  5
214
  8
Layer_0
  10
51.150283
  20
42.428884
  0
VERTEX
  5
215
  8
Layer_0
  10
51.681393
  20
42.954819
  0
VERTEX
  5
216
  8
Layer_0
  10
52.193227
  20
43.502727
  0
VERTEX
  5
217
  8
Layer_0
  10
52.686832
  20
44.070704
  0
VERTEX
  5
218
  8
Layer_0
  10
53.163256
  20
44.656843
  0
VERTEX
  5
219
  8
Layer_0
  10
53.623547
  20
45.259237
  0
VERTEX
  5
21a
  8
Layer_0
  10
54.754701
  20
46.805183
  0
VERTEX
  5
21b
  8
Layer_0
  10
55.847301
  20
48.385212
  0
VERTEX
  5
21c
  8
Layer_0
  10
56.369191
  20
49.194173
  0
VERTEX
  5
21d
  8
Layer_0
  10
56.869501
  20
50.019054
  0
VERTEX
  5
21e
  8
Layer_0
  10
57.344248
  20
50.862321
  0
VERTEX
  5
21f
  8
Layer_0
  10
57.789451
  20
51.726442
  0
VERTEX
  5
220
  8
Layer_0
  10
57.962518
  20
52.011653
  0
VERTEX
  5
221
  8
Layer_0
  10
58.114632
  20
52.300453
  0
VERTEX
  5
222
  8
Layer_0
  10
58.218137
  20
52.603603
  0
VERTEX
  5
223
  8
Layer_0
  10
58.245375
  20
52.931867
  0
VERTEX
  5
224
  8
Layer_0
  10
58.245384
  20
52.93187
  0
SEQEND
  0
POLYLINE
  5
226
  8
Layer_0
  62
0
  66
1
  10
0
  20
0
  30
0
  0
VERTEX
  5
226
  8
Layer_0
  10
17.712741
  20
40.131401
  0
VERTEX
  5
227
  8
Layer_0
  10
17.659662
  20
40.083417
  0
VERTEX
  5
228
  8
Layer_0
  10
17.596525
  20
40.063237
  0
VERTEX
  5
229
  8
Layer_0
  10
17.526683
  20
40.062788
  0
VERTEX
  5
22a
  8
Layer_0
  10
17.453488
  20
40.073998
  0
VERTEX
  5
22b
  8
Layer_0
  10
16.921995
  20
40.200311
  0
VERTEX
  5
22c
  8
Layer_0
  10
16.39972
  20
40.359809
  0
VERTEX
  5
22d
  8
Layer_0
  10
15.885827
  20
40.546215
  0
VERTEX
  5
22e
  8
Layer_0
  10
15.379476
  20
40.753248
  42
-0.054027158
  0
VERTEX
  5
22f
  8
Layer_0
  10
11.660558
  20
42.829258
  42
-0.15900273
  0
VERTEX
  5
230
  8
Layer_0
  10
11.437065
  20
43.087563
  42
-0.088793874
  0
VERTEX
  5
231
  8
Layer_0
  10
11.052659
  20
43.336304
  42
-0.14238929
  0
VERTEX
  5
232
  8
Layer_0
  10
10.864924
  20
43.441536
  0
VERTEX
  5
233
  8
Layer_0
  10
9.8005223
  20
44.351418
  0
VERTEX
  5
234
  8
Layer_0
  10
8.7645111
  20
45.292577
  0
VERTEX
  5
235
  8
Layer_0
  10
7.7542714
  20
46.262213
  0
VERTEX
  5
236
  8
Layer_0
  10
6.7671842
  20
47.257522
  0
VERTEX
  5
237
  8
Layer_0
  10
4.851991
  20
49.31395
  0
VERTEX
  5
238
  8
Layer_0
  10
2.9979793
  20
51.43944
  0
VERTEX
  5
239
  8
Layer_0
  10
2.9232487
  20
51.52898
  0
VERTEX
  5
23a
  8
Layer_0
  10
2.8560612
  20
51.631973
  0
VERTEX
  5
23b
  8
Layer_0
  10
2.8106643
  20
51.758286
  0
VERTEX
  5
23c
  8
Layer_0
  10
2.8013055
  20
51.917782
  42
-0.0019496725
  0
VERTEX
  5
23d
  8
Layer_0
  10
4.8484993
  20
51.2481
  0
VERTEX
  5
23e
  8
Layer_0
  10
6.0088457
  20
50.850479
  0
VERTEX
  5
23f
  8
Layer_0
  10
7.1717063
  20
50.456444
  0
VERTEX
  5
240
  8
Layer_0
  10
8.3395956
  20
50.080346
  0
VERTEX
  5
241
  8
Layer_0
  10
9.5150276
  20
49.736537
  0
VERTEX
  5
242
  8
Layer_0
  10
10.105118
  20
49.587895
  0
VERTEX
  5
243
  8
Layer_0
  10
10.695628
  20
49.465824
  0
VERTEX
  5
244
  8
Layer_0
  10
11.286976
  20
49.371781
  0
VERTEX
  5
245
  8
Layer_0
  10
11.87958
  20
49.307224
  0
VERTEX
  5
246
  8
Layer_0
  10
12.473862
  20
49.273609
  0
VERTEX
  5
247
  8
Layer_0
  10
13.070238
  20
49.272394
  0
VERTEX
  5
248
  8
Layer_0
  10
13.669129
  20
49.305037
  0
VERTEX
  5
249
  8
Layer_0
  10
14.270953
  20
49.372996
  0
VERTEX
  5
24a
  8
Layer_0
  10
14.509305
  20
49.391606
  0
VERTEX
  5
24b
  8
Layer_0
  10
14.709418
  20
49.37479
  0
VERTEX
  5
24c
  8
Layer_0
  10
14.873284
  20
49.3212
  0
VERTEX
  5
24d
  8
Layer_0
  10
15.002892
  20
49.229493
  0
VERTEX
  5
24e
  8
Layer_0
  10
15.100234
  20
49.098322
  0
VERTEX
  5
24f
  8
Layer_0
  10
15.167299
  20
48.926343
  0
VERTEX
  5
250
  8
Layer_0
  10
15.206078
  20
48.712209
  0
VERTEX
  5
251
  8
Layer_0
  10
15.218563
  20
48.454576
  0
VERTEX
  5
252
  8
Layer_0
  10
15.228341
  20
47.316269
  0
VERTEX
  5
253
  8
Layer_0
  10
15.30349
  20
46.186033
  0
VERTEX
  5
254
  8
Layer_0
  10
15.374484
  20
45.625343
  0
VERTEX
  5
255
  8
Layer_0
  10
15.472507
  20
45.068353
  0
VERTEX
  5
256
  8
Layer_0
  10
15.60112
  20
44.515624
  0
VERTEX
  5
257
  8
Layer_0
  10
15.763886
  20
43.967715
  42
0.076432975
  0
VERTEX
  5
258
  8
Layer_0
  10
17.381971
  20
40.839352
  42
-0.018044957
  0
VERTEX
  5
259
  8
Layer_0
  10
17.668045
  20
40.399273
  0
VERTEX
  5
25a
  8
Layer_0
  10
17.7052
  20
40.339928
  0
VERTEX
  5
25b
  8
Layer_0
  10
17.737327
  20
40.276099
  0
VERTEX
  5
25c
  8
Layer_0
  10
17.745987
  20
40.206889
  0
VERTEX
  5
25d
  8
Layer_0
  10
17.712743
  20
40.131401
  0
VERTEX
  5
25e
  8
Layer_0
  10
17.712742
  20
40.131401
  0
SEQEND
  0
POLYLINE
  5
260
  8
Layer_0
  62
0
  66
1
  10
0
  20
0
  30
0
  0
VERTEX
  5
260
  8
Layer_0
  10
16.586337
  20
31.894327
  0
VERTEX
  5
261
  8
Layer_0
  10
16.825894
  20
31.888346
  0
VERTEX
  5
262
  8
Layer_0
  10
17.061259
  20
31.846491
  0
VERTEX
  5
263
  8
Layer_0
  10
17.291596
  20
31.775936
  0
VERTEX
  5
264
  8
Layer_0
  10
17.516066
  20
31.683855
  0
VERTEX
  5
265
  8
Layer_0
  10
17.850816
  20
31.51393
  0
VERTEX
  5
266
  8
Layer_0
  10
18.145756
  20
31.307457
  0
VERTEX
  5
267
  8
Layer_0
  10
18.402983
  20
31.067351
  0
VERTEX
  5
268
  8
Layer_0
  10
18.624589
  20
30.796526
  0
VERTEX
  5
269
  8
Layer_0
  10
18.812673
  20
30.497898
  0
VERTEX
  5
26a
  8
Layer_0
  10
18.969327
  20
30.174382
  0
VERTEX
  5
26b
  8
Layer_0
  10
19.096648
  20
29.828891
  0
VERTEX
  5
26c
  8
Layer_0
  10
19.196732
  20
29.464342
  0
VERTEX
  5
26d
  8
Layer_0
  10
19.24398
  20
29.169619
  0
VERTEX
  5
26e
  8
Layer_0
  10
19.252885
  20
28.880613
  0
VERTEX
  5
26f
  8
Layer_0
  10
19.225333
  20
28.596765
  0
VERTEX
  5
270
  8
Layer_0
  10
19.163209
  20
28.317514
  0
VERTEX
  5
271
  8
Layer_0
  10
19.068399
  20
28.042298
  0
VERTEX
  5
272
  8
Layer_0
  10
18.942789
  20
27.770558
  0
VERTEX
  5
273
  8
Layer_0
  10
18.788265
  20
27.501733
  0
VERTEX
  5
274
  8
Layer_0
  10
18.606713
  20
27.235262
  42
0.044487198
  0
VERTEX
  5
275
  8
Layer_0
  10
17.757441
  20
29.426075
  0
VERTEX
  5
276
  8
Layer_0
  10
17.63265
  20
29.64615
  0
VERTEX
  5
277
  8
Layer_0
  10
17.493299
  20
29.841336
  0
VERTEX
  5
278
  8
Layer_0
  10
17.33991
  20
30.013652
  0
VERTEX
  5
279
  8
Layer_0
  10
17.173006
  20
30.165116
  0
VERTEX
  5
27a
  8
Layer_0
  10
16.800751
  20
30.413555
  0
VERTEX
  5
27b
  8
Layer_0
  10
16.380724
  20
30.602799
  0
VERTEX
  5
27c
  8
Layer_0
  10
16.202908
  20
30.656911
  0
VERTEX
  5
27d
  8
Layer_0
  10
16.030959
  20
30.719993
  0
VERTEX
  5
27e
  8
Layer_0
  10
15.959494
  20
30.768911
  0
VERTEX
  5
27f
  8
Layer_0
  10
15.904266
  20
30.836888
  0
VERTEX
  5
280
  8
Layer_0
  10
15.870201
  20
30.92953
  0
VERTEX
  5
281
  8
Layer_0
  10
15.862221
  20
31.052443
  0
VERTEX
  5
282
  8
Layer_0
  10
15.884169
  20
31.189855
  0
VERTEX
  5
283
  8
Layer_0
  10
15.938907
  20
31.331975
  0
VERTEX
  5
284
  8
Layer_0
  10
16.019836
  20
31.471854
  0
VERTEX
  5
285
  8
Layer_0
  10
16.120355
  20
31.602539
  0
VERTEX
  5
286
  8
Layer_0
  10
16.233865
  20
31.71708
  0
VERTEX
  5
287
  8
Layer_0
  10
16.353766
  20
31.808526
  0
VERTEX
  5
288
  8
Layer_0
  10
16.473457
  20
31.869926
  0
VERTEX
  5
289
  8
Layer_0
  10
16.586338
  20
31.894329
  0
VERTEX
  5
28a
  8
Layer_0
  10
16.586338
  20
31.894325
  0
SEQEND
  0
POLYLINE
  5
28c
  8
Layer_0
  62
0
  66
1
  10
0
  20
0
  30
0
  0
VERTEX
  5
28c
  8
Layer_0
  10
18.123967
  20
27.043924
  0
VERTEX
  5
28d
  8
Layer_0
  10
18.10614
  20
26.793597
  0
VERTEX
  5
28e
  8
Layer_0
  10
18.055103
  20
26.562441
  0
VERTEX
  5
28f
  8
Layer_0
  10
17.974524
  20
26.355277
  0
VERTEX
  5
290
  8
Layer_0
  10
17.868068
  20
26.176925
  0
VERTEX
  5
291
  8
Layer_0
  10
17.739402
  20
26.032208
  0
VERTEX
  5
292
  8
Layer_0
  10
17.592194
  20
25.925945
  0
VERTEX
  5
293
  8
Layer_0
  10
17.430109
  20
25.862957
  0
VERTEX
  5
294
  8
Layer_0
  10
17.256815
  20
25.848065
  0
VERTEX
  5
295
  8
Layer_0
  10
17.082264
  20
25.884743
  0
VERTEX
  5
296
  8
Layer_0
  10
16.923113
  20
25.969294
  0
VERTEX
  5
297
  8
Layer_0
  10
16.783029
  20
26.095774
  0
VERTEX
  5
298
  8
Layer_0
  10
16.665677
  20
26.258243
  0
VERTEX
  5
299
  8
Layer_0
  10
16.574726
  20
26.450758
  0
VERTEX
  5
29a
  8
Layer_0
  10
16.513842
  20
26.667377
  0
VERTEX
  5
29b
  8
Layer_0
  10
16.486691
  20
26.902158
  0
VERTEX
  5
29c
  8
Layer_0
  10
16.49694
  20
27.149159
  42
-0.020889602
  0
VERTEX
  5
29d
  8
Layer_0
  10
16.52376
  20
27.455299
  0
VERTEX
  5
29e
  8
Layer_0
  10
16.627963
  20
27.736176
  0
VERTEX
  5
29f
  8
Layer_0
  10
16.80089
  20
27.973105
  0
VERTEX
  5
2a0
  8
Layer_0
  10
17.014046
  20
28.140077
  0
VERTEX
  5
2a1
  8
Layer_0
  10
17.238936
  20
28.211083
  0
VERTEX
  5
2a2
  8
Layer_0
  10
17.467737
  20
28.165789
  0
VERTEX
  5
2a3
  8
Layer_0
  10
17.701566
  20
28.02094
  0
VERTEX
  5
2a4
  8
Layer_0
  10
17.905224
  20
27.806134
  0
VERTEX
  5
2a5
  8
Layer_0
  10
18.04351
  20
27.550967
  0
VERTEX
  5
2a6
  8
Layer_0
  10
18.110557
  20
27.301032
  0
VERTEX
  5
2a7
  8
Layer_0
  10
18.123967
  20
27.043924
  0
SEQEND
  0
POLYLINE
  5
2a9
  8
Layer_0
  62
0
  66
1
  10
0
  20
0
  30
0
  0
VERTEX
  5
2a9
  8
Layer_0
  10
15.629787
  20
30.191425
  42
-0.41057085
  0
VERTEX
  5
2aa
  8
Layer_0
  10
16.604216
  20
30.028786
  0
VERTEX
  5
2ab
  8
Layer_0
  10
16.743201
  20
29.806059
  0
VERTEX
  5
2ac
  8
Layer_0
  10
16.844471
  20
29.567186
  0
VERTEX
  5
2ad
  8
Layer_0
  10
16.897132
  20
29.310376
  0
VERTEX
  5
2ae
  8
Layer_0
  10
16.890288
  20
29.033833
  42
-0.11815826
  0
VERTEX
  5
2af
  8
Layer_0
  10
16.747252
  20
28.268486
  42
-0.29127037
  0
VERTEX
  5
2b0
  8
Layer_0
  10
15.942677
  20
27.771008
  0
VERTEX
  5
2b1
  8
Layer_0
  10
15.722817
  20
27.807929
  0
VERTEX
  5
2b2
  8
Layer_0
  10
15.551565
  20
27.908531
  0
VERTEX
  5
2b3
  8
Layer_0
  10
15.41719
  20
28.057565
  0
VERTEX
  5
2b4
  8
Layer_0
  10
15.307958
  20
28.239784
  0
VERTEX
  5
2b5
  8
Layer_0
  10
15.192353
  20
28.492371
  0
VERTEX
  5
2b6
  8
Layer_0
  10
15.125672
  20
28.762673
  0
VERTEX
  5
2b7
  8
Layer_0
  10
15.105715
  20
29.040597
  0
VERTEX
  5
2b8
  8
Layer_0
  10
15.130282
  20
29.316056
  0
VERTEX
  5
2b9
  8
Layer_0
  10
15.197172
  20
29.578958
  0
VERTEX
  5
2ba
  8
Layer_0
  10
15.304187
  20
29.819214
  0
VERTEX
  5
2bb
  8
Layer_0
  10
15.449126
  20
30.026732
  0
VERTEX
  5
2bc
  8
Layer_0
  10
15.629788
  20
30.191424
  0
VERTEX
  5
2bd
  8
Layer_0
  10
15.629787
  20
30.191425
  0
SEQEND
  0
POLYLINE
  5
2bf
  8
Layer_0
  62
0
  66
1
  10
0
  20
0
  30
0
  0
VERTEX
  5
2bf
  8
Layer_0
  10
30.523346
  20
17.075249
  42
-0.037366401
  0
VERTEX
  5
2c0
  8
Layer_0
  10
29.915447
  20
14.922703
  0
VERTEX
  5
2c1
  8
Layer_0
  10
29.771571
  20
14.617011
  0
VERTEX
  5
2c2
  8
Layer_0
  10
29.569031
  20
14.378587
  0
VERTEX
  5
2c3
  8
Layer_0
  10
29.439999
  20
14.293289
  0
VERTEX
  5
2c4
  8
Layer_0
  10
29.289386
  20
14.235234
  0
VERTEX
  5
2c5
  8
Layer_0
  10
29.114888
  20
14.207898
  0
VERTEX
  5
2c6
  8
Layer_0
  10
28.914199
  20
14.214755
  0
VERTEX
  5
2c7
  8
Layer_0
  10
27.912602
  20
14.298933
  0
VERTEX
  5
2c8
  8
Layer_0
  10
26.912262
  20
14.335686
  0
VERTEX
  5
2c9
  8
Layer_0
  10
25.91276
  20
14.334994
  0
VERTEX
  5
2ca
  8
Layer_0
  10
24.913678
  20
14.306834
  0
VERTEX
  5
2cb
  8
Layer_0
  10
22.915094
  20
14.208026
  0
VERTEX
  5
2cc
  8
Layer_0
  10
20.913159
  20
14.119085
  0
VERTEX
  5
2cd
  8
Layer_0
  10
20.433209
  20
14.083209
  0
VERTEX
  5
2ce
  8
Layer_0
  10
19.956611
  20
14.025808
  0
VERTEX
  5
2cf
  8
Layer_0
  10
19.480012
  20
13.979169
  0
VERTEX
  5
2d0
  8
Layer_0
  10
19.000061
  20
13.97558
  42
-0.0073886271
  0
VERTEX
  5
2d1
  8
Layer_0
  10
17.078024
  20
14.109512
  0
VERTEX
  5
2d2
  8
Layer_0
  10
16.641847
  20
14.168541
  0
VERTEX
  5
2d3
  8
Layer_0
  10
16.233642
  20
14.26961
  0
VERTEX
  5
2d4
  8
Layer_0
  10
15.856236
  20
14.417093
  0
VERTEX
  5
2d5
  8
Layer_0
  10
15.512458
  20
14.615363
  0
VERTEX
  5
2d6
  8
Layer_0
  10
15.205138
  20
14.868792
  0
VERTEX
  5
2d7
  8
Layer_0
  10
14.937104
  20
15.181752
  0
VERTEX
  5
2d8
  8
Layer_0
  10
14.711184
  20
15.558616
  0
VERTEX
  5
2d9
  8
Layer_0
  10
14.530207
  20
16.003756
  42
-0.063127094
  0
VERTEX
  5
2da
  8
Layer_0
  10
14.208376
  20
17.601421
  0
VERTEX
  5
2db
  8
Layer_0
  10
14.155577
  20
18.768132
  0
VERTEX
  5
2dc
  8
Layer_0
  10
14.181558
  20
19.924976
  0
VERTEX
  5
2dd
  8
Layer_0
  10
14.241377
  20
20.497736
  0
VERTEX
  5
2de
  8
Layer_0
  10
14.341634
  20
21.065675
  0
VERTEX
  5
2df
  8
Layer_0
  10
14.489244
  20
21.628009
  0
VERTEX
  5
2e0
  8
Layer_0
  10
14.691121
  20
22.183952
  42
-0.010101369
  0
VERTEX
  5
2e1
  8
Layer_0
  10
15.057648
  20
23.006702
  0
VERTEX
  5
2e2
  8
Layer_0
  10
15.137827
  20
23.131522
  0
VERTEX
  5
2e3
  8
Layer_0
  10
15.229738
  20
23.187278
  0
VERTEX
  5
2e4
  8
Layer_0
  10
15.331707
  20
23.169489
  0
VERTEX
  5
2e5
  8
Layer_0
  10
15.442057
  20
23.073672
  42
-0.0072770535
  0
VERTEX
  5
2e6
  8
Layer_0
  10
16.327089
  20
22.069153
  0
VERTEX
  5
2e7
  8
Layer_0
  10
16.649337
  20
21.731321
  0
VERTEX
  5
2e8
  8
Layer_0
  10
17.007623
  20
21.454481
  0
VERTEX
  5
2e9
  8
Layer_0
  10
17.394405
  20
21.224279
  0
VERTEX
  5
2ea
  8
Layer_0
  10
17.802139
  20
21.026366
  0
VERTEX
  5
2eb
  8
Layer_0
  10
17.877289
  20
20.995121
  0
VERTEX
  5
2ec
  8
Layer_0
  10
17.96082
  20
20.970157
  0
VERTEX
  5
2ed
  8
Layer_0
  10
18.040997
  20
20.968514
  0
VERTEX
  5
2ee
  8
Layer_0
  10
18.106088
  20
21.007232
  0
VERTEX
  5
2ef
  8
Layer_0
  10
18.138216
  20
21.092286
  0
VERTEX
  5
2f0
  8
Layer_0
  10
18.108325
  20
21.163887
  0
VERTEX
  5
2f1
  8
Layer_0
  10
18.048261
  20
21.226521
  0
VERTEX
  5
2f2
  8
Layer_0
  10
17.989874
  20
21.284671
  0
VERTEX
  5
2f3
  8
Layer_0
  10
17.1853
  20
22.260489
  0
VERTEX
  5
2f4
  8
Layer_0
  10
16.380727
  20
23.236311
  0
VERTEX
  5
2f5
  8
Layer_0
  10
16.116185
  20
23.613267
  0
VERTEX
  5
2f6
  8
Layer_0
  10
15.902033
  20
24.00435
  0
VERTEX
  5
2f7
  8
Layer_0
  10
15.73251
  20
24.408437
  0
VERTEX
  5
2f8
  8
Layer_0
  10
15.601854
  20
24.824409
  0
VERTEX
  5
2f9
  8
Layer_0
  10
15.434094
  20
25.687519
  0
VERTEX
  5
2fa
  8
Layer_0
  10
15.352659
  20
26.584712
  0
VERTEX
  5
2fb
  8
Layer_0
  10
15.361319
  20
26.705643
  0
VERTEX
  5
2fc
  8
Layer_0
  10
15.401827
  20
26.805946
  0
VERTEX
  5
2fd
  8
Layer_0
  10
15.475859
  20
26.879343
  0
VERTEX
  5
2fe
  8
Layer_0
  10
15.585091
  20
26.919555
  0
VERTEX
  5
2ff
  8
Layer_0
  10
15.714158
  20
26.914921
  0
VERTEX
  5
300
  8
Layer_0
  10
15.799644
  20
26.853783
  0
VERTEX
  5
301
  8
Layer_0
  10
15.851606
  20
26.751388
  0
VERTEX
  5
302
  8
Layer_0
  10
15.880101
  20
26.622982
  0
VERTEX
  5
303
  8
Layer_0
  10
15.935415
  20
26.369012
  0
VERTEX
  5
304
  8
Layer_0
  10
16.027606
  20
26.133876
  0
VERTEX
  5
305
  8
Layer_0
  10
16.146616
  20
25.911296
  0
VERTEX
  5
306
  8
Layer_0
  10
16.282388
  20
25.694995
  0
VERTEX
  5
307
  8
Layer_0
  10
16.386347
  20
25.559676
  0
VERTEX
  5
308
  8
Layer_0
  10
16.497221
  20
25.45373
  0
VERTEX
  5
309
  8
Layer_0
  10
16.615218
  20
25.37514
  0
VERTEX
  5
30a
  8
Layer_0
  10
16.740548
  20
25.321887
  0
VERTEX
  5
30b
  8
Layer_0
  10
17.014048
  20
25.28332
  0
VERTEX
  5
30c
  8
Layer_0
  10
17.319394
  20
25.321888
  0
VERTEX
  5
30d
  8
Layer_0
  10
17.788589
  20
25.478246
  0
VERTEX
  5
30e
  8
Layer_0
  10
18.210013
  20
25.711738
  0
VERTEX
  5
30f
  8
Layer_0
  10
18.592884
  20
26.013393
  0
VERTEX
  5
310
  8
Layer_0
  10
18.946421
  20
26.374244
  42
0.038673805
  0
VERTEX
  5
311
  8
Layer_0
  10
19.813572
  20
27.589237
  0
VERTEX
  5
312
  8
Layer_0
  10
20.018767
  20
28.004049
  0
VERTEX
  5
313
  8
Layer_0
  10
20.12758
  20
28.432315
  0
VERTEX
  5
314
  8
Layer_0
  10
20.144202
  20
28.876726
  0
VERTEX
  5
315
  8
Layer_0
  10
20.072824
  20
29.339971
  0
VERTEX
  5
316
  8
Layer_0
  10
19.868049
  20
30.141646
  0
VERTEX
  5
317
  8
Layer_0
  10
19.601255
  20
30.910135
  0
VERTEX
  5
318
  8
Layer_0
  10
19.431505
  20
31.274928
  0
VERTEX
  5
319
  8
Layer_0
  10
19.230535
  20
31.623016
  0
VERTEX
  5
31a
  8
Layer_0
  10
18.993109
  20
31.951598
  0
VERTEX
  5
31b
  8
Layer_0
  10
18.713986
  20
32.257869
  0
VERTEX
  5
31c
  8
Layer_0
  10
18.518431
  20
32.415872
  0
VERTEX
  5
31d
  8
Layer_0
  10
18.309465
  20
32.538895
  0
VERTEX
  5
31e
  8
Layer_0
  10
18.090443
  20
32.638599
  0
VERTEX
  5
31f
  8
Layer_0
  10
17.864715
  20
32.726644
  0
VERTEX
  5
320
  8
Layer_0
  10
17.694603
  20
32.809516
  0
VERTEX
  5
321
  8
Layer_0
  10
17.536774
  20
32.916506
  0
VERTEX
  5
322
  8
Layer_0
  10
17.391988
  20
33.045049
  0
VERTEX
  5
323
  8
Layer_0
  10
17.261005
  20
33.192581
  0
VERTEX
  5
324
  8
Layer_0
  10
17.043484
  20
33.534354
  0
VERTEX
  5
325
  8
Layer_0
  10
16.890286
  20
33.921308
  0
VERTEX
  5
326
  8
Layer_0
  10
16.80749
  20
34.332926
  0
VERTEX
  5
327
  8
Layer_0
  10
16.801169
  20
34.748693
  0
VERTEX
  5
328
  8
Layer_0
  10
16.877401
  20
35.148091
  0
VERTEX
  5
329
  8
Layer_0
  10
17.042262
  20
35.510604
  42
-0.59590671
  0
VERTEX
  5
32a
  8
Layer_0
  10
18.463675
  20
35.414932
  42
0.016911567
  0
VERTEX
  5
32b
  8
Layer_0
  10
19.277189
  20
33.807701
  0
VERTEX
  5
32c
  8
Layer_0
  10
19.680122
  20
33.1633
  0
VERTEX
  5
32d
  8
Layer_0
  10
20.130512
  20
32.606011
  0
VERTEX
  5
32e
  8
Layer_0
  10
20.627208
  20
32.133254
  0
VERTEX
  5
32f
  8
Layer_0
  10
21.169055
  20
31.742451
  0
VERTEX
  5
330
  8
Layer_0
  10
21.754903
  20
31.431024
  0
VERTEX
  5
331
  8
Layer_0
  10
22.383598
  20
31.196392
  0
VERTEX
  5
332
  8
Layer_0
  10
23.053989
  20
31.035979
  0
VERTEX
  5
333
  8
Layer_0
  10
23.764922
  20
30.947205
  42
0.075481908
  0
VERTEX
  5
334
  8
Layer_0
  10
29.799229
  20
31.415981
  0
VERTEX
  5
335
  8
Layer_0
  10
29.941128
  20
31.444179
  0
VERTEX
  5
336
  8
Layer_0
  10
30.054428
  20
31.454998
  0
VERTEX
  5
337
  8
Layer_0
  10
30.143213
  20
31.445413
  0
VERTEX
  5
338
  8
Layer_0
  10
30.211571
  20
31.412396
  0
VERTEX
  5
339
  8
Layer_0
  10
30.263585
  20
31.35292
  0
VERTEX
  5
33a
  8
Layer_0
  10
30.303342
  20
31.26396
  0
VERTEX
  5
33b
  8
Layer_0
  10
30.334928
  20
31.142486
  0
VERTEX
  5
33c
  8
Layer_0
  10
30.362428
  20
30.985473
  0
VERTEX
  5
33d
  8
Layer_0
  10
30.55058
  20
29.613226
  0
VERTEX
  5
33e
  8
Layer_0
  10
30.694314
  20
28.23739
  0
VERTEX
  5
33f
  8
Layer_0
  10
30.806199
  20
26.857967
  0
VERTEX
  5
340
  8
Layer_0
  10
30.898809
  20
25.474958
  42
-0.012678862
  0
VERTEX
  5
341
  8
Layer_0
  10
30.970329
  20
22.834499
  0
VERTEX
  5
342
  8
Layer_0
  10
30.947002
  20
21.395134
  0
VERTEX
  5
343
  8
Layer_0
  10
30.890989
  20
19.951286
  0
VERTEX
  5
344
  8
Layer_0
  10
30.838416
  20
19.229642
  0
VERTEX
  5
345
  8
Layer_0
  10
30.762899
  20
18.509232
  0
VERTEX
  5
346
  8
Layer_0
  10
30.659516
  20
17.790839
  0
VERTEX
  5
347
  8
Layer_0
  10
30.523342
  20
17.075249
  0
VERTEX
  5
348
  8
Layer_0
  10
30.523346
  20
17.075249
  0
SEQEND
  0
POLYLINE
  5
34a
  8
Layer_0
  62
0
  66
1
  10
0
  20
0
  30
0
  0
VERTEX
  5
34a
  8
Layer_0
  10
18.588831
  20
38.208461
  0
VERTEX
  5
34b
  8
Layer_0
  10
18.59358
  20
38.290975
  0
VERTEX
  5
34c
  8
Layer_0
  10
18.613415
  20
38.373489
  0
VERTEX
  5
34d
  8
Layer_0
  10
18.656716
  20
38.44524
  0
VERTEX
  5
34e
  8
Layer_0
  10
18.731866
  20
38.495465
  0
VERTEX
  5
34f
  8
Layer_0
  10
18.826851
  20
38.506227
  0
VERTEX
  5
350
  8
Layer_0
  10
18.901722
  20
38.466764
  0
VERTEX
  5
351
  8
Layer_0
  10
18.963182
  20
38.398601
  0
VERTEX
  5
352
  8
Layer_0
  10
19.017938
  20
38.323263
  0
VERTEX
  5
353
  8
Layer_0
  10
19.335995
  20
37.923099
  0
VERTEX
  5
354
  8
Layer_0
  10
19.664948
  20
37.5328
  0
VERTEX
  5
355
  8
Layer_0
  10
20.01234
  20
37.162233
  0
VERTEX
  5
356
  8
Layer_0
  10
20.385713
  20
36.821263
  0
VERTEX
  5
357
  8
Layer_0
  10
20.691304
  20
36.585623
  0
VERTEX
  5
358
  8
Layer_0
  10
21.010096
  20
36.378347
  0
VERTEX
  5
359
  8
Layer_0
  10
21.340201
  20
36.195512
  0
VERTEX
  5
35a
  8
Layer_0
  10
21.679736
  20
36.033193
  0
VERTEX
  5
35b
  8
Layer_0
  10
22.379547
  20
35.754408
  0
VERTEX
  5
35c
  8
Layer_0
  10
23.094443
  20
35.510602
  0
VERTEX
  5
35d
  8
Layer_0
  10
23.662236
  20
35.349834
  0
VERTEX
  5
35e
  8
Layer_0
  10
24.232439
  20
35.230772
  0
VERTEX
  5
35f
  8
Layer_0
  10
24.804947
  20
35.149379
  0
VERTEX
  5
360
  8
Layer_0
  10
25.379655
  20
35.101619
  0
VERTEX
  5
361
  8
Layer_0
  10
26.535253
  20
35.090856
  0
VERTEX
  5
362
  8
Layer_0
  10
27.698394
  20
35.166193
  42
0.023810461
  0
VERTEX
  5
363
  8
Layer_0
  10
30.103176
  20
35.520168
  0
VERTEX
  5
364
  8
Layer_0
  10
30.245653
  20
35.528092
  0
VERTEX
  5
365
  8
Layer_0
  10
30.344548
  20
35.490272
  0
VERTEX
  5
366
  8
Layer_0
  10
30.40992
  20
35.400433
  0
VERTEX
  5
367
  8
Layer_0
  10
30.451825
  20
35.252297
  0
VERTEX
  5
368
  8
Layer_0
  10
30.496941
  20
34.90804
  0
VERTEX
  5
369
  8
Layer_0
  10
30.517754
  20
34.564679
  0
VERTEX
  5
36a
  8
Layer_0
  10
30.523482
  20
34.223111
  0
VERTEX
  5
36b
  8
Layer_0
  10
30.523342
  20
33.884236
  0
VERTEX
  5
36c
  8
Layer_0
  10
30.523342
  20
33.731167
  0
VERTEX
  5
36d
  8
Layer_0
  10
30.520204
  20
33.452051
  0
VERTEX
  5
36e
  8
Layer_0
  10
30.516253
  20
33.214909
  0
VERTEX
  5
36f
  8
Layer_0
  10
30.509631
  20
33.015969
  0
VERTEX
  5
370
  8
Layer_0
  10
30.498479
  20
32.851461
  0
VERTEX
  5
371
  8
Layer_0
  10
30.480935
  20
32.717616
  0
VERTEX
  5
372
  8
Layer_0
  10
30.455142
  20
32.610664
  0
VERTEX
  5
373
  8
Layer_0
  10
30.419239
  20
32.526834
  0
VERTEX
  5
374
  8
Layer_0
  10
30.371367
  20
32.462358
  0
VERTEX
  5
375
  8
Layer_0
  10
30.232278
  20
32.376387
  0
VERTEX
  5
376
  8
Layer_0
  10
30.022998
  20
32.322593
  0
VERTEX
  5
377
  8
Layer_0
  10
29.887388
  20
32.298337
  0
VERTEX
  5
378
  8
Layer_0
  10
29.728651
  20
32.270816
  0
VERTEX
  5
379
  8
Layer_0
  10
29.544929
  20
32.23626
  0
VERTEX
  5
37a
  8
Layer_0
  10
29.334361
  20
32.1909
  42
-0.11594633
  0
VERTEX
  5
37b
  8
Layer_0
  10
24.131449
  20
32.238735
  0
VERTEX
  5
37c
  8
Layer_0
  10
23.24572
  20
32.494201
  0
VERTEX
  5
37d
  8
Layer_0
  10
22.389324
  20
32.833078
  0
VERTEX
  5
37e
  8
Layer_0
  10
21.973959
  20
33.035197
  0
VERTEX
  5
37f
  8
Layer_0
  10
21.568128
  20
33.25985
  0
VERTEX
  5
380
  8
Layer_0
  10
21.172563
  20
33.507599
  0
VERTEX
  5
381
  8
Layer_0
  10
20.787999
  20
33.779003
  0
VERTEX
  5
382
  8
Layer_0
  10
20.36448
  20
34.115189
  0
VERTEX
  5
383
  8
Layer_0
  10
19.96778
  20
34.480972
  0
VERTEX
  5
384
  8
Layer_0
  10
19.601253
  20
34.880837
  0
VERTEX
  5
385
  8
Layer_0
  10
19.268249
  20
35.319268
  0
VERTEX
  5
386
  8
Layer_0
  10
19.069655
  20
35.643141
  0
VERTEX
  5
387
  8
Layer_0
  10
18.913175
  20
35.981925
  0
VERTEX
  5
388
  8
Layer_0
  10
18.79399
  20
36.333488
  0
VERTEX
  5
389
  8
Layer_0
  10
18.707282
  20
36.695703
  0
VERTEX
  5
38a
  8
Layer_0
  10
18.612018
  20
37.443563
  0
VERTEX
  5
38b
  8
Layer_0
  10
18.588831
  20
38.208464
  0
VERTEX
  5
38c
  8
Layer_0
  10
18.588831
  20
38.208462
  0
SEQEND
  0
POLYLINE
  5
38e
  8
Layer_0
  62
0
  66
1
  10
0
  20
0
  30
0
  0
VERTEX
  5
38e
  8
Layer_0
  10
43.736233
  20
28.278049
  42
-0.13563129
  0
VERTEX
  5
38f
  8
Layer_0
  10
43.995491
  20
27.254395
  0
VERTEX
  5
390
  8
Layer_0
  10
43.984873
  20
26.946311
  0
VERTEX
  5
391
  8
Layer_0
  10
43.92397
  20
26.655268
  0
VERTEX
  5
392
  8
Layer_0
  10
43.809428
  20
26.383958
  0
VERTEX
  5
393
  8
Layer_0
  10
43.637897
  20
26.135071
  0
VERTEX
  5
394
  8
Layer_0
  10
43.50066
  20
26.004498
  0
VERTEX
  5
395
  8
Layer_0
  10
43.352946
  20
25.913837
  0
VERTEX
  5
396
  8
Layer_0
  10
43.198526
  20
25.86264
  0
VERTEX
  5
397
  8
Layer_0
  10
43.041173
  20
25.850457
  0
VERTEX
  5
398
  8
Layer_0
  10
42.884658
  20
25.876841
  0
VERTEX
  5
399
  8
Layer_0
  10
42.732753
  20
25.941342
  0
VERTEX
  5
39a
  8
Layer_0
  10
42.589229
  20
26.043514
  0
VERTEX
  5
39b
  8
Layer_0
  10
42.457859
  20
26.182906
  0
VERTEX
  5
39c
  8
Layer_0
  10
42.30906
  20
26.423498
  0
VERTEX
  5
39d
  8
Layer_0
  10
42.204472
  20
26.699517
  0
VERTEX
  5
39e
  8
Layer_0
  10
42.143884
  20
26.998855
  0
VERTEX
  5
39f
  8
Layer_0
  10
42.127086
  20
27.309405
  0
VERTEX
  5
3a0
  8
Layer_0
  10
42.153871
  20
27.619058
  0
VERTEX
  5
3a1
  8
Layer_0
  10
42.224027
  20
27.915706
  0
VERTEX
  5
3a2
  8
Layer_0
  10
42.337346
  20
28.187241
  0
VERTEX
  5
3a3
  8
Layer_0
  10
42.493617
  20
28.421555
  0
VERTEX
  5
3a4
  8
Layer_0
  10
42.635378
  20
28.556649
  0
VERTEX
  5
3a5
  8
Layer_0
  10
42.794633
  20
28.646674
  0
VERTEX
  5
3a6
  8
Layer_0
  10
42.964575
  20
28.692303
  0
VERTEX
  5
3a7
  8
Layer_0
  10
43.138392
  20
28.694209
  0
VERTEX
  5
3a8
  8
Layer_0
  10
43.309276
  20
28.653065
  0
VERTEX
  5
3a9
  8
Layer_0
  10
43.470418
  20
28.569542
  0
VERTEX
  5
3aa
  8
Layer_0
  10
43.615007
  20
28.444313
  0
VERTEX
  5
3ab
  8
Layer_0
  10
43.736234
  20
28.278052
  0
VERTEX
  5
3ac
  8
Layer_0
  10
43.736233
  20
28.278049
  0
SEQEND
  0
POLYLINE
  5
3ae
  8
Layer_0
  62
0
  66
1
  10
0
  20
0
  30
0
  0
VERTEX
  5
3ae
  8
Layer_0
  10
42.27012
  20
25.733263
  0
VERTEX
  5
3af
  8
Layer_0
  10
42.253082
  20
25.480786
  0
VERTEX
  5
3b0
  8
Layer_0
  10
42.207546
  20
25.241764
  0
VERTEX
  5
3b1
  8
Layer_0
  10
42.12178
  20
25.018885
  0
VERTEX
  5
3b2
  8
Layer_0
  10
41.98405
  20
24.814842
  0
VERTEX
  5
3b3
  8
Layer_0
  10
41.864099
  20
24.696022
  0
VERTEX
  5
3b4
  8
Layer_0
  10
41.740166
  20
24.612293
  0
VERTEX
  5
3b5
  8
Layer_0
  10
41.614138
  20
24.563767
  0
VERTEX
  5
3b6
  8
Layer_0
  10
41.487899
  20
24.550556
  0
VERTEX
  5
3b7
  8
Layer_0
  10
41.363336
  20
24.572773
  0
VERTEX
  5
3b8
  8
Layer_0
  10
41.242334
  20
24.630529
  0
VERTEX
  5
3b9
  8
Layer_0
  10
41.12678
  20
24.723937
  0
VERTEX
  5
3ba
  8
Layer_0
  10
41.018559
  20
24.853108
  0
VERTEX
  5
3bb
  8
Layer_0
  10
40.907878
  20
25.048089
  0
VERTEX
  5
3bc
  8
Layer_0
  10
40.830407
  20
25.26852
  0
VERTEX
  5
3bd
  8
Layer_0
  10
40.785831
  20
25.505767
  0
VERTEX
  5
3be
  8
Layer_0
  10
40.773835
  20
25.751198
  0
VERTEX
  5
3bf
  8
Layer_0
  10
40.794107
  20
25.996181
  0
VERTEX
  5
3c0
  8
Layer_0
  10
40.846331
  20
26.232082
  0
VERTEX
  5
3c1
  8
Layer_0
  10
40.930192
  20
26.45027
  0
VERTEX
  5
3c2
  8
Layer_0
  10
41.045378
  20
26.642111
  0
VERTEX
  5
3c3
  8
Layer_0
  10
41.147278
  20
26.758727
  0
VERTEX
  5
3c4
  8
Layer_0
  10
41.25714
  20
26.843166
  0
VERTEX
  5
3c5
  8
Layer_0
  10
41.372868
  20
26.895541
  0
VERTEX
  5
3c6
  8
Layer_0
  10
41.492366
  20
26.915964
  0
VERTEX
  5
3c7
  8
Layer_0
  10
41.613541
  20
26.904547
  0
VERTEX
  5
3c8
  8
Layer_0
  10
41.734296
  20
26.861403
  0
VERTEX
  5
3c9
  8
Layer_0
  10
41.852536
  20
26.786643
  0
VERTEX
  5
3ca
  8
Layer_0
  10
41.966166
  20
26.680379
  0
VERTEX
  5
3cb
  8
Layer_0
  10
42.109201
  20
26.467816
  0
VERTEX
  5
3cc
  8
Layer_0
  10
42.198598
  20
26.23552
  0
VERTEX
  5
3cd
  8
Layer_0
  10
42.247766
  20
25.988874
  0
VERTEX
  5
3ce
  8
Layer_0
  10
42.270115
  20
25.73326
  0
VERTEX
  5
3cf
  8
Layer_0
  10
42.270119
  20
25.733261
  0
SEQEND
  0
POLYLINE
  5
3d1
  8
Layer_0
  62
0
  66
1
  10
0
  20
0
  30
0
  0
VERTEX
  5
3d1
  8
Layer_0
  10
43.083637
  20
29.693946
  0
VERTEX
  5
3d2
  8
Layer_0
  10
43.105148
  20
29.587066
  0
VERTEX
  5
3d3
  8
Layer_0
  10
43.108221
  20
29.484672
  0
VERTEX
  5
3d4
  8
Layer_0
  10
43.081122
  20
29.391246
  0
VERTEX
  5
3d5
  8
Layer_0
  10
43.012119
  20
29.311272
  0
VERTEX
  5
3d6
  8
Layer_0
  10
42.698198
  20
29.045773
  0
VERTEX
  5
3d7
  8
Layer_0
  10
42.409945
  20
28.755048
  0
VERTEX
  5
3d8
  8
Layer_0
  10
42.142015
  20
28.444368
  0
VERTEX
  5
3d9
  8
Layer_0
  10
41.889067
  20
28.119001
  0
VERTEX
  5
3da
  8
Layer_0
  10
41.406742
  20
27.445284
  0
VERTEX
  5
3db
  8
Layer_0
  10
40.920228
  20
26.776052
  42
-0.069054308
  0
VERTEX
  5
3dc
  8
Layer_0
  10
40.553699
  20
26.41251
  0
VERTEX
  5
3dd
  8
Layer_0
  10
40.45367
  20
26.354137
  0
VERTEX
  5
3de
  8
Layer_0
  10
40.361915
  20
26.322223
  0
VERTEX
  5
3df
  8
Layer_0
  10
40.27917
  20
26.316318
  0
VERTEX
  5
3e0
  8
Layer_0
  10
40.206168
  20
26.335975
  0
VERTEX
  5
3e1
  8
Layer_0
  10
40.143642
  20
26.380744
  0
VERTEX
  5
3e2
  8
Layer_0
  10
40.092327
  20
26.450179
  0
VERTEX
  5
3e3
  8
Layer_0
  10
40.052954
  20
26.543829
  0
VERTEX
  5
3e4
  8
Layer_0
  10
40.026259
  20
26.661248
  42
-0.018364622
  0
VERTEX
  5
3e5
  8
Layer_0
  10
39.972614
  20
27.235264
  0
VERTEX
  5
3e6
  8
Layer_0
  10
40.023235
  20
27.715306
  0
VERTEX
  5
3e7
  8
Layer_0
  10
40.102663
  20
28.185819
  0
VERTEX
  5
3e8
  8
Layer_0
  10
40.212891
  20
28.645347
  0
VERTEX
  5
3e9
  8
Layer_0
  10
40.355909
  20
29.092429
  0
VERTEX
  5
3ea
  8
Layer_0
  10
40.533708
  20
29.525611
  0
VERTEX
  5
3eb
  8
Layer_0
  10
40.748278
  20
29.943432
  0
VERTEX
  5
3ec
  8
Layer_0
  10
41.00161
  20
30.344438
  0
VERTEX
  5
3ed
  8
Layer_0
  10
41.295694
  20
30.727168
  0
VERTEX
  5
3ee
  8
Layer_0
  10
41.435098
  20
30.870802
  0
VERTEX
  5
3ef
  8
Layer_0
  10
41.577854
  20
30.97217
  0
VERTEX
  5
3f0
  8
Layer_0
  10
41.723125
  20
31.032056
  0
VERTEX
  5
3f1
  8
Layer_0
  10
41.870072
  20
31.051246
  0
VERTEX
  5
3f2
  8
Layer_0
  10
42.017857
  20
31.030524
  0
VERTEX
  5
3f3
  8
Layer_0
  10
42.165642
  20
30.970675
  0
VERTEX
  5
3f4
  8
Layer_0
  10
42.312588
  20
30.872484
  0
VERTEX
  5
3f5
  8
Layer_0
  10
42.457859
  20
30.736735
  0
VERTEX
  5
3f6
  8
Layer_0
  10
42.65872
  20
30.509225
  0
VERTEX
  5
3f7
  8
Layer_0
  10
42.837793
  20
30.265569
  0
VERTEX
  5
3f8
  8
Layer_0
  10
42.983344
  20
29.996799
  0
VERTEX
  5
3f9
  8
Layer_0
  10
43.083637
  20
29.693946
  0
SEQEND
  0
POLYLINE
  5
3fb
  8
Layer_0
  62
0
  66
1
  10
0
  20
0
  30
0
  0
VERTEX
  5
3fb
  8
Layer_0
  10
41.304639
  20
35.625406
  0
VERTEX
  5
3fc
  8
Layer_0
  10
41.432134
  20
35.618679
  0
VERTEX
  5
3fd
  8
Layer_0
  10
41.546849
  20
35.580561
  0
VERTEX
  5
3fe
  8
Layer_0
  10
41.649411
  20
35.516432
  0
VERTEX
  5
3ff
  8
Layer_0
  10
41.740449
  20
35.431676
  0
VERTEX
  5
400
  8
Layer_0
  10
41.890468
  20
35.221803
  0
VERTEX
  5
401
  8
Layer_0
  10
42.001935
  20
34.993992
  42
-0.15269546
  0
VERTEX
  5
402
  8
Layer_0
  10
42.279068
  20
32.315269
  0
VERTEX
  5
403
  8
Layer_0
  10
42.227527
  20
32.143812
  0
VERTEX
  5
404
  8
Layer_0
  10
42.148327
  20
32.005541
  0
VERTEX
  5
405
  8
Layer_0
  10
42.033927
  20
31.90494
  0
VERTEX
  5
406
  8
Layer_0
  10
41.876784
  20
31.846492
  0
VERTEX
  5
407
  8
Layer_0
  10
41.421696
  20
31.720983
  0
VERTEX
  5
408
  8
Layer_0
  10
41.013542
  20
31.540203
  0
VERTEX
  5
409
  8
Layer_0
  10
40.649808
  20
31.307178
  0
VERTEX
  5
40a
  8
Layer_0
  10
40.327979
  20
31.024937
  0
VERTEX
  5
40b
  8
Layer_0
  10
40.04554
  20
30.696506
  0
VERTEX
  5
40c
  8
Layer_0
  10
39.799978
  20
30.324911
  0
VERTEX
  5
40d
  8
Layer_0
  10
39.588778
  20
29.913181
  0
VERTEX
  5
40e
  8
Layer_0
  10
39.409425
  20
29.464342
  42
-0.0057429752
  0
VERTEX
  5
40f
  8
Layer_0
  10
39.176994
  20
28.82336
  0
VERTEX
  5
410
  8
Layer_0
  10
39.042425
  20
28.319998
  0
VERTEX
  5
411
  8
Layer_0
  10
38.98381
  20
27.835133
  0
VERTEX
  5
412
  8
Layer_0
  10
38.995804
  20
27.367534
  0
VERTEX
  5
413
  8
Layer_0
  10
39.073066
  20
26.915966
  0
VERTEX
  5
414
  8
Layer_0
  10
39.210252
  20
26.479197
  0
VERTEX
  5
415
  8
Layer_0
  10
39.402019
  20
26.055994
  0
VERTEX
  5
416
  8
Layer_0
  10
39.643025
  20
25.645123
  0
VERTEX
  5
417
  8
Layer_0
  10
39.927927
  20
25.245351
  0
VERTEX
  5
418
  8
Layer_0
  10
40.303396
  20
24.810058
  0
VERTEX
  5
419
  8
Layer_0
  10
40.705685
  20
24.40347
  0
VERTEX
  5
41a
  8
Layer_0
  10
40.917392
  20
24.224482
  0
VERTEX
  5
41b
  8
Layer_0
  10
41.135489
  20
24.096281
  0
VERTEX
  5
41c
  8
Layer_0
  10
41.357986
  20
24.018531
  0
VERTEX
  5
41d
  8
Layer_0
  10
41.582893
  20
23.990895
  0
VERTEX
  5
41e
  8
Layer_0
  10
41.808219
  20
24.013037
  0
VERTEX
  5
41f
  8
Layer_0
  10
42.031973
  20
24.084621
  0
VERTEX
  5
420
  8
Layer_0
  10
42.252165
  20
24.20531
  0
VERTEX
  5
421
  8
Layer_0
  10
42.466803
  20
24.374768
  42
0.0095487363
  0
VERTEX
  5
422
  8
Layer_0
  10
42.985306
  20
24.89138
  0
VERTEX
  5
423
  8
Layer_0
  10
43.064716
  20
24.608764
  0
VERTEX
  5
424
  8
Layer_0
  10
43.119403
  20
24.334558
  0
VERTEX
  5
425
  8
Layer_0
  10
43.145594
  20
24.068199
  0
VERTEX
  5
426
  8
Layer_0
  10
43.139518
  20
23.809127
  0
VERTEX
  5
427
  8
Layer_0
  10
43.097404
  20
23.556783
  0
VERTEX
  5
428
  8
Layer_0
  10
43.015479
  20
23.310605
  0
VERTEX
  5
429
  8
Layer_0
  10
42.889973
  20
23.070032
  0
VERTEX
  5
42a
  8
Layer_0
  10
42.717114
  20
22.834506
  0
VERTEX
  5
42b
  8
Layer_0
  10
42.037698
  20
22.097854
  0
VERTEX
  5
42c
  8
Layer_0
  10
41.331458
  20
21.389903
  0
VERTEX
  5
42d
  8
Layer_0
  10
41.247369
  20
21.305447
  0
VERTEX
  5
42e
  8
Layer_0
  10
41.175014
  20
21.216506
  0
VERTEX
  5
42f
  8
Layer_0
  10
41.142887
  20
21.11142
  0
VERTEX
  5
430
  8
Layer_0
  10
41.179483
  20
20.97853
  0
VERTEX
  5
431
  8
Layer_0
  10
41.267905
  20
20.866268
  0
VERTEX
  5
432
  8
Layer_0
  10
41.370573
  20
20.81948
  0
VERTEX
  5
433
  8
Layer_0
  10
41.484974
  20
20.821125
  0
VERTEX
  5
434
  8
Layer_0
  10
41.608593
  20
20.854159
  0
VERTEX
  5
435
  8
Layer_0
  10
42.115781
  20
21.058501
  0
VERTEX
  5
436
  8
Layer_0
  10
42.575199
  20
21.333699
  0
VERTEX
  5
437
  8
Layer_0
  10
42.785683
  20
21.500951
  0
VERTEX
  5
438
  8
Layer_0
  10
42.982653
  20
21.689617
  0
VERTEX
  5
439
  8
Layer_0
  10
43.165584
  20
21.90093
  0
VERTEX
  5
43a
  8
Layer_0
  10
43.333953
  20
22.136122
  42
-0.10311246
  0
VERTEX
  5
43b
  8
Layer_0
  10
43.602142
  20
22.451828
  0
VERTEX
  5
43c
  8
Layer_0
  10
43.842591
  20
22.116746
  0
VERTEX
  5
43d
  8
Layer_0
  10
44.050667
  20
21.765855
  0
VERTEX
  5
43e
  8
Layer_0
  10
44.230876
  20
21.401286
  0
VERTEX
  5
43f
  8
Layer_0
  10
44.387723
  20
21.02517
  0
VERTEX
  5
440
  8
Layer_0
  10
44.649349
  20
20.246817
  0
VERTEX
  5
441
  8
Layer_0
  10
44.871584
  20
19.447835
  0
VERTEX
  5
442
  8
Layer_0
  10
45.005628
  20
18.846896
  0
VERTEX
  5
443
  8
Layer_0
  10
45.087396
  20
18.249433
  0
VERTEX
  5
444
  8
Layer_0
  10
45.119087
  20
17.655333
  0
VERTEX
  5
445
  8
Layer_0
  10
45.102902
  20
17.064485
  0
VERTEX
  5
446
  8
Layer_0
  10
45.04104
  20
16.476776
  0
VERTEX
  5
447
  8
Layer_0
  10
44.935701
  20
15.892094
  0
VERTEX
  5
448
  8
Layer_0
  10
44.789085
  20
15.310328
  0
VERTEX
  5
449
  8
Layer_0
  10
44.603393
  20
14.731365
  42
-0.25566424
  0
VERTEX
  5
44a
  8
Layer_0
  10
43.968674
  20
14.186054
  0
VERTEX
  5
44b
  8
Layer_0
  10
43.570301
  20
14.127757
  0
VERTEX
  5
44c
  8
Layer_0
  10
43.168573
  20
14.107129
  0
VERTEX
  5
44d
  8
Layer_0
  10
42.766844
  20
14.097263
  0
VERTEX
  5
44e
  8
Layer_0
  10
42.368467
  20
14.071255
  0
VERTEX
  5
44f
  8
Layer_0
  10
41.31847
  20
13.950173
  0
VERTEX
  5
450
  8
Layer_0
  10
40.270988
  20
13.820123
  0
VERTEX
  5
451
  8
Layer_0
  10
39.22183
  20
13.708011
  0
VERTEX
  5
452
  8
Layer_0
  10
38.166804
  20
13.640743
  0
VERTEX
  5
453
  8
Layer_0
  10
37.512669
  20
13.649864
  0
VERTEX
  5
454
  8
Layer_0
  10
36.862725
  20
13.699343
  0
VERTEX
  5
455
  8
Layer_0
  10
36.214457
  20
13.757791
  0
VERTEX
  5
456
  8
Layer_0
  10
35.56535
  20
13.793816
  0
VERTEX
  5
457
  8
Layer_0
  10
34.735773
  20
13.827001
  0
VERTEX
  5
458
  8
Layer_0
  10
33.910386
  20
13.894267
  0
VERTEX
  5
459
  8
Layer_0
  10
33.090027
  20
14.011761
  0
VERTEX
  5
45a
  8
Layer_0
  10
32.275536
  20
14.195626
  0
VERTEX
  5
45b
  8
Layer_0
  10
32.060005
  20
14.254371
  0
VERTEX
  5
45c
  8
Layer_0
  10
31.845313
  20
14.321189
  0
VERTEX
  5
45d
  8
Layer_0
  10
31.63565
  20
14.404151
  0
VERTEX
  5
45e
  8
Layer_0
  10
31.435205
  20
14.511329
  0
VERTEX
  5
45f
  8
Layer_0
  10
31.24789
  20
14.659916
  0
VERTEX
  5
460
  8
Layer_0
  10
31.156956
  20
14.824646
  0
VERTEX
  5
461
  8
Layer_0
  10
31.148418
  20
14.915868
  0
VERTEX
  5
462
  8
Layer_0
  10
31.164919
  20
15.014489
  0
VERTEX
  5
463
  8
Layer_0
  10
31.206771
  20
15.12163
  0
VERTEX
  5
464
  8
Layer_0
  10
31.274291
  20
15.238413
  0
VERTEX
  5
465
  8
Layer_0
  10
31.677712
  20
15.924181
  0
VERTEX
  5
466
  8
Layer_0
  10
32.000781
  20
16.631138
  0
VERTEX
  5
467
  8
Layer_0
  10
32.250307
  20
17.357155
  0
VERTEX
  5
468
  8
Layer_0
  10
32.4331
  20
18.100101
  0
VERTEX
  5
469
  8
Layer_0
  10
32.555968
  20
18.857845
  0
VERTEX
  5
46a
  8
Layer_0
  10
32.625722
  20
19.628259
  0
VERTEX
  5
46b
  8
Layer_0
  10
32.649172
  20
20.409211
  0
VERTEX
  5
46c
  8
Layer_0
  10
32.633125
  20
21.198572
  0
VERTEX
  5
46d
  8
Layer_0
  10
32.520263
  20
22.714323
  0
VERTEX
  5
46e
  8
Layer_0
  10
32.326942
  20
24.219312
  0
VERTEX
  5
46f
  8
Layer_0
  10
32.069925
  20
25.713538
  0
VERTEX
  5
470
  8
Layer_0
  10
31.765973
  20
27.197002
  0
VERTEX
  5
471
  8
Layer_0
  10
31.579078
  20
28.140235
  0
VERTEX
  5
472
  8
Layer_0
  10
31.417326
  20
29.08885
  0
VERTEX
  5
473
  8
Layer_0
  10
31.275687
  20
30.041053
  0
VERTEX
  5
474
  8
Layer_0
  10
31.149135
  20
30.995048
  0
VERTEX
  5
475
  8
Layer_0
  10
31.135724
  20
31.203129
  0
VERTEX
  5
476
  8
Layer_0
  10
31.175953
  20
31.332281
  0
VERTEX
  5
477
  8
Layer_0
  10
31.222468
  20
31.370624
  0
VERTEX
  5
478
  8
Layer_0
  10
31.289935
  20
31.39327
  0
VERTEX
  5
479
  8
Layer_0
  10
31.380868
  20
31.401566
  0
VERTEX
  5
47a
  8
Layer_0
  10
31.497783
  20
31.396858
  0
VERTEX
  5
47b
  8
Layer_0
  10
32.759539
  20
31.300592
  0
VERTEX
  5
47c
  8
Layer_0
  10
34.022134
  20
31.258139
  0
VERTEX
  5
47d
  8
Layer_0
  10
34.65296
  20
31.26494
  0
VERTEX
  5
47e
  8
Layer_0
  10
35.283052
  20
31.294612
  0
VERTEX
  5
47f
  8
Layer_0
  10
35.912096
  20
31.350294
  0
VERTEX
  5
480
  8
Layer_0
  10
36.539778
  20
31.435124
  0
VERTEX
  5
481
  8
Layer_0
  10
37.161298
  20
31.5739
  0
VERTEX
  5
482
  8
Layer_0
  10
37.738818
  20
31.781177
  0
VERTEX
  5
483
  8
Layer_0
  10
38.272757
  20
32.055496
  0
VERTEX
  5
484
  8
Layer_0
  10
38.763534
  20
32.395401
  0
VERTEX
  5
485
  8
Layer_0
  10
39.211567
  20
32.799433
  0
VERTEX
  5
486
  8
Layer_0
  10
39.617277
  20
33.266135
  0
VERTEX
  5
487
  8
Layer_0
  10
39.981081
  20
33.794051
  0
VERTEX
  5
488
  8
Layer_0
  10
40.303399
  20
34.381721
  42
0.043217188
  0
VERTEX
  5
489
  8
Layer_0
  10
40.562649
  20
34.965302
  0
VERTEX
  5
48a
  8
Layer_0
  10
40.692415
  20
35.229884
  0
VERTEX
  5
48b
  8
Layer_0
  10
40.863247
  20
35.431685
  0
VERTEX
  5
48c
  8
Layer_0
  10
41.069279
  20
35.565323
  0
VERTEX
  5
48d
  8
Layer_0
  10
41.304644
  20
35.625414
  0
VERTEX
  5
48e
  8
Layer_0
  10
41.304638
  20
35.625404
  0
SEQEND
  0
POLYLINE
  5
490
  8
Layer_0
  62
0
  66
1
  10
0
  20
0
  30
0
  0
VERTEX
  5
490
  8
Layer_0
  10
40.625218
  20
38.23716
  0
VERTEX
  5
491
  8
Layer_0
  10
40.663788
  20
37.824271
  0
VERTEX
  5
492
  8
Layer_0
  10
40.680673
  20
37.418445
  0
VERTEX
  5
493
  8
Layer_0
  10
40.668433
  20
37.020467
  0
VERTEX
  5
494
  8
Layer_0
  10
40.619632
  20
36.631122
  0
VERTEX
  5
495
  8
Layer_0
  10
40.526831
  20
36.251194
  0
VERTEX
  5
496
  8
Layer_0
  10
40.382591
  20
35.881468
  0
VERTEX
  5
497
  8
Layer_0
  10
40.179475
  20
35.52273
  0
VERTEX
  5
498
  8
Layer_0
  10
39.910043
  20
35.175763
  0
VERTEX
  5
499
  8
Layer_0
  10
39.533284
  20
34.793106
  0
VERTEX
  5
49a
  8
Layer_0
  10
39.135362
  20
34.458994
  0
VERTEX
  5
49b
  8
Layer_0
  10
38.718583
  20
34.167261
  0
VERTEX
  5
49c
  8
Layer_0
  10
38.285252
  20
33.91174
  0
VERTEX
  5
49d
  8
Layer_0
  10
37.37815
  20
33.484669
  0
VERTEX
  5
49e
  8
Layer_0
  10
36.432495
  20
33.128452
  0
VERTEX
  5
49f
  8
Layer_0
  10
35.663401
  20
32.900491
  0
VERTEX
  5
4a0
  8
Layer_0
  10
34.885926
  20
32.739797
  0
VERTEX
  5
4a1
  8
Layer_0
  10
34.101746
  20
32.63471
  0
VERTEX
  5
4a2
  8
Layer_0
  10
33.312539
  20
32.573572
  0
VERTEX
  5
4a3
  8
Layer_0
  10
32.883432
  20
32.566397
  0
VERTEX
  5
4a4
  8
Layer_0
  10
32.454327
  20
32.573572
  0
VERTEX
  5
4a5
  8
Layer_0
  10
32.454327
  20
32.535305
  42
0.0078507658
  0
VERTEX
  5
4a6
  8
Layer_0
  10
31.533539
  20
32.592709
  0
VERTEX
  5
4a7
  8
Layer_0
  10
31.388966
  20
32.613038
  0
VERTEX
  5
4a8
  8
Layer_0
  10
31.295518
  20
32.669242
  0
VERTEX
  5
4a9
  8
Layer_0
  10
31.260738
  20
32.775673
  0
VERTEX
  5
4aa
  8
Layer_0
  10
31.292168
  20
32.946681
  0
VERTEX
  5
4ab
  8
Layer_0
  10
31.376082
  20
33.241274
  0
VERTEX
  5
4ac
  8
Layer_0
  10
31.433805
  20
33.536539
  0
VERTEX
  5
4ad
  8
Layer_0
  10
31.465967
  20
33.832253
  0
VERTEX
  5
4ae
  8
Layer_0
  10
31.473195
  20
34.128191
  0
VERTEX
  5
4af
  8
Layer_0
  10
31.415366
  20
34.719841
  0
VERTEX
  5
4b0
  8
Layer_0
  10
31.265346
  20
35.309697
  0
VERTEX
  5
4b1
  8
Layer_0
  10
31.23797
  20
35.480704
  0
VERTEX
  5
4b2
  8
Layer_0
  10
31.280992
  20
35.594311
  0
VERTEX
  5
4b3
  8
Layer_0
  10
31.381005
  20
35.654105
  0
VERTEX
  5
4b4
  8
Layer_0
  10
31.524597
  20
35.663672
  0
VERTEX
  5
4b5
  8
Layer_0
  10
31.952167
  20
35.641996
  0
VERTEX
  5
4b6
  8
Layer_0
  10
32.377222
  20
35.655299
  0
VERTEX
  5
4b7
  8
Layer_0
  10
32.800601
  20
35.670397
  0
VERTEX
  5
4b8
  8
Layer_0
  10
33.223142
  20
35.654102
  0
VERTEX
  5
4b9
  8
Layer_0
  10
33.775833
  20
35.621347
  0
VERTEX
  5
4ba
  8
Layer_0
  10
34.320772
  20
35.625253
  0
VERTEX
  5
4bb
  8
Layer_0
  10
34.857748
  20
35.668397
  0
VERTEX
  5
4bc
  8
Layer_0
  10
35.386552
  20
35.753359
  0
VERTEX
  5
4bd
  8
Layer_0
  10
35.906976
  20
35.882718
  0
VERTEX
  5
4be
  8
Layer_0
  10
36.418809
  20
36.059051
  0
VERTEX
  5
4bf
  8
Layer_0
  10
36.921842
  20
36.284938
  0
VERTEX
  5
4c0
  8
Layer_0
  10
37.415865
  20
36.562956
  0
VERTEX
  5
4c1
  8
Layer_0
  10
38.057988
  20
36.985692
  0
VERTEX
  5
4c2
  8
Layer_0
  10
38.664073
  20
37.447892
  0
VERTEX
  5
4c3
  8
Layer_0
  10
39.224899
  20
37.967493
  0
VERTEX
  5
4c4
  8
Layer_0
  10
39.731249
  20
38.562432
  0
VERTEX
  5
4c5
  8
Layer_0
  10
39.828608
  20
38.664528
  0
VERTEX
  5
4c6
  8
Layer_0
  10
39.93351
  20
38.726264
  0
VERTEX
  5
4c7
  8
Layer_0
  10
40.046794
  20
38.746743
  0
VERTEX
  5
4c8
  8
Layer_0
  10
40.169299
  20
38.725069
  0
VERTEX
  5
4c9
  8
Layer_0
  10
40.32728
  20
38.646142
  0
VERTEX
  5
4ca
  8
Layer_0
  10
40.467661
  20
38.54569
  0
VERTEX
  5
4cb
  8
Layer_0
  10
40.572842
  20
38.412949
  0
VERTEX
  5
4cc
  8
Layer_0
  10
40.625223
  20
38.237157
  0
VERTEX
  5
4cd
  8
Layer_0
  10
40.625217
  20
38.23716
  0
SEQEND
  0
POLYLINE
  5
4cf
  8
Layer_0
  62
0
  66
1
  10
0
  20
0
  30
0
  0
VERTEX
  5
4cf
  8
Layer_0
  10
52.380936
  20
45.96719
  42
-0.056667186
  0
VERTEX
  5
4d0
  8
Layer_0
  10
48.134575
  20
42.551819
  42
-0.094996097
  0
VERTEX
  5
4d1
  8
Layer_0
  10
42.261185
  20
40.16967
  0
VERTEX
  5
4d2
  8
Layer_0
  10
41.909604
  20
40.115406
  0
VERTEX
  5
4d3
  8
Layer_0
  10
41.55383
  20
40.087154
  0
VERTEX
  5
4d4
  8
Layer_0
  10
41.196381
  20
40.071459
  0
VERTEX
  5
4d5
  8
Layer_0
  10
40.83977
  20
40.054867
  0
VERTEX
  5
4d6
  8
Layer_0
  10
40.788926
  20
40.051578
  0
VERTEX
  5
4d7
  8
Layer_0
  10
40.734729
  20
40.050083
  0
VERTEX
  5
4d8
  8
Layer_0
  10
40.683885
  20
40.062939
  0
VERTEX
  5
4d9
  8
Layer_0
  10
40.643097
  20
40.102702
  0
VERTEX
  5
4da
  8
Layer_0
  10
40.626754
  20
40.174901
  0
VERTEX
  5
4db
  8
Layer_0
  10
40.64645
  20
40.235441
  0
VERTEX
  5
4dc
  8
Layer_0
  10
40.684583
  20
40.287012
  0
VERTEX
  5
4dd
  8
Layer_0
  10
40.723554
  20
40.332306
  0
VERTEX
  5
4de
  8
Layer_0
  10
41.019158
  20
40.70575
  0
VERTEX
  5
4df
  8
Layer_0
  10
41.279771
  20
41.09915
  0
VERTEX
  5
4e0
  8
Layer_0
  10
41.511469
  20
41.509143
  0
VERTEX
  5
4e1
  8
Layer_0
  10
41.72033
  20
41.932365
  0
VERTEX
  5
4e2
  8
Layer_0
  10
42.093841
  20
42.805042
  0
VERTEX
  5
4e3
  8
Layer_0
  10
42.448914
  20
43.690276
  0
VERTEX
  5
4e4
  8
Layer_0
  10
42.603124
  20
44.109424
  0
VERTEX
  5
4e5
  8
Layer_0
  10
42.727162
  20
44.533954
  0
VERTEX
  5
4e6
  8
Layer_0
  10
42.826057
  20
44.962968
  0
VERTEX
  5
4e7
  8
Layer_0
  10
42.904838
  20
45.39557
  0
VERTEX
  5
4e8
  8
Layer_0
  10
43.022171
  20
46.26795
  0
VERTEX
  5
4e9
  8
Layer_0
  10
43.119391
  20
47.143917
  0
VERTEX
  5
4ea
  8
Layer_0
  10
43.139225
  20
47.307002
  0
VERTEX
  5
4eb
  8
Layer_0
  10
43.164089
  20
47.465603
  0
VERTEX
  5
4ec
  8
Layer_0
  10
43.202362
  20
47.618822
  0
VERTEX
  5
4ed
  8
Layer_0
  10
43.262426
  20
47.765763
  0
VERTEX
  5
4ee
  8
Layer_0
  10
43.361601
  20
47.921375
  0
VERTEX
  5
4ef
  8
Layer_0
  10
43.48592
  20
48.034832
  0
VERTEX
  5
4f0
  8
Layer_0
  10
43.637056
  20
48.092681
  0
VERTEX
  5
4f1
  8
Layer_0
  10
43.816686
  20
48.081469
  0
VERTEX
  5
4f2
  8
Layer_0
  10
44.314026
  20
47.964985
  0
VERTEX
  5
4f3
  8
Layer_0
  10
44.813462
  20
47.890431
  0
VERTEX
  5
4f4
  8
Layer_0
  10
45.314575
  20
47.850407
  0
VERTEX
  5
4f5
  8
Layer_0
  10
45.816945
  20
47.837514
  0
VERTEX
  5
4f6
  8
Layer_0
  10
46.823782
  20
47.863524
  0
VERTEX
  5
4f7
  8
Layer_0
  10
47.83062
  20
47.909265
  0
VERTEX
  5
4f8
  8
Layer_0
  10
48.908904
  20
48.006016
  0
VERTEX
  5
4f9
  8
Layer_0
  10
49.979335
  20
48.168408
  0
VERTEX
  5
4fa
  8
Layer_0
  10
51.039268
  20
48.392749
  0
VERTEX
  5
4fb
  8
Layer_0
  10
52.086057
  20
48.675346
  0
VERTEX
  5
4fc
  8
Layer_0
  10
53.117055
  20
49.012507
  0
VERTEX
  5
4fd
  8
Layer_0
  10
54.129615
  20
49.400538
  0
VERTEX
  5
4fe
  8
Layer_0
  10
55.121091
  20
49.835747
  0
VERTEX
  5
4ff
  8
Layer_0
  10
56.088837
  20
50.31444
  0
VERTEX
  5
500
  8
Layer_0
  10
55.23039
  20
49.177767
  0
VERTEX
  5
501
  8
Layer_0
  10
54.301932
  20
48.054714
  0
VERTEX
  5
502
  8
Layer_0
  10
53.33995
  20
46.974712
  0
VERTEX
  5
503
  8
Layer_0
  10
52.380931
  20
45.967192
  0
VERTEX
  5
504
  8
Layer_0
  10
52.380936
  20
45.96719
  0
SEQEND
  0
POLYLINE
  5
506
  8
Layer_0
  62
0
  66
1
  10
0
  20
0
  30
0
  0
VERTEX
  5
506
  8
Layer_0
  10
57.217321
  20
51.975184
  0
VERTEX
  5
507
  8
Layer_0
  10
57.048605
  20
51.722722
  0
VERTEX
  5
508
  8
Layer_0
  10
56.846658
  20
51.482849
  0
VERTEX
  5
509
  8
Layer_0
  10
56.61324
  20
51.25531
  0
VERTEX
  5
50a
  8
Layer_0
  10
56.350108
  20
51.03985
  0
VERTEX
  5
50b
  8
Layer_0
  10
56.059021
  20
50.836214
  0
VERTEX
  5
50c
  8
Layer_0
  10
55.741737
  20
50.644147
  0
VERTEX
  5
50d
  8
Layer_0
  10
55.400015
  20
50.463395
  0
VERTEX
  5
50e
  8
Layer_0
  10
55.035614
  20
50.293701
  0
VERTEX
  5
50f
  8
Layer_0
  10
54.245806
  20
49.986469
  0
VERTEX
  5
510
  8
Layer_0
  10
53.38638
  20
49.720412
  0
VERTEX
  5
511
  8
Layer_0
  10
52.471406
  20
49.49349
  0
VERTEX
  5
512
  8
Layer_0
  10
51.514949
  20
49.30366
  0
VERTEX
  5
513
  8
Layer_0
  10
50.531078
  20
49.148884
  0
VERTEX
  5
514
  8
Layer_0
  10
49.53386
  20
49.027119
  0
VERTEX
  5
515
  8
Layer_0
  10
48.537364
  20
48.936327
  0
VERTEX
  5
516
  8
Layer_0
  10
47.555656
  20
48.874465
  0
VERTEX
  5
517
  8
Layer_0
  10
46.602805
  20
48.839494
  0
VERTEX
  5
518
  8
Layer_0
  10
45.692878
  20
48.829373
  0
VERTEX
  5
519
  8
Layer_0
  10
44.839943
  20
48.842061
  0
VERTEX
  5
51a
  8
Layer_0
  10
44.058067
  20
48.875518
  0
VERTEX
  5
51b
  8
Layer_0
  10
43.383119
  20
48.944878
  0
VERTEX
  5
51c
  8
Layer_0
  10
42.70817
  20
49.028587
  0
VERTEX
  5
51d
  8
Layer_0
  10
42.594904
  20
49.036043
  0
VERTEX
  5
51e
  8
Layer_0
  10
42.502696
  20
49.029036
  0
VERTEX
  5
51f
  8
Layer_0
  10
42.430811
  20
49.006558
  0
VERTEX
  5
520
  8
Layer_0
  10
42.378516
  20
48.967599
  0
VERTEX
  5
521
  8
Layer_0
  10
42.345079
  20
48.911151
  0
VERTEX
  5
522
  8
Layer_0
  10
42.329766
  20
48.836204
  0
VERTEX
  5
523
  8
Layer_0
  10
42.331843
  20
48.741749
  0
VERTEX
  5
524
  8
Layer_0
  10
42.350577
  20
48.626778
  0
VERTEX
  5
525
  8
Layer_0
  10
42.407848
  20
48.304793
  0
VERTEX
  5
526
  8
Layer_0
  10
42.436623
  20
47.991777
  0
VERTEX
  5
527
  8
Layer_0
  10
42.43355
  20
47.68773
  0
VERTEX
  5
528
  8
Layer_0
  10
42.395278
  20
47.392652
  0
VERTEX
  5
529
  8
Layer_0
  10
42.318453
  20
47.106543
  0
VERTEX
  5
52a
  8
Layer_0
  10
42.199722
  20
46.829403
  0
VERTEX
  5
52b
  8
Layer_0
  10
42.035734
  20
46.561231
  0
VERTEX
  5
52c
  8
Layer_0
  10
41.823136
  20
46.302029
  0
VERTEX
  5
52d
  8
Layer_0
  10
41.624383
  20
46.062951
  0
VERTEX
  5
52e
  8
Layer_0
  10
41.455069
  20
45.806496
  0
VERTEX
  5
52f
  8
Layer_0
  10
41.311946
  20
45.535017
  0
VERTEX
  5
530
  8
Layer_0
  10
41.191766
  20
45.25087
  0
VERTEX
  5
531
  8
Layer_0
  10
41.007245
  20
44.653988
  0
VERTEX
  5
532
  8
Layer_0
  10
40.875524
  20
44.034684
  0
VERTEX
  5
533
  8
Layer_0
  10
40.663207
  20
42.962446
  0
VERTEX
  5
534
  8
Layer_0
  10
40.397251
  20
41.90725
  0
VERTEX
  5
535
  8
Layer_0
  10
40.235778
  20
41.390247
  0
VERTEX
  5
536
  8
Layer_0
  10
40.050838
  20
40.882549
  0
VERTEX
  5
537
  8
Layer_0
  10
39.839079
  20
40.385837
  0
VERTEX
  5
538
  8
Layer_0
  10
39.597149
  20
39.901794
  0
VERTEX
  5
539
  8
Layer_0
  10
39.355497
  20
39.489914
  0
VERTEX
  5
53a
  8
Layer_0
  10
39.087026
  20
39.101914
  0
VERTEX
  5
53b
  8
Layer_0
  10
38.792574
  20
38.739251
  0
VERTEX
  5
53c
  8
Layer_0
  10
38.47298
  20
38.403383
  0
VERTEX
  5
53d
  8
Layer_0
  10
38.129081
  20
38.095767
  0
VERTEX
  5
53e
  8
Layer_0
  10
37.761715
  20
37.817861
  0
VERTEX
  5
53f
  8
Layer_0
  10
37.37172
  20
37.571122
  0
VERTEX
  5
540
  8
Layer_0
  10
36.959934
  20
37.357007
  0
VERTEX
  5
541
  8
Layer_0
  10
36.257747
  20
37.038311
  0
VERTEX
  5
542
  8
Layer_0
  10
35.539637
  20
36.759078
  0
VERTEX
  5
543
  8
Layer_0
  10
35.171729
  20
36.648835
  0
VERTEX
  5
544
  8
Layer_0
  10
34.796384
  20
36.565947
  0
VERTEX
  5
545
  8
Layer_0
  10
34.412448
  20
36.516244
  0
VERTEX
  5
546
  8
Layer_0
  10
34.01877
  20
36.505556
  0
VERTEX
  5
547
  8
Layer_0
  10
33.651822
  20
36.522746
  0
VERTEX
  5
548
  8
Layer_0
  10
33.289066
  20
36.564153
  0
VERTEX
  5
549
  8
Layer_0
  10
32.931338
  20
36.636054
  0
VERTEX
  5
54a
  8
Layer_0
  10
32.579478
  20
36.744729
  42
0.21274812
  0
VERTEX
  5
54b
  8
Layer_0
  10
31.855362
  20
36.735161
  0
VERTEX
  5
54c
  8
Layer_0
  10
31.512718
  20
36.569385
  0
VERTEX
  5
54d
  8
Layer_0
  10
31.165885
  20
36.42065
  0
VERTEX
  5
54e
  8
Layer_0
  10
30.810672
  20
36.295235
  0
VERTEX
  5
54f
  8
Layer_0
  10
30.442887
  20
36.199418
  0
VERTEX
  5
550
  8
Layer_0
  10
30.176425
  20
36.156517
  0
VERTEX
  5
551
  8
Layer_0
  10
29.913629
  20
36.141419
  0
VERTEX
  5
552
  8
Layer_0
  10
29.654814
  20
36.152331
  0
VERTEX
  5
553
  8
Layer_0
  10
29.400294
  20
36.18746
  0
VERTEX
  5
554
  8
Layer_0
  10
28.905398
  20
36.323189
  0
VERTEX
  5
555
  8
Layer_0
  10
28.431453
  20
36.534257
  0
VERTEX
  5
556
  8
Layer_0
  10
28.197536
  20
36.640558
  0
VERTEX
  5
557
  8
Layer_0
  10
27.964772
  20
36.717373
  0
VERTEX
  5
558
  8
Layer_0
  10
27.732636
  20
36.767505
  0
VERTEX
  5
559
  8
Layer_0
  10
27.500606
  20
36.793758
  0
VERTEX
  5
55a
  8
Layer_0
  10
27.034763
  20
36.785834
  0
VERTEX
  5
55b
  8
Layer_0
  10
26.563054
  20
36.716026
  0
VERTEX
  5
55c
  8
Layer_0
  10
26.017469
  20
36.633829
  0
VERTEX
  5
55d
  8
Layer_0
  10
25.473666
  20
36.593002
  0
VERTEX
  5
55e
  8
Layer_0
  10
24.931748
  20
36.590069
  0
VERTEX
  5
55f
  8
Layer_0
  10
24.391821
  20
36.621554
  0
VERTEX
  5
560
  8
Layer_0
  10
23.318357
  20
36.773876
  0
VERTEX
  5
561
  8
Layer_0
  10
22.254112
  20
37.022166
  0
VERTEX
  5
562
  8
Layer_0
  10
21.877621
  20
37.136987
  0
VERTEX
  5
563
  8
Layer_0
  10
21.518874
  20
37.272997
  0
VERTEX
  5
564
  8
Layer_0
  10
21.177386
  20
37.429636
  0
VERTEX
  5
565
  8
Layer_0
  10
20.852673
  20
37.606343
  0
VERTEX
  5
566
  8
Layer_0
  10
20.251635
  20
38.017718
  0
VERTEX
  5
567
  8
Layer_0
  10
19.711883
  20
38.502638
  0
VERTEX
  5
568
  8
Layer_0
  10
19.22954
  20
39.056619
  0
VERTEX
  5
569
  8
Layer_0
  10
18.800731
  20
39.675177
  0
VERTEX
  5
56a
  8
Layer_0
  10
18.421579
  20
40.353827
  0
VERTEX
  5
56b
  8
Layer_0
  10
18.088208
  20
41.088084
  0
VERTEX
  5
56c
  8
Layer_0
  10
17.805211
  20
41.864496
  0
VERTEX
  5
56d
  8
Layer_0
  10
17.58088
  20
42.657052
  0
VERTEX
  5
56e
  8
Layer_0
  10
17.406835
  20
43.463958
  0
VERTEX
  5
56f
  8
Layer_0
  10
17.274695
  20
44.283419
  0
VERTEX
  5
570
  8
Layer_0
  10
17.150238
  20
44.978512
  0
VERTEX
  5
571
  8
Layer_0
  10
16.962923
  20
45.653873
  0
VERTEX
  5
572
  8
Layer_0
  10
16.710237
  20
46.304121
  0
VERTEX
  5
573
  8
Layer_0
  10
16.389664
  20
46.923874
  42
-0.19793131
  0
VERTEX
  5
574
  8
Layer_0
  10
16.17511
  20
48.416306
  42
0.034770233
  0
VERTEX
  5
575
  8
Layer_0
  10
16.344965
  20
49.430393
  0
VERTEX
  5
576
  8
Layer_0
  10
16.35628
  20
49.650638
  0
VERTEX
  5
577
  8
Layer_0
  10
16.336584
  20
49.838033
  0
VERTEX
  5
578
  8
Layer_0
  10
16.285879
  20
49.992915
  0
VERTEX
  5
579
  8
Layer_0
  10
16.204165
  20
50.115622
  0
VERTEX
  5
57a
  8
Layer_0
  10
16.091441
  20
50.206488
  0
VERTEX
  5
57b
  8
Layer_0
  10
15.947707
  20
50.265851
  0
VERTEX
  5
57c
  8
Layer_0
  10
15.772963
  20
50.294047
  0
VERTEX
  5
57d
  8
Layer_0
  10
15.56721
  20
50.291412
  0
VERTEX
  5
57e
  8
Layer_0
  10
15.166321
  20
50.247315
  0
VERTEX
  5
57f
  8
Layer_0
  10
14.767107
  20
50.196939
  0
VERTEX
  5
580
  8
Layer_0
  10
14.367893
  20
50.155533
  0
VERTEX
  5
581
  8
Layer_0
  10
13.967003
  20
50.138342
  0
VERTEX
  5
582
  8
Layer_0
  10
13.3957
  20
50.130869
  0
VERTEX
  5
583
  8
Layer_0
  10
12.822721
  20
50.128776
  0
VERTEX
  5
584
  8
Layer_0
  10
12.249741
  20
50.141034
  0
VERTEX
  5
585
  8
Layer_0
  10
11.678438
  20
50.17661
  0
VERTEX
  5
586
  8
Layer_0
  10
10.967242
  20
50.263105
  0
VERTEX
  5
587
  8
Layer_0
  10
10.261493
  20
50.395004
  0
VERTEX
  5
588
  8
Layer_0
  10
9.5607737
  20
50.5639
  0
VERTEX
  5
589
  8
Layer_0
  10
8.8646637
  20
50.761385
  0
VERTEX
  5
58a
  8
Layer_0
  10
7.4845961
  20
51.208487
  0
VERTEX
  5
58b
  8
Layer_0
  10
6.117938
  20
51.669042
  42
0.012078208
  0
VERTEX
  5
58c
  8
Layer_0
  10
2.6940289
  20
52.702263
  0
VERTEX
  5
58d
  8
Layer_0
  10
2.5039204
  20
52.759666
  0
VERTEX
  5
58e
  8
Layer_0
  10
2.3263834
  20
52.838592
  0
VERTEX
  5
58f
  8
Layer_0
  10
2.1672846
  20
52.949808
  0
VERTEX
  5
590
  8
Layer_0
  10
2.0324906
  20
53.104074
  0
VERTEX
  5
591
  8
Layer_0
  10
1.9799697
  20
53.197649
  0
VERTEX
  5
592
  8
Layer_0
  10
1.9475632
  20
53.293019
  0
VERTEX
  5
593
  8
Layer_0
  10
1.941976
  20
53.391977
  0
VERTEX
  5
594
  8
Layer_0
  10
1.9699125
  20
53.496316
  0
VERTEX
  5
595
  8
Layer_0
  10
2.0355634
  20
53.586902
  0
VERTEX
  5
596
  8
Layer_0
  10
2.1196525
  20
53.625468
  0
VERTEX
  5
597
  8
Layer_0
  10
2.2137987
  20
53.628159
  0
VERTEX
  5
598
  8
Layer_0
  10
2.3096212
  20
53.611118
  0
VERTEX
  5
599
  8
Layer_0
  10
2.6334066
  20
53.535779
  0
VERTEX
  5
59a
  8
Layer_0
  10
2.9488108
  20
53.431739
  0
VERTEX
  5
59b
  8
Layer_0
  10
3.25751
  20
53.309762
  0
VERTEX
  5
59c
  8
Layer_0
  10
3.5611802
  20
53.180609
  42
0.047133955
  0
VERTEX
  5
59d
  8
Layer_0
  10
9.2200165
  20
51.420303
  0
VERTEX
  5
59e
  8
Layer_0
  10
10.00177
  20
51.247896
  0
VERTEX
  5
59f
  8
Layer_0
  10
10.874561
  20
51.070665
  0
VERTEX
  5
5a0
  8
Layer_0
  10
11.802039
  20
50.925051
  0
VERTEX
  5
5a1
  8
Layer_0
  10
12.74785
  20
50.847488
  0
VERTEX
  5
5a2
  8
Layer_0
  10
13.21627
  20
50.845612
  0
VERTEX
  5
5a3
  8
Layer_0
  10
13.675641
  20
50.874413
  0
VERTEX
  5
5a4
  8
Layer_0
  10
14.12142
  20
50.938445
  0
VERTEX
  5
5a5
  8
Layer_0
  10
14.549062
  20
51.042263
  0
VERTEX
  5
5a6
  8
Layer_0
  10
14.954022
  20
51.190421
  0
VERTEX
  5
5a7
  8
Layer_0
  10
15.331758
  20
51.387474
  0
VERTEX
  5
5a8
  8
Layer_0
  10
15.677724
  20
51.637976
  0
VERTEX
  5
5a9
  8
Layer_0
  10
15.987377
  20
51.946482
  0
VERTEX
  5
5aa
  8
Layer_0
  10
16.124127
  20
52.079821
  0
VERTEX
  5
5ab
  8
Layer_0
  10
16.2768
  20
52.195221
  0
VERTEX
  5
5ac
  8
Layer_0
  10
16.441207
  20
52.296271
  0
VERTEX
  5
5ad
  8
Layer_0
  10
16.613157
  20
52.38656
  0
VERTEX
  5
5ae
  8
Layer_0
  10
16.791864
  20
52.463281
  0
VERTEX
  5
5af
  8
Layer_0
  10
16.95999
  20
52.507042
  0
VERTEX
  5
5b0
  8
Layer_0
  10
17.118688
  20
52.518066
  0
VERTEX
  5
5b1
  8
Layer_0
  10
17.269109
  20
52.496578
  0
VERTEX
  5
5b2
  8
Layer_0
  10
17.412406
  20
52.442802
  0
VERTEX
  5
5b3
  8
Layer_0
  10
17.549732
  20
52.356961
  0
VERTEX
  5
5b4
  8
Layer_0
  10
17.682238
  20
52.239282
  0
VERTEX
  5
5b5
  8
Layer_0
  10
17.811078
  20
52.089986
  0
VERTEX
  5
5b6
  8
Layer_0
  10
17.93386
  20
51.910701
  0
VERTEX
  5
5b7
  8
Layer_0
  10
18.028984
  20
51.724801
  0
VERTEX
  5
5b8
  8
Layer_0
  10
18.098965
  20
51.532847
  0
VERTEX
  5
5b9
  8
Layer_0
  10
18.146317
  20
51.335399
  0
VERTEX
  5
5ba
  8
Layer_0
  10
18.183193
  20
50.926266
  0
VERTEX
  5
5bb
  8
Layer_0
  10
18.159726
  20
50.501886
  0
VERTEX
  5
5bc
  8
Layer_0
  10
18.095332
  20
49.863148
  0
VERTEX
  5
5bd
  8
Layer_0
  10
18.053567
  20
49.223513
  0
VERTEX
  5
5be
  8
Layer_0
  10
18.040297
  20
48.582084
  0
VERTEX
  5
5bf
  8
Layer_0
  10
18.061389
  20
47.937965
  0
VERTEX
  5
5c0
  8
Layer_0
  10
18.072703
  20
47.692814
  0
VERTEX
  5
5c1
  8
Layer_0
  10
18.091561
  20
47.447663
  0
VERTEX
  5
5c2
  8
Layer_0
  10
18.135561
  20
47.2061
  0
VERTEX
  5
5c3
  8
Layer_0
  10
18.222304
  20
46.971711
  0
VERTEX
  5
5c4
  8
Layer_0
  10
18.406686
  20
47.872341
  0
VERTEX
  5
5c5
  8
Layer_0
  10
18.617887
  20
48.759519
  0
VERTEX
  5
5c6
  8
Layer_0
  10
18.886078
  20
49.623377
  0
VERTEX
  5
5c7
  8
Layer_0
  10
19.24143
  20
50.454049
  0
VERTEX
  5
5c8
  8
Layer_0
  10
19.656726
  20
51.221716
  0
VERTEX
  5
5c9
  8
Layer_0
  10
20.113193
  20
51.94409
  0
VERTEX
  5
5ca
  8
Layer_0
  10
20.61345
  20
52.618031
  0
VERTEX
  5
5cb
  8
Layer_0
  10
21.160117
  20
53.2404
  0
VERTEX
  5
5cc
  8
Layer_0
  10
21.755812
  20
53.808059
  0
VERTEX
  5
5cd
  8
Layer_0
  10
22.403155
  20
54.317869
  0
VERTEX
  5
5ce
  8
Layer_0
  10
23.104765
  20
54.766689
  0
VERTEX
  5
5cf
  8
Layer_0
  10
23.863261
  20
55.151382
  0
VERTEX
  5
5d0
  8
Layer_0
  10
24.623431
  20
55.504096
  0
VERTEX
  5
5d1
  8
Layer_0
  10
25.422574
  20
55.783012
  0
VERTEX
  5
5d2
  8
Layer_0
  10
26.251897
  20
55.992482
  0
VERTEX
  5
5d3
  8
Layer_0
  10
27.10261
  20
56.13686
  0
VERTEX
  5
5d4
  8
Layer_0
  10
27.965924
  20
56.220498
  0
VERTEX
  5
5d5
  8
Layer_0
  10
28.833047
  20
56.247748
  0
VERTEX
  5
5d6
  8
Layer_0
  10
29.695189
  20
56.222963
  0
VERTEX
  5
5d7
  8
Layer_0
  10
30.54356
  20
56.150495
  0
VERTEX
  5
5d8
  8
Layer_0
  10
31.369368
  20
56.034697
  0
VERTEX
  5
5d9
  8
Layer_0
  10
32.163825
  20
55.87992
  0
VERTEX
  5
5da
  8
Layer_0
  10
32.918138
  20
55.690519
  0
VERTEX
  5
5db
  8
Layer_0
  10
33.623518
  20
55.470844
  0
VERTEX
  5
5dc
  8
Layer_0
  10
34.271175
  20
55.225249
  0
VERTEX
  5
5dd
  8
Layer_0
  10
34.852316
  20
54.958086
  0
VERTEX
  5
5de
  8
Layer_0
  10
35.358153
  20
54.673707
  0
VERTEX
  5
5df
  8
Layer_0
  10
35.779895
  20
54.376466
  0
VERTEX
  5
5e0
  8
Layer_0
  10
36.321918
  20
53.999042
  0
VERTEX
  5
5e1
  8
Layer_0
  10
36.840788
  20
53.597514
  0
VERTEX
  5
5e2
  8
Layer_0
  10
37.335144
  20
53.1702
  0
VERTEX
  5
5e3
  8
Layer_0
  10
37.803623
  20
52.715419
  0
VERTEX
  5
5e4
  8
Layer_0
  10
38.244864
  20
52.231488
  0
VERTEX
  5
5e5
  8
Layer_0
  10
38.657506
  20
51.716727
  0
VERTEX
  5
5e6
  8
Layer_0
  10
39.040185
  20
51.169454
  0
VERTEX
  5
5e7
  8
Layer_0
  10
39.391541
  20
50.587987
  0
VERTEX
  5
5e8
  8
Layer_0
  10
39.759465
  20
49.80754
  0
VERTEX
  5
5e9
  8
Layer_0
  10
40.035199
  20
48.993908
  0
VERTEX
  5
5ea
  8
Layer_0
  10
40.243884
  20
48.156957
  0
VERTEX
  5
5eb
  8
Layer_0
  10
40.410665
  20
47.306552
  0
VERTEX
  5
5ec
  8
Layer_0
  10
40.431199
  20
47.153631
  0
VERTEX
  5
5ed
  8
Layer_0
  10
40.454246
  20
46.994432
  0
VERTEX
  5
5ee
  8
Layer_0
  10
40.502437
  20
46.869315
  0
VERTEX
  5
5ef
  8
Layer_0
  10
40.598399
  20
46.81864
  0
VERTEX
  5
5f0
  8
Layer_0
  10
40.703021
  20
46.874995
  0
VERTEX
  5
5f1
  8
Layer_0
  10
40.751492
  20
47.003999
  0
VERTEX
  5
5f2
  8
Layer_0
  10
40.768115
  20
47.167084
  0
VERTEX
  5
5f3
  8
Layer_0
  10
40.777197
  20
47.325685
  0
VERTEX
  5
5f4
  8
Layer_0
  10
40.811367
  20
47.750327
  0
VERTEX
  5
5f5
  8
Layer_0
  10
40.819241
  20
48.17026
  0
VERTEX
  5
5f6
  8
Layer_0
  10
40.799667
  20
48.58526
  0
VERTEX
  5
5f7
  8
Layer_0
  10
40.751493
  20
48.995104
  0
VERTEX
  5
5f8
  8
Layer_0
  10
40.673567
  20
49.399565
  0
VERTEX
  5
5f9
  8
Layer_0
  10
40.564736
  20
49.798422
  0
VERTEX
  5
5fa
  8
Layer_0
  10
40.423848
  20
50.191448
  0
VERTEX
  5
5fb
  8
Layer_0
  10
40.249751
  20
50.578421
  0
VERTEX
  5
5fc
  8
Layer_0
  10
40.182338
  20
50.760976
  0
VERTEX
  5
5fd
  8
Layer_0
  10
40.152953
  20
50.953621
  0
VERTEX
  5
5fe
  8
Layer_0
  10
40.159396
  20
51.1512
  0
VERTEX
  5
5ff
  8
Layer_0
  10
40.199468
  20
51.348554
  0
VERTEX
  5
600
  8
Layer_0
  10
40.270968
  20
51.540527
  0
VERTEX
  5
601
  8
Layer_0
  10
40.371697
  20
51.721961
  0
VERTEX
  5
602
  8
Layer_0
  10
40.499455
  20
51.8877
  0
VERTEX
  5
603
  8
Layer_0
  10
40.652042
  20
52.032585
  0
VERTEX
  5
604
  8
Layer_0
  10
40.793801
  20
52.128553
  0
VERTEX
  5
605
  8
Layer_0
  10
40.942999
  20
52.194026
  0
VERTEX
  5
606
  8
Layer_0
  10
41.097854
  20
52.229005
  0
VERTEX
  5
607
  8
Layer_0
  10
41.256586
  20
52.233489
  0
VERTEX
  5
608
  8
Layer_0
  10
41.417414
  20
52.207479
  0
VERTEX
  5
609
  8
Layer_0
  10
41.578556
  20
52.150975
  0
VERTEX
  5
60a
  8
Layer_0
  10
41.738231
  20
52.063976
  0
VERTEX
  5
60b
  8
Layer_0
  10
41.894658
  20
51.946482
  0
VERTEX
  5
60c
  8
Layer_0
  10
42.156144
  20
51.710899
  0
VERTEX
  5
60d
  8
Layer_0
  10
42.377401
  20
51.439439
  0
VERTEX
  5
60e
  8
Layer_0
  10
42.552144
  20
51.205107
  0
VERTEX
  5
60f
  8
Layer_0
  10
42.746164
  20
51.008781
  0
VERTEX
  5
610
  8
Layer_0
  10
42.956945
  20
50.846312
  0
VERTEX
  5
611
  8
Layer_0
  10
43.181974
  20
50.713553
  0
VERTEX
  5
612
  8
Layer_0
  10
43.664718
  20
50.520571
  0
VERTEX
  5
613
  8
Layer_0
  10
44.174283
  20
50.39665
  0
VERTEX
  5
614
  8
Layer_0
  10
44.888962
  20
50.2665
  0
VERTEX
  5
615
  8
Layer_0
  10
45.601493
  20
50.163102
  0
VERTEX
  5
616
  8
Layer_0
  10
46.311824
  20
50.086528
  0
VERTEX
  5
617
  8
Layer_0
  10
47.019903
  20
50.036846
  0
VERTEX
  5
618
  8
Layer_0
  10
47.725677
  20
50.014127
  0
VERTEX
  5
619
  8
Layer_0
  10
48.429094
  20
50.018441
  0
VERTEX
  5
61a
  8
Layer_0
  10
49.130102
  20
50.049858
  0
VERTEX
  5
61b
  8
Layer_0
  10
49.828648
  20
50.108448
  0
VERTEX
  5
61c
  8
Layer_0
  10
50.524679
  20
50.194282
  0
VERTEX
  5
61d
  8
Layer_0
  10
51.218144
  20
50.307428
  0
VERTEX
  5
61e
  8
Layer_0
  10
51.90899
  20
50.447958
  0
VERTEX
  5
61f
  8
Layer_0
  10
52.597164
  20
50.615941
  0
VERTEX
  5
620
  8
Layer_0
  10
53.282614
  20
50.811447
  0
VERTEX
  5
621
  8
Layer_0
  10
53.965288
  20
51.034547
  0
VERTEX
  5
622
  8
Layer_0
  10
54.645133
  20
51.28531
  0
VERTEX
  5
623
  8
Layer_0
  10
55.322098
  20
51.563807
  0
VERTEX
  5
624
  8
Layer_0
  10
55.698964
  20
51.771139
  0
VERTEX
  5
625
  8
Layer_0
  10
56.137849
  20
52.031388
  0
VERTEX
  5
626
  8
Layer_0
  10
56.36431
  20
52.146321
  0
VERTEX
  5
627
  8
Layer_0
  10
56.586791
  20
52.232442
  0
VERTEX
  5
628
  8
Layer_0
  10
56.798795
  20
52.275735
  0
VERTEX
  5
629
  8
Layer_0
  10
56.993829
  20
52.262188
  0
VERTEX
  5
62a
  8
Layer_0
  10
57.120521
  20
52.210617
  0
VERTEX
  5
62b
  8
Layer_0
  10
57.196089
  20
52.143798
  0
VERTEX
  5
62c
  8
Layer_0
  10
57.2264
  20
52.064423
  0
VERTEX
  5
62d
  8
Layer_0
  10
57.217321
  20
51.975182
  0
VERTEX
  5
62e
  8
Layer_0
  10
57.217319
  20
51.975185
  0
SEQEND
  0
POLYLINE
  5
630
  8
Layer_0
  62
0
  66
1
  10
0
  20
0
  30
0
  0
VERTEX
  5
630
  8
Layer_0
  10
27.483847
  20
43.125832
  42
0.26257422
  0
VERTEX
  5
631
  8
Layer_0
  10
27.760977
  20
43.814644
  42
0.056184525
  0
VERTEX
  5
632
  8
Layer_0
  10
27.322931
  20
45.976757
  0
VERTEX
  5
633
  8
Layer_0
  10
27.059908
  20
46.694869
  0
VERTEX
  5
634
  8
Layer_0
  10
26.734028
  20
47.373519
  0
VERTEX
  5
635
  8
Layer_0
  10
26.53835
  20
47.692439
  0
VERTEX
  5
636
  8
Layer_0
  10
26.315957
  20
47.994767
  0
VERTEX
  5
637
  8
Layer_0
  10
26.063184
  20
48.278261
  0
VERTEX
  5
638
  8
Layer_0
  10
25.776364
  20
48.540677
  0
VERTEX
  5
639
  8
Layer_0
  10
25.503811
  20
48.747841
  0
VERTEX
  5
63a
  8
Layer_0
  10
25.226466
  20
48.927986
  0
VERTEX
  5
63b
  8
Layer_0
  10
24.945193
  20
49.081
  0
VERTEX
  5
63c
  8
Layer_0
  10
24.660855
  20
49.206771
  0
VERTEX
  5
63d
  8
Layer_0
  10
24.374317
  20
49.305186
  0
VERTEX
  5
63e
  8
Layer_0
  10
24.086444
  20
49.376134
  0
VERTEX
  5
63f
  8
Layer_0
  10
23.798099
  20
49.419503
  0
VERTEX
  5
640
  8
Layer_0
  10
23.510147
  20
49.43518
  0
VERTEX
  5
641
  8
Layer_0
  10
23.223452
  20
49.423053
  0
VERTEX
  5
642
  8
Layer_0
  10
22.938878
  20
49.38301
  0
VERTEX
  5
643
  8
Layer_0
  10
22.657291
  20
49.31494
  0
VERTEX
  5
644
  8
Layer_0
  10
22.379553
  20
49.218729
  0
VERTEX
  5
645
  8
Layer_0
  10
22.106529
  20
49.094266
  0
VERTEX
  5
646
  8
Layer_0
  10
21.839084
  20
48.941439
  0
VERTEX
  5
647
  8
Layer_0
  10
21.578082
  20
48.760136
  0
VERTEX
  5
648
  8
Layer_0
  10
21.324387
  20
48.550244
  0
VERTEX
  5
649
  8
Layer_0
  10
20.892295
  20
48.129545
  0
VERTEX
  5
64a
  8
Layer_0
  10
20.49928
  20
47.679808
  0
VERTEX
  5
64b
  8
Layer_0
  10
20.142512
  20
47.20339
  0
VERTEX
  5
64c
  8
Layer_0
  10
19.819163
  20
46.702642
  0
VERTEX
  5
64d
  8
Layer_0
  10
19.526404
  20
46.179922
  0
VERTEX
  5
64e
  8
Layer_0
  10
19.261408
  20
45.637581
  0
VERTEX
  5
64f
  8
Layer_0
  10
19.021346
  20
45.077975
  0
VERTEX
  5
650
  8
Layer_0
  10
18.803388
  20
44.503459
  0
VERTEX
  5
651
  8
Layer_0
  10
18.774334
  20
44.359058
  0
VERTEX
  5
652
  8
Layer_0
  10
18.798918
  20
44.237977
  0
VERTEX
  5
653
  8
Layer_0
  10
18.863731
  20
44.134835
  0
VERTEX
  5
654
  8
Layer_0
  10
18.955363
  20
44.044249
  42
0.082047
  0
VERTEX
  5
655
  8
Layer_0
  10
20.448296
  20
43.030159
  0
VERTEX
  5
656
  8
Layer_0
  10
20.910541
  20
42.844055
  0
VERTEX
  5
657
  8
Layer_0
  10
21.378863
  20
42.69831
  0
VERTEX
  5
658
  8
Layer_0
  10
21.853471
  20
42.587544
  0
VERTEX
  5
659
  8
Layer_0
  10
22.334574
  20
42.506375
  0
VERTEX
  5
65a
  8
Layer_0
  10
23.317104
  20
42.411304
  0
VERTEX
  5
65b
  8
Layer_0
  10
24.328129
  20
42.370047
  0
VERTEX
  5
65c
  8
Layer_0
  10
24.915915
  20
42.392767
  0
VERTEX
  5
65d
  8
Layer_0
  10
25.543932
  20
42.437014
  0
VERTEX
  5
65e
  8
Layer_0
  10
26.06453
  20
42.50428
  0
VERTEX
  5
65f
  8
Layer_0
  10
26.564176
  20
42.630742
  0
VERTEX
  5
660
  8
Layer_0
  10
27.038679
  20
42.832544
  0
VERTEX
  5
661
  8
Layer_0
  10
27.483849
  20
43.125831
  0
VERTEX
  5
662
  8
Layer_0
  10
27.483847
  20
43.125832
  0
SEQEND
  0
POLYLINE
  5
664
  8
Layer_0
  62
0
  66
1
  10
0
  20
0
  30
0
  0
VERTEX
  5
664
  8
Layer_0
  10
20.761187
  20
43.546773
  0
VERTEX
  5
665
  8
Layer_0
  10
20.733668
  20
43.511195
  0
VERTEX
  5
666
  8
Layer_0
  10
20.695255
  20
43.498937
  0
VERTEX
  5
667
  8
Layer_0
  10
20.651813
  20
43.50103
  0
VERTEX
  5
668
  8
Layer_0
  10
20.60921
  20
43.508504
  0
VERTEX
  5
669
  8
Layer_0
  10
20.362443
  20
43.574463
  0
VERTEX
  5
66a
  8
Layer_0
  10
20.153704
  20
43.682801
  0
VERTEX
  5
66b
  8
Layer_0
  10
19.985823
  20
43.828359
  0
VERTEX
  5
66c
  8
Layer_0
  10
19.861627
  20
44.005982
  0
VERTEX
  5
66d
  8
Layer_0
  10
19.783946
  20
44.210511
  0
VERTEX
  5
66e
  8
Layer_0
  10
19.755607
  20
44.43679
  0
VERTEX
  5
66f
  8
Layer_0
  10
19.77944
  20
44.679661
  0
VERTEX
  5
670
  8
Layer_0
  10
19.858274
  20
44.933968
  0
VERTEX
  5
671
  8
Layer_0
  10
19.914007
  20
45.094811
  0
VERTEX
  5
672
  8
Layer_0
  10
19.975607
  20
45.259242
  0
VERTEX
  5
673
  8
Layer_0
  10
20.065703
  20
45.423672
  0
VERTEX
  5
674
  8
Layer_0
  10
20.206924
  20
45.584515
  0
VERTEX
  5
675
  8
Layer_0
  10
20.223965
  20
45.056991
  0
VERTEX
  5
676
  8
Layer_0
  10
20.30973
  20
44.564447
  0
VERTEX
  5
677
  8
Layer_0
  10
20.475953
  20
44.105985
  0
VERTEX
  5
678
  8
Layer_0
  10
20.734365
  20
43.680709
  42
-0.30624399
  0
VERTEX
  5
679
  8
Layer_0
  10
20.761187
  20
43.546772
  0
SEQEND
  0
POLYLINE
  5
67b
  8
Layer_0
  62
0
  66
1
  10
0
  20
0
  30
0
  0
VERTEX
  5
67b
  8
Layer_0
  10
22.44185
  20
46.569902
  0
VERTEX
  5
67c
  8
Layer_0
  10
22.30002
  20
46.597855
  0
VERTEX
  5
67d
  8
Layer_0
  10
22.165418
  20
46.6572
  0
VERTEX
  5
67e
  8
Layer_0
  10
22.041921
  20
46.743451
  0
VERTEX
  5
67f
  8
Layer_0
  10
21.933405
  20
46.852125
  0
VERTEX
  5
680
  8
Layer_0
  10
21.843745
  20
46.978737
  0
VERTEX
  5
681
  8
Layer_0
  10
21.77682
  20
47.118802
  0
VERTEX
  5
682
  8
Layer_0
  10
21.736503
  20
47.267836
  0
VERTEX
  5
683
  8
Layer_0
  10
21.726673
  20
47.421355
  0
VERTEX
  5
684
  8
Layer_0
  10
21.74911
  20
47.57861
  0
VERTEX
  5
685
  8
Layer_0
  10
21.800567
  20
47.725103
  0
VERTEX
  5
686
  8
Layer_0
  10
21.877375
  20
47.857245
  0
VERTEX
  5
687
  8
Layer_0
  10
21.975869
  20
47.97145
  0
VERTEX
  5
688
  8
Layer_0
  10
22.092383
  20
48.064129
  0
VERTEX
  5
689
  8
Layer_0
  10
22.223248
  20
48.131695
  0
VERTEX
  5
68a
  8
Layer_0
  10
22.3648
  20
48.17056
  0
VERTEX
  5
68b
  8
Layer_0
  10
22.51337
  20
48.177137
  42
-0.41911729
  0
VERTEX
  5
68c
  8
Layer_0
  10
23.228546
  20
47.354385
  0
VERTEX
  5
68d
  8
Layer_0
  10
23.206476
  20
47.187657
  0
VERTEX
  5
68e
  8
Layer_0
  10
23.15591
  20
47.034046
  0
VERTEX
  5
68f
  8
Layer_0
  10
23.080202
  20
46.896802
  0
VERTEX
  5
690
  8
Layer_0
  10
22.982704
  20
46.779178
  0
VERTEX
  5
691
  8
Layer_0
  10
22.866767
  20
46.684425
  0
VERTEX
  5
692
  8
Layer_0
  10
22.735745
  20
46.615794
  0
VERTEX
  5
693
  8
Layer_0
  10
22.59299
  20
46.576536
  0
VERTEX
  5
694
  8
Layer_0
  10
22.441853
  20
46.569902
  0
VERTEX
  5
695
  8
Layer_0
  10
22.441851
  20
46.569901
  0
SEQEND
  0
POLYLINE
  5
697
  8
Layer_0
  62
0
  66
1
  10
0
  20
0
  30
0
  0
VERTEX
  5
697
  8
Layer_0
  10
38.13104
  20
47.918831
  0
VERTEX
  5
698
  8
Layer_0
  10
37.76535
  20
48.293584
  0
VERTEX
  5
699
  8
Layer_0
  10
37.371165
  20
48.613626
  0
VERTEX
  5
69a
  8
Layer_0
  10
37.15972
  20
48.746123
  0
VERTEX
  5
69b
  8
Layer_0
  10
36.936752
  20
48.856534
  0
VERTEX
  5
69c
  8
Layer_0
  10
36.700793
  20
48.942057
  0
VERTEX
  5
69d
  8
Layer_0
  10
36.450377
  20
48.999887
  0
VERTEX
  5
69e
  8
Layer_0
  10
35.949648
  20
49.048843
  0
VERTEX
  5
69f
  8
Layer_0
  10
35.466728
  20
49.032773
  0
VERTEX
  5
6a0
  8
Layer_0
  10
35.001828
  20
48.954818
  0
VERTEX
  5
6a1
  8
Layer_0
  10
34.555156
  20
48.818117
  0
VERTEX
  5
6a2
  8
Layer_0
  10
34.126923
  20
48.625808
  0
VERTEX
  5
6a3
  8
Layer_0
  10
33.717338
  20
48.381031
  0
VERTEX
  5
6a4
  8
Layer_0
  10
33.32661
  20
48.086924
  0
VERTEX
  5
6a5
  8
Layer_0
  10
32.954949
  20
47.746628
  0
VERTEX
  5
6a6
  8
Layer_0
  10
32.607191
  20
47.357955
  0
VERTEX
  5
6a7
  8
Layer_0
  10
32.305004
  20
46.94047
  0
VERTEX
  5
6a8
  8
Layer_0
  10
32.043675
  20
46.497647
  0
VERTEX
  5
6a9
  8
Layer_0
  10
31.818488
  20
46.032962
  0
VERTEX
  5
6aa
  8
Layer_0
  10
31.457687
  20
45.05191
  0
VERTEX
  5
6ab
  8
Layer_0
  10
31.184886
  20
44.025117
  42
0.31499322
  0
VERTEX
  5
6ac
  8
Layer_0
  10
31.417316
  20
43.470238
  0
VERTEX
  5
6ad
  8
Layer_0
  10
31.818486
  20
43.191602
  0
VERTEX
  5
6ae
  8
Layer_0
  10
32.239769
  20
42.934492
  0
VERTEX
  5
6af
  8
Layer_0
  10
32.59479
  20
42.770902
  0
VERTEX
  5
6b0
  8
Layer_0
  10
32.956202
  20
42.642852
  0
VERTEX
  5
6b1
  8
Layer_0
  10
33.324529
  20
42.54552
  0
VERTEX
  5
6b2
  8
Layer_0
  10
33.700294
  20
42.474087
  0
VERTEX
  5
6b3
  8
Layer_0
  10
34.476233
  20
42.38963
  0
VERTEX
  5
6b4
  8
Layer_0
  10
35.28821
  20
42.350916
  0
VERTEX
  5
6b5
  8
Layer_0
  10
35.554447
  20
42.360333
  0
VERTEX
  5
6b6
  8
Layer_0
  10
35.849178
  20
42.368853
  0
VERTEX
  5
6b7
  8
Layer_0
  10
36.160671
  20
42.38993
  0
VERTEX
  5
6b8
  8
Layer_0
  10
36.477193
  20
42.437016
  0
VERTEX
  5
6b9
  8
Layer_0
  10
36.90925
  20
42.532031
  0
VERTEX
  5
6ba
  8
Layer_0
  10
37.332192
  20
42.648235
  0
VERTEX
  5
6bb
  8
Layer_0
  10
37.743611
  20
42.790673
  0
VERTEX
  5
6bc
  8
Layer_0
  10
38.141097
  20
42.96439
  0
VERTEX
  5
6bd
  8
Layer_0
  10
38.522239
  20
43.174431
  0
VERTEX
  5
6be
  8
Layer_0
  10
38.88463
  20
43.425842
  0
VERTEX
  5
6bf
  8
Layer_0
  10
39.225858
  20
43.723666
  0
VERTEX
  5
6c0
  8
Layer_0
  10
39.543516
  20
44.07295
  0
VERTEX
  5
6c1
  8
Layer_0
  10
39.734462
  20
44.346353
  0
VERTEX
  5
6c2
  8
Layer_0
  10
39.844113
  20
44.617066
  0
VERTEX
  5
6c3
  8
Layer_0
  10
39.865048
  20
44.756178
  0
VERTEX
  5
6c4
  8
Layer_0
  10
39.861573
  20
44.900334
  0
VERTEX
  5
6c5
  8
Layer_0
  10
39.832327
  20
45.051442
  0
VERTEX
  5
6c6
  8
Layer_0
  10
39.775948
  20
45.211407
  0
VERTEX
  5
6c7
  8
Layer_0
  10
39.433443
  20
45.935799
  0
VERTEX
  5
6c8
  8
Layer_0
  10
39.054063
  20
46.636871
  0
VERTEX
  5
6c9
  8
Layer_0
  10
38.624398
  20
47.302067
  0
VERTEX
  5
6ca
  8
Layer_0
  10
38.131038
  20
47.918831
  0
VERTEX
  5
6cb
  8
Layer_0
  10
38.131039
  20
47.918831
  0
SEQEND
  0
POLYLINE
  5
6cd
  8
Layer_0
  62
0
  66
1
  10
0
  20
0
  30
0
  0
VERTEX
  5
6cd
  8
Layer_0
  10
34.635613
  20
46.311599
  0
VERTEX
  5
6ce
  8
Layer_0
  10
34.48823
  20
46.328472
  0
VERTEX
  5
6cf
  8
Layer_0
  10
34.349962
  20
46.376624
  0
VERTEX
  5
6d0
  8
Layer_0
  10
34.224055
  20
46.452355
  0
VERTEX
  5
6d1
  8
Layer_0
  10
34.113757
  20
46.551966
  0
VERTEX
  5
6d2
  8
Layer_0
  10
34.022317
  20
46.671758
  0
VERTEX
  5
6d3
  8
Layer_0
  10
33.952982
  20
46.80803
  0
VERTEX
  5
6d4
  8
Layer_0
  10
33.908999
  20
46.957082
  0
VERTEX
  5
6d5
  8
Layer_0
  10
33.893616
  20
47.115216
  0
VERTEX
  5
6d6
  8
Layer_0
  10
33.908947
  20
47.264324
  0
VERTEX
  5
6d7
  8
Layer_0
  10
33.952563
  20
47.407603
  0
VERTEX
  5
6d8
  8
Layer_0
  10
34.020903
  20
47.541016
  0
VERTEX
  5
6d9
  8
Layer_0
  10
34.110405
  20
47.660527
  0
VERTEX
  5
6da
  8
Layer_0
  10
34.217507
  20
47.7621
  0
VERTEX
  5
6db
  8
Layer_0
  10
34.338647
  20
47.841699
  0
VERTEX
  5
6dc
  8
Layer_0
  10
34.470264
  20
47.895288
  0
VERTEX
  5
6dd
  8
Layer_0
  10
34.608794
  20
47.918831
  0
VERTEX
  5
6de
  8
Layer_0
  10
34.77018
  20
47.909843
  0
VERTEX
  5
6df
  8
Layer_0
  10
34.917632
  20
47.870249
  0
VERTEX
  5
6e0
  8
Layer_0
  10
35.048952
  20
47.802627
  0
VERTEX
  5
6e1
  8
Layer_0
  10
35.161938
  20
47.709556
  0
VERTEX
  5
6e2
  8
Layer_0
  10
35.254391
  20
47.593614
  0
VERTEX
  5
6e3
  8
Layer_0
  10
35.324111
  20
47.457379
  0
VERTEX
  5
6e4
  8
Layer_0
  10
35.368897
  20
47.303431
  0
VERTEX
  5
6e5
  8
Layer_0
  10
35.386549
  20
47.134348
  0
VERTEX
  5
6e6
  8
Layer_0
  10
35.375182
  20
46.961658
  0
VERTEX
  5
6e7
  8
Layer_0
  10
35.335844
  20
46.803991
  0
VERTEX
  5
6e8
  8
Layer_0
  10
35.270735
  20
46.663814
  0
VERTEX
  5
6e9
  8
Layer_0
  10
35.182053
  20
46.543593
  0
VERTEX
  5
6ea
  8
Layer_0
  10
35.072001
  20
46.445795
  0
VERTEX
  5
6eb
  8
Layer_0
  10
34.942776
  20
46.372885
  0
VERTEX
  5
6ec
  8
Layer_0
  10
34.79658
  20
46.32733
  0
VERTEX
  5
6ed
  8
Layer_0
  10
34.635613
  20
46.311597
  0
VERTEX
  5
6ee
  8
Layer_0
  10
34.635612
  20
46.3116
  0
SEQEND
  0
POLYLINE
  5
6f0
  8
Layer_0
  62
0
  66
1
  10
0
  20
0
  30
0
  0
VERTEX
  5
6f0
  8
Layer_0
  10
38.336653
  20
43.594608
  0
VERTEX
  5
6f1
  8
Layer_0
  10
38.261923
  20
43.60238
  0
VERTEX
  5
6f2
  8
Layer_0
  10
38.214849
  20
43.635265
  0
VERTEX
  5
6f3
  8
Layer_0
  10
38.199623
  20
43.686089
  0
VERTEX
  5
6f4
  8
Layer_0
  10
38.220437
  20
43.747675
  0
VERTEX
  5
6f5
  8
Layer_0
  10
38.338871
  20
43.993219
  0
VERTEX
  5
6f6
  8
Layer_0
  10
38.413618
  20
44.248293
  0
VERTEX
  5
6f7
  8
Layer_0
  10
38.456309
  20
44.511662
  0
VERTEX
  5
6f8
  8
Layer_0
  10
38.478571
  20
44.782095
  0
VERTEX
  5
6f9
  8
Layer_0
  10
38.508323
  20
45.339215
  0
VERTEX
  5
6fa
  8
Layer_0
  10
38.595904
  20
45.909789
  0
VERTEX
  5
6fb
  8
Layer_0
  10
38.815347
  20
45.576294
  0
VERTEX
  5
6fc
  8
Layer_0
  10
38.97696
  20
45.243695
  0
VERTEX
  5
6fd
  8
Layer_0
  10
39.079905
  20
44.902128
  0
VERTEX
  5
6fe
  8
Layer_0
  10
39.123346
  20
44.541727
  0
VERTEX
  5
6ff
  8
Layer_0
  10
39.099809
  20
44.419805
  0
VERTEX
  5
700
  8
Layer_0
  10
39.035625
  20
44.276695
  0
VERTEX
  5
701
  8
Layer_0
  10
38.940431
  20
44.123494
  0
VERTEX
  5
702
  8
Layer_0
  10
38.823866
  20
43.971302
  0
VERTEX
  5
703
  8
Layer_0
  10
38.695568
  20
43.831218
  0
VERTEX
  5
704
  8
Layer_0
  10
38.565174
  20
43.714342
  0
VERTEX
  5
705
  8
Layer_0
  10
38.442323
  20
43.631772
  0
VERTEX
  5
706
  8
Layer_0
  10
38.336653
  20
43.594608
  0
SEQEND
  0
POLYLINE
  5
708
  8
Layer_0
  62
0
  66
1
  10
0
  20
0
  30
0
  0
VERTEX
  5
708
  8
Layer_0
  10
33.625427
  20
40.848915
  42
0.085880797
  0
VERTEX
  5
709
  8
Layer_0
  10
33.527088
  20
40.810646
  0
VERTEX
  5
70a
  8
Layer_0
  10
33.199111
  20
40.640532
  0
VERTEX
  5
70b
  8
Layer_0
  10
32.943737
  20
40.516883
  0
VERTEX
  5
70c
  8
Layer_0
  10
32.737466
  20
40.438564
  0
VERTEX
  5
70d
  8
Layer_0
  10
32.556793
  20
40.404434
  0
VERTEX
  5
70e
  8
Layer_0
  10
32.378215
  20
40.413355
  0
VERTEX
  5
70f
  8
Layer_0
  10
32.178229
  20
40.464189
  0
VERTEX
  5
710
  8
Layer_0
  10
31.933332
  20
40.555795
  0
VERTEX
  5
711
  8
Layer_0
  10
31.62002
  20
40.687036
  0
VERTEX
  5
712
  8
Layer_0
  10
31.316788
  20
40.796256
  0
VERTEX
  5
713
  8
Layer_0
  10
30.945247
  20
40.897238
  0
VERTEX
  5
714
  8
Layer_0
  10
30.528166
  20
40.983611
  0
VERTEX
  5
715
  8
Layer_0
  10
30.088315
  20
41.049002
  0
VERTEX
  5
716
  8
Layer_0
  10
29.648465
  20
41.087037
  0
VERTEX
  5
717
  8
Layer_0
  10
29.231384
  20
41.091344
  0
VERTEX
  5
718
  8
Layer_0
  10
28.859843
  20
41.055551
  0
VERTEX
  5
719
  8
Layer_0
  10
28.556611
  20
40.973285
  0
VERTEX
  5
71a
  8
Layer_0
  10
28.11172
  20
40.800334
  0
VERTEX
  5
71b
  8
Layer_0
  10
27.659287
  20
40.665949
  0
VERTEX
  5
71c
  8
Layer_0
  10
27.428932
  20
40.625271
  0
VERTEX
  5
71d
  8
Layer_0
  10
27.19512
  20
40.608697
  0
VERTEX
  5
71e
  8
Layer_0
  10
26.957328
  20
40.621048
  0
VERTEX
  5
71f
  8
Layer_0
  10
26.715031
  20
40.667145
  0
VERTEX
  5
720
  8
Layer_0
  10
26.13842
  20
40.796298
  0
VERTEX
  5
721
  8
Layer_0
  10
25.561809
  20
40.92545
  0
VERTEX
  5
722
  8
Layer_0
  10
25.461935
  20
40.947424
  0
VERTEX
  5
723
  8
Layer_0
  10
25.366253
  20
40.957738
  0
VERTEX
  5
724
  8
Layer_0
  10
25.27895
  20
40.937558
  0
VERTEX
  5
725
  8
Layer_0
  10
25.204219
  20
40.86805
  0
VERTEX
  5
726
  8
Layer_0
  10
25.166644
  20
40.77268
  0
VERTEX
  5
727
  8
Layer_0
  10
25.185222
  20
40.68628
  0
VERTEX
  5
728
  8
Layer_0
  10
25.235647
  20
40.607054
  0
VERTEX
  5
729
  8
Layer_0
  10
25.293616
  20
40.533209
  0
VERTEX
  5
72a
  8
Layer_0
  10
25.729426
  20
39.88027
  0
VERTEX
  5
72b
  8
Layer_0
  10
26.178647
  20
39.241681
  0
VERTEX
  5
72c
  8
Layer_0
  10
26.531661
  20
38.832069
  0
VERTEX
  5
72d
  8
Layer_0
  10
26.907513
  20
38.489756
  0
VERTEX
  5
72e
  8
Layer_0
  10
27.30725
  20
38.209949
  0
VERTEX
  5
72f
  8
Layer_0
  10
27.731922
  20
37.987852
  0
VERTEX
  5
730
  8
Layer_0
  10
28.182574
  20
37.818673
  0
VERTEX
  5
731
  8
Layer_0
  10
28.660255
  20
37.697616
  0
VERTEX
  5
732
  8
Layer_0
  10
29.166012
  20
37.619887
  0
VERTEX
  5
733
  8
Layer_0
  10
29.700893
  20
37.580693
  0
VERTEX
  5
734
  8
Layer_0
  10
30.060634
  20
37.579561
  0
VERTEX
  5
735
  8
Layer_0
  10
30.413669
  20
37.614303
  0
VERTEX
  5
736
  8
Layer_0
  10
30.94442
  20
37.735541
  0
VERTEX
  5
737
  8
Layer_0
  10
31.432878
  20
37.880288
  0
VERTEX
  5
738
  8
Layer_0
  10
31.892842
  20
38.086023
  0
VERTEX
  5
739
  8
Layer_0
  10
32.338108
  20
38.390227
  0
VERTEX
  5
73a
  8
Layer_0
  10
32.811633
  20
38.789197
  0
VERTEX
  5
73b
  8
Layer_0
  10
33.270072
  20
39.207
  0
VERTEX
  5
73c
  8
Layer_0
  10
33.698341
  20
39.658885
  0
VERTEX
  5
73d
  8
Layer_0
  10
34.081352
  20
40.160099
  0
VERTEX
  5
73e
  8
Layer_0
  10
34.190026
  20
40.31601
  0
VERTEX
  5
73f
  8
Layer_0
  10
34.286966
  20
40.481785
  0
VERTEX
  5
740
  8
Layer_0
  10
34.330268
  20
40.65653
  0
VERTEX
  5
741
  8
Layer_0
  10
34.278025
  20
40.839346
  0
VERTEX
  5
742
  8
Layer_0
  10
34.210017
  20
40.919806
  0
VERTEX
  5
743
  8
Layer_0
  10
34.134571
  20
40.959232
  0
VERTEX
  5
744
  8
Layer_0
  10
34.053468
  20
40.966819
  0
VERTEX
  5
745
  8
Layer_0
  10
33.968489
  20
40.951758
  0
VERTEX
  5
746
  8
Layer_0
  10
33.794025
  20
40.890471
  0
VERTEX
  5
747
  8
Layer_0
  10
33.625428
  20
40.848916
  0
VERTEX
  5
748
  8
Layer_0
  10
33.625427
  20
40.848915
  0
SEQEND
  0
POLYLINE
  5
74a
  8
Layer_0
  62
0
  66
1
  10
0
  20
0
  30
0
  0
VERTEX
  5
74a
  8
Layer_0
  10
30.854116
  20
38.170191
  0
VERTEX
  5
74b
  8
Layer_0
  10
30.564693
  20
38.044178
  0
VERTEX
  5
74c
  8
Layer_0
  10
30.268565
  20
37.987225
  0
VERTEX
  5
74d
  8
Layer_0
  10
29.979142
  20
37.964355
  0
VERTEX
  5
74e
  8
Layer_0
  10
29.709833
  20
37.940587
  0
VERTEX
  5
74f
  8
Layer_0
  10
29.285336
  20
37.966147
  0
VERTEX
  5
750
  8
Layer_0
  10
28.881792
  20
38.001574
  0
VERTEX
  5
751
  8
Layer_0
  10
28.496686
  20
38.071083
  0
VERTEX
  5
752
  8
Layer_0
  10
28.127504
  20
38.198892
  0
VERTEX
  5
753
  8
Layer_0
  10
27.9881
  20
38.266158
  0
VERTEX
  5
754
  8
Layer_0
  10
27.863782
  20
38.34957
  0
VERTEX
  5
755
  8
Layer_0
  10
27.772988
  20
38.465269
  0
VERTEX
  5
756
  8
Layer_0
  10
27.734157
  20
38.629401
  42
-0.31471329
  0
VERTEX
  5
757
  8
Layer_0
  10
28.073868
  20
39.11731
  0
VERTEX
  5
758
  8
Layer_0
  10
28.425816
  20
39.246614
  0
VERTEX
  5
759
  8
Layer_0
  10
28.77745
  20
39.339143
  0
VERTEX
  5
75a
  8
Layer_0
  10
29.128456
  20
39.393106
  0
VERTEX
  5
75b
  8
Layer_0
  10
29.478519
  20
39.406708
  0
VERTEX
  5
75c
  8
Layer_0
  10
29.827325
  20
39.378157
  0
VERTEX
  5
75d
  8
Layer_0
  10
30.174559
  20
39.305658
  0
VERTEX
  5
75e
  8
Layer_0
  10
30.519907
  20
39.187417
  0
VERTEX
  5
75f
  8
Layer_0
  10
30.863055
  20
39.021642
  0
VERTEX
  5
760
  8
Layer_0
  10
30.982571
  20
38.936399
  0
VERTEX
  5
761
  8
Layer_0
  10
31.066573
  20
38.834788
  0
VERTEX
  5
762
  8
Layer_0
  10
31.115585
  20
38.721966
  0
VERTEX
  5
763
  8
Layer_0
  10
31.130129
  20
38.603091
  0
VERTEX
  5
764
  8
Layer_0
  10
31.110731
  20
38.483318
  0
VERTEX
  5
765
  8
Layer_0
  10
31.057913
  20
38.367806
  0
VERTEX
  5
766
  8
Layer_0
  10
30.9722
  20
38.261711
  0
VERTEX
  5
767
  8
Layer_0
  10
30.854116
  20
38.170191
  0
SEQEND
  0
POLYLINE
  5
769
  8
Layer_0
  62
0
  66
1
  10
0
  20
0
  30
0
  0
VERTEX
  5
769
  8
Layer_0
  10
20.895277
  20
49.736537
  0
VERTEX
  5
76a
  8
Layer_0
  10
20.86287
  20
49.792293
  0
VERTEX
  5
76b
  8
Layer_0
  10
20.863987
  20
49.845359
  0
VERTEX
  5
76c
  8
Layer_0
  10
20.885219
  20
49.896632
  0
VERTEX
  5
76d
  8
Layer_0
  10
20.913157
  20
49.947006
  0
VERTEX
  5
76e
  8
Layer_0
  10
21.073513
  20
50.209348
  0
VERTEX
  5
76f
  8
Layer_0
  10
21.27745
  20
50.416979
  0
VERTEX
  5
770
  8
Layer_0
  10
21.511559
  20
50.583354
  0
VERTEX
  5
771
  8
Layer_0
  10
21.762429
  20
50.721924
  0
VERTEX
  5
772
  8
Layer_0
  10
22.283586
  20
50.947941
  0
VERTEX
  5
773
  8
Layer_0
  10
22.874305
  20
51.109382
  0
VERTEX
  5
774
  8
Layer_0
  10
23.198631
  20
51.165886
  0
VERTEX
  5
775
  8
Layer_0
  10
23.543806
  20
51.206246
  0
VERTEX
  5
776
  8
Layer_0
  10
23.910981
  20
51.230462
  0
VERTEX
  5
777
  8
Layer_0
  10
24.301308
  20
51.238534
  0
VERTEX
  5
778
  8
Layer_0
  10
24.753024
  20
51.178479
  0
VERTEX
  5
779
  8
Layer_0
  10
25.199607
  20
51.061248
  0
VERTEX
  5
77a
  8
Layer_0
  10
25.635924
  20
50.884373
  0
VERTEX
  5
77b
  8
Layer_0
  10
26.056842
  20
50.645388
  0
VERTEX
  5
77c
  8
Layer_0
  10
26.457226
  20
50.341827
  0
VERTEX
  5
77d
  8
Layer_0
  10
26.831943
  20
49.971223
  0
VERTEX
  5
77e
  8
Layer_0
  10
27.17586
  20
49.531109
  0
VERTEX
  5
77f
  8
Layer_0
  10
27.483844
  20
49.01902
  0
VERTEX
  5
780
  8
Layer_0
  10
27.549077
  20
48.912589
  0
VERTEX
  5
781
  8
Layer_0
  10
27.610118
  20
48.798983
  0
VERTEX
  5
782
  8
Layer_0
  10
27.625902
  20
48.685376
  0
VERTEX
  5
783
  8
Layer_0
  10
27.555364
  20
48.578944
  0
VERTEX
  5
784
  8
Layer_0
  10
27.431325
  20
48.519151
  0
VERTEX
  5
785
  8
Layer_0
  10
27.293878
  20
48.509584
  0
VERTEX
  5
786
  8
Layer_0
  10
27.153077
  20
48.546655
  0
VERTEX
  5
787
  8
Layer_0
  10
27.01898
  20
48.626778
  42
-0.10427695
  0
VERTEX
  5
788
  8
Layer_0
  10
26.840187
  20
48.856384
  0
VERTEX
  5
789
  8
Layer_0
  10
26.534734
  20
49.344444
  0
VERTEX
  5
78a
  8
Layer_0
  10
26.161606
  20
49.770618
  0
VERTEX
  5
78b
  8
Layer_0
  10
25.731069
  20
50.127731
  0
VERTEX
  5
78c
  8
Layer_0
  10
25.253388
  20
50.408608
  0
VERTEX
  5
78d
  8
Layer_0
  10
24.738831
  20
50.606075
  0
VERTEX
  5
78e
  8
Layer_0
  10
24.197664
  20
50.712955
  0
VERTEX
  5
78f
  8
Layer_0
  10
23.92031
  20
50.730183
  0
VERTEX
  5
790
  8
Layer_0
  10
23.640154
  20
50.722074
  0
VERTEX
  5
791
  8
Layer_0
  10
23.358479
  20
50.68773
  0
VERTEX
  5
792
  8
Layer_0
  10
23.076568
  20
50.626256
  0
VERTEX
  5
793
  8
Layer_0
  10
22.615754
  20
50.493217
  0
VERTEX
  5
794
  8
Layer_0
  10
22.172539
  20
50.329683
  0
VERTEX
  5
795
  8
Layer_0
  10
21.747763
  20
50.123098
  0
VERTEX
  5
796
  8
Layer_0
  10
21.342264
  20
49.860906
  42
-0.032110905
  0
VERTEX
  5
797
  8
Layer_0
  10
21.091953
  20
49.707836
  42
-0.32289621
  0
VERTEX
  5
798
  8
Layer_0
  10
20.895279
  20
49.736534
  0
VERTEX
  5
799
  8
Layer_0
  10
20.895277
  20
49.736534
  0
SEQEND
  0
POLYLINE
  5
79b
  8
Layer_0
  62
0
  66
1
  10
0
  20
0
  30
0
  0
VERTEX
  5
79b
  8
Layer_0
  10
32.347043
  20
48.942486
  0
VERTEX
  5
79c
  8
Layer_0
  10
32.581134
  20
49.350498
  0
VERTEX
  5
79d
  8
Layer_0
  10
32.851996
  20
49.702454
  0
VERTEX
  5
79e
  8
Layer_0
  10
33.156173
  20
50.003288
  0
VERTEX
  5
79f
  8
Layer_0
  10
33.490207
  20
50.257931
  0
VERTEX
  5
7a0
  8
Layer_0
  10
33.850641
  20
50.471317
  0
VERTEX
  5
7a1
  8
Layer_0
  10
34.234019
  20
50.648379
  0
VERTEX
  5
7a2
  8
Layer_0
  10
34.636882
  20
50.794049
  0
VERTEX
  5
7a3
  8
Layer_0
  10
35.055773
  20
50.913261
  0
VERTEX
  5
7a4
  8
Layer_0
  10
35.203
  20
50.950781
  0
VERTEX
  5
7a5
  8
Layer_0
  10
35.348549
  20
50.983816
  0
VERTEX
  5
7a6
  8
Layer_0
  10
35.490746
  20
51.000708
  0
VERTEX
  5
7a7
  8
Layer_0
  10
35.627916
  20
50.989796
  0
VERTEX
  5
7a8
  8
Layer_0
  10
35.967764
  20
50.960086
  0
VERTEX
  5
7a9
  8
Layer_0
  10
36.296717
  20
50.906384
  0
VERTEX
  5
7aa
  8
Layer_0
  10
36.614775
  20
50.828018
  0
VERTEX
  5
7ab
  8
Layer_0
  10
36.921938
  20
50.724315
  0
VERTEX
  5
7ac
  8
Layer_0
  10
37.218206
  20
50.594601
  0
VERTEX
  5
7ad
  8
Layer_0
  10
37.503578
  20
50.438205
  0
VERTEX
  5
7ae
  8
Layer_0
  10
37.778055
  20
50.254454
  0
VERTEX
  5
7af
  8
Layer_0
  10
38.041636
  20
50.042676
  0
VERTEX
  5
7b0
  8
Layer_0
  10
38.128798
  20
49.976605
  0
VERTEX
  5
7b1
  8
Layer_0
  10
38.215961
  20
49.901565
  0
VERTEX
  5
7b2
  8
Layer_0
  10
38.262895
  20
49.808587
  0
VERTEX
  5
7b3
  8
Layer_0
  10
38.229372
  20
49.688701
  0
VERTEX
  5
7b4
  8
Layer_0
  10
38.141372
  20
49.604244
  0
VERTEX
  5
7b5
  8
Layer_0
  10
38.041638
  20
49.594229
  0
VERTEX
  5
7b6
  8
Layer_0
  10
37.935199
  20
49.636233
  0
VERTEX
  5
7b7
  8
Layer_0
  10
37.827084
  20
49.707834
  42
0.10764456
  0
VERTEX
  5
7b8
  8
Layer_0
  10
36.200054
  20
50.454048
  0
VERTEX
  5
7b9
  8
Layer_0
  10
35.851215
  20
50.498931
  0
VERTEX
  5
7ba
  8
Layer_0
  10
35.514632
  20
50.493812
  0
VERTEX
  5
7bb
  8
Layer_0
  10
35.189153
  20
50.444296
  0
VERTEX
  5
7bc
  8
Layer_0
  10
34.873627
  20
50.355989
  0
VERTEX
  5
7bd
  8
Layer_0
  10
34.267822
  20
50.085426
  0
VERTEX
  5
7be
  8
Layer_0
  10
33.687996
  20
49.726967
  42
0.10954973
  0
VERTEX
  5
7bf
  8
Layer_0
  10
32.963882
  20
48.942482
  42
-0.084526462
  0
VERTEX
  5
7c0
  8
Layer_0
  10
32.704632
  20
48.626778
  0
VERTEX
  5
7c1
  8
Layer_0
  10
32.605037
  20
48.551288
  0
VERTEX
  5
7c2
  8
Layer_0
  10
32.497899
  20
48.496428
  0
VERTEX
  5
7c3
  8
Layer_0
  10
32.389086
  20
48.482826
  0
VERTEX
  5
7c4
  8
Layer_0
  10
32.284463
  20
48.531109
  0
VERTEX
  5
7c5
  8
Layer_0
  10
32.221326
  20
48.634401
  0
VERTEX
  5
7c6
  8
Layer_0
  10
32.235295
  20
48.740384
  0
VERTEX
  5
7c7
  8
Layer_0
  10
32.289493
  20
48.844574
  0
VERTEX
  5
7c8
  8
Layer_0
  10
32.347043
  20
48.942485
  0
VERTEX
  5
7c9
  8
Layer_0
  10
32.347042
  20
48.942486
  0
SEQEND
  0
POLYLINE
  5
7cb
  8
Layer_0
  62
0
  66
1
  10
0
  20
0
  30
0
  0
VERTEX
  5
7cb
  8
Layer_0
  10
28.45827
  20
42.255245
  0
VERTEX
  5
7cc
  8
Layer_0
  10
28.681657
  20
42.092983
  0
VERTEX
  5
7cd
  8
Layer_0
  10
28.936264
  20
41.972425
  0
VERTEX
  5
7ce
  8
Layer_0
  10
29.212242
  20
41.894022
  0
VERTEX
  5
7cf
  8
Layer_0
  10
29.499745
  20
41.858221
  0
VERTEX
  5
7d0
  8
Layer_0
  10
29.788923
  20
41.865471
  0
VERTEX
  5
7d1
  8
Layer_0
  10
30.069931
  20
41.91622
  0
VERTEX
  5
7d2
  8
Layer_0
  10
30.332919
  20
42.010917
  0
VERTEX
  5
7d3
  8
Layer_0
  10
30.568041
  20
42.15001
  0
VERTEX
  5
7d4
  8
Layer_0
  10
30.764557
  20
42.325708
  0
VERTEX
  5
7d5
  8
Layer_0
  10
30.904815
  20
42.518783
  0
VERTEX
  5
7d6
  8
Layer_0
  10
30.988712
  20
42.723294
  0
VERTEX
  5
7d7
  8
Layer_0
  10
31.016142
  20
42.933298
  0
VERTEX
  5
7d8
  8
Layer_0
  10
30.987001
  20
43.142853
  0
VERTEX
  5
7d9
  8
Layer_0
  10
30.901184
  20
43.346018
  0
VERTEX
  5
7da
  8
Layer_0
  10
30.758585
  20
43.536851
  0
VERTEX
  5
7db
  8
Layer_0
  10
30.559101
  20
43.70941
  0
VERTEX
  5
7dc
  8
Layer_0
  10
30.33002
  20
43.841553
  0
VERTEX
  5
7dd
  8
Layer_0
  10
30.087529
  20
43.927056
  0
VERTEX
  5
7de
  8
Layer_0
  10
29.834983
  20
43.973097
  0
VERTEX
  5
7df
  8
Layer_0
  10
29.575733
  20
43.986849
  42
0.17902839
  0
VERTEX
  5
7e0
  8
Layer_0
  10
28.476149
  20
43.623306
  0
VERTEX
  5
7e1
  8
Layer_0
  10
28.323213
  20
43.462893
  0
VERTEX
  5
7e2
  8
Layer_0
  10
28.213125
  20
43.292501
  0
VERTEX
  5
7e3
  8
Layer_0
  10
28.14599
  20
43.115607
  0
VERTEX
  5
7e4
  8
Layer_0
  10
28.121912
  20
42.935686
  0
VERTEX
  5
7e5
  8
Layer_0
  10
28.140996
  20
42.756214
  0
VERTEX
  5
7e6
  8
Layer_0
  10
28.203347
  20
42.580667
  0
VERTEX
  5
7e7
  8
Layer_0
  10
28.30907
  20
42.412518
  0
VERTEX
  5
7e8
  8
Layer_0
  10
28.45827
  20
42.255245
  0
SEQEND
  0
POLYLINE
  5
7ea
  8
Layer_0
  62
0
  66
1
  10
0
  20
0
  30
0
  0
VERTEX
  5
7ea
  8
Layer_0
  10
29.182386
  20
43.336304
  42
-0.15872753
  0
VERTEX
  5
7eb
  8
Layer_0
  10
29.790287
  20
43.489372
  42
-0.085869431
  0
VERTEX
  5
7ec
  8
Layer_0
  10
30.219395
  20
43.422401
  0
VERTEX
  5
7ed
  8
Layer_0
  10
30.40182
  20
43.348261
  0
VERTEX
  5
7ee
  8
Layer_0
  10
30.559103
  20
43.245417
  0
VERTEX
  5
7ef
  8
Layer_0
  10
30.669453
  20
43.099522
  0
VERTEX
  5
7f0
  8
Layer_0
  10
30.711078
  20
42.896227
  0
VERTEX
  5
7f1
  8
Layer_0
  10
30.669872
  20
42.703992
  0
VERTEX
  5
7f2
  8
Layer_0
  10
30.562455
  20
42.563778
  0
VERTEX
  5
7f3
  8
Layer_0
  10
30.413134
  20
42.463026
  0
VERTEX
  5
7f4
  8
Layer_0
  10
30.246212
  20
42.389181
  0
VERTEX
  5
7f5
  8
Layer_0
  10
29.976902
  20
42.315038
  0
VERTEX
  5
7f6
  8
Layer_0
  10
29.707594
  20
42.298296
  0
VERTEX
  5
7f7
  8
Layer_0
  10
29.441638
  20
42.346131
  0
VERTEX
  5
7f8
  8
Layer_0
  10
29.182387
  20
42.465717
  0
VERTEX
  5
7f9
  8
Layer_0
  10
29.047819
  20
42.5663
  0
VERTEX
  5
7fa
  8
Layer_0
  10
28.952328
  20
42.673048
  0
VERTEX
  5
7fb
  8
Layer_0
  10
28.895599
  20
42.784058
  0
VERTEX
  5
7fc
  8
Layer_0
  10
28.877318
  20
42.897422
  0
VERTEX
  5
7fd
  8
Layer_0
  10
28.897171
  20
43.011234
  0
VERTEX
  5
7fe
  8
Layer_0
  10
28.954842
  20
43.123589
  0
VERTEX
  5
7ff
  8
Layer_0
  10
29.050019
  20
43.232581
  0
VERTEX
  5
800
  8
Layer_0
  10
29.182387
  20
43.336303
  0
SEQEND
  0
POLYLINE
  5
802
  8
Layer_0
  62
0
  66
1
  10
0
  20
0
  30
0
  0
VERTEX
  5
802
  8
Layer_0
  10
32.284463
  20
52.826636
  0
VERTEX
  5
803
  8
Layer_0
  10
32.252198
  20
52.929181
  0
VERTEX
  5
804
  8
Layer_0
  10
32.274408
  20
53.022757
  0
VERTEX
  5
805
  8
Layer_0
  10
32.328464
  20
53.109158
  0
VERTEX
  5
806
  8
Layer_0
  10
32.391739
  20
53.190178
  0
VERTEX
  5
807
  8
Layer_0
  10
32.535054
  20
53.334896
  0
VERTEX
  5
808
  8
Layer_0
  10
32.688425
  20
53.449231
  0
VERTEX
  5
809
  8
Layer_0
  10
32.84934
  20
53.537781
  0
VERTEX
  5
80a
  8
Layer_0
  10
33.015284
  20
53.605141
  0
VERTEX
  5
80b
  8
Layer_0
  10
33.352199
  20
53.694681
  0
VERTEX
  5
80c
  8
Layer_0
  10
33.679057
  20
53.754623
  42
-0.13036162
  0
VERTEX
  5
80d
  8
Layer_0
  10
35.055771
  20
53.276279
  42
-0.16814316
  0
VERTEX
  5
80e
  8
Layer_0
  10
35.297142
  20
52.960571
  0
VERTEX
  5
80f
  8
Layer_0
  10
35.317817
  20
52.874919
  0
VERTEX
  5
810
  8
Layer_0
  10
35.321728
  20
52.791956
  0
VERTEX
  5
811
  8
Layer_0
  10
35.302172
  20
52.714374
  0
VERTEX
  5
812
  8
Layer_0
  10
35.252444
  20
52.644865
  0
VERTEX
  5
813
  8
Layer_0
  10
35.175059
  20
52.604056
  0
VERTEX
  5
814
  8
Layer_0
  10
35.102703
  20
52.612577
  0
VERTEX
  5
815
  8
Layer_0
  10
35.0337
  20
52.651592
  0
VERTEX
  5
816
  8
Layer_0
  10
34.966374
  20
52.702266
  0
VERTEX
  5
817
  8
Layer_0
  10
34.683498
  20
52.899153
  0
VERTEX
  5
818
  8
Layer_0
  10
34.398004
  20
53.039647
  0
VERTEX
  5
819
  8
Layer_0
  10
34.109785
  20
53.126553
  0
VERTEX
  5
81a
  8
Layer_0
  10
33.818738
  20
53.162671
  0
VERTEX
  5
81b
  8
Layer_0
  10
33.524758
  20
53.150806
  0
VERTEX
  5
81c
  8
Layer_0
  10
33.227739
  20
53.09376
  0
VERTEX
  5
81d
  8
Layer_0
  10
32.927578
  20
52.994335
  0
VERTEX
  5
81e
  8
Layer_0
  10
32.624169
  20
52.855336
  0
VERTEX
  5
81f
  8
Layer_0
  10
32.540918
  20
52.806455
  0
VERTEX
  5
820
  8
Layer_0
  10
32.454314
  20
52.758471
  0
VERTEX
  5
821
  8
Layer_0
  10
32.36771
  20
52.751744
  0
VERTEX
  5
822
  8
Layer_0
  10
32.284458
  20
52.826635
  0
VERTEX
  5
823
  8
Layer_0
  10
32.284462
  20
52.826637
  0
SEQEND
  0
POLYLINE
  5
825
  8
Layer_0
  62
0
  66
1
  10
0
  20
0
  30
0
  0
VERTEX
  5
825
  8
Layer_0
  10
28.243715
  20
50.884561
  0
VERTEX
  5
826
  8
Layer_0
  10
28.212845
  20
50.989797
  0
VERTEX
  5
827
  8
Layer_0
  10
28.231423
  20
51.087857
  0
VERTEX
  5
828
  8
Layer_0
  10
28.2852
  20
51.175155
  0
VERTEX
  5
829
  8
Layer_0
  10
28.359931
  20
51.248102
  42
-0.17459464
  0
VERTEX
  5
82a
  8
Layer_0
  10
30.085297
  20
51.94648
  0
VERTEX
  5
82b
  8
Layer_0
  10
30.401257
  20
51.920771
  0
VERTEX
  5
82c
  8
Layer_0
  10
30.695429
  20
51.826897
  0
VERTEX
  5
82d
  8
Layer_0
  10
30.972839
  20
51.682795
  0
VERTEX
  5
82e
  8
Layer_0
  10
31.238517
  20
51.506406
  0
VERTEX
  5
82f
  8
Layer_0
  10
31.335597
  20
51.42733
  0
VERTEX
  5
830
  8
Layer_0
  10
31.411724
  20
51.333007
  0
VERTEX
  5
831
  8
Layer_0
  10
31.445946
  20
51.22254
  0
VERTEX
  5
832
  8
Layer_0
  10
31.417311
  20
51.095031
  0
VERTEX
  5
833
  8
Layer_0
  10
31.337134
  20
51.00878
  0
VERTEX
  5
834
  8
Layer_0
  10
31.238518
  20
51.000558
  0
VERTEX
  5
835
  8
Layer_0
  10
31.133196
  20
51.037182
  0
VERTEX
  5
836
  8
Layer_0
  10
31.032902
  20
51.085465
  0
VERTEX
  5
837
  8
Layer_0
  10
30.71315
  20
51.2271
  0
VERTEX
  5
838
  8
Layer_0
  10
30.397484
  20
51.321647
  0
VERTEX
  5
839
  8
Layer_0
  10
30.085799
  20
51.36866
  0
VERTEX
  5
83a
  8
Layer_0
  10
29.777991
  20
51.367688
  0
VERTEX
  5
83b
  8
Layer_0
  10
29.473954
  20
51.318284
  0
VERTEX
  5
83c
  8
Layer_0
  10
29.173583
  20
51.219999
  0
VERTEX
  5
83d
  8
Layer_0
  10
28.876775
  20
51.072386
  0
VERTEX
  5
83e
  8
Layer_0
  10
28.583423
  20
50.874994
  0
VERTEX
  5
83f
  8
Layer_0
  10
28.501429
  20
50.825365
  0
VERTEX
  5
840
  8
Layer_0
  10
28.410216
  20
50.793675
  0
VERTEX
  5
841
  8
Layer_0
  10
28.320679
  20
50.805036
  0
VERTEX
  5
842
  8
Layer_0
  10
28.243712
  20
50.88456
  0
VERTEX
  5
843
  8
Layer_0
  10
28.243715
  20
50.88456
  0
SEQEND
  0
POLYLINE
  5
845
  8
Layer_0
  62
0
  66
1
  10
0
  20
0
  30
0
  0
VERTEX
  5
845
  8
Layer_0
  10
24.497976
  20
53.209309
  42
-0.2338003
  0
VERTEX
  5
846
  8
Layer_0
  10
24.676773
  20
53.678085
  0
VERTEX
  5
847
  8
Layer_0
  10
24.961307
  20
53.889754
  0
VERTEX
  5
848
  8
Layer_0
  10
25.270145
  20
54.015319
  0
VERTEX
  5
849
  8
Layer_0
  10
25.590717
  20
54.087071
  0
VERTEX
  5
84a
  8
Layer_0
  10
25.910451
  20
54.137297
  0
VERTEX
  5
84b
  8
Layer_0
  10
26.202388
  20
54.100525
  0
VERTEX
  5
84c
  8
Layer_0
  10
26.475887
  20
54.02967
  0
VERTEX
  5
84d
  8
Layer_0
  10
26.732624
  20
53.919352
  0
VERTEX
  5
84e
  8
Layer_0
  10
26.974277
  20
53.764189
  0
VERTEX
  5
84f
  8
Layer_0
  10
27.068423
  20
53.685113
  0
VERTEX
  5
850
  8
Layer_0
  10
27.144131
  20
53.590789
  0
VERTEX
  5
851
  8
Layer_0
  10
27.172905
  20
53.480322
  0
VERTEX
  5
852
  8
Layer_0
  10
27.126251
  20
53.352814
  0
VERTEX
  5
853
  8
Layer_0
  10
27.041743
  20
53.287789
  0
VERTEX
  5
854
  8
Layer_0
  10
26.953045
  20
53.299
  0
VERTEX
  5
855
  8
Layer_0
  10
26.866022
  20
53.351468
  0
VERTEX
  5
856
  8
Layer_0
  10
26.786541
  20
53.410215
  42
0.21067091
  0
VERTEX
  5
857
  8
Layer_0
  10
25.409828
  20
53.601551
  0
VERTEX
  5
858
  8
Layer_0
  10
25.21092
  20
53.52397
  0
VERTEX
  5
859
  8
Layer_0
  10
25.03883
  20
53.41141
  0
VERTEX
  5
85a
  8
Layer_0
  10
24.886855
  20
53.271943
  0
VERTEX
  5
85b
  8
Layer_0
  10
24.74829
  20
53.113642
  0
VERTEX
  5
85c
  8
Layer_0
  10
24.715604
  20
53.071487
  0
VERTEX
  5
85d
  8
Layer_0
  10
24.681243
  20
53.027539
  0
VERTEX
  5
85e
  8
Layer_0
  10
24.640176
  20
52.997942
  0
VERTEX
  5
85f
  8
Layer_0
  10
24.587375
  20
52.998839
  0
VERTEX
  5
860
  8
Layer_0
  10
24.53695
  20
53.041142
  0
VERTEX
  5
861
  8
Layer_0
  10
24.512505
  20
53.093312
  0
VERTEX
  5
862
  8
Layer_0
  10
24.503147
  20
53.150862
  0
VERTEX
  5
863
  8
Layer_0
  10
24.497978
  20
53.20931
  0
VERTEX
  5
864
  8
Layer_0
  10
24.497976
  20
53.209309
  0
SEQEND
  0
POLYLINE
  5
866
  8
Layer_0
  62
0
  66
1
  10
0
  20
0
  30
0
  0
VERTEX
  5
866
  8
Layer_0
  10
30.290908
  20
44.484327
  0
VERTEX
  5
867
  8
Layer_0
  10
30.354884
  20
44.466687
  0
VERTEX
  5
868
  8
Layer_0
  10
30.400421
  20
44.429316
  0
VERTEX
  5
869
  8
Layer_0
  10
30.429196
  20
44.374008
  0
VERTEX
  5
86a
  8
Layer_0
  10
30.442885
  20
44.302556
  42
-0.4469557
  0
VERTEX
  5
86b
  8
Layer_0
  10
30.219391
  20
44.206886
  0
VERTEX
  5
86c
  8
Layer_0
  10
29.897421
  20
44.3039
  0
VERTEX
  5
86d
  8
Layer_0
  10
29.574613
  20
44.33006
  0
VERTEX
  5
86e
  8
Layer_0
  10
29.250129
  20
44.297025
  0
VERTEX
  5
86f
  8
Layer_0
  10
28.923131
  20
44.216453
  0
VERTEX
  5
870
  8
Layer_0
  10
28.842256
  20
44.194779
  0
VERTEX
  5
871
  8
Layer_0
  10
28.76557
  20
44.186557
  0
VERTEX
  5
872
  8
Layer_0
  10
28.700617
  20
44.212417
  0
VERTEX
  5
873
  8
Layer_0
  10
28.65494
  20
44.292987
  0
VERTEX
  5
874
  8
Layer_0
  10
28.651867
  20
44.401511
  0
VERTEX
  5
875
  8
Layer_0
  10
28.697404
  20
44.472366
  0
VERTEX
  5
876
  8
Layer_0
  10
28.773113
  20
44.510933
  0
VERTEX
  5
877
  8
Layer_0
  10
28.860556
  20
44.522593
  42
-0.049991205
  0
VERTEX
  5
878
  8
Layer_0
  10
30.290909
  20
44.484325
  0
VERTEX
  5
879
  8
Layer_0
  10
30.290909
  20
44.484329
  0
SEQEND
  0
POLYLINE
  5
87b
  8
Layer_0
  62
0
  66
1
  10
0
  20
0
  30
0
  0
VERTEX
  5
87b
  8
Layer_0
  10
24.965712
  20
13.714982
  0
VERTEX
  5
87c
  8
Layer_0
  10
20.041101
  20
13.714982
  0
VERTEX
  5
87d
  8
Layer_0
  10
20.041101
  20
11.59217
  0
VERTEX
  5
87e
  8
Layer_0
  10
24.965712
  20
11.59217
  0
VERTEX
  5
87f
  8
Layer_0
  10
24.965712
  20
13.714982
  0
SEQEND
  0
POLYLINE
  5
881
  8
Layer_0
  62
0
  66
1
  10
0
  20
0
  30
0
  0
VERTEX
  5
881
  8
Layer_0
  10
41.064831
  20
13.510812
  0
VERTEX
  5
882
  8
Layer_0
  10
36.140217
  20
13.510812
  0
VERTEX
  5
883
  8
Layer_0
  10
36.140217
  20
11.388
  0
VERTEX
  5
884
  8
Layer_0
  10
41.064831
  20
11.388
  0
VERTEX
  5
885
  8
Layer_0
  10
41.064831
  20
13.510812
  0
SEQEND
  0
POLYLINE
  5
887
  8
Layer_0
  62
0
  66
1
  10
0
  20
0
  30
0
  0
VERTEX
  5
887
  8
Layer_0
  10
51.96843
  20
10.190554
  0
VERTEX
  5
888
  8
Layer_0
  10
8.1039066
  20
10.190554
  0
VERTEX
  5
889
  8
Layer_0
  10
8.1039066
  20
3.2645774
  0
VERTEX
  5
88a
  8
Layer_0
  10
51.96843
  20
3.2645774
  0
VERTEX
  5
88b
  8
Layer_0
  10
51.96843
  20
10.190554
  0
SEQEND
  0
POLYLINE
  5
88d
  8
Layer_0
  62
0
  66
1
  10
0
  20
0
  30
0
  0
VERTEX
  5
88d
  8
Layer_0
  10
41.256081
  20
8.415864
  0
VERTEX
  5
88e
  8
Layer_0
  10
36.331467
  20
8.415864
  0
VERTEX
  5
88f
  8
Layer_0
  10
36.331467
  20
6.2930517
  0
VERTEX
  5
890
  8
Layer_0
  10
41.256081
  20
6.2930517
  0
VERTEX
  5
891
  8
Layer_0
  10
41.256081
  20
8.415864
  0
SEQEND
  0
POLYLINE
  5
893
  8
Layer_0
  62
0
  66
1
  10
0
  20
0
  30
0
  0
VERTEX
  5
893
  8
Layer_0
  10
24.98983
  20
8.5174799
  0
VERTEX
  5
894
  8
Layer_0
  10
20.06522
  20
8.5174799
  0
VERTEX
  5
895
  8
Layer_0
  10
20.06522
  20
6.3946676
  0
VERTEX
  5
896
  8
Layer_0
  10
24.98983
  20
6.3946676
  0
VERTEX
  5
897
  8
Layer_0
  10
24.98983
  20
8.5174799
  0
SEQEND
  0
ENDSEC
  0
EOF
