999
"DXF R12 Output" (www.mydxf.blogspot.com)
 0 
SECTION
 2 
HEADER
 9 
$ACADVER
 1 
AC1009
 9 
$EXTMIN
 10 
 0 
 20 
 0 
 9 
$EXTMAX
 10 
 8.5 
 20 
 11 
 0 
ENDSEC
 0 
SECTION
 2 
ENTITIES
0
LINE
8
Layer 1
10
20.553585
20
200.996545
11
49.172502
21
200.996545
0
LINE
8
Layer 1
10
49.172502
20
200.996545
11
49.172502
21
188.248119
0
LINE
8
Layer 1
10
49.172502
20
188.248119
11
20.553585
21
188.248119
0
LINE
8
Layer 1
10
20.553585
20
188.248119
11
20.553585
21
200.996545
0
LINE
8
Layer 1
10
0.793749
20
297.793749
11
-0.793749
21
296.206251
0
LINE
8
Layer 1
10
0.000000
20
298.322915
11
0.000000
21
295.677085
0
LINE
8
Layer 1
10
2.116664
20
295.941668
11
1.058332
21
294.883336
0
LINE
8
Layer 1
10
1.587498
20
296.470834
11
0.529166
21
295.412502
0
LINE
8
Layer 1
10
1.058332
20
297.000000
11
0.000000
21
295.941668
0
LINE
8
Layer 1
10
20.553585
20
200.996540
11
49.172501
21
200.996540
0
LINE
8
Layer 1
10
49.172501
20
200.996540
11
49.172501
21
188.248113
0
LINE
8
Layer 1
10
49.172501
20
188.248113
11
20.553585
21
188.248113
0
LINE
8
Layer 1
10
20.553585
20
188.248113
11
20.553585
21
200.996540
0
LINE
8
Layer 1
10
20.553585
20
200.996540
11
49.172501
21
200.996540
0
LINE
8
Layer 1
10
49.172501
20
200.996540
11
49.172501
21
188.248113
0
LINE
8
Layer 1
10
49.172501
20
188.248113
11
20.553585
21
188.248113
0
LINE
8
Layer 1
10
20.553585
20
188.248113
11
20.553585
21
200.996540
0
LINE
8
front_labelLayer
10
81.461497
20
11.482849
11
92.621510
21
11.482849
0
LINE
8
front_labelLayer
10
92.621510
20
11.482849
11
92.621510
21
7.882404
0
LINE
8
front_labelLayer
10
92.621510
20
7.882404
11
104.861440
21
7.882404
0
LINE
8
front_labelLayer
10
104.861440
20
7.882404
11
104.861440
21
11.482849
0
LINE
8
front_labelLayer
10
104.861440
20
11.482849
11
116.021392
21
11.482849
0
LINE
8
front_labelLayer
10
116.021392
20
11.482849
11
116.021392
21
7.882404
0
LINE
8
front_labelLayer
10
116.021392
20
7.882404
11
129.191434
21
7.882404
0
LINE
8
front_labelLayer
10
129.191434
20
7.882404
11
129.191434
21
27.352273
0
LINE
8
front_labelLayer
10
129.191434
20
27.352273
11
125.591465
21
27.352273
0
LINE
8
front_labelLayer
10
125.591465
20
27.352273
11
125.591465
21
38.512199
0
LINE
8
front_labelLayer
10
125.591465
20
38.512199
11
129.191434
21
38.512199
0
LINE
8
front_labelLayer
10
129.191434
20
38.512199
11
129.191434
21
50.752128
0
LINE
8
front_labelLayer
10
129.191434
20
50.752128
11
125.591465
21
50.752128
0
LINE
8
front_labelLayer
10
125.591465
20
50.752128
11
125.591465
21
61.912080
0
LINE
8
front_labelLayer
10
125.591465
20
61.912080
11
129.191434
21
61.912080
0
LINE
8
front_labelLayer
10
129.191434
20
61.912080
11
129.191434
21
74.152166
0
LINE
8
front_labelLayer
10
129.191434
20
74.152166
11
125.591465
21
74.152166
0
LINE
8
front_labelLayer
10
125.591465
20
74.152166
11
125.591465
21
85.312119
0
LINE
8
front_labelLayer
10
125.591465
20
85.312119
11
129.191434
21
85.312119
0
LINE
8
front_labelLayer
10
129.191434
20
85.312119
11
129.191434
21
104.782146
0
LINE
8
front_labelLayer
10
92.050079
20
157.397328
11
92.050079
21
152.005931
0
LINE
8
front_labelLayer
10
92.050079
20
152.005931
11
94.056156
21
152.005931
0
LINE
8
front_labelLayer
10
94.056156
20
152.005931
11
94.056156
21
142.418417
0
LINE
8
front_labelLayer
10
94.056156
20
142.418417
11
86.612176
21
131.544159
0
LINE
8
front_labelLayer
10
86.612176
20
131.544159
11
85.311997
21
132.481568
0
LINE
8
front_labelLayer
10
85.311997
20
132.481568
11
82.406751
21
128.452361
0
LINE
8
front_labelLayer
10
82.406751
20
128.452361
11
83.805115
21
127.444154
0
LINE
8
front_labelLayer
10
83.805115
20
127.444154
11
68.291354
21
104.782001
0
LINE
8
front_labelLayer
10
68.291354
20
104.782001
11
129.191434
21
104.782001
0
LINE
8
front_labelLayer
10
129.191434
20
104.782001
11
114.953561
21
127.155285
0
LINE
8
front_labelLayer
10
114.953561
20
127.155285
11
116.427889
21
128.113364
0
LINE
8
front_labelLayer
10
116.427889
20
128.113364
11
113.721081
21
132.278480
0
LINE
8
front_labelLayer
10
113.721081
20
132.278480
11
112.286543
21
131.346237
0
LINE
8
front_labelLayer
10
112.286543
20
131.346237
11
105.118000
21
142.610652
0
LINE
8
front_labelLayer
10
105.118000
20
142.610652
11
105.118000
21
152.005931
0
LINE
8
front_labelLayer
10
105.118000
20
152.005931
11
106.932873
21
152.005931
0
LINE
8
front_labelLayer
10
106.932873
20
152.005931
11
106.932873
21
157.397328
0
LINE
8
front_labelLayer
10
106.932873
20
157.397328
11
92.050079
21
157.397328
0
LINE
8
front_labelLayer
10
92.050079
20
157.397328
11
92.050079
21
157.397328
0
LINE
8
front_labelLayer
10
68.291518
20
104.782146
11
68.291518
21
85.312119
0
LINE
8
front_labelLayer
10
68.291518
20
85.312119
11
71.891519
21
85.312119
0
LINE
8
front_labelLayer
10
71.891519
20
85.312119
11
71.891519
21
74.152166
0
LINE
8
front_labelLayer
10
71.891519
20
74.152166
11
68.291518
21
74.152166
0
LINE
8
front_labelLayer
10
68.291518
20
74.152166
11
68.291518
21
61.912080
0
LINE
8
front_labelLayer
10
68.291518
20
61.912080
11
71.891519
21
61.912080
0
LINE
8
front_labelLayer
10
71.891519
20
61.912080
11
71.891519
21
50.752128
0
LINE
8
front_labelLayer
10
71.891519
20
50.752128
11
68.291518
21
50.752128
0
LINE
8
front_labelLayer
10
68.291518
20
50.752128
11
68.291518
21
38.512199
0
LINE
8
front_labelLayer
10
68.291518
20
38.512199
11
71.891519
21
38.512199
0
LINE
8
front_labelLayer
10
71.891519
20
38.512199
11
71.891519
21
27.352273
0
LINE
8
front_labelLayer
10
71.891519
20
27.352273
11
68.291518
21
27.352273
0
LINE
8
front_labelLayer
10
68.291518
20
27.352273
11
68.291518
21
7.882404
0
LINE
8
front_labelLayer
10
68.291518
20
7.882404
11
81.461497
21
7.882404
0
LINE
8
front_labelLayer
10
81.461497
20
7.882404
11
81.461497
21
11.482849
0
LINE
8
front_labelLayer
10
50.765916
20
56.942587
11
50.535479
21
55.801193
0
LINE
8
front_labelLayer
10
50.535479
20
55.801193
11
49.907056
21
54.869119
0
LINE
8
front_labelLayer
10
49.907056
20
54.869119
11
48.974982
21
54.240698
0
LINE
8
front_labelLayer
10
48.974982
20
54.240698
11
47.833588
21
54.010262
0
LINE
8
front_labelLayer
10
47.833588
20
54.010262
11
46.692193
21
54.240698
0
LINE
8
front_labelLayer
10
46.692193
20
54.240698
11
45.760119
21
54.869119
0
LINE
8
front_labelLayer
10
45.760119
20
54.869119
11
45.131696
21
55.801193
0
LINE
8
front_labelLayer
10
45.131696
20
55.801193
11
44.901259
21
56.942587
0
LINE
8
front_labelLayer
10
44.901259
20
56.942587
11
45.124469
21
58.064741
0
LINE
8
front_labelLayer
10
45.124469
20
58.064741
11
45.760118
21
59.016057
0
LINE
8
front_labelLayer
10
45.760118
20
59.016057
11
46.711434
21
59.651706
0
LINE
8
front_labelLayer
10
46.711434
20
59.651706
11
47.833588
21
59.874916
0
LINE
8
front_labelLayer
10
47.833588
20
59.874916
11
48.955741
21
59.651706
0
LINE
8
front_labelLayer
10
48.955741
20
59.651706
11
49.907057
21
59.016057
0
LINE
8
front_labelLayer
10
49.907057
20
59.016057
11
50.542706
21
58.064741
0
LINE
8
front_labelLayer
10
50.542706
20
58.064741
11
50.765916
21
56.942587
0
LINE
8
front_labelLayer
10
50.765916
20
56.942587
11
50.765916
21
56.942587
0
LINE
8
front_labelLayer
10
14.827155
20
76.165582
11
54.247593
21
76.165582
0
LINE
8
front_labelLayer
10
54.247593
20
76.165582
11
54.247593
21
66.745112
0
LINE
8
front_labelLayer
10
54.247593
20
66.745112
11
14.827155
21
66.745112
0
LINE
8
front_labelLayer
10
14.827155
20
66.745112
11
14.827155
21
76.165582
0
LINE
8
front_labelLayer
10
16.651136
20
7.002692
11
16.651136
21
10.603137
0
LINE
8
front_labelLayer
10
3.481157
20
7.002692
11
16.651136
21
7.002692
0
LINE
8
front_labelLayer
10
3.481157
20
26.472561
11
3.481157
21
7.002692
0
LINE
8
front_labelLayer
10
7.081158
20
26.472561
11
3.481157
21
26.472561
0
LINE
8
front_labelLayer
10
7.081158
20
37.632492
11
7.081158
21
26.472561
0
LINE
8
front_labelLayer
10
3.481157
20
37.632492
11
7.081158
21
37.632492
0
LINE
8
front_labelLayer
10
3.481157
20
49.872419
11
3.481157
21
37.632492
0
LINE
8
front_labelLayer
10
7.081158
20
49.872419
11
3.481157
21
49.872419
0
LINE
8
front_labelLayer
10
7.081158
20
61.032371
11
7.081158
21
49.872419
0
LINE
8
front_labelLayer
10
3.481157
20
61.032371
11
7.081158
21
61.032371
0
LINE
8
front_labelLayer
10
3.481157
20
73.272457
11
3.481157
21
61.032371
0
LINE
8
front_labelLayer
10
7.081158
20
73.272457
11
3.481157
21
73.272457
0
LINE
8
front_labelLayer
10
7.081158
20
84.432409
11
7.081158
21
73.272457
0
LINE
8
front_labelLayer
10
3.481157
20
84.432409
11
7.081158
21
84.432409
0
LINE
8
front_labelLayer
10
3.481157
20
103.902437
11
3.481157
21
84.432409
0
LINE
8
front_labelLayer
10
27.239717
20
156.517624
11
27.239717
21
151.126227
0
LINE
8
front_labelLayer
10
27.239717
20
151.126227
11
29.245793
21
151.126227
0
LINE
8
front_labelLayer
10
29.245793
20
151.126227
11
29.245793
21
141.538713
0
LINE
8
front_labelLayer
10
29.245793
20
141.538713
11
21.801815
21
130.664455
0
LINE
8
front_labelLayer
10
21.801815
20
130.664455
11
20.501636
21
131.601864
0
LINE
8
front_labelLayer
10
20.501636
20
131.601864
11
17.596390
21
127.572657
0
LINE
8
front_labelLayer
10
17.596390
20
127.572657
11
18.994754
21
126.564450
0
LINE
8
front_labelLayer
10
18.994754
20
126.564450
11
3.480993
21
103.902305
0
LINE
8
front_labelLayer
10
3.480993
20
103.902305
11
64.381071
21
103.902305
0
LINE
8
front_labelLayer
10
64.381071
20
103.902305
11
50.143199
21
126.275581
0
LINE
8
front_labelLayer
10
50.143199
20
126.275581
11
51.617527
21
127.233660
0
LINE
8
front_labelLayer
10
51.617527
20
127.233660
11
48.910718
21
131.398776
0
LINE
8
front_labelLayer
10
48.910718
20
131.398776
11
47.476181
21
130.466533
0
LINE
8
front_labelLayer
10
47.476181
20
130.466533
11
40.307638
21
141.730948
0
LINE
8
front_labelLayer
10
40.307638
20
141.730948
11
40.307638
21
151.126227
0
LINE
8
front_labelLayer
10
40.307638
20
151.126227
11
42.122511
21
151.126227
0
LINE
8
front_labelLayer
10
42.122511
20
151.126227
11
42.122511
21
156.517624
0
LINE
8
front_labelLayer
10
42.122511
20
156.517624
11
27.239717
21
156.517624
0
LINE
8
front_labelLayer
10
64.381071
20
84.432409
11
53.792490
21
-45.612495
0
LINE
8
front_labelLayer
10
50.192521
20
-65.082523
11
53.792490
21
-65.082523
0
LINE
8
front_labelLayer
10
50.192521
20
-76.242476
11
50.192521
21
-65.082523
0
LINE
8
front_labelLayer
10
53.792490
20
-76.242476
11
50.192521
21
-76.242476
0
LINE
8
front_labelLayer
10
53.792490
20
-88.482561
11
53.792490
21
-76.242476
0
LINE
8
front_labelLayer
10
50.192521
20
-88.482561
11
53.792490
21
-88.482561
0
LINE
8
front_labelLayer
10
50.192521
20
-99.642514
11
50.192521
21
-88.482561
0
LINE
8
front_labelLayer
10
53.792490
20
-99.642514
11
50.192521
21
-99.642514
0
LINE
8
front_labelLayer
10
53.792490
20
-111.882441
11
53.792490
21
-99.642514
0
LINE
8
front_labelLayer
10
50.192521
20
-111.882441
11
53.792490
21
-111.882441
0
LINE
8
front_labelLayer
10
50.192521
20
-123.042372
11
50.192521
21
-111.882441
0
LINE
8
front_labelLayer
10
53.792490
20
-123.042372
11
50.192521
21
-123.042372
0
LINE
8
front_labelLayer
10
53.792490
20
-142.512241
11
53.792490
21
-123.042372
0
LINE
8
front_labelLayer
10
40.622448
20
-142.512241
11
53.792490
21
-142.512241
0
LINE
8
front_labelLayer
10
40.622448
20
-138.911795
11
40.622448
21
-142.512241
0
LINE
8
front_labelLayer
10
29.462496
20
-138.911795
11
40.622448
21
-138.911795
0
LINE
8
front_labelLayer
10
29.462496
20
-142.512241
11
29.462496
21
-138.911795
0
LINE
8
front_labelLayer
10
17.222566
20
-142.512241
11
29.462496
21
-142.512241
0
LINE
8
front_labelLayer
10
17.222566
20
-138.911795
11
17.222566
21
-142.512241
0
LINE
8
front_labelLayer
10
6.062554
20
-138.911795
11
17.222566
21
-138.911795
0
LINE
8
front_labelLayer
10
24.421507
20
-20.157089
11
29.839079
21
-20.157089
0
LINE
8
front_labelLayer
10
29.839079
20
-20.157089
11
29.839079
21
-28.399403
0
LINE
8
front_labelLayer
10
29.839079
20
-28.399403
11
24.421507
21
-28.399403
0
LINE
8
front_labelLayer
10
24.421507
20
-28.399403
11
24.421507
21
-20.157089
0
LINE
8
front_labelLayer
10
17.292202
20
-30.108487
11
52.080757
21
-75.033921
0
LINE
8
front_labelLayer
10
52.080757
20
-75.033921
11
52.080757
21
-83.276235
0
LINE
8
front_labelLayer
10
52.080757
20
-83.276235
11
46.663185
21
-83.276235
0
LINE
8
front_labelLayer
10
46.663185
20
-83.276235
11
17.292202
21
-30.108487
0
LINE
8
front_labelLayer
10
24.497392
20
-30.047702
11
59.285945
21
-74.973136
0
LINE
8
front_labelLayer
10
59.285945
20
-74.973136
11
59.285945
21
-83.215452
0
LINE
8
front_labelLayer
10
59.285945
20
-83.215452
11
53.868375
21
-83.215452
0
LINE
8
front_labelLayer
10
53.868375
20
-83.215452
11
24.497392
21
-30.047702
0
LINE
8
front_labelLayer
10
17.311678
20
-20.135820
11
52.100233
21
-65.061254
0
LINE
8
front_labelLayer
10
52.100233
20
-65.061254
11
52.100233
21
-73.303570
0
LINE
8
front_labelLayer
10
52.100233
20
-73.303570
11
46.682661
21
-73.303570
0
LINE
8
front_labelLayer
10
46.682661
20
-73.303570
11
17.311678
21
-20.135820
0
LINE
8
left_outsideCutPath
10
144.437460
20
173.997858
11
155.597413
21
173.997858
0
LINE
8
left_outsideCutPath
10
155.597413
20
173.997858
11
155.597413
21
170.397413
0
LINE
8
left_outsideCutPath
10
155.597413
20
170.397413
11
167.837498
21
170.397413
0
LINE
8
left_outsideCutPath
10
167.837498
20
170.397413
11
167.837498
21
173.997858
0
LINE
8
left_outsideCutPath
10
167.837498
20
173.997858
11
178.997451
21
173.997858
0
LINE
8
left_outsideCutPath
10
178.997451
20
173.997858
11
178.997451
21
170.397413
0
LINE
8
left_outsideCutPath
10
178.997451
20
170.397413
11
188.867402
21
170.397413
0
LINE
8
left_outsideCutPath
10
188.867402
20
170.397413
11
188.867402
21
189.327215
0
LINE
8
left_outsideCutPath
10
188.867402
20
189.327215
11
192.467371
21
189.327215
0
LINE
8
left_outsideCutPath
10
192.467371
20
189.327215
11
192.467371
21
201.567137
0
LINE
8
left_outsideCutPath
10
192.467371
20
201.567137
11
188.867402
21
201.567137
0
LINE
8
left_outsideCutPath
10
188.867402
20
201.567137
11
188.867402
21
212.727248
0
LINE
8
left_outsideCutPath
10
188.867402
20
212.727248
11
192.467371
21
212.727248
0
LINE
8
left_outsideCutPath
10
192.467371
20
212.727248
11
192.467371
21
224.967175
0
LINE
8
left_outsideCutPath
10
192.467371
20
224.967175
11
188.867402
21
224.967175
0
LINE
8
left_outsideCutPath
10
188.867402
20
224.967175
11
188.867402
21
236.127127
0
LINE
8
left_outsideCutPath
10
188.867402
20
236.127127
11
192.467371
21
236.127127
0
LINE
8
left_outsideCutPath
10
192.467371
20
236.127127
11
192.467371
21
248.367213
0
LINE
8
left_outsideCutPath
10
192.467371
20
248.367213
11
188.867402
21
248.367213
0
LINE
8
left_outsideCutPath
10
188.867402
20
248.367213
11
188.867402
21
267.297174
0
LINE
8
left_outsideCutPath
10
188.867402
20
267.297174
11
134.567509
21
267.297174
0
LINE
8
left_outsideCutPath
10
134.567509
20
267.297174
11
134.567509
21
248.367213
0
LINE
8
left_outsideCutPath
10
134.567509
20
248.367213
11
130.967540
21
248.367213
0
LINE
8
left_outsideCutPath
10
130.967540
20
248.367213
11
130.967540
21
236.127127
0
LINE
8
left_outsideCutPath
10
130.967540
20
236.127127
11
134.567509
21
236.127127
0
LINE
8
left_outsideCutPath
10
134.567509
20
236.127127
11
134.567509
21
224.967175
0
LINE
8
left_outsideCutPath
10
134.567509
20
224.967175
11
130.967540
21
224.967175
0
LINE
8
left_outsideCutPath
10
130.967540
20
224.967175
11
130.967540
21
212.727248
0
LINE
8
left_outsideCutPath
10
130.967540
20
212.727248
11
134.567509
21
212.727248
0
LINE
8
left_outsideCutPath
10
134.567509
20
212.727248
11
134.567509
21
201.567137
0
LINE
8
left_outsideCutPath
10
134.567509
20
201.567137
11
130.967540
21
201.567137
0
LINE
8
left_outsideCutPath
10
130.967540
20
201.567137
11
130.967540
21
189.327215
0
LINE
8
left_outsideCutPath
10
130.967540
20
189.327215
11
134.567509
21
189.327215
0
LINE
8
left_outsideCutPath
10
134.567509
20
189.327215
11
134.567509
21
170.397413
0
LINE
8
left_outsideCutPath
10
134.567509
20
170.397413
11
144.437460
21
170.397413
0
LINE
8
left_outsideCutPath
10
144.437460
20
170.397413
11
144.437460
21
173.997858
0
LINE
8
left_outsideCutPath
10
86.014296
20
198.662201
11
85.952936
21
198.662201
0
LINE
8
left_outsideCutPath
10
85.952936
20
198.662201
11
85.449747
21
198.766005
0
LINE
8
left_outsideCutPath
10
85.449747
20
198.766005
11
84.879057
21
198.803097
0
LINE
8
left_outsideCutPath
10
84.879057
20
198.803097
11
83.848133
21
198.513810
0
LINE
8
left_outsideCutPath
10
83.848133
20
198.513810
11
82.890848
21
197.779481
0
LINE
8
left_outsideCutPath
10
82.890848
20
197.779481
11
82.890848
21
191.897441
0
LINE
8
left_outsideCutPath
10
82.890848
20
191.897441
11
81.737195
21
191.897441
0
LINE
8
left_outsideCutPath
10
81.737195
20
191.897441
11
81.737195
21
200.182738
0
LINE
8
left_outsideCutPath
10
81.737195
20
200.182738
11
82.890848
21
200.182738
0
LINE
8
left_outsideCutPath
10
82.890848
20
200.182738
11
82.890848
21
198.958854
0
LINE
8
left_outsideCutPath
10
82.890848
20
198.958854
11
84.099728
21
199.900883
0
LINE
8
left_outsideCutPath
10
84.099728
20
199.900883
11
85.173607
21
200.182738
0
LINE
8
left_outsideCutPath
10
85.173607
20
200.182738
11
85.609293
21
200.160460
0
LINE
8
left_outsideCutPath
10
85.609293
20
200.160460
11
86.014298
21
200.093748
0
LINE
8
left_outsideCutPath
10
86.014298
20
200.093748
11
86.014296
21
198.662201
0
LINE
8
left_outsideCutPath
10
92.942346
20
196.036418
11
92.727570
21
194.224705
0
LINE
8
left_outsideCutPath
10
92.727570
20
194.224705
11
92.083242
21
192.839496
0
LINE
8
left_outsideCutPath
10
92.083242
20
192.839496
11
91.617256
21
192.326765
0
LINE
8
left_outsideCutPath
10
91.617256
20
192.326765
11
91.078400
21
191.960528
0
LINE
8
left_outsideCutPath
10
91.078400
20
191.960528
11
90.466674
21
191.740787
0
LINE
8
left_outsideCutPath
10
90.466674
20
191.740787
11
89.782077
21
191.667539
0
LINE
8
left_outsideCutPath
10
89.782077
20
191.667539
11
89.092109
21
191.740787
0
LINE
8
left_outsideCutPath
10
89.092109
20
191.740787
11
88.476547
21
191.960528
0
LINE
8
left_outsideCutPath
10
88.476547
20
191.960528
11
87.935388
21
192.326765
0
LINE
8
left_outsideCutPath
10
87.935388
20
192.326765
11
87.468634
21
192.839496
0
LINE
8
left_outsideCutPath
10
87.468634
20
192.839496
11
86.828910
21
194.224705
0
LINE
8
left_outsideCutPath
10
86.828910
20
194.224705
11
86.615669
21
196.036418
0
LINE
8
left_outsideCutPath
10
86.615669
20
196.036418
11
86.828910
21
197.848133
0
LINE
8
left_outsideCutPath
10
86.828910
20
197.848133
11
87.468634
21
199.233343
0
LINE
8
left_outsideCutPath
10
87.468634
20
199.233343
11
87.935388
21
199.749319
0
LINE
8
left_outsideCutPath
10
87.935388
20
199.749319
11
88.476547
21
200.117873
0
LINE
8
left_outsideCutPath
10
88.476547
20
200.117873
11
89.092109
21
200.339006
0
LINE
8
left_outsideCutPath
10
89.092109
20
200.339006
11
89.782077
21
200.412716
0
LINE
8
left_outsideCutPath
10
89.782077
20
200.412716
11
90.466674
21
200.339006
0
LINE
8
left_outsideCutPath
10
90.466674
20
200.339006
11
91.078400
21
200.117873
0
LINE
8
left_outsideCutPath
10
91.078400
20
200.117873
11
91.617256
21
199.749319
0
LINE
8
left_outsideCutPath
10
91.617256
20
199.749319
11
92.083242
21
199.233343
0
LINE
8
left_outsideCutPath
10
92.083242
20
199.233343
11
92.727570
21
197.848133
0
LINE
8
left_outsideCutPath
10
92.727570
20
197.848133
11
92.942346
21
196.036418
0
LINE
8
left_outsideCutPath
10
92.942346
20
196.036418
11
92.942346
21
196.036418
0
LINE
8
left_outsideCutPath
10
91.751876
20
196.036418
11
91.621476
21
197.438322
0
LINE
8
left_outsideCutPath
10
91.621476
20
197.438322
11
91.230277
21
198.424841
0
LINE
8
left_outsideCutPath
10
91.230277
20
198.424841
11
90.607427
21
199.014527
0
LINE
8
left_outsideCutPath
10
90.607427
20
199.014527
11
89.782077
21
199.211089
0
LINE
8
left_outsideCutPath
10
89.782077
20
199.211089
11
88.947518
21
199.014527
0
LINE
8
left_outsideCutPath
10
88.947518
20
199.014527
11
88.321600
21
198.424841
0
LINE
8
left_outsideCutPath
10
88.321600
20
198.424841
11
87.935004
21
197.438322
0
LINE
8
left_outsideCutPath
10
87.935004
20
197.438322
11
87.806139
21
196.036418
0
LINE
8
left_outsideCutPath
10
87.806139
20
196.036418
11
87.936539
21
194.666043
0
LINE
8
left_outsideCutPath
10
87.936539
20
194.666043
11
88.327738
21
193.670250
0
LINE
8
left_outsideCutPath
10
88.327738
20
193.670250
11
88.952122
21
193.069440
0
LINE
8
left_outsideCutPath
10
88.952122
20
193.069440
11
89.782077
21
192.869169
0
LINE
8
left_outsideCutPath
10
89.782077
20
192.869169
11
90.602826
21
193.067585
0
LINE
8
left_outsideCutPath
10
90.602826
20
193.067585
11
91.224141
21
193.662834
0
LINE
8
left_outsideCutPath
10
91.224141
20
193.662834
11
91.619942
21
194.656770
0
LINE
8
left_outsideCutPath
10
91.619942
20
194.656770
11
91.751876
21
196.036418
0
LINE
8
left_outsideCutPath
10
91.751876
20
196.036418
11
91.751876
21
196.036418
0
LINE
8
left_outsideCutPath
10
100.569951
20
196.036418
11
100.355175
21
194.224705
0
LINE
8
left_outsideCutPath
10
100.355175
20
194.224705
11
99.710847
21
192.839496
0
LINE
8
left_outsideCutPath
10
99.710847
20
192.839496
11
99.244862
21
192.326765
0
LINE
8
left_outsideCutPath
10
99.244862
20
192.326765
11
98.706005
21
191.960528
0
LINE
8
left_outsideCutPath
10
98.706005
20
191.960528
11
98.094279
21
191.740787
0
LINE
8
left_outsideCutPath
10
98.094279
20
191.740787
11
97.409682
21
191.667539
0
LINE
8
left_outsideCutPath
10
97.409682
20
191.667539
11
96.719714
21
191.740787
0
LINE
8
left_outsideCutPath
10
96.719714
20
191.740787
11
96.104152
21
191.960528
0
LINE
8
left_outsideCutPath
10
96.104152
20
191.960528
11
95.562993
21
192.326765
0
LINE
8
left_outsideCutPath
10
95.562993
20
192.326765
11
95.096239
21
192.839496
0
LINE
8
left_outsideCutPath
10
95.096239
20
192.839496
11
94.456515
21
194.224705
0
LINE
8
left_outsideCutPath
10
94.456515
20
194.224705
11
94.243274
21
196.036418
0
LINE
8
left_outsideCutPath
10
94.243274
20
196.036418
11
94.456515
21
197.848133
0
LINE
8
left_outsideCutPath
10
94.456515
20
197.848133
11
95.096239
21
199.233343
0
LINE
8
left_outsideCutPath
10
95.096239
20
199.233343
11
95.562993
21
199.749319
0
LINE
8
left_outsideCutPath
10
95.562993
20
199.749319
11
96.104152
21
200.117873
0
LINE
8
left_outsideCutPath
10
96.104152
20
200.117873
11
96.719714
21
200.339006
0
LINE
8
left_outsideCutPath
10
96.719714
20
200.339006
11
97.409682
21
200.412716
0
LINE
8
left_outsideCutPath
10
97.409682
20
200.412716
11
98.094279
21
200.339006
0
LINE
8
left_outsideCutPath
10
98.094279
20
200.339006
11
98.706005
21
200.117873
0
LINE
8
left_outsideCutPath
10
98.706005
20
200.117873
11
99.244862
21
199.749319
0
LINE
8
left_outsideCutPath
10
99.244862
20
199.749319
11
99.710847
21
199.233343
0
LINE
8
left_outsideCutPath
10
99.710847
20
199.233343
11
100.355175
21
197.848133
0
LINE
8
left_outsideCutPath
10
100.355175
20
197.848133
11
100.569951
21
196.036418
0
LINE
8
left_outsideCutPath
10
100.569951
20
196.036418
11
100.569951
21
196.036418
0
LINE
8
left_outsideCutPath
10
99.379481
20
196.036418
11
99.249081
21
197.438322
0
LINE
8
left_outsideCutPath
10
99.249081
20
197.438322
11
98.857882
21
198.424841
0
LINE
8
left_outsideCutPath
10
98.857882
20
198.424841
11
98.235032
21
199.014527
0
LINE
8
left_outsideCutPath
10
98.235032
20
199.014527
11
97.409682
21
199.211089
0
LINE
8
left_outsideCutPath
10
97.409682
20
199.211089
11
96.575124
21
199.014527
0
LINE
8
left_outsideCutPath
10
96.575124
20
199.014527
11
95.949207
21
198.424841
0
LINE
8
left_outsideCutPath
10
95.949207
20
198.424841
11
95.562610
21
197.438322
0
LINE
8
left_outsideCutPath
10
95.562610
20
197.438322
11
95.433744
21
196.036418
0
LINE
8
left_outsideCutPath
10
95.433744
20
196.036418
11
95.564144
21
194.666043
0
LINE
8
left_outsideCutPath
10
95.564144
20
194.666043
11
95.955343
21
193.670250
0
LINE
8
left_outsideCutPath
10
95.955343
20
193.670250
11
96.579727
21
193.069440
0
LINE
8
left_outsideCutPath
10
96.579727
20
193.069440
11
97.409682
21
192.869169
0
LINE
8
left_outsideCutPath
10
97.409682
20
192.869169
11
98.230431
21
193.067585
0
LINE
8
left_outsideCutPath
10
98.230431
20
193.067585
11
98.851746
21
193.662834
0
LINE
8
left_outsideCutPath
10
98.851746
20
193.662834
11
99.247547
21
194.656770
0
LINE
8
left_outsideCutPath
10
99.247547
20
194.656770
11
99.379481
21
196.036418
0
LINE
8
left_outsideCutPath
10
99.379481
20
196.036418
11
99.379481
21
196.036418
0
LINE
8
left_outsideCutPath
10
106.043660
20
202.089064
11
105.982290
21
202.089064
0
LINE
8
left_outsideCutPath
10
105.982290
20
202.089064
11
105.485236
21
202.222581
0
LINE
8
left_outsideCutPath
10
105.485236
20
202.222581
11
104.945225
21
202.296762
0
LINE
8
left_outsideCutPath
10
104.945225
20
202.296762
11
104.303968
21
202.196628
0
LINE
8
left_outsideCutPath
10
104.303968
20
202.196628
11
103.865213
21
201.896228
0
LINE
8
left_outsideCutPath
10
103.865213
20
201.896228
11
103.616688
21
201.341770
0
LINE
8
left_outsideCutPath
10
103.616688
20
201.341770
11
103.533847
21
200.464657
0
LINE
8
left_outsideCutPath
10
103.533847
20
200.464657
11
103.533847
21
200.182789
0
LINE
8
left_outsideCutPath
10
103.533847
20
200.182789
11
105.614107
21
200.182789
0
LINE
8
left_outsideCutPath
10
105.614107
20
200.182789
11
105.614107
21
199.010834
0
LINE
8
left_outsideCutPath
10
105.614107
20
199.010834
11
103.570663
21
199.010834
0
LINE
8
left_outsideCutPath
10
103.570663
20
199.010834
11
103.570663
21
191.897491
0
LINE
8
left_outsideCutPath
10
103.570663
20
191.897491
11
102.417013
21
191.897491
0
LINE
8
left_outsideCutPath
10
102.417013
20
191.897491
11
102.417013
21
199.010834
0
LINE
8
left_outsideCutPath
10
102.417013
20
199.010834
11
101.637684
21
199.010834
0
LINE
8
left_outsideCutPath
10
101.637684
20
199.010834
11
101.637684
21
200.182789
0
LINE
8
left_outsideCutPath
10
101.637684
20
200.182789
11
102.417013
21
200.182789
0
LINE
8
left_outsideCutPath
10
102.417013
20
200.182789
11
102.417013
21
200.457240
0
LINE
8
left_outsideCutPath
10
102.417013
20
200.457240
11
102.568890
21
201.760855
0
LINE
8
left_outsideCutPath
10
102.568890
20
201.760855
11
103.024522
21
202.719565
0
LINE
8
left_outsideCutPath
10
103.024522
20
202.719565
11
103.767030
21
203.314814
0
LINE
8
left_outsideCutPath
10
103.767030
20
203.314814
11
104.779543
21
203.513230
0
LINE
8
left_outsideCutPath
10
104.779543
20
203.513230
11
105.472962
21
203.468669
0
LINE
8
left_outsideCutPath
10
105.472962
20
203.468669
11
106.043652
21
203.364865
0
LINE
8
left_outsideCutPath
10
106.043652
20
203.364865
11
106.043660
21
202.089064
0
LINE
8
left_outsideCutPath
10
67.774203
20
218.340334
11
67.774203
21
173.682729
0
LINE
8
left_outsideCutPath
10
67.698305
20
173.730582
11
121.998203
21
173.730582
0
LINE
8
left_outsideCutPath
10
121.954740
20
173.651842
11
121.954740
21
218.309444
0
LINE
8
left_outsideCutPath
10
122.030670
20
218.261594
11
67.730774
21
218.261594
0
LINE
8
left_outsideCutPath
10
69.289771
20
199.990953
11
72.931142
21
199.990953
0
LINE
8
left_outsideCutPath
10
72.931142
20
199.990953
11
72.931142
21
195.061261
0
LINE
8
left_outsideCutPath
10
72.931142
20
195.061261
11
69.289771
21
195.061261
0
LINE
8
left_outsideCutPath
10
69.289771
20
195.061261
11
69.289771
21
199.990953
0
LINE
8
left_outsideCutPath
10
116.535876
20
199.991746
11
118.661684
21
218.341128
0
LINE
8
left_outsideCutPath
10
118.661684
20
218.341128
11
118.661684
21
213.411436
0
LINE
8
left_outsideCutPath
10
118.661684
20
213.411436
11
115.020308
21
213.411436
0
LINE
8
left_outsideCutPath
10
115.020308
20
213.411436
11
116.535876
21
199.991746
0
LINE
8
left_outsideCutPath
10
25.439195
20
198.467481
11
25.377835
21
198.467481
0
LINE
8
left_outsideCutPath
10
25.377835
20
198.467481
11
24.874646
21
198.571285
0
LINE
8
left_outsideCutPath
10
24.874646
20
198.571285
11
24.303956
21
198.608377
0
LINE
8
left_outsideCutPath
10
24.303956
20
198.608377
11
23.273032
21
198.319090
0
LINE
8
left_outsideCutPath
10
23.273032
20
198.319090
11
22.315747
21
197.584761
0
LINE
8
left_outsideCutPath
10
22.315747
20
197.584761
11
22.315747
21
191.702721
0
LINE
8
left_outsideCutPath
10
22.315747
20
191.702721
11
21.162094
21
191.702721
0
LINE
8
left_outsideCutPath
10
21.162094
20
191.702721
11
21.162094
21
199.988018
0
LINE
8
left_outsideCutPath
10
21.162094
20
199.988018
11
22.315747
21
199.988018
0
LINE
8
left_outsideCutPath
10
22.315747
20
199.988018
11
22.315747
21
198.764134
0
LINE
8
left_outsideCutPath
10
22.315747
20
198.764134
11
23.524627
21
199.706163
0
LINE
8
left_outsideCutPath
10
23.524627
20
199.706163
11
24.598506
21
199.988018
0
LINE
8
left_outsideCutPath
10
24.598506
20
199.988018
11
25.034192
21
199.965740
0
LINE
8
left_outsideCutPath
10
25.034192
20
199.965740
11
25.439197
21
199.899029
0
LINE
8
left_outsideCutPath
10
25.439197
20
199.899029
11
25.439195
21
198.467481
0
LINE
8
left_outsideCutPath
10
32.367245
20
195.841699
11
32.152469
21
194.029986
0
LINE
8
left_outsideCutPath
10
32.152469
20
194.029986
11
31.508142
21
192.644777
0
LINE
8
left_outsideCutPath
10
31.508142
20
192.644777
11
31.042156
21
192.132045
0
LINE
8
left_outsideCutPath
10
31.042156
20
192.132045
11
30.503300
21
191.765809
0
LINE
8
left_outsideCutPath
10
30.503300
20
191.765809
11
29.891573
21
191.546067
0
LINE
8
left_outsideCutPath
10
29.891573
20
191.546067
11
29.206976
21
191.472819
0
LINE
8
left_outsideCutPath
10
29.206976
20
191.472819
11
28.517009
21
191.546067
0
LINE
8
left_outsideCutPath
10
28.517009
20
191.546067
11
27.901446
21
191.765809
0
LINE
8
left_outsideCutPath
10
27.901446
20
191.765809
11
27.360288
21
192.132045
0
LINE
8
left_outsideCutPath
10
27.360288
20
192.132045
11
26.893534
21
192.644777
0
LINE
8
left_outsideCutPath
10
26.893534
20
192.644777
11
26.253809
21
194.029986
0
LINE
8
left_outsideCutPath
10
26.253809
20
194.029986
11
26.040568
21
195.841699
0
LINE
8
left_outsideCutPath
10
26.040568
20
195.841699
11
26.253809
21
197.653413
0
LINE
8
left_outsideCutPath
10
26.253809
20
197.653413
11
26.893534
21
199.038623
0
LINE
8
left_outsideCutPath
10
26.893534
20
199.038623
11
27.360288
21
199.554599
0
LINE
8
left_outsideCutPath
10
27.360288
20
199.554599
11
27.901446
21
199.923153
0
LINE
8
left_outsideCutPath
10
27.901446
20
199.923153
11
28.517009
21
200.144286
0
LINE
8
left_outsideCutPath
10
28.517009
20
200.144286
11
29.206976
21
200.217997
0
LINE
8
left_outsideCutPath
10
29.206976
20
200.217997
11
29.891573
21
200.144286
0
LINE
8
left_outsideCutPath
10
29.891573
20
200.144286
11
30.503300
21
199.923153
0
LINE
8
left_outsideCutPath
10
30.503300
20
199.923153
11
31.042156
21
199.554599
0
LINE
8
left_outsideCutPath
10
31.042156
20
199.554599
11
31.508142
21
199.038623
0
LINE
8
left_outsideCutPath
10
31.508142
20
199.038623
11
32.152469
21
197.653413
0
LINE
8
left_outsideCutPath
10
32.152469
20
197.653413
11
32.367245
21
195.841699
0
LINE
8
left_outsideCutPath
10
32.367245
20
195.841699
11
32.367245
21
195.841699
0
LINE
8
left_outsideCutPath
10
31.176775
20
195.841699
11
31.046376
21
197.243602
0
LINE
8
left_outsideCutPath
10
31.046376
20
197.243602
11
30.655176
21
198.230121
0
LINE
8
left_outsideCutPath
10
30.655176
20
198.230121
11
30.032327
21
198.819807
0
LINE
8
left_outsideCutPath
10
30.032327
20
198.819807
11
29.206976
21
199.016369
0
LINE
8
left_outsideCutPath
10
29.206976
20
199.016369
11
28.372418
21
198.819807
0
LINE
8
left_outsideCutPath
10
28.372418
20
198.819807
11
27.746499
21
198.230121
0
LINE
8
left_outsideCutPath
10
27.746499
20
198.230121
11
27.359904
21
197.243602
0
LINE
8
left_outsideCutPath
10
27.359904
20
197.243602
11
27.231038
21
195.841699
0
LINE
8
left_outsideCutPath
10
27.231038
20
195.841699
11
27.361438
21
194.471323
0
LINE
8
left_outsideCutPath
10
27.361438
20
194.471323
11
27.752637
21
193.475530
0
LINE
8
left_outsideCutPath
10
27.752637
20
193.475530
11
28.377022
21
192.874720
0
LINE
8
left_outsideCutPath
10
28.377022
20
192.874720
11
29.206976
21
192.674449
0
LINE
8
left_outsideCutPath
10
29.206976
20
192.674449
11
30.027725
21
192.872866
0
LINE
8
left_outsideCutPath
10
30.027725
20
192.872866
11
30.649041
21
193.468114
0
LINE
8
left_outsideCutPath
10
30.649041
20
193.468114
11
31.044842
21
194.462050
0
LINE
8
left_outsideCutPath
10
31.044842
20
194.462050
11
31.176775
21
195.841699
0
LINE
8
left_outsideCutPath
10
31.176775
20
195.841699
11
31.176775
21
195.841699
0
LINE
8
left_outsideCutPath
10
39.994850
20
195.841699
11
39.780075
21
194.029986
0
LINE
8
left_outsideCutPath
10
39.780075
20
194.029986
11
39.135747
21
192.644777
0
LINE
8
left_outsideCutPath
10
39.135747
20
192.644777
11
38.669761
21
192.132045
0
LINE
8
left_outsideCutPath
10
38.669761
20
192.132045
11
38.130905
21
191.765809
0
LINE
8
left_outsideCutPath
10
38.130905
20
191.765809
11
37.519178
21
191.546067
0
LINE
8
left_outsideCutPath
10
37.519178
20
191.546067
11
36.834581
21
191.472819
0
LINE
8
left_outsideCutPath
10
36.834581
20
191.472819
11
36.144614
21
191.546067
0
LINE
8
left_outsideCutPath
10
36.144614
20
191.546067
11
35.529051
21
191.765809
0
LINE
8
left_outsideCutPath
10
35.529051
20
191.765809
11
34.987893
21
192.132045
0
LINE
8
left_outsideCutPath
10
34.987893
20
192.132045
11
34.521139
21
192.644777
0
LINE
8
left_outsideCutPath
10
34.521139
20
192.644777
11
33.881415
21
194.029986
0
LINE
8
left_outsideCutPath
10
33.881415
20
194.029986
11
33.668174
21
195.841699
0
LINE
8
left_outsideCutPath
10
33.668174
20
195.841699
11
33.881415
21
197.653413
0
LINE
8
left_outsideCutPath
10
33.881415
20
197.653413
11
34.521139
21
199.038623
0
LINE
8
left_outsideCutPath
10
34.521139
20
199.038623
11
34.987893
21
199.554599
0
LINE
8
left_outsideCutPath
10
34.987893
20
199.554599
11
35.529051
21
199.923153
0
LINE
8
left_outsideCutPath
10
35.529051
20
199.923153
11
36.144614
21
200.144286
0
LINE
8
left_outsideCutPath
10
36.144614
20
200.144286
11
36.834581
21
200.217997
0
LINE
8
left_outsideCutPath
10
36.834581
20
200.217997
11
37.519178
21
200.144286
0
LINE
8
left_outsideCutPath
10
37.519178
20
200.144286
11
38.130905
21
199.923153
0
LINE
8
left_outsideCutPath
10
38.130905
20
199.923153
11
38.669761
21
199.554599
0
LINE
8
left_outsideCutPath
10
38.669761
20
199.554599
11
39.135747
21
199.038623
0
LINE
8
left_outsideCutPath
10
39.135747
20
199.038623
11
39.780075
21
197.653413
0
LINE
8
left_outsideCutPath
10
39.780075
20
197.653413
11
39.994850
21
195.841699
0
LINE
8
left_outsideCutPath
10
39.994850
20
195.841699
11
39.994850
21
195.841699
0
LINE
8
left_outsideCutPath
10
38.804380
20
195.841699
11
38.673981
21
197.243602
0
LINE
8
left_outsideCutPath
10
38.673981
20
197.243602
11
38.282781
21
198.230121
0
LINE
8
left_outsideCutPath
10
38.282781
20
198.230121
11
37.659932
21
198.819807
0
LINE
8
left_outsideCutPath
10
37.659932
20
198.819807
11
36.834581
21
199.016369
0
LINE
8
left_outsideCutPath
10
36.834581
20
199.016369
11
36.000024
21
198.819807
0
LINE
8
left_outsideCutPath
10
36.000024
20
198.819807
11
35.374107
21
198.230121
0
LINE
8
left_outsideCutPath
10
35.374107
20
198.230121
11
34.987509
21
197.243602
0
LINE
8
left_outsideCutPath
10
34.987509
20
197.243602
11
34.858644
21
195.841699
0
LINE
8
left_outsideCutPath
10
34.858644
20
195.841699
11
34.989043
21
194.471323
0
LINE
8
left_outsideCutPath
10
34.989043
20
194.471323
11
35.380242
21
193.475530
0
LINE
8
left_outsideCutPath
10
35.380242
20
193.475530
11
36.004627
21
192.874720
0
LINE
8
left_outsideCutPath
10
36.004627
20
192.874720
11
36.834581
21
192.674449
0
LINE
8
left_outsideCutPath
10
36.834581
20
192.674449
11
37.655330
21
192.872866
0
LINE
8
left_outsideCutPath
10
37.655330
20
192.872866
11
38.276646
21
193.468114
0
LINE
8
left_outsideCutPath
10
38.276646
20
193.468114
11
38.672447
21
194.462050
0
LINE
8
left_outsideCutPath
10
38.672447
20
194.462050
11
38.804380
21
195.841699
0
LINE
8
left_outsideCutPath
10
38.804380
20
195.841699
11
38.804380
21
195.841699
0
LINE
8
left_outsideCutPath
10
45.468559
20
201.894344
11
45.407189
21
201.894344
0
LINE
8
left_outsideCutPath
10
45.407189
20
201.894344
11
44.910136
21
202.027861
0
LINE
8
left_outsideCutPath
10
44.910136
20
202.027861
11
44.370125
21
202.102042
0
LINE
8
left_outsideCutPath
10
44.370125
20
202.102042
11
43.728868
21
202.001908
0
LINE
8
left_outsideCutPath
10
43.728868
20
202.001908
11
43.290113
21
201.701508
0
LINE
8
left_outsideCutPath
10
43.290113
20
201.701508
11
43.041588
21
201.147050
0
LINE
8
left_outsideCutPath
10
43.041588
20
201.147050
11
42.958746
21
200.269937
0
LINE
8
left_outsideCutPath
10
42.958746
20
200.269937
11
42.958746
21
199.988069
0
LINE
8
left_outsideCutPath
10
42.958746
20
199.988069
11
45.039006
21
199.988069
0
LINE
8
left_outsideCutPath
10
45.039006
20
199.988069
11
45.039006
21
198.816114
0
LINE
8
left_outsideCutPath
10
45.039006
20
198.816114
11
42.995563
21
198.816114
0
LINE
8
left_outsideCutPath
10
42.995563
20
198.816114
11
42.995563
21
191.702771
0
LINE
8
left_outsideCutPath
10
42.995563
20
191.702771
11
41.841912
21
191.702771
0
LINE
8
left_outsideCutPath
10
41.841912
20
191.702771
11
41.841912
21
198.816114
0
LINE
8
left_outsideCutPath
10
41.841912
20
198.816114
11
41.062583
21
198.816114
0
LINE
8
left_outsideCutPath
10
41.062583
20
198.816114
11
41.062583
21
199.988069
0
LINE
8
left_outsideCutPath
10
41.062583
20
199.988069
11
41.841912
21
199.988069
0
LINE
8
left_outsideCutPath
10
41.841912
20
199.988069
11
41.841912
21
200.262521
0
LINE
8
left_outsideCutPath
10
41.841912
20
200.262521
11
41.993790
21
201.566135
0
LINE
8
left_outsideCutPath
10
41.993790
20
201.566135
11
42.449421
21
202.524845
0
LINE
8
left_outsideCutPath
10
42.449421
20
202.524845
11
43.191930
21
203.120094
0
LINE
8
left_outsideCutPath
10
43.191930
20
203.120094
11
44.204443
21
203.318510
0
LINE
8
left_outsideCutPath
10
44.204443
20
203.318510
11
44.897862
21
203.273949
0
LINE
8
left_outsideCutPath
10
44.897862
20
203.273949
11
45.468552
21
203.170145
0
LINE
8
left_outsideCutPath
10
45.468552
20
203.170145
11
45.468559
21
201.894344
0
LINE
8
left_outsideCutPath
10
7.199102
20
218.145614
11
7.199102
21
173.488010
0
LINE
8
left_outsideCutPath
10
7.123204
20
173.535862
11
61.423102
21
173.535862
0
LINE
8
left_outsideCutPath
10
61.379639
20
173.457122
11
61.379639
21
218.114724
0
LINE
8
left_outsideCutPath
10
61.455569
20
218.066874
11
7.155673
21
218.066874
0
LINE
8
left_outsideCutPath
10
8.714670
20
199.796233
11
12.356041
21
199.796233
0
LINE
8
left_outsideCutPath
10
12.356041
20
199.796233
11
12.356041
21
194.866541
0
LINE
8
left_outsideCutPath
10
12.356041
20
194.866541
11
8.714670
21
194.866541
0
LINE
8
left_outsideCutPath
10
8.714670
20
194.866541
11
8.714670
21
199.796233
0
LINE
8
left_outsideCutPath
10
55.960776
20
199.797027
11
58.086584
21
218.146408
0
LINE
8
left_outsideCutPath
10
58.086584
20
218.146408
11
58.086584
21
213.216716
0
LINE
8
left_outsideCutPath
10
58.086584
20
213.216716
11
54.445207
21
213.216716
0
LINE
8
left_outsideCutPath
10
54.445207
20
213.216716
11
55.960776
21
199.797027
0
LINE
8
left_outsideCutPath
10
23.256028
20
41.657148
11
23.383489
21
41.657148
0
LINE
8
left_outsideCutPath
10
23.383489
20
41.657148
11
25.081606
21
41.489138
0
LINE
8
left_outsideCutPath
10
25.081606
20
41.489138
11
26.698983
21
40.997656
0
LINE
8
left_outsideCutPath
10
26.698983
20
40.997656
11
28.190171
21
40.201528
0
LINE
8
left_outsideCutPath
10
28.190171
20
40.201528
11
29.509723
21
39.119580
0
LINE
8
left_outsideCutPath
10
29.509723
20
39.119580
11
30.591672
21
37.800028
0
LINE
8
left_outsideCutPath
10
30.591672
20
37.800028
11
31.387800
21
36.308840
0
LINE
8
left_outsideCutPath
10
31.387800
20
36.308840
11
31.879282
21
34.691463
0
LINE
8
left_outsideCutPath
10
31.879282
20
34.691463
11
32.047293
21
32.993346
0
LINE
8
left_outsideCutPath
10
32.047293
20
32.993346
11
32.047293
21
16.027538
0
LINE
8
left_outsideCutPath
10
32.047293
20
16.027538
11
14.685023
21
16.027538
0
LINE
8
left_outsideCutPath
10
14.685023
20
16.027538
11
14.685023
21
33.086143
0
LINE
8
left_outsideCutPath
10
14.685023
20
33.086143
11
14.851234
21
34.766072
0
LINE
8
left_outsideCutPath
10
14.851234
20
34.766072
11
15.337452
21
36.366125
0
LINE
8
left_outsideCutPath
10
15.337452
20
36.366125
11
16.125053
21
37.841341
0
LINE
8
left_outsideCutPath
10
16.125053
20
37.841341
11
17.195412
21
39.146759
0
LINE
8
left_outsideCutPath
10
17.195412
20
39.146759
11
18.500830
21
40.217119
0
LINE
8
left_outsideCutPath
10
18.500830
20
40.217119
11
19.976047
21
41.004719
0
LINE
8
left_outsideCutPath
10
19.976047
20
41.004719
11
21.576100
21
41.490937
0
LINE
8
left_outsideCutPath
10
21.576100
20
41.490937
11
23.256028
21
41.657148
0
LINE
8
left_outsideCutPath
10
23.256028
20
41.657148
11
23.256028
21
41.657148
0
LINE
8
left_labelLayer
10
154.111038
20
223.546841
11
154.111038
21
214.201716
0
LINE
8
left_labelLayer
10
154.111038
20
214.201716
11
153.114089
21
214.201716
0
LINE
8
left_labelLayer
10
153.114089
20
214.201716
11
153.114089
21
223.546841
0
LINE
8
left_labelLayer
10
153.114089
20
223.546841
11
154.111038
21
223.546841
0
LINE
8
left_labelLayer
10
161.426229
20
217.943449
11
161.426229
21
217.312736
0
LINE
8
left_labelLayer
10
161.426229
20
217.312736
11
156.891700
21
217.312736
0
LINE
8
left_labelLayer
10
161.143813
20
215.396943
11
161.143813
21
214.508103
0
LINE
8
left_labelLayer
10
156.915830
20
218.123630
11
160.357049
21
218.123630
0
LINE
8
left_labelLayer
10
158.036347
20
214.196456
11
159.005800
21
214.081659
0
LINE
8
left_labelLayer
10
156.702555
20
214.970523
11
157.313938
21
214.487836
0
LINE
8
left_labelLayer
10
157.313938
20
214.487836
11
158.036347
21
214.196456
0
LINE
8
left_labelLayer
10
156.000687
20
216.259405
11
156.269735
21
215.570372
0
LINE
8
left_labelLayer
10
156.269735
20
215.570372
11
156.702555
21
214.970523
0
LINE
8
left_labelLayer
10
155.861541
20
217.259018
11
156.000687
21
216.259405
0
LINE
8
left_labelLayer
10
155.858736
20
217.438931
11
155.861541
21
217.259018
0
LINE
8
left_labelLayer
10
155.955605
20
218.477076
11
155.858736
21
217.438931
0
LINE
8
left_labelLayer
10
156.379449
20
219.598529
11
155.955605
21
218.477078
0
LINE
8
left_labelLayer
10
156.642497
20
219.967392
11
156.379451
21
219.598529
0
LINE
8
left_labelLayer
10
158.504532
20
220.896071
11
157.474684
21
220.629890
0
LINE
8
left_labelLayer
10
157.474684
20
220.629890
11
156.642497
21
219.967392
0
LINE
8
left_labelLayer
10
158.747548
20
220.904307
11
158.504532
21
220.896079
0
LINE
8
left_labelLayer
10
159.602818
20
220.789867
11
158.747548
21
220.904307
0
LINE
8
left_labelLayer
10
160.705455
20
220.090513
11
160.204552
21
220.519678
0
LINE
8
left_labelLayer
10
160.204552
20
220.519678
11
159.602818
21
220.789867
0
LINE
8
left_labelLayer
10
161.337083
20
218.816689
11
161.103849
21
219.494549
0
LINE
8
left_labelLayer
10
161.103849
20
219.494549
11
160.705455
21
220.090513
0
LINE
8
left_labelLayer
10
161.426158
20
217.943422
11
161.337083
21
218.816689
0
LINE
8
left_labelLayer
10
156.891742
20
217.312805
11
156.961827
21
216.642896
0
LINE
8
left_labelLayer
10
156.961827
20
216.642896
11
157.177989
21
215.989826
0
LINE
8
left_labelLayer
10
157.177989
20
215.989826
11
157.477312
21
215.553092
0
LINE
8
left_labelLayer
10
157.477312
20
215.553092
11
157.911577
21
215.211770
0
LINE
8
left_labelLayer
10
157.911577
20
215.211770
11
158.428509
21
215.017172
0
LINE
8
left_labelLayer
10
158.428509
20
215.017172
11
159.041836
21
214.952507
0
LINE
8
left_labelLayer
10
159.041836
20
214.952507
11
160.046690
21
215.052824
0
LINE
8
left_labelLayer
10
160.046690
20
215.052824
11
161.013913
21
215.343122
0
LINE
8
left_labelLayer
10
161.013913
20
215.343122
11
161.143882
21
215.396938
0
LINE
8
left_labelLayer
10
160.598439
20
214.302030
11
161.143882
21
214.508074
0
LINE
8
left_labelLayer
10
160.143909
20
214.180756
11
160.598439
21
214.302030
0
LINE
8
left_labelLayer
10
159.728635
20
214.116594
11
160.143909
21
214.180756
0
LINE
8
left_labelLayer
10
159.292992
20
214.086570
11
159.728635
21
214.116594
0
LINE
8
left_labelLayer
10
159.005800
20
214.081659
11
159.292992
21
214.086580
0
LINE
8
left_labelLayer
10
158.735536
20
220.069492
11
158.167821
21
219.991464
0
LINE
8
left_labelLayer
10
158.167821
20
219.991464
11
157.471306
21
219.552989
0
LINE
8
left_labelLayer
10
157.471306
20
219.552989
11
157.079707
21
218.892334
0
LINE
8
left_labelLayer
10
157.079707
20
218.892334
11
156.935287
21
218.293844
0
LINE
8
left_labelLayer
10
156.935287
20
218.293844
11
156.915761
21
218.123598
0
LINE
8
left_labelLayer
10
160.357118
20
218.123598
11
160.316063
21
218.669814
0
LINE
8
left_labelLayer
10
160.316063
20
218.669814
11
160.164777
21
219.197205
0
LINE
8
left_labelLayer
10
160.164777
20
219.197205
11
159.936709
21
219.568004
0
LINE
8
left_labelLayer
10
159.936709
20
219.568004
11
159.567282
21
219.875604
0
LINE
8
left_labelLayer
10
159.567282
20
219.875604
11
159.114165
21
220.036160
0
LINE
8
left_labelLayer
10
159.114165
20
220.036158
11
158.735536
21
220.069492
0
LINE
8
left_labelLayer
10
166.092679
20
220.784118
11
166.092679
21
220.009419
0
LINE
8
left_labelLayer
10
166.092679
20
220.009419
11
164.417075
21
220.009419
0
LINE
8
left_labelLayer
10
164.417075
20
220.009419
11
164.417075
21
214.201716
0
LINE
8
left_labelLayer
10
164.417075
20
214.201716
11
163.420127
21
214.201716
0
LINE
8
left_labelLayer
10
163.420127
20
214.201716
11
163.420127
21
220.009419
0
LINE
8
left_labelLayer
10
163.420127
20
220.009419
11
162.242997
21
220.009419
0
LINE
8
left_labelLayer
10
162.242997
20
220.009419
11
162.242997
21
220.459951
0
LINE
8
left_labelLayer
10
162.242997
20
220.459951
11
163.420127
21
220.820154
0
LINE
8
left_labelLayer
10
163.420127
20
220.820154
11
163.420127
21
221.186549
0
LINE
8
left_labelLayer
10
166.765302
20
223.402696
11
166.507175
21
222.604026
0
LINE
8
left_labelLayer
10
164.417075
20
221.210679
11
164.417075
21
220.784118
0
LINE
8
left_labelLayer
10
164.417075
20
220.784118
11
166.092679
21
220.784118
0
LINE
8
left_labelLayer
10
163.514432
20
222.102244
11
163.420103
21
221.186580
0
LINE
8
left_labelLayer
10
163.919328
20
222.970060
11
163.514432
21
222.102244
0
LINE
8
left_labelLayer
10
165.000057
20
223.567587
11
164.405176
21
223.367427
0
LINE
8
left_labelLayer
10
164.405176
20
223.367427
11
163.919328
21
222.970060
0
LINE
8
left_labelLayer
10
165.540167
20
223.612947
11
165.000057
21
223.567587
0
LINE
8
left_labelLayer
10
165.994442
20
223.578255
11
165.540167
21
223.612947
0
LINE
8
left_labelLayer
10
166.461378
20
223.485926
11
165.994442
21
223.578255
0
LINE
8
left_labelLayer
10
166.765361
20
223.402741
11
166.461378
21
223.485926
0
LINE
8
left_labelLayer
10
166.507109
20
222.603962
11
166.130594
21
222.709962
0
LINE
8
left_labelLayer
10
166.130594
20
222.709962
11
165.772865
21
222.774520
0
LINE
8
left_labelLayer
10
165.772865
20
222.774520
11
165.522151
21
222.790131
0
LINE
8
left_labelLayer
10
165.522151
20
222.790144
11
165.198045
21
222.753486
0
LINE
8
left_labelLayer
10
165.198045
20
222.753486
11
164.687336
21
222.414777
0
LINE
8
left_labelLayer
10
164.687336
20
222.414777
11
164.534854
21
222.107276
0
LINE
8
left_labelLayer
10
164.534854
20
222.107276
11
164.454339
21
221.763615
0
LINE
8
left_labelLayer
10
164.454339
20
221.763615
11
164.419404
21
221.360581
0
LINE
8
left_labelLayer
10
164.419404
20
221.360581
11
164.417022
21
221.210604
0
LINE
8
left_labelLayer
10
170.320822
20
215.024516
11
170.320822
21
214.261882
0
LINE
8
left_labelLayer
10
167.366012
20
216.093696
11
167.366012
21
220.009419
0
LINE
8
left_labelLayer
10
167.366012
20
220.009419
11
166.423038
21
220.009419
0
LINE
8
left_labelLayer
10
166.423038
20
220.009419
11
166.423038
21
220.489954
0
LINE
8
left_labelLayer
10
166.423038
20
220.489954
11
167.366012
21
220.904291
0
LINE
8
left_labelLayer
10
167.366012
20
220.904291
11
167.786381
21
222.309703
0
LINE
8
left_labelLayer
10
167.786381
20
222.309703
11
168.362960
21
222.309703
0
LINE
8
left_labelLayer
10
168.362960
20
222.309703
11
168.362960
21
220.784118
0
LINE
8
left_labelLayer
10
168.362960
20
220.784118
11
170.272720
21
220.784118
0
LINE
8
left_labelLayer
10
170.272720
20
220.784118
11
170.272720
21
220.009419
0
LINE
8
left_labelLayer
10
170.272720
20
220.009419
11
168.362960
21
220.009419
0
LINE
8
left_labelLayer
10
168.362960
20
220.009419
11
168.362960
21
216.135606
0
LINE
8
left_labelLayer
10
169.419946
20
214.904459
11
169.899595
21
214.938773
0
LINE
8
left_labelLayer
10
169.899595
20
214.938773
11
169.930445
21
214.943509
0
LINE
8
left_labelLayer
10
169.930445
20
214.943498
11
170.074373
21
214.968184
0
LINE
8
left_labelLayer
10
170.074373
20
214.968189
11
170.201915
21
214.994251
0
LINE
8
left_labelLayer
10
170.201915
20
214.994267
11
170.307452
21
215.020746
0
LINE
8
left_labelLayer
10
170.307452
20
215.020746
11
170.320840
21
215.024582
0
LINE
8
left_labelLayer
10
170.204521
20
214.215676
11
170.320824
21
214.261835
0
LINE
8
left_labelLayer
10
170.064327
20
214.176231
11
170.204521
21
214.215676
0
LINE
8
left_labelLayer
10
169.902897
20
214.142831
11
170.064327
21
214.176231
0
LINE
8
left_labelLayer
10
169.843360
20
214.132710
11
169.902897
21
214.142844
0
LINE
8
left_labelLayer
10
169.561617
20
214.096065
11
169.843360
21
214.132710
0
LINE
8
left_labelLayer
10
169.309585
20
214.081884
11
169.561617
21
214.096065
0
LINE
8
left_labelLayer
10
169.275806
20
214.081659
11
169.309585
21
214.081884
0
LINE
8
left_labelLayer
10
168.508436
20
214.184934
11
169.275806
21
214.081659
0
LINE
8
left_labelLayer
10
167.444204
20
215.361524
11
167.809030
21
214.621914
0
LINE
8
left_labelLayer
10
167.809030
20
214.621914
11
168.508436
21
214.184934
0
LINE
8
left_labelLayer
10
167.365945
20
216.093620
11
167.444204
21
215.361524
0
LINE
8
left_labelLayer
10
168.362918
20
216.135659
11
168.391879
21
215.783102
0
LINE
8
left_labelLayer
10
168.391879
20
215.783102
11
168.502276
21
215.436506
0
LINE
8
left_labelLayer
10
168.502276
20
215.436506
11
168.645194
21
215.222771
0
LINE
8
left_labelLayer
10
168.645194
20
215.222771
11
169.214547
21
214.919691
0
LINE
8
left_labelLayer
10
169.214547
20
214.919691
11
169.419948
21
214.904478
0
LINE
8
right_outsideCutPath
10
144.554086
20
74.449912
11
155.714038
21
74.449912
0
LINE
8
right_outsideCutPath
10
155.714038
20
74.449912
11
155.714038
21
70.849943
0
LINE
8
right_outsideCutPath
10
155.714038
20
70.849943
11
167.954124
21
70.849943
0
LINE
8
right_outsideCutPath
10
167.954124
20
70.849943
11
167.954124
21
74.449912
0
LINE
8
right_outsideCutPath
10
167.954124
20
74.449912
11
179.114076
21
74.449912
0
LINE
8
right_outsideCutPath
10
179.114076
20
74.449912
11
179.114076
21
70.849943
0
LINE
8
right_outsideCutPath
10
179.114076
20
70.849943
11
188.984027
21
70.849943
0
LINE
8
right_outsideCutPath
10
188.984027
20
70.849943
11
188.984027
21
89.779904
0
LINE
8
right_outsideCutPath
10
188.984027
20
89.779904
11
192.583997
21
89.779904
0
LINE
8
right_outsideCutPath
10
192.583997
20
89.779904
11
192.583997
21
102.019990
0
LINE
8
right_outsideCutPath
10
192.583997
20
102.019990
11
188.984027
21
102.019990
0
LINE
8
right_outsideCutPath
10
188.984027
20
102.019990
11
188.984027
21
113.179942
0
LINE
8
right_outsideCutPath
10
188.984027
20
113.179942
11
192.583997
21
113.179942
0
LINE
8
right_outsideCutPath
10
192.583997
20
113.179942
11
192.583997
21
125.419869
0
LINE
8
right_outsideCutPath
10
192.583997
20
125.419869
11
188.984027
21
125.419869
0
LINE
8
right_outsideCutPath
10
188.984027
20
125.419869
11
188.984027
21
136.579885
0
LINE
8
right_outsideCutPath
10
188.984027
20
136.579885
11
192.583997
21
136.579885
0
LINE
8
right_outsideCutPath
10
192.583997
20
136.579885
11
192.583997
21
148.819873
0
LINE
8
right_outsideCutPath
10
192.583997
20
148.819873
11
188.984027
21
148.819873
0
LINE
8
right_outsideCutPath
10
188.984027
20
148.819873
11
188.984027
21
167.749868
0
LINE
8
right_outsideCutPath
10
188.984027
20
167.749868
11
134.684135
21
167.749868
0
LINE
8
right_outsideCutPath
10
134.684135
20
167.749868
11
134.684135
21
148.819873
0
LINE
8
right_outsideCutPath
10
134.684135
20
148.819873
11
131.084165
21
148.819873
0
LINE
8
right_outsideCutPath
10
131.084165
20
148.819873
11
131.084165
21
136.579885
0
LINE
8
right_outsideCutPath
10
131.084165
20
136.579885
11
134.684135
21
136.579885
0
LINE
8
right_outsideCutPath
10
134.684135
20
136.579885
11
134.684135
21
125.419869
0
LINE
8
right_outsideCutPath
10
134.684135
20
125.419869
11
131.084165
21
125.419869
0
LINE
8
right_outsideCutPath
10
131.084165
20
125.419869
11
131.084165
21
113.179942
0
LINE
8
right_outsideCutPath
10
131.084165
20
113.179942
11
134.684135
21
113.179942
0
LINE
8
right_outsideCutPath
10
134.684135
20
113.179942
11
134.684135
21
102.019990
0
LINE
8
right_outsideCutPath
10
134.684135
20
102.019990
11
131.084165
21
102.019990
0
LINE
8
right_outsideCutPath
10
131.084165
20
102.019990
11
131.084165
21
89.779904
0
LINE
8
right_outsideCutPath
10
131.084165
20
89.779904
11
134.684135
21
89.779904
0
LINE
8
right_outsideCutPath
10
134.684135
20
89.779904
11
134.684135
21
70.849943
0
LINE
8
right_outsideCutPath
10
134.684135
20
70.849943
11
144.554086
21
70.849943
0
LINE
8
right_outsideCutPath
10
144.554086
20
70.849943
11
144.554086
21
74.449912
0
LINE
8
right_labelLayer
10
152.900357
20
122.735251
11
152.762244
21
121.810375
0
LINE
8
right_labelLayer
10
150.107630
20
119.636296
11
150.107630
21
116.104907
0
LINE
8
right_labelLayer
10
150.107630
20
116.104907
11
149.110681
21
116.104907
0
LINE
8
right_labelLayer
10
149.110681
20
116.104907
11
149.110681
21
122.687309
0
LINE
8
right_labelLayer
10
149.110681
20
122.687309
11
149.933482
21
122.687309
0
LINE
8
right_labelLayer
10
149.933482
20
122.687309
11
150.047623
21
121.468110
0
LINE
8
right_labelLayer
10
150.047623
20
121.468110
11
150.095565
21
121.468110
0
LINE
8
right_labelLayer
10
152.523350
20
122.789906
11
152.113595
21
122.807369
0
LINE
8
right_labelLayer
10
152.900365
20
122.735294
11
152.523350
21
122.789906
0
LINE
8
right_labelLayer
10
152.762229
20
121.810394
11
152.446263
21
121.868721
0
LINE
8
right_labelLayer
10
152.446263
20
121.868721
11
152.148512
21
121.897968
0
LINE
8
right_labelLayer
10
152.148512
20
121.897968
11
152.041526
21
121.900614
0
LINE
8
right_labelLayer
10
152.041526
20
121.900481
11
151.345506
21
121.758910
0
LINE
8
right_labelLayer
10
151.345506
20
121.758910
11
150.765286
21
121.349239
0
LINE
8
right_labelLayer
10
150.765286
20
121.349239
11
150.675195
21
121.251848
0
LINE
8
right_labelLayer
10
150.675195
20
121.251848
11
150.300533
21
120.655654
0
LINE
8
right_labelLayer
10
150.300533
20
120.655654
11
150.125968
21
119.973492
0
LINE
8
right_labelLayer
10
150.125968
20
119.973492
11
150.107633
21
119.636275
0
LINE
8
right_labelLayer
10
150.472080
20
122.005859
11
150.095629
21
121.468060
0
LINE
8
right_labelLayer
10
150.978492
20
122.459024
11
150.472080
21
122.005859
0
LINE
8
right_labelLayer
10
152.113595
20
122.807363
11
151.519422
21
122.719942
0
LINE
8
right_labelLayer
10
151.519422
20
122.719942
11
150.978492
21
122.459024
0
LINE
8
right_labelLayer
10
155.128569
20
122.687309
11
155.128569
21
116.104907
0
LINE
8
right_labelLayer
10
155.128569
20
116.104907
11
154.131620
21
116.104907
0
LINE
8
right_labelLayer
10
154.131620
20
116.104907
11
154.131620
21
122.687309
0
LINE
8
right_labelLayer
10
154.131620
20
122.687309
11
155.128569
21
122.687309
0
LINE
8
right_labelLayer
10
154.061532
20
124.653592
11
154.047483
21
124.470985
0
LINE
8
right_labelLayer
10
154.112607
20
124.826124
11
154.061532
21
124.653592
0
LINE
8
right_labelLayer
10
154.215644
20
124.972473
11
154.112607
21
124.826124
0
LINE
8
right_labelLayer
10
154.585684
20
125.129987
11
154.215644
21
124.972473
0
LINE
8
right_labelLayer
10
154.636053
20
125.131630
11
154.585684
21
125.130042
0
LINE
8
right_labelLayer
10
155.050459
20
124.969470
11
154.636053
21
125.131630
0
LINE
8
right_labelLayer
10
155.183102
20
124.757904
11
155.050459
21
124.969472
0
LINE
8
right_labelLayer
10
155.219720
20
124.578982
11
155.183102
21
124.757904
0
LINE
8
right_labelLayer
10
155.224628
20
124.470985
11
155.219734
21
124.578982
0
LINE
8
right_labelLayer
10
155.208460
20
124.281927
11
155.224626
21
124.470985
0
LINE
8
right_labelLayer
10
155.145489
20
124.095340
11
155.208460
21
124.281927
0
LINE
8
right_labelLayer
10
155.050459
20
123.969497
11
155.145489
21
124.095340
0
LINE
8
right_labelLayer
10
154.636053
20
123.804336
11
155.050459
21
123.969497
0
LINE
8
right_labelLayer
10
154.418047
20
123.840626
11
154.636053
21
123.804336
0
LINE
8
right_labelLayer
10
154.215644
20
123.969497
11
154.418050
21
123.840626
0
LINE
8
right_labelLayer
10
154.090181
20
124.175493
11
154.215644
21
123.969497
0
LINE
8
right_labelLayer
10
154.052642
20
124.358399
11
154.090181
21
124.175493
0
LINE
8
right_labelLayer
10
154.047480
20
124.470985
11
154.052639
21
124.358399
0
LINE
8
right_labelLayer
10
160.353660
20
122.687309
11
162.629814
21
122.687309
0
LINE
8
right_labelLayer
10
162.629814
20
122.687309
11
162.629814
21
122.056596
0
LINE
8
right_labelLayer
10
162.629814
20
122.056596
11
161.410616
21
121.912451
0
LINE
8
right_labelLayer
10
159.164465
20
117.149798
11
160.329530
21
117.149798
0
LINE
8
right_labelLayer
10
160.011236
20
116.254926
11
158.816168
21
116.254926
0
LINE
8
right_labelLayer
10
161.550901
20
121.703849
11
161.410656
21
121.912493
0
LINE
8
right_labelLayer
10
161.668240
20
121.467092
11
161.550901
21
121.703849
0
LINE
8
right_labelLayer
10
161.710949
20
121.362957
11
161.668240
21
121.467092
0
LINE
8
right_labelLayer
10
161.824495
20
120.904776
11
161.710949
21
121.362957
0
LINE
8
right_labelLayer
10
161.843077
20
120.597212
11
161.824503
21
120.904776
0
LINE
8
right_labelLayer
10
161.738199
20
119.888653
11
161.843077
21
120.597212
0
LINE
8
right_labelLayer
10
161.182434
20
119.053706
11
161.738199
21
119.888653
0
LINE
8
right_labelLayer
10
160.312567
20
118.595525
11
161.182434
21
119.053706
0
LINE
8
right_labelLayer
10
159.592425
20
118.482810
11
160.312567
21
118.595525
0
LINE
8
right_labelLayer
10
159.368665
20
118.477145
11
159.592425
21
118.482807
0
LINE
8
right_labelLayer
10
158.997934
20
118.497838
11
159.368665
21
118.477148
0
LINE
8
right_labelLayer
10
158.816126
20
118.525191
11
158.997934
21
118.497838
0
LINE
8
right_labelLayer
10
158.816126
20
118.525191
11
158.530183
21
118.340197
0
LINE
8
right_labelLayer
10
158.530183
20
118.340197
11
158.296712
21
118.084388
0
LINE
8
right_labelLayer
10
158.296715
20
118.084388
11
158.179507
21
117.678366
0
LINE
8
right_labelLayer
10
158.179507
20
117.678366
11
158.205754
21
117.509237
0
LINE
8
right_labelLayer
10
158.205764
20
117.509237
11
158.388263
21
117.287056
0
LINE
8
right_labelLayer
10
158.388263
20
117.287056
11
158.401730
21
117.278986
0
LINE
8
right_labelLayer
10
158.401723
20
117.278978
11
158.556789
21
117.215116
0
LINE
8
right_labelLayer
10
158.556789
20
117.215116
11
158.746961
21
117.175346
0
LINE
8
right_labelLayer
10
158.746961
20
117.175346
11
158.966343
21
117.154735
0
LINE
8
right_labelLayer
10
158.966343
20
117.154733
11
159.164468
21
117.149864
0
LINE
8
right_labelLayer
10
160.949366
20
117.105864
11
160.329601
21
117.149851
0
LINE
8
right_labelLayer
10
161.535256
20
116.949461
11
160.949366
21
117.105864
0
LINE
8
right_labelLayer
10
161.972201
20
116.699412
11
161.535256
21
116.949461
0
LINE
8
right_labelLayer
10
162.514255
20
115.770284
11
162.332013
21
116.286645
0
LINE
8
right_labelLayer
10
162.332013
20
116.286645
11
161.972201
21
116.699412
0
LINE
8
right_labelLayer
10
162.545762
20
115.390136
11
162.514255
21
115.770284
0
LINE
8
right_labelLayer
10
162.422453
20
114.643393
11
162.545762
21
115.390136
0
LINE
8
right_labelLayer
10
161.702824
20
113.746115
11
162.134818
21
114.136865
0
LINE
8
right_labelLayer
10
162.134818
20
114.136865
11
162.422453
21
114.643393
0
LINE
8
right_labelLayer
10
161.668907
20
113.723512
11
161.702824
21
113.746107
0
LINE
8
right_labelLayer
10
160.898095
20
113.374001
11
161.668907
21
113.723512
0
LINE
8
right_labelLayer
10
160.054837
20
113.202519
11
160.898095
21
113.374001
0
LINE
8
right_labelLayer
10
159.110413
20
113.149954
11
160.054837
21
113.202519
0
LINE
8
right_labelLayer
10
158.361149
20
113.196875
11
159.110413
21
113.149954
0
LINE
8
right_labelLayer
10
157.670410
20
113.356874
11
158.361149
21
113.196875
0
LINE
8
right_labelLayer
10
157.119474
20
113.630424
11
157.670410
21
113.356874
0
LINE
8
right_labelLayer
10
156.607228
20
114.186252
11
157.119474
21
113.630424
0
LINE
8
right_labelLayer
10
156.422721
20
114.875943
11
156.607228
21
114.186252
0
LINE
8
right_labelLayer
10
156.419792
20
114.987745
11
156.422729
21
114.875943
0
LINE
8
right_labelLayer
10
156.804168
20
116.026757
11
156.514256
21
115.543404
0
LINE
8
right_labelLayer
10
156.514256
20
115.543404
11
156.419792
21
114.987745
0
LINE
8
right_labelLayer
10
157.402107
20
116.462478
11
156.804168
21
116.026757
0
LINE
8
right_labelLayer
10
157.885219
20
116.621336
11
157.402107
21
116.462478
0
LINE
8
right_labelLayer
10
157.483519
20
116.946146
11
157.885219
21
116.621336
0
LINE
8
right_labelLayer
10
157.461807
20
116.975682
11
157.483530
21
116.946146
0
LINE
8
right_labelLayer
10
157.292146
20
117.475230
11
157.461807
21
116.975682
0
LINE
8
right_labelLayer
10
157.290641
20
117.534227
11
157.291964
21
117.475230
0
LINE
8
right_labelLayer
10
157.348119
20
117.901418
11
157.290641
21
117.534227
0
LINE
8
right_labelLayer
10
157.482828
20
118.164842
11
157.348119
21
117.901418
0
LINE
8
right_labelLayer
10
157.671254
20
118.377347
11
157.482828
21
118.164842
0
LINE
8
right_labelLayer
10
157.900142
20
118.562984
11
157.671254
21
118.377347
0
LINE
8
right_labelLayer
10
158.089419
20
118.687351
11
157.900142
21
118.562984
0
LINE
8
right_labelLayer
10
157.330159
20
119.295209
11
158.089419
21
118.687351
0
LINE
8
right_labelLayer
10
157.257607
20
119.402045
11
157.330159
21
119.295209
0
LINE
8
right_labelLayer
10
156.941317
20
120.395263
11
157.257607
21
119.402045
0
LINE
8
right_labelLayer
10
156.936295
20
120.555169
11
156.941322
21
120.395263
0
LINE
8
right_labelLayer
10
157.012072
20
121.236285
11
156.936295
21
120.555169
0
LINE
8
right_labelLayer
10
157.584928
20
122.221794
11
157.222646
21
121.773132
0
LINE
8
right_labelLayer
10
157.222646
20
121.773132
11
157.012072
21
121.236285
0
LINE
8
right_labelLayer
10
158.397539
20
122.669979
11
157.584928
21
122.221794
0
LINE
8
right_labelLayer
10
159.108752
20
122.796497
11
158.397539
21
122.669979
0
LINE
8
right_labelLayer
10
159.422719
20
122.807363
11
159.108752
21
122.796489
0
LINE
8
right_labelLayer
10
159.928218
20
122.775428
11
159.422719
21
122.807363
0
LINE
8
right_labelLayer
10
160.353625
20
122.687248
11
159.928218
21
122.775428
0
LINE
8
right_labelLayer
10
157.380728
20
114.999757
11
157.446739
21
114.628359
0
LINE
8
right_labelLayer
10
157.446739
20
114.628359
11
157.772407
21
114.227442
0
LINE
8
right_labelLayer
10
157.772407
20
114.227442
11
157.831168
21
114.188966
0
LINE
8
right_labelLayer
10
157.831168
20
114.188966
11
158.223894
21
114.020615
0
LINE
8
right_labelLayer
10
158.223894
20
114.020615
11
158.635037
21
113.939676
0
LINE
8
right_labelLayer
10
158.635037
20
113.939676
11
159.114223
21
113.912705
0
LINE
8
right_labelLayer
10
159.114223
20
113.912705
11
159.122425
21
113.912697
0
LINE
8
right_labelLayer
10
159.122425
20
113.912697
11
159.776943
21
113.942391
0
LINE
8
right_labelLayer
10
159.776943
20
113.942391
11
160.347389
21
114.036045
0
LINE
8
right_labelLayer
10
160.347389
20
114.036045
11
160.845027
21
114.212242
0
LINE
8
right_labelLayer
10
160.845027
20
114.212242
11
160.981237
21
114.288063
0
LINE
8
right_labelLayer
10
160.981237
20
114.288063
11
161.318655
21
114.570424
0
LINE
8
right_labelLayer
10
161.318655
20
114.570424
11
161.584825
21
115.306054
0
LINE
8
right_labelLayer
10
161.584825
20
115.306054
11
161.560140
21
115.573900
0
LINE
8
right_labelLayer
10
161.560129
20
115.573900
11
161.457976
21
115.842835
0
LINE
8
right_labelLayer
10
161.457976
20
115.842835
11
161.254504
21
116.047778
0
LINE
8
right_labelLayer
10
161.254504
20
116.047778
11
161.030302
21
116.145600
0
LINE
8
right_labelLayer
10
161.030302
20
116.145600
11
160.749391
21
116.207875
0
LINE
8
right_labelLayer
10
160.749391
20
116.207875
11
160.413453
21
116.243205
0
LINE
8
right_labelLayer
10
160.413453
20
116.243202
11
160.011292
21
116.254976
0
LINE
8
right_labelLayer
10
158.816126
20
116.254979
11
158.403088
21
116.220062
0
LINE
8
right_labelLayer
10
158.403088
20
116.220062
11
157.983195
21
116.081060
0
LINE
8
right_labelLayer
10
157.983195
20
116.081060
11
157.759098
21
115.930663
0
LINE
8
right_labelLayer
10
157.759098
20
115.930663
11
157.414077
21
115.335042
0
LINE
8
right_labelLayer
10
157.414077
20
115.335042
11
157.380728
21
114.999757
0
LINE
8
right_labelLayer
10
157.921256
20
120.579194
11
157.961308
21
120.171238
0
LINE
8
right_labelLayer
10
157.961308
20
120.171238
11
158.143434
21
119.728509
0
LINE
8
right_labelLayer
10
158.143434
20
119.728509
11
158.311635
21
119.534175
0
LINE
8
right_labelLayer
10
158.311635
20
119.534175
11
158.830220
21
119.252585
0
LINE
8
right_labelLayer
10
158.830220
20
119.252585
11
159.263594
21
119.183312
0
LINE
8
right_labelLayer
10
159.263594
20
119.183312
11
159.398695
21
119.179819
0
LINE
8
right_labelLayer
10
159.398695
20
119.179830
11
159.967355
21
119.247653
0
LINE
8
right_labelLayer
10
159.967355
20
119.247653
11
160.496727
21
119.537541
0
LINE
8
right_labelLayer
10
160.496727
20
119.537541
11
160.793405
21
120.063138
0
LINE
8
right_labelLayer
10
160.793405
20
120.063138
11
160.858116
21
120.597212
0
LINE
8
right_labelLayer
10
160.858116
20
120.597212
11
160.784872
21
121.184266
0
LINE
8
right_labelLayer
10
160.784872
20
121.184266
11
160.475232
21
121.723138
0
LINE
8
right_labelLayer
10
160.475232
20
121.723138
11
159.927816
21
122.017411
0
LINE
8
right_labelLayer
10
159.927816
20
122.017409
11
159.380677
21
122.080657
0
LINE
8
right_labelLayer
10
159.380677
20
122.080657
11
158.954458
21
122.039919
0
LINE
8
right_labelLayer
10
158.954458
20
122.039919
11
158.494078
21
121.858405
0
LINE
8
right_labelLayer
10
158.494078
20
121.858405
11
158.299623
21
121.702288
0
LINE
8
right_labelLayer
10
158.299623
20
121.702288
11
158.010029
21
121.214693
0
LINE
8
right_labelLayer
10
158.010029
20
121.214693
11
157.929926
21
120.796252
0
LINE
8
right_labelLayer
10
157.929926
20
120.796252
11
157.921248
21
120.579194
0
LINE
8
right_labelLayer
10
169.482567
20
116.104907
11
168.485618
21
116.104907
0
LINE
8
right_labelLayer
10
168.485618
20
116.104907
11
168.485618
21
120.363053
0
LINE
8
right_labelLayer
10
164.978200
20
119.546127
11
164.978200
21
116.104907
0
LINE
8
right_labelLayer
10
164.978200
20
116.104907
11
163.981093
21
116.104907
0
LINE
8
right_labelLayer
10
163.981093
20
116.104907
11
163.981093
21
125.449873
0
LINE
8
right_labelLayer
10
163.981093
20
125.449873
11
164.978200
21
125.449873
0
LINE
8
right_labelLayer
10
164.978200
20
125.449873
11
164.978200
21
122.621110
0
LINE
8
right_labelLayer
10
164.930099
20
121.774339
11
164.990106
21
121.774339
0
LINE
8
right_labelLayer
10
169.482567
20
120.399089
11
169.482567
21
116.104907
0
LINE
8
right_labelLayer
10
168.485547
20
120.362982
11
168.453260
21
120.804830
0
LINE
8
right_labelLayer
10
168.453260
20
120.804830
11
168.336682
21
121.223054
0
LINE
8
right_labelLayer
10
168.336682
20
121.223054
11
168.119192
21
121.564154
0
LINE
8
right_labelLayer
10
168.119192
20
121.564154
11
167.658172
21
121.858323
0
LINE
8
right_labelLayer
10
167.658172
20
121.858323
11
167.254405
21
121.946164
0
LINE
8
right_labelLayer
10
167.254405
20
121.946164
11
166.972074
21
121.960531
0
LINE
8
right_labelLayer
10
166.972074
20
121.960539
11
166.408062
21
121.911435
0
LINE
8
right_labelLayer
10
166.408062
20
121.911435
11
165.854613
21
121.719832
0
LINE
8
right_labelLayer
10
165.854613
20
121.719832
11
165.455595
21
121.395988
0
LINE
8
right_labelLayer
10
165.455595
20
121.395990
11
165.174084
21
120.897140
0
LINE
8
right_labelLayer
10
165.174084
20
120.897140
11
165.034249
21
120.342736
0
LINE
8
right_labelLayer
10
165.034249
20
120.342736
11
164.981640
21
119.761206
0
LINE
8
right_labelLayer
10
164.981640
20
119.761206
11
164.978121
21
119.546187
0
LINE
8
right_labelLayer
10
164.971927
20
122.276755
11
164.978118
21
122.621182
0
LINE
8
right_labelLayer
10
164.953242
20
121.976568
11
164.971922
21
122.276755
0
LINE
8
right_labelLayer
10
164.930083
20
121.774357
11
164.953234
21
121.976568
0
LINE
8
right_labelLayer
10
165.687981
20
122.445951
11
164.990144
21
121.774357
0
LINE
8
right_labelLayer
10
165.827959
20
122.522087
11
165.687981
21
122.445951
0
LINE
8
right_labelLayer
10
166.668012
20
122.771269
11
165.827959
21
122.522087
0
LINE
8
right_labelLayer
10
167.068168
20
122.795351
11
166.668012
21
122.771274
0
LINE
8
right_labelLayer
10
167.747757
20
122.742107
11
167.068168
21
122.795351
0
LINE
8
right_labelLayer
10
168.395115
20
122.547191
11
167.747757
21
122.742107
0
LINE
8
right_labelLayer
10
168.878932
20
122.221794
11
168.395115
21
122.547191
0
LINE
8
right_labelLayer
10
169.307125
20
121.549491
11
168.878932
21
122.221794
0
LINE
8
right_labelLayer
10
169.452450
20
120.923019
11
169.307125
21
121.549491
0
LINE
8
right_labelLayer
10
169.482519
20
120.399018
11
169.452450
21
120.923019
0
LINE
8
right_labelLayer
10
174.557481
20
116.927707
11
174.557481
21
116.164915
0
LINE
8
right_labelLayer
10
171.602512
20
117.996729
11
171.602512
21
121.912451
0
LINE
8
right_labelLayer
10
171.602512
20
121.912451
11
170.659697
21
121.912451
0
LINE
8
right_labelLayer
10
170.659697
20
121.912451
11
170.659697
21
122.392987
0
LINE
8
right_labelLayer
10
170.659697
20
122.392987
11
171.602512
21
122.807324
0
LINE
8
right_labelLayer
10
171.602512
20
122.807324
11
172.023040
21
124.212736
0
LINE
8
right_labelLayer
10
172.023040
20
124.212736
11
172.599619
21
124.212736
0
LINE
8
right_labelLayer
10
172.599619
20
124.212736
11
172.599619
21
122.687309
0
LINE
8
right_labelLayer
10
172.599619
20
122.687309
11
174.509379
21
122.687309
0
LINE
8
right_labelLayer
10
174.509379
20
122.687309
11
174.509379
21
121.912451
0
LINE
8
right_labelLayer
10
174.509379
20
121.912451
11
172.599619
21
121.912451
0
LINE
8
right_labelLayer
10
172.599619
20
121.912451
11
172.599619
21
118.038797
0
LINE
8
right_labelLayer
10
173.656586
20
116.807518
11
174.136233
21
116.841829
0
LINE
8
right_labelLayer
10
174.136233
20
116.841829
11
174.167083
21
116.846565
0
LINE
8
right_labelLayer
10
174.167083
20
116.846557
11
174.311014
21
116.871243
0
LINE
8
right_labelLayer
10
174.311014
20
116.871248
11
174.438556
21
116.897336
0
LINE
8
right_labelLayer
10
174.438556
20
116.897325
11
174.544090
21
116.923802
0
LINE
8
right_labelLayer
10
174.544090
20
116.923802
11
174.557478
21
116.927639
0
LINE
8
right_labelLayer
10
174.441159
20
116.118734
11
174.557465
21
116.164891
0
LINE
8
right_labelLayer
10
174.300967
20
116.079293
11
174.441159
21
116.118734
0
LINE
8
right_labelLayer
10
174.139537
20
116.045889
11
174.300967
21
116.079293
0
LINE
8
right_labelLayer
10
174.079998
20
116.035766
11
174.139537
21
116.045900
0
LINE
8
right_labelLayer
10
173.798254
20
115.999124
11
174.079998
21
116.035766
0
LINE
8
right_labelLayer
10
173.546226
20
115.984943
11
173.798254
21
115.999124
0
LINE
8
right_labelLayer
10
173.512447
20
115.984718
11
173.546226
21
115.984943
0
LINE
8
right_labelLayer
10
172.745077
20
116.087992
11
173.512447
21
115.984718
0
LINE
8
right_labelLayer
10
171.680842
20
117.264582
11
172.045669
21
116.524972
0
LINE
8
right_labelLayer
10
172.045669
20
116.524972
11
172.745077
21
116.087992
0
LINE
8
right_labelLayer
10
171.602586
20
117.996676
11
171.680842
21
117.264582
0
LINE
8
right_labelLayer
10
172.599556
20
118.038718
11
172.628517
21
117.686161
0
LINE
8
right_labelLayer
10
172.628517
20
117.686161
11
172.738914
21
117.339565
0
LINE
8
right_labelLayer
10
172.738914
20
117.339565
11
172.881834
21
117.125827
0
LINE
8
right_labelLayer
10
172.881834
20
117.125827
11
173.451188
21
116.822750
0
LINE
8
right_labelLayer
10
173.451188
20
116.822750
11
173.656586
21
116.807510
0
LINE
8
bottom_outsideCutPath
10
155.850753
20
11.206466
11
167.010544
21
11.206466
0
LINE
8
bottom_outsideCutPath
10
167.010544
20
11.206466
11
167.010544
21
7.606020
0
LINE
8
bottom_outsideCutPath
10
167.010544
20
7.606020
11
179.250159
21
7.606020
0
LINE
8
bottom_outsideCutPath
10
179.250159
20
7.606020
11
179.250159
21
11.206466
0
LINE
8
bottom_outsideCutPath
10
179.250159
20
11.206466
11
188.281438
21
11.206466
0
LINE
8
bottom_outsideCutPath
10
188.281438
20
11.206466
11
188.281438
21
20.536191
0
LINE
8
bottom_outsideCutPath
10
188.281438
20
20.536191
11
191.880288
21
20.536191
0
LINE
8
bottom_outsideCutPath
10
191.880288
20
20.536191
11
191.880288
21
32.775796
0
LINE
8
bottom_outsideCutPath
10
191.880288
20
32.775796
11
188.281438
21
32.775796
0
LINE
8
bottom_outsideCutPath
10
188.281438
20
32.775796
11
188.281438
21
43.935748
0
LINE
8
bottom_outsideCutPath
10
188.281438
20
43.935748
11
191.880288
21
43.935748
0
LINE
8
bottom_outsideCutPath
10
191.880288
20
43.935748
11
191.880288
21
56.175834
0
LINE
8
bottom_outsideCutPath
10
191.880288
20
56.175834
11
188.281438
21
56.175834
0
LINE
8
bottom_outsideCutPath
10
188.281438
20
56.175834
11
188.281438
21
65.505718
0
LINE
8
bottom_outsideCutPath
10
188.281438
20
65.505718
11
179.250159
21
65.505718
0
LINE
8
bottom_outsideCutPath
10
179.250159
20
65.505718
11
179.250159
21
69.105687
0
LINE
8
bottom_outsideCutPath
10
179.250159
20
69.105687
11
167.010544
21
69.105687
0
LINE
8
bottom_outsideCutPath
10
167.010544
20
69.105687
11
167.010544
21
65.505718
0
LINE
8
bottom_outsideCutPath
10
167.010544
20
65.505718
11
155.850753
21
65.505718
0
LINE
8
bottom_outsideCutPath
10
155.850753
20
65.505718
11
155.850753
21
69.105687
0
LINE
8
bottom_outsideCutPath
10
155.850753
20
69.105687
11
143.610826
21
69.105687
0
LINE
8
bottom_outsideCutPath
10
143.610826
20
69.105687
11
143.610826
21
65.505718
0
LINE
8
bottom_outsideCutPath
10
143.610826
20
65.505718
11
134.580820
21
65.505718
0
LINE
8
bottom_outsideCutPath
10
134.580820
20
65.505718
11
134.580820
21
56.175834
0
LINE
8
bottom_outsideCutPath
10
134.580820
20
56.175834
11
130.980851
21
56.175834
0
LINE
8
bottom_outsideCutPath
10
130.980851
20
56.175834
11
130.980851
21
43.935748
0
LINE
8
bottom_outsideCutPath
10
130.980851
20
43.935748
11
134.580820
21
43.935748
0
LINE
8
bottom_outsideCutPath
10
134.580820
20
43.935748
11
134.580820
21
32.775796
0
LINE
8
bottom_outsideCutPath
10
134.580820
20
32.775796
11
130.980851
21
32.775796
0
LINE
8
bottom_outsideCutPath
10
130.980851
20
32.775796
11
130.980851
21
20.536191
0
LINE
8
bottom_outsideCutPath
10
130.980851
20
20.536191
11
134.580820
21
20.536191
0
LINE
8
bottom_outsideCutPath
10
134.580820
20
20.536191
11
134.580820
21
11.206466
0
LINE
8
bottom_outsideCutPath
10
134.580820
20
11.206466
11
143.610826
21
11.206466
0
LINE
8
bottom_outsideCutPath
10
143.610826
20
11.206466
11
143.610826
21
7.606020
0
LINE
8
bottom_outsideCutPath
10
143.610826
20
7.606020
11
155.850753
21
7.606020
0
LINE
8
bottom_outsideCutPath
10
155.850753
20
7.606020
11
155.850753
21
11.206466
0
LINE
8
bottom_labelLayer
10
142.381627
20
34.626977
11
142.310348
21
34.626977
0
LINE
8
bottom_labelLayer
10
142.310348
20
34.626977
11
142.102227
21
33.788461
0
LINE
8
bottom_labelLayer
10
142.102227
20
33.788461
11
141.394362
21
33.788461
0
LINE
8
bottom_labelLayer
10
141.394362
20
33.788461
11
141.394362
21
43.042463
0
LINE
8
bottom_labelLayer
10
141.394362
20
43.042463
11
142.381627
21
43.042463
0
LINE
8
bottom_labelLayer
10
142.381627
20
43.042463
11
142.381627
21
40.794407
0
LINE
8
bottom_labelLayer
10
142.334161
20
39.438366
11
142.381627
21
39.438366
0
LINE
8
bottom_labelLayer
10
145.276731
20
40.300412
11
144.427539
21
40.413706
0
LINE
8
bottom_labelLayer
10
146.422844
20
39.536487
11
145.909437
21
40.007941
0
LINE
8
bottom_labelLayer
10
145.909437
20
40.007941
11
145.276731
21
40.300412
0
LINE
8
bottom_labelLayer
10
146.932965
20
38.554011
11
146.422844
21
39.536487
0
LINE
8
bottom_labelLayer
10
147.105335
20
37.664387
11
146.932965
21
38.554011
0
LINE
8
bottom_labelLayer
10
147.133543
20
37.053505
11
147.105335
21
37.664387
0
LINE
8
bottom_labelLayer
10
147.056843
20
36.079562
11
147.133543
21
37.053505
0
LINE
8
bottom_labelLayer
10
146.776715
20
35.144195
11
147.056843
21
36.079562
0
LINE
8
bottom_labelLayer
10
146.416896
20
34.558633
11
146.776715
21
35.144195
0
LINE
8
bottom_labelLayer
10
144.755793
20
33.685199
11
145.677866
21
33.947860
0
LINE
8
bottom_labelLayer
10
145.677866
20
33.947860
11
146.416896
21
34.558633
0
LINE
8
bottom_labelLayer
10
144.427539
20
33.669515
11
144.755793
21
33.685205
0
LINE
8
bottom_labelLayer
10
143.675070
20
33.761280
11
144.427539
21
33.669515
0
LINE
8
bottom_labelLayer
10
143.264850
20
33.904433
11
143.675070
21
33.761280
0
LINE
8
bottom_labelLayer
10
142.381682
20
34.627025
11
142.775298
21
34.207101
0
LINE
8
bottom_labelLayer
10
142.775298
20
34.207101
11
143.264850
21
33.904433
0
LINE
8
bottom_labelLayer
10
142.370520
20
40.098911
11
142.381685
21
40.794330
0
LINE
8
bottom_labelLayer
10
142.337121
20
39.477233
11
142.370520
21
40.098911
0
LINE
8
bottom_labelLayer
10
142.334105
20
39.438355
11
142.337121
21
39.477233
0
LINE
8
bottom_labelLayer
10
144.020060
20
40.389894
11
143.095554
21
40.095462
0
LINE
8
bottom_labelLayer
10
143.095554
20
40.095462
11
142.381682
21
39.438355
0
LINE
8
bottom_labelLayer
10
144.427539
20
40.413706
11
144.020060
21
40.389894
0
LINE
8
bottom_labelLayer
10
144.284804
20
39.587035
11
143.747510
21
39.538585
0
LINE
8
bottom_labelLayer
10
143.747510
20
39.538585
11
143.209060
21
39.341984
0
LINE
8
bottom_labelLayer
10
143.209060
20
39.341984
11
142.827727
21
39.007180
0
LINE
8
bottom_labelLayer
10
142.827727
20
39.007180
11
142.583033
21
38.541165
0
LINE
8
bottom_labelLayer
10
142.583033
20
38.541165
11
142.448979
21
38.000974
0
LINE
8
bottom_labelLayer
10
142.448979
20
38.000974
11
142.388255
21
37.375325
0
LINE
8
bottom_labelLayer
10
142.388255
20
37.375325
11
142.381693
21
37.053505
0
LINE
8
bottom_labelLayer
10
142.381682
20
37.053505
11
142.413993
21
36.378845
0
LINE
8
bottom_labelLayer
10
142.413993
20
36.378845
11
142.515720
21
35.795902
0
LINE
8
bottom_labelLayer
10
142.515720
20
35.795902
11
142.712072
21
35.283916
0
LINE
8
bottom_labelLayer
10
142.712072
20
35.283916
11
142.839620
21
35.087936
0
LINE
8
bottom_labelLayer
10
142.839620
20
35.087936
11
143.566157
21
34.597638
0
LINE
8
bottom_labelLayer
10
143.566157
20
34.597638
11
144.105205
21
34.502525
0
LINE
8
bottom_labelLayer
10
144.105205
20
34.502525
11
144.308595
21
34.496175
0
LINE
8
bottom_labelLayer
10
144.308595
20
34.496183
11
144.867601
21
34.571020
0
LINE
8
bottom_labelLayer
10
144.867601
20
34.571020
11
145.319054
21
34.793403
0
LINE
8
bottom_labelLayer
10
145.319054
20
34.793403
11
145.664570
21
35.159302
0
LINE
8
bottom_labelLayer
10
145.664570
20
35.159302
11
145.944980
21
35.765843
0
LINE
8
bottom_labelLayer
10
145.944980
20
35.765843
11
146.074218
21
36.402612
0
LINE
8
bottom_labelLayer
10
146.074218
20
36.402612
11
146.110615
21
37.065398
0
LINE
8
bottom_labelLayer
10
146.110615
20
37.065398
11
146.075330
21
37.730025
0
LINE
8
bottom_labelLayer
10
146.075330
20
37.730025
11
145.955299
21
38.341701
0
LINE
8
bottom_labelLayer
10
145.955299
20
38.341701
11
145.709785
21
38.895828
0
LINE
8
bottom_labelLayer
10
145.709785
20
38.895828
11
145.664570
21
38.962577
0
LINE
8
bottom_labelLayer
10
145.664570
20
38.962577
11
145.263006
21
39.342236
0
LINE
8
bottom_labelLayer
10
145.263006
20
39.342236
11
144.748004
21
39.542651
0
LINE
8
bottom_labelLayer
10
144.748004
20
39.542651
11
144.284804
21
39.587035
0
LINE
8
bottom_labelLayer
10
154.393745
20
36.061491
11
154.484354
21
37.053505
0
LINE
8
bottom_labelLayer
10
154.009396
20
35.015099
11
154.393745
21
36.061491
0
LINE
8
bottom_labelLayer
10
153.681472
20
34.564578
11
154.009396
21
35.015099
0
LINE
8
bottom_labelLayer
10
152.132584
20
33.725456
11
152.979314
21
34.011588
0
LINE
8
bottom_labelLayer
10
152.979314
20
34.011588
11
153.681472
21
34.564578
0
LINE
8
bottom_labelLayer
10
151.463144
20
33.669515
11
152.132584
21
33.725456
0
LINE
8
bottom_labelLayer
10
150.541901
20
33.799301
11
151.463144
21
33.669515
0
LINE
8
bottom_labelLayer
10
149.910910
20
34.079878
11
150.541901
21
33.799301
0
LINE
8
bottom_labelLayer
10
148.936049
20
35.116720
11
149.353199
21
34.532220
0
LINE
8
bottom_labelLayer
10
149.353199
20
34.532220
11
149.910910
21
34.079878
0
LINE
8
bottom_labelLayer
10
148.864193
20
35.257433
11
148.936049
21
35.116720
0
LINE
8
bottom_labelLayer
10
148.557494
20
36.253528
11
148.864193
21
35.257433
0
LINE
8
bottom_labelLayer
10
148.495463
20
37.053505
11
148.557494
21
36.253528
0
LINE
8
bottom_labelLayer
10
148.585400
20
38.044850
11
148.495463
21
37.053505
0
LINE
8
bottom_labelLayer
10
148.957411
20
39.071977
11
148.585400
21
38.044850
0
LINE
8
bottom_labelLayer
10
149.292397
20
39.536487
11
148.957411
21
39.071977
0
LINE
8
bottom_labelLayer
10
150.816049
20
40.366505
11
149.983270
21
40.081742
0
LINE
8
bottom_labelLayer
10
149.983270
20
40.081742
11
149.292397
21
39.536487
0
LINE
8
bottom_labelLayer
10
151.504777
20
40.425599
11
150.816049
21
40.366505
0
LINE
8
bottom_labelLayer
10
152.478688
20
40.289519
11
151.504777
21
40.425599
0
LINE
8
bottom_labelLayer
10
153.678501
20
39.515669
11
153.133092
21
39.987089
0
LINE
8
bottom_labelLayer
10
153.133092
20
39.987089
11
152.478688
21
40.289519
0
LINE
8
bottom_labelLayer
10
154.350073
20
38.213733
11
154.092973
21
38.905289
0
LINE
8
bottom_labelLayer
10
154.092973
20
38.905289
11
153.678501
21
39.515669
0
LINE
8
bottom_labelLayer
10
154.482256
20
37.210239
11
154.350073
21
38.213733
0
LINE
8
bottom_labelLayer
10
154.484354
20
37.053505
11
154.482238
21
37.210239
0
LINE
8
bottom_labelLayer
10
149.518393
20
37.053505
11
149.565965
21
36.339321
0
LINE
8
bottom_labelLayer
10
149.565965
20
36.339321
11
149.728745
21
35.683081
0
LINE
8
bottom_labelLayer
10
149.728745
20
35.683081
11
150.017963
21
35.150381
0
LINE
8
bottom_labelLayer
10
150.017963
20
35.150381
11
150.483985
21
34.736674
0
LINE
8
bottom_labelLayer
10
150.483985
20
34.736674
11
151.071792
21
34.529764
0
LINE
8
bottom_labelLayer
10
151.071792
20
34.529764
11
151.486933
21
34.496183
0
LINE
8
bottom_labelLayer
10
151.486933
20
34.496183
11
152.091905
21
34.571396
0
LINE
8
bottom_labelLayer
10
152.091905
20
34.571396
11
152.573675
21
34.786731
0
LINE
8
bottom_labelLayer
10
152.573675
20
34.786731
11
152.958880
21
35.147409
0
LINE
8
bottom_labelLayer
10
152.958880
20
35.147409
11
153.288889
21
35.790200
0
LINE
8
bottom_labelLayer
10
153.288889
20
35.790200
11
153.428398
21
36.449806
0
LINE
8
bottom_labelLayer
10
153.428398
20
36.449806
11
153.461423
21
37.053505
0
LINE
8
bottom_labelLayer
10
153.461423
20
37.053505
11
153.414770
21
37.755457
0
LINE
8
bottom_labelLayer
10
153.414770
20
37.755457
11
153.254631
21
38.402243
0
LINE
8
bottom_labelLayer
10
153.254631
20
38.402243
11
152.958880
21
38.941760
0
LINE
8
bottom_labelLayer
10
152.958880
20
38.941760
11
152.510465
21
39.337530
0
LINE
8
bottom_labelLayer
10
152.510465
20
39.337530
11
151.949199
21
39.544149
0
LINE
8
bottom_labelLayer
10
151.949199
20
39.544149
11
151.475040
21
39.587035
0
LINE
8
bottom_labelLayer
10
151.475040
20
39.587035
11
150.890095
21
39.518521
0
LINE
8
bottom_labelLayer
10
150.890095
20
39.518521
11
150.402468
21
39.309733
0
LINE
8
bottom_labelLayer
10
150.402468
20
39.309733
11
150.012015
21
38.950681
0
LINE
8
bottom_labelLayer
10
150.012015
20
38.950681
11
149.694711
21
38.337524
0
LINE
8
bottom_labelLayer
10
149.694711
20
38.337524
11
149.557134
21
37.710935
0
LINE
8
bottom_labelLayer
10
149.557134
20
37.710935
11
149.518393
21
37.053505
0
LINE
8
bottom_labelLayer
10
159.212439
20
34.603165
11
159.212439
21
33.847992
0
LINE
8
bottom_labelLayer
10
156.286363
20
35.661867
11
156.286363
21
39.539490
0
LINE
8
bottom_labelLayer
10
156.286363
20
39.539490
11
155.352597
21
39.539490
0
LINE
8
bottom_labelLayer
10
155.352597
20
39.539490
11
155.352597
21
40.015263
0
LINE
8
bottom_labelLayer
10
155.352597
20
40.015263
11
156.286363
21
40.425631
0
LINE
8
bottom_labelLayer
10
156.286363
20
40.425631
11
156.702605
21
41.817232
0
LINE
8
bottom_labelLayer
10
156.702605
20
41.817232
11
157.273628
21
41.817232
0
LINE
8
bottom_labelLayer
10
157.273628
20
41.817232
11
157.273628
21
40.306727
0
LINE
8
bottom_labelLayer
10
157.273628
20
40.306727
11
159.164814
21
40.306727
0
LINE
8
bottom_labelLayer
10
159.164814
20
40.306727
11
159.164814
21
39.539490
0
LINE
8
bottom_labelLayer
10
159.164814
20
39.539490
11
157.273628
21
39.539490
0
LINE
8
bottom_labelLayer
10
157.273628
20
39.539490
11
157.273628
21
35.703460
0
LINE
8
bottom_labelLayer
10
158.320334
20
34.484290
11
158.795303
21
34.518265
0
LINE
8
bottom_labelLayer
10
158.795300
20
34.518265
11
158.825852
21
34.522948
0
LINE
8
bottom_labelLayer
10
158.825852
20
34.522946
11
158.968377
21
34.547393
0
LINE
8
bottom_labelLayer
10
158.968377
20
34.547399
11
159.094673
21
34.573222
0
LINE
8
bottom_labelLayer
10
159.094673
20
34.573222
11
159.199181
21
34.599442
0
LINE
8
bottom_labelLayer
10
159.199181
20
34.599439
11
159.212410
21
34.603223
0
LINE
8
bottom_labelLayer
10
159.097253
20
33.802224
11
159.212423
21
33.847934
0
LINE
8
bottom_labelLayer
10
158.958426
20
33.763169
11
159.097253
21
33.802224
0
LINE
8
bottom_labelLayer
10
158.798571
20
33.730094
11
158.958426
21
33.763169
0
LINE
8
bottom_labelLayer
10
158.739616
20
33.720069
11
158.798571
21
33.730096
0
LINE
8
bottom_labelLayer
10
158.460621
20
33.683784
11
158.739616
21
33.720069
0
LINE
8
bottom_labelLayer
10
158.211051
20
33.669737
11
158.460621
21
33.683786
0
LINE
8
bottom_labelLayer
10
158.177600
20
33.669515
11
158.211051
21
33.669737
0
LINE
8
bottom_labelLayer
10
157.417715
20
33.771781
11
158.177600
21
33.669515
0
LINE
8
bottom_labelLayer
10
156.363865
20
34.936894
11
156.725131
21
34.204499
0
LINE
8
bottom_labelLayer
10
156.725131
20
34.204499
11
157.417715
21
33.771781
0
LINE
8
bottom_labelLayer
10
156.286374
20
35.661846
11
156.363865
21
34.936894
0
LINE
8
bottom_labelLayer
10
157.273617
20
35.703478
11
157.302296
21
35.354361
0
LINE
8
bottom_labelLayer
10
157.302296
20
35.354361
11
157.411616
21
35.011146
0
LINE
8
bottom_labelLayer
10
157.411616
20
35.011146
11
157.553139
21
34.799493
0
LINE
8
bottom_labelLayer
10
157.553139
20
34.799493
11
158.116939
21
34.499371
0
LINE
8
bottom_labelLayer
10
158.116939
20
34.499371
11
158.320334
21
34.484290
0
LINE
8
bottom_labelLayer
10
163.512336
20
34.603165
11
163.512336
21
33.847992
0
LINE
8
bottom_labelLayer
10
160.586260
20
35.661867
11
160.586260
21
39.539490
0
LINE
8
bottom_labelLayer
10
160.586260
20
39.539490
11
159.652494
21
39.539490
0
LINE
8
bottom_labelLayer
10
159.652494
20
39.539490
11
159.652494
21
40.015263
0
LINE
8
bottom_labelLayer
10
159.652494
20
40.015263
11
160.586260
21
40.425631
0
LINE
8
bottom_labelLayer
10
160.586260
20
40.425631
11
161.002502
21
41.817232
0
LINE
8
bottom_labelLayer
10
161.002502
20
41.817232
11
161.573525
21
41.817232
0
LINE
8
bottom_labelLayer
10
161.573525
20
41.817232
11
161.573525
21
40.306727
0
LINE
8
bottom_labelLayer
10
161.573525
20
40.306727
11
163.464711
21
40.306727
0
LINE
8
bottom_labelLayer
10
163.464711
20
40.306727
11
163.464711
21
39.539490
0
LINE
8
bottom_labelLayer
10
163.464711
20
39.539490
11
161.573525
21
39.539490
0
LINE
8
bottom_labelLayer
10
161.573525
20
39.539490
11
161.573525
21
35.703460
0
LINE
8
bottom_labelLayer
10
162.620202
20
34.484290
11
163.095171
21
34.518265
0
LINE
8
bottom_labelLayer
10
163.095171
20
34.518265
11
163.125720
21
34.522948
0
LINE
8
bottom_labelLayer
10
163.125720
20
34.522946
11
163.268245
21
34.547393
0
LINE
8
bottom_labelLayer
10
163.268245
20
34.547399
11
163.394541
21
34.573222
0
LINE
8
bottom_labelLayer
10
163.394541
20
34.573222
11
163.499046
21
34.599442
0
LINE
8
bottom_labelLayer
10
163.499046
20
34.599439
11
163.512275
21
34.603223
0
LINE
8
bottom_labelLayer
10
163.397121
20
33.802224
11
163.512291
21
33.847934
0
LINE
8
bottom_labelLayer
10
163.258294
20
33.763169
11
163.397121
21
33.802224
0
LINE
8
bottom_labelLayer
10
163.098439
20
33.730094
11
163.258294
21
33.763169
0
LINE
8
bottom_labelLayer
10
163.039484
20
33.720069
11
163.098439
21
33.730096
0
LINE
8
bottom_labelLayer
10
162.760487
20
33.683784
11
163.039484
21
33.720069
0
LINE
8
bottom_labelLayer
10
162.510919
20
33.669737
11
162.760487
21
33.683786
0
LINE
8
bottom_labelLayer
10
162.477468
20
33.669515
11
162.510919
21
33.669737
0
LINE
8
bottom_labelLayer
10
161.717583
20
33.771781
11
162.477468
21
33.669515
0
LINE
8
bottom_labelLayer
10
160.663733
20
34.936894
11
161.024999
21
34.204499
0
LINE
8
bottom_labelLayer
10
161.024999
20
34.204499
11
161.717583
21
33.771781
0
LINE
8
bottom_labelLayer
10
160.586239
20
35.661846
11
160.663733
21
34.936894
0
LINE
8
bottom_labelLayer
10
161.573485
20
35.703478
11
161.602163
21
35.354361
0
LINE
8
bottom_labelLayer
10
161.602163
20
35.354361
11
161.711484
21
35.011146
0
LINE
8
bottom_labelLayer
10
161.711484
20
35.011146
11
161.853004
21
34.799493
0
LINE
8
bottom_labelLayer
10
161.853004
20
34.799493
11
162.416804
21
34.499371
0
LINE
8
bottom_labelLayer
10
162.416804
20
34.499371
11
162.620202
21
34.484290
0
LINE
8
bottom_labelLayer
10
170.350238
20
36.061491
11
170.440852
21
37.053505
0
LINE
8
bottom_labelLayer
10
169.965883
20
35.015099
11
170.350238
21
36.061491
0
LINE
8
bottom_labelLayer
10
169.637970
20
34.564578
11
169.965883
21
35.015099
0
LINE
8
bottom_labelLayer
10
168.089075
20
33.725456
11
168.935809
21
34.011587
0
LINE
8
bottom_labelLayer
10
168.935809
20
34.011587
11
169.637970
21
34.564578
0
LINE
8
bottom_labelLayer
10
167.419645
20
33.669515
11
168.089075
21
33.725456
0
LINE
8
bottom_labelLayer
10
166.498388
20
33.799301
11
167.419645
21
33.669515
0
LINE
8
bottom_labelLayer
10
165.867400
20
34.079878
11
166.498388
21
33.799301
0
LINE
8
bottom_labelLayer
10
164.892544
20
35.116720
11
165.309692
21
34.532221
0
LINE
8
bottom_labelLayer
10
165.309692
20
34.532221
11
165.867400
21
34.079878
0
LINE
8
bottom_labelLayer
10
164.820694
20
35.257433
11
164.892544
21
35.116720
0
LINE
8
bottom_labelLayer
10
164.513984
20
36.253528
11
164.820694
21
35.257433
0
LINE
8
bottom_labelLayer
10
164.451955
20
37.053505
11
164.513984
21
36.253528
0
LINE
8
bottom_labelLayer
10
164.541887
20
38.044850
11
164.451955
21
37.053505
0
LINE
8
bottom_labelLayer
10
164.913909
20
39.071977
11
164.541903
21
38.044850
0
LINE
8
bottom_labelLayer
10
165.248887
20
39.536487
11
164.913909
21
39.071977
0
LINE
8
bottom_labelLayer
10
166.772544
20
40.366505
11
165.939763
21
40.081743
0
LINE
8
bottom_labelLayer
10
165.939763
20
40.081743
11
165.248887
21
39.536487
0
LINE
8
bottom_labelLayer
10
167.461277
20
40.425599
11
166.772544
21
40.366505
0
LINE
8
bottom_labelLayer
10
168.435178
20
40.289519
11
167.461277
21
40.425599
0
LINE
8
bottom_labelLayer
10
169.634985
20
39.515669
11
169.089579
21
39.987089
0
LINE
8
bottom_labelLayer
10
169.089579
20
39.987089
11
168.435178
21
40.289519
0
LINE
8
bottom_labelLayer
10
170.306561
20
38.213733
11
170.049459
21
38.905290
0
LINE
8
bottom_labelLayer
10
170.049459
20
38.905290
11
169.634985
21
39.515669
0
LINE
8
bottom_labelLayer
10
170.438741
20
37.210239
11
170.306561
21
38.213733
0
LINE
8
bottom_labelLayer
10
170.440852
20
37.053505
11
170.438736
21
37.210239
0
LINE
8
bottom_labelLayer
10
165.474886
20
37.053505
11
165.522455
21
36.339321
0
LINE
8
bottom_labelLayer
10
165.522455
20
36.339321
11
165.685237
21
35.683081
0
LINE
8
bottom_labelLayer
10
165.685237
20
35.683081
11
165.974456
21
35.150381
0
LINE
8
bottom_labelLayer
10
165.974456
20
35.150381
11
166.440480
21
34.736674
0
LINE
8
bottom_labelLayer
10
166.440480
20
34.736674
11
167.028290
21
34.529764
0
LINE
8
bottom_labelLayer
10
167.028290
20
34.529764
11
167.443436
21
34.496183
0
LINE
8
bottom_labelLayer
10
167.443436
20
34.496183
11
168.048395
21
34.571396
0
LINE
8
bottom_labelLayer
10
168.048395
20
34.571396
11
168.530164
21
34.786732
0
LINE
8
bottom_labelLayer
10
168.530164
20
34.786732
11
168.915367
21
35.147409
0
LINE
8
bottom_labelLayer
10
168.915367
20
35.147409
11
169.245376
21
35.790200
0
LINE
8
bottom_labelLayer
10
169.245376
20
35.790200
11
169.384891
21
36.449806
0
LINE
8
bottom_labelLayer
10
169.384891
20
36.449806
11
169.417921
21
37.053505
0
LINE
8
bottom_labelLayer
10
169.417921
20
37.053505
11
169.371257
21
37.755457
0
LINE
8
bottom_labelLayer
10
169.371257
20
37.755457
11
169.211126
21
38.402243
0
LINE
8
bottom_labelLayer
10
169.211126
20
38.402243
11
168.915367
21
38.941760
0
LINE
8
bottom_labelLayer
10
168.915367
20
38.941760
11
168.466954
21
39.337530
0
LINE
8
bottom_labelLayer
10
168.466954
20
39.337530
11
167.905689
21
39.544149
0
LINE
8
bottom_labelLayer
10
167.905689
20
39.544149
11
167.431533
21
39.587035
0
LINE
8
bottom_labelLayer
10
167.431533
20
39.587035
11
166.846587
21
39.518521
0
LINE
8
bottom_labelLayer
10
166.846587
20
39.518521
11
166.358960
21
39.309734
0
LINE
8
bottom_labelLayer
10
166.358960
20
39.309734
11
165.968505
21
38.950681
0
LINE
8
bottom_labelLayer
10
165.968505
20
38.950681
11
165.651207
21
38.337524
0
LINE
8
bottom_labelLayer
10
165.651207
20
38.337524
11
165.513629
21
37.710935
0
LINE
8
bottom_labelLayer
10
165.513629
20
37.710935
11
165.474886
21
37.053505
0
LINE
8
bottom_labelLayer
10
181.466296
20
33.788461
11
180.480473
21
33.788461
0
LINE
8
bottom_labelLayer
10
180.480473
20
33.788461
11
180.480473
21
38.028827
0
LINE
8
bottom_labelLayer
10
177.310229
20
37.428117
11
177.310229
21
33.788461
0
LINE
8
bottom_labelLayer
10
177.310229
20
33.788461
11
176.322802
21
33.788461
0
LINE
8
bottom_labelLayer
10
176.322802
20
33.788461
11
176.322802
21
38.028827
0
LINE
8
bottom_labelLayer
10
173.158921
20
37.208090
11
173.158921
21
33.788461
0
LINE
8
bottom_labelLayer
10
173.158921
20
33.788461
11
172.171498
21
33.788461
0
LINE
8
bottom_labelLayer
10
172.171498
20
33.788461
11
172.171498
21
40.306727
0
LINE
8
bottom_labelLayer
10
172.171498
20
40.306727
11
172.974777
21
40.306727
0
LINE
8
bottom_labelLayer
10
172.974777
20
40.306727
11
173.135114
21
39.414554
0
LINE
8
bottom_labelLayer
10
173.135114
20
39.414554
11
173.182744
21
39.414554
0
LINE
8
bottom_labelLayer
10
177.107034
20
39.319462
11
177.154651
21
39.319462
0
LINE
8
bottom_labelLayer
10
181.466296
20
38.040733
11
181.466296
21
33.788461
0
LINE
8
bottom_labelLayer
10
180.479822
20
38.028856
11
180.450461
21
38.457110
0
LINE
8
bottom_labelLayer
10
180.450461
20
38.457110
11
180.349118
21
38.852122
0
LINE
8
bottom_labelLayer
10
180.349118
20
38.852122
11
180.146767
21
39.197492
0
LINE
8
bottom_labelLayer
10
180.146767
20
39.197492
11
179.663845
21
39.509790
0
LINE
8
bottom_labelLayer
10
179.663845
20
39.509790
11
179.281951
21
39.580926
0
LINE
8
bottom_labelLayer
10
179.281951
20
39.580926
11
179.111946
21
39.587038
0
LINE
8
bottom_labelLayer
10
179.111946
20
39.587035
11
178.594935
21
39.537900
0
LINE
8
bottom_labelLayer
10
178.594935
20
39.537900
11
178.056003
21
39.326762
0
LINE
8
bottom_labelLayer
10
178.056003
20
39.326762
11
177.750024
21
39.057732
0
LINE
8
bottom_labelLayer
10
177.750024
20
39.057732
11
177.473360
21
38.557096
0
LINE
8
bottom_labelLayer
10
177.473360
20
38.557096
11
177.348273
21
38.027948
0
LINE
8
bottom_labelLayer
10
177.348273
20
38.027948
11
177.309943
21
37.438320
0
LINE
8
bottom_labelLayer
10
177.309943
20
37.438320
11
177.309927
21
37.428186
0
LINE
8
bottom_labelLayer
10
176.322691
20
38.028856
11
176.293328
21
38.457110
0
LINE
8
bottom_labelLayer
10
176.293328
20
38.457110
11
176.191971
21
38.852122
0
LINE
8
bottom_labelLayer
10
176.191971
20
38.852122
11
175.989634
21
39.197492
0
LINE
8
bottom_labelLayer
10
175.989634
20
39.197492
11
175.513319
21
39.507054
0
LINE
8
bottom_labelLayer
10
175.513319
20
39.507054
11
175.132502
21
39.579989
0
LINE
8
bottom_labelLayer
10
175.132502
20
39.579989
11
174.948865
21
39.587027
0
LINE
8
bottom_labelLayer
10
174.948865
20
39.587035
11
174.441771
21
39.538029
0
LINE
8
bottom_labelLayer
10
174.441771
20
39.538029
11
173.895793
21
39.316213
0
LINE
8
bottom_labelLayer
10
173.895793
20
39.316213
11
173.589924
21
39.030969
0
LINE
8
bottom_labelLayer
10
173.589924
20
39.030969
11
173.344434
21
38.564692
0
LINE
8
bottom_labelLayer
10
173.344434
20
38.564692
11
173.217489
21
38.046522
0
LINE
8
bottom_labelLayer
10
173.217489
20
38.046522
11
173.162525
21
37.439352
0
LINE
8
bottom_labelLayer
10
173.162525
20
37.439352
11
173.158715
21
37.208135
0
LINE
8
bottom_labelLayer
10
173.970548
20
40.157974
11
173.523607
21
39.842383
0
LINE
8
bottom_labelLayer
10
173.523607
20
39.842383
11
173.182538
21
39.414567
0
LINE
8
bottom_labelLayer
10
174.896343
20
40.417696
11
173.970548
21
40.157974
0
LINE
8
bottom_labelLayer
10
175.109440
20
40.425599
11
174.896343
21
40.417688
0
LINE
8
bottom_labelLayer
10
175.836978
20
40.349831
11
175.109440
21
40.425599
0
LINE
8
bottom_labelLayer
10
176.596609
20
40.001309
11
175.836978
21
40.349831
0
LINE
8
bottom_labelLayer
10
177.107717
20
39.319412
11
176.596609
21
40.001309
0
LINE
8
bottom_labelLayer
10
177.931694
20
40.090230
11
177.155302
21
39.319412
0
LINE
8
bottom_labelLayer
10
177.999817
20
40.128240
11
177.931694
21
40.090230
0
LINE
8
bottom_labelLayer
10
178.916438
20
40.407018
11
177.999817
21
40.128240
0
LINE
8
bottom_labelLayer
10
179.260637
20
40.425599
11
178.916438
21
40.407026
0
LINE
8
bottom_labelLayer
10
179.883087
20
40.372876
11
179.260637
21
40.425599
0
LINE
8
bottom_labelLayer
10
180.499266
20
40.167533
11
179.883087
21
40.372876
0
LINE
8
bottom_labelLayer
10
180.916937
20
39.857638
11
180.499266
21
40.167533
0
LINE
8
bottom_labelLayer
10
181.281958
20
39.260561
11
180.916937
21
39.857638
0
LINE
8
bottom_labelLayer
10
181.426394
20
38.669599
11
181.281958
21
39.260561
0
LINE
8
bottom_labelLayer
10
181.467058
20
38.040749
11
181.426394
21
38.669599
 0 
ENDSEC
 0 
EOF