  0
SECTION
  2
HEADER
  9
$ACADVER
  1
AC1014
  9
$HANDSEED
  5
FFFF
  9
$INSUNITS
 70
     4
  9
$MEASUREMENT
 70
     1
  0
ENDSEC
  0
SECTION
  2
TABLES
  0
TABLE
  2
VPORT
  5
8
330
0
100
AcDbSymbolTable
 70
     4
  0
VPORT
  5
2E
330
8
100
AcDbSymbolTableRecord
100
AcDbViewportTableRecord
  2
*ACTIVE
 70
     0
 10
0.0
 20
0.0
 11
1.0
 21
1.0
 12
210.0
 22
148.5
 13
0.0
 23
0.0
 14
10.0
 24
10.0
 15
10.0
 25
10.0
 16
0.0
 26
0.0
 36
1.0
 17
0.0
 27
0.0
 37
0.0
 40
341.0
 41
1.24
 42
50.0
 43
0.0
 44
0.0
 50
0.0
 51
0.0
 71
     0
 72
   100
 73
     1
 74
     3
 75
     0
 76
     0
 77
     0
 78
     0
  0
ENDTAB
  0
TABLE
  2
LTYPE
  5
5
330
0
100
AcDbSymbolTable
 70
     1
  0
LTYPE
  5
14
330
5
100
AcDbSymbolTableRecord
100
AcDbLinetypeTableRecord
  2
BYBLOCK
 70
     0
  3

 72
    65
 73
     0
 40
0.0
  0
LTYPE
  5
15
330
5
100
AcDbSymbolTableRecord
100
AcDbLinetypeTableRecord
  2
BYLAYER
 70
     0
  3

 72
    65
 73
     0
 40
0.0
  0
LTYPE
  5
16
330
5
100
AcDbSymbolTableRecord
100
AcDbLinetypeTableRecord
  2
CONTINUOUS
 70
     0
  3
Solid line
 72
    65
 73
     0
 40
0.0
  0
ENDTAB
  0
TABLE
  2
LAYER
  5
2
100
AcDbSymbolTable
 70
13
  0
LAYER
  5
50
100
AcDbSymbolTableRecord
100
AcDbLayerTableRecord
  2
0
 70
0
  6
CONTINUOUS
  0
LAYER
  5
51
100
AcDbSymbolTableRecord
100
AcDbLayerTableRecord
  2
front_outsideCutPath
 70
0
  6
CONTINUOUS
  0
LAYER
  5
52
100
AcDbSymbolTableRecord
100
AcDbLayerTableRecord
  2
front_labelLayer
 70
0
  6
CONTINUOUS
  0
LAYER
  5
53
100
AcDbSymbolTableRecord
100
AcDbLayerTableRecord
  2
left_outsideCutPath
 70
0
  6
CONTINUOUS
  0
LAYER
  5
54
100
AcDbSymbolTableRecord
100
AcDbLayerTableRecord
  2
left_labelLayer
 70
0
  6
CONTINUOUS
  0
LAYER
  5
55
100
AcDbSymbolTableRecord
100
AcDbLayerTableRecord
  2
top_outsideCutPath
 70
0
  6
CONTINUOUS
  0
LAYER
  5
56
100
AcDbSymbolTableRecord
100
AcDbLayerTableRecord
  2
top_labelLayer
 70
0
  6
CONTINUOUS
  0
LAYER
  5
57
100
AcDbSymbolTableRecord
100
AcDbLayerTableRecord
  2
back_outsideCutPath
 70
0
  6
CONTINUOUS
  0
LAYER
  5
58
100
AcDbSymbolTableRecord
100
AcDbLayerTableRecord
  2
back_labelLayer
 70
0
  6
CONTINUOUS
  0
LAYER
  5
59
100
AcDbSymbolTableRecord
100
AcDbLayerTableRecord
  2
right_outsideCutPath
 70
0
  6
CONTINUOUS
  0
LAYER
  5
5a
100
AcDbSymbolTableRecord
100
AcDbLayerTableRecord
  2
right_labelLayer
 70
0
  6
CONTINUOUS
  0
LAYER
  5
5b
100
AcDbSymbolTableRecord
100
AcDbLayerTableRecord
  2
bottom_outsideCutPath
 70
0
  6
CONTINUOUS
  0
LAYER
  5
5c
100
AcDbSymbolTableRecord
100
AcDbLayerTableRecord
  2
bottom_labelLayer
 70
0
  6
CONTINUOUS
  0
ENDTAB
  0
TABLE
  2
STYLE
  5
3
330
0
100
AcDbSymbolTable
 70
     1
  0
STYLE
  5
11
330
3
100
AcDbSymbolTableRecord
100
AcDbTextStyleTableRecord
  2
STANDARD
 70
     0
 40
0.0
 41
1.0
 50
0.0
 71
     0
 42
2.5
  3
txt
  4

  0
ENDTAB
  0
TABLE
  2
VIEW
  5
6
330
0
100
AcDbSymbolTable
 70
     0
  0
ENDTAB
  0
TABLE
  2
UCS
  5
7
330
0
100
AcDbSymbolTable
 70
     0
  0
ENDTAB
  0
TABLE
  2
APPID
  5
9
330
0
100
AcDbSymbolTable
 70
     2
  0
APPID
  5
12
330
9
100
AcDbSymbolTableRecord
100
AcDbRegAppTableRecord
  2
ACAD
 70
     0
  0
ENDTAB
  0
TABLE
  2
DIMSTYLE
  5
A
330
0
100
AcDbSymbolTable
 70
     1
  0
DIMSTYLE
105
27
330
A
100
AcDbSymbolTableRecord
100
AcDbDimStyleTableRecord
  2
ISO-25
 70
     0
  3

  4

  5

  6

  7

 40
1.0
 41
2.5
 42
0.625
 43
3.75
 44
1.25
 45
0.0
 46
0.0
 47
0.0
 48
0.0
140
2.5
141
2.5
142
0.0
143
0.03937007874016
144
1.0
145
0.0
146
1.0
147
0.625
 71
     0
 72
     0
 73
     0
 74
     0
 75
     0
 76
     0
 77
     1
 78
     8
170
     0
171
     3
172
     1
173
     0
174
     0
175
     0
176
     0
177
     0
178
     0
270
     2
271
     2
272
     2
273
     2
274
     3
340
11
275
     0
280
     0
281
     0
282
     0
283
     0
284
     8
285
     0
286
     0
287
     3
288
     0
  0
ENDTAB
  0
TABLE
  2
BLOCK_RECORD
  5
1
330
0
100
AcDbSymbolTable
 70
     1
  0
BLOCK_RECORD
  5
1F
330
1
100
AcDbSymbolTableRecord
100
AcDbBlockTableRecord
  2
*MODEL_SPACE
  0
BLOCK_RECORD
  5
1B
330
1
100
AcDbSymbolTableRecord
100
AcDbBlockTableRecord
  2
*PAPER_SPACE
  0
ENDTAB
  0
ENDSEC
  0
SECTION
  2
BLOCKS
  0
BLOCK
  5
20
330
1F
100
AcDbEntity
  8
0
100
AcDbBlockBegin
  2
*MODEL_SPACE
 70
     0
 10
0.0
 20
0.0
 30
0.0
  3
*MODEL_SPACE
  1

  0
ENDBLK
  5
21
330
1F
100
AcDbEntity
  8
0
100
AcDbBlockEnd
  0
BLOCK
  5
1C
330
1B
100
AcDbEntity
 67
     1
  8
0
100
AcDbBlockBegin
  2
*PAPER_SPACE
  1

  0
ENDBLK
  5
1D
330
1B
100
AcDbEntity
 67
     1
  8
0
100
AcDbBlockEnd
  0
ENDSEC
  0
SECTION
  2
ENTITIES
  0
LWPOLYLINE
  5
100
100
AcDbEntity
  8
front_outsideCutPath
 62
7
100
AcDbPolyline
 90
62
 70
1
 10
2.687630
 20
183.450297
 30
0.0
 10
2.687630
 20
164.178575
 30
0.0
 10
9.725690
 20
164.178575
 30
0.0
 10
9.725690
 20
151.541148
 30
0.0
 10
2.687630
 20
151.541148
 30
0.0
 10
2.687630
 20
138.903985
 30
0.0
 10
9.725690
 20
138.903985
 30
0.0
 10
9.725690
 20
126.266823
 30
0.0
 10
2.687630
 20
126.266823
 30
0.0
 10
2.687630
 20
113.629396
 30
0.0
 10
9.725690
 20
113.629396
 30
0.0
 10
9.725690
 20
100.992233
 30
0.0
 10
2.687630
 20
100.992233
 30
0.0
 10
2.687630
 20
88.355071
 30
0.0
 10
9.725690
 20
88.355071
 30
0.0
 10
9.725690
 20
75.716533
 30
0.0
 10
2.687630
 20
75.716533
 30
0.0
 10
2.687630
 20
63.080481
 30
0.0
 10
2.687630
 20
56.446213
 30
0.0
 10
14.769604
 20
56.446213
 30
0.0
 10
14.769604
 20
62.765627
 30
0.0
 10
28.845724
 20
62.765627
 30
0.0
 10
28.845724
 20
56.446213
 30
0.0
 10
42.921873
 20
56.446213
 30
0.0
 10
42.921873
 20
62.765627
 30
0.0
 10
56.997872
 20
62.765627
 30
0.0
 10
56.997872
 20
56.446213
 30
0.0
 10
71.073870
 20
56.446213
 30
0.0
 10
71.073870
 20
62.765627
 30
0.0
 10
85.150175
 20
62.765627
 30
0.0
 10
85.150175
 20
56.446213
 30
0.0
 10
97.232118
 20
56.446213
 30
0.0
 10
97.232118
 20
75.716533
 30
0.0
 10
90.194124
 20
75.716533
 30
0.0
 10
90.194124
 20
88.355071
 30
0.0
 10
97.232118
 20
88.355071
 30
0.0
 10
97.232118
 20
100.992233
 30
0.0
 10
90.194124
 20
100.992233
 30
0.0
 10
90.194124
 20
113.629396
 30
0.0
 10
97.232118
 20
113.629396
 30
0.0
 10
97.232118
 20
126.266823
 30
0.0
 10
90.194124
 20
126.266823
 30
0.0
 10
90.194124
 20
138.903985
 30
0.0
 10
97.232118
 20
138.903985
 30
0.0
 10
97.232118
 20
151.541148
 30
0.0
 10
90.194124
 20
151.541148
 30
0.0
 10
90.194124
 20
164.178575
 30
0.0
 10
97.232118
 20
164.178575
 30
0.0
 10
97.232118
 20
176.815763
 30
0.0
 10
97.232118
 20
183.450297
 30
0.0
 10
85.150175
 20
183.450297
 30
0.0
 10
85.150175
 20
177.131729
 30
0.0
 10
71.073870
 20
177.131729
 30
0.0
 10
71.073870
 20
183.450297
 30
0.0
 10
56.997872
 20
183.450297
 30
0.0
 10
56.997872
 20
177.131729
 30
0.0
 10
42.921873
 20
177.131729
 30
0.0
 10
42.921873
 20
183.450297
 30
0.0
 10
28.845724
 20
183.450297
 30
0.0
 10
28.845724
 20
177.131729
 30
0.0
 10
14.769604
 20
177.131729
 30
0.0
 10
14.769604
 20
183.450297
 30
0.0
  0
LWPOLYLINE
  5
101
100
AcDbEntity
  8
left_outsideCutPath
 62
7
100
AcDbPolyline
 90
62
 70
1
 10
107.789271
 20
183.450297
 30
0.0
 10
107.789271
 20
164.178575
 30
0.0
 10
100.751272
 20
164.178575
 30
0.0
 10
100.751272
 20
151.541148
 30
0.0
 10
107.789271
 20
151.541148
 30
0.0
 10
107.789271
 20
138.903985
 30
0.0
 10
100.751272
 20
138.903985
 30
0.0
 10
100.751272
 20
126.266823
 30
0.0
 10
107.789271
 20
126.266823
 30
0.0
 10
107.789271
 20
113.629396
 30
0.0
 10
100.751272
 20
113.629396
 30
0.0
 10
100.751272
 20
100.992233
 30
0.0
 10
107.789271
 20
100.992233
 30
0.0
 10
107.789271
 20
88.355071
 30
0.0
 10
100.751272
 20
88.355071
 30
0.0
 10
100.751272
 20
75.716533
 30
0.0
 10
107.789271
 20
75.716533
 30
0.0
 10
107.789271
 20
63.080481
 30
0.0
 10
107.789271
 20
56.446213
 30
0.0
 10
112.833217
 20
56.446213
 30
0.0
 10
112.833217
 20
62.765627
 30
0.0
 10
126.909213
 20
62.765627
 30
0.0
 10
126.909213
 20
56.446213
 30
0.0
 10
140.985211
 20
56.446213
 30
0.0
 10
140.985211
 20
62.765627
 30
0.0
 10
155.061516
 20
62.765627
 30
0.0
 10
155.061516
 20
56.446213
 30
0.0
 10
169.137515
 20
56.446213
 30
0.0
 10
169.137515
 20
62.765627
 30
0.0
 10
183.213511
 20
62.765627
 30
0.0
 10
183.213511
 20
56.446213
 30
0.0
 10
188.257456
 20
56.446213
 30
0.0
 10
188.257456
 20
75.716533
 30
0.0
 10
195.295453
 20
75.716533
 30
0.0
 10
195.295453
 20
88.355071
 30
0.0
 10
188.257456
 20
88.355071
 30
0.0
 10
188.257456
 20
100.992233
 30
0.0
 10
195.295453
 20
100.992233
 30
0.0
 10
195.295453
 20
113.629396
 30
0.0
 10
188.257456
 20
113.629396
 30
0.0
 10
188.257456
 20
126.266823
 30
0.0
 10
195.295453
 20
126.266823
 30
0.0
 10
195.295453
 20
138.903985
 30
0.0
 10
188.257456
 20
138.903985
 30
0.0
 10
188.257456
 20
151.541148
 30
0.0
 10
195.295453
 20
151.541148
 30
0.0
 10
195.295453
 20
164.178575
 30
0.0
 10
188.257456
 20
164.178575
 30
0.0
 10
188.257456
 20
176.815763
 30
0.0
 10
188.257456
 20
183.450297
 30
0.0
 10
183.213511
 20
183.450297
 30
0.0
 10
183.213511
 20
177.131729
 30
0.0
 10
169.137515
 20
177.131729
 30
0.0
 10
169.137515
 20
183.450297
 30
0.0
 10
155.061516
 20
183.450297
 30
0.0
 10
155.061516
 20
177.131729
 30
0.0
 10
140.985211
 20
177.131729
 30
0.0
 10
140.985211
 20
183.450297
 30
0.0
 10
126.909213
 20
183.450297
 30
0.0
 10
126.909213
 20
177.131729
 30
0.0
 10
112.833217
 20
177.131729
 30
0.0
 10
112.833217
 20
183.450297
 30
0.0
  0
LWPOLYLINE
  5
102
100
AcDbEntity
  8
top_outsideCutPath
 62
7
100
AcDbPolyline
 90
52
 70
1
 10
205.852604
 20
135.007572
 30
0.0
 10
205.852604
 20
130.479228
 30
0.0
 10
198.814607
 20
130.479228
 30
0.0
 10
198.814607
 20
117.841774
 30
0.0
 10
205.852604
 20
117.841774
 30
0.0
 10
205.852604
 20
105.204612
 30
0.0
 10
198.814607
 20
105.204612
 30
0.0
 10
198.814607
 20
92.567476
 30
0.0
 10
205.852604
 20
92.567476
 30
0.0
 10
205.852604
 20
79.929467
 30
0.0
 10
198.814607
 20
79.929467
 30
0.0
 10
198.814607
 20
67.293416
 30
0.0
 10
205.852604
 20
67.293416
 30
0.0
 10
205.852604
 20
62.765627
 30
0.0
 10
210.896552
 20
62.765627
 30
0.0
 10
210.896552
 20
56.446213
 30
0.0
 10
224.972545
 20
56.446213
 30
0.0
 10
224.972545
 20
62.765627
 30
0.0
 10
239.048853
 20
62.765627
 30
0.0
 10
239.048853
 20
56.446213
 30
0.0
 10
253.124860
 20
56.446213
 30
0.0
 10
253.124860
 20
62.765627
 30
0.0
 10
267.200824
 20
62.765627
 30
0.0
 10
267.200824
 20
56.446213
 30
0.0
 10
281.277134
 20
56.446213
 30
0.0
 10
281.277134
 20
62.765627
 30
0.0
 10
286.321098
 20
62.765627
 30
0.0
 10
286.321098
 20
67.293416
 30
0.0
 10
293.359095
 20
67.293416
 30
0.0
 10
293.359095
 20
79.929467
 30
0.0
 10
286.321098
 20
79.929467
 30
0.0
 10
286.321098
 20
92.567476
 30
0.0
 10
293.359095
 20
92.567476
 30
0.0
 10
293.359095
 20
105.204612
 30
0.0
 10
286.321098
 20
105.204612
 30
0.0
 10
286.321098
 20
117.841774
 30
0.0
 10
293.359095
 20
117.841774
 30
0.0
 10
293.359095
 20
130.479228
 30
0.0
 10
286.321098
 20
130.479228
 30
0.0
 10
286.321098
 20
135.007572
 30
0.0
 10
281.277134
 20
135.007572
 30
0.0
 10
281.277134
 20
141.326166
 30
0.0
 10
267.200824
 20
141.326166
 30
0.0
 10
267.200824
 20
135.007572
 30
0.0
 10
253.124860
 20
135.007572
 30
0.0
 10
253.124860
 20
141.326166
 30
0.0
 10
239.048853
 20
141.326166
 30
0.0
 10
239.048853
 20
135.007572
 30
0.0
 10
224.972545
 20
135.007572
 30
0.0
 10
224.972545
 20
141.326166
 30
0.0
 10
210.896552
 20
141.326166
 30
0.0
 10
210.896552
 20
135.007572
 30
0.0
  0
LWPOLYLINE
  5
103
100
AcDbEntity
  8
back_outsideCutPath
 62
7
100
AcDbPolyline
 90
62
 70
1
 10
2.687630
 20
313.614091
 30
0.0
 10
2.687630
 20
294.342101
 30
0.0
 10
9.725690
 20
294.342101
 30
0.0
 10
9.725690
 20
281.704944
 30
0.0
 10
2.687630
 20
281.704944
 30
0.0
 10
2.687630
 20
269.067785
 30
0.0
 10
9.725690
 20
269.067785
 30
0.0
 10
9.725690
 20
256.430347
 30
0.0
 10
2.687630
 20
256.430347
 30
0.0
 10
2.687630
 20
243.793190
 30
0.0
 10
9.725690
 20
243.793190
 30
0.0
 10
9.725690
 20
231.156030
 30
0.0
 10
2.687630
 20
231.156030
 30
0.0
 10
2.687630
 20
218.518593
 30
0.0
 10
9.725690
 20
218.518593
 30
0.0
 10
9.725690
 20
205.881435
 30
0.0
 10
2.687630
 20
205.881435
 30
0.0
 10
2.687630
 20
193.244278
 30
0.0
 10
2.687630
 20
186.609734
 30
0.0
 10
14.769604
 20
186.609734
 30
0.0
 10
14.769604
 20
192.928305
 30
0.0
 10
28.845724
 20
192.928305
 30
0.0
 10
28.845724
 20
186.609734
 30
0.0
 10
42.921873
 20
186.609734
 30
0.0
 10
42.921873
 20
192.928305
 30
0.0
 10
56.997872
 20
192.928305
 30
0.0
 10
56.997872
 20
186.609734
 30
0.0
 10
71.073870
 20
186.609734
 30
0.0
 10
71.073870
 20
192.928305
 30
0.0
 10
85.150175
 20
192.928305
 30
0.0
 10
85.150175
 20
186.609734
 30
0.0
 10
97.232118
 20
186.609734
 30
0.0
 10
97.232118
 20
205.881435
 30
0.0
 10
90.194124
 20
205.881435
 30
0.0
 10
90.194124
 20
218.518593
 30
0.0
 10
97.232118
 20
218.518593
 30
0.0
 10
97.232118
 20
231.156030
 30
0.0
 10
90.194124
 20
231.156030
 30
0.0
 10
90.194124
 20
243.793190
 30
0.0
 10
97.232118
 20
243.793190
 30
0.0
 10
97.232118
 20
256.430347
 30
0.0
 10
90.194124
 20
256.430347
 30
0.0
 10
90.194124
 20
269.067785
 30
0.0
 10
97.232118
 20
269.067785
 30
0.0
 10
97.232118
 20
281.704944
 30
0.0
 10
90.194124
 20
281.704944
 30
0.0
 10
90.194124
 20
294.342101
 30
0.0
 10
97.232118
 20
294.342101
 30
0.0
 10
97.232118
 20
306.979534
 30
0.0
 10
97.232118
 20
313.614091
 30
0.0
 10
85.150175
 20
313.614091
 30
0.0
 10
85.150175
 20
307.295232
 30
0.0
 10
71.073870
 20
307.295232
 30
0.0
 10
71.073870
 20
313.614091
 30
0.0
 10
56.997872
 20
313.614091
 30
0.0
 10
56.997872
 20
307.295232
 30
0.0
 10
42.921873
 20
307.295232
 30
0.0
 10
42.921873
 20
313.614091
 30
0.0
 10
28.845724
 20
313.614091
 30
0.0
 10
28.845724
 20
307.295232
 30
0.0
 10
14.769604
 20
307.295232
 30
0.0
 10
14.769604
 20
313.614091
 30
0.0
  0
LWPOLYLINE
  5
104
100
AcDbEntity
  8
right_outsideCutPath
 62
7
100
AcDbPolyline
 90
62
 70
1
 10
107.789271
 20
313.614091
 30
0.0
 10
107.789271
 20
294.342101
 30
0.0
 10
100.751272
 20
294.342101
 30
0.0
 10
100.751272
 20
281.704944
 30
0.0
 10
107.789271
 20
281.704944
 30
0.0
 10
107.789271
 20
269.067785
 30
0.0
 10
100.751272
 20
269.067785
 30
0.0
 10
100.751272
 20
256.430347
 30
0.0
 10
107.789271
 20
256.430347
 30
0.0
 10
107.789271
 20
243.793190
 30
0.0
 10
100.751272
 20
243.793190
 30
0.0
 10
100.751272
 20
231.156030
 30
0.0
 10
107.789271
 20
231.156030
 30
0.0
 10
107.789271
 20
218.518593
 30
0.0
 10
100.751272
 20
218.518593
 30
0.0
 10
100.751272
 20
205.881435
 30
0.0
 10
107.789271
 20
205.881435
 30
0.0
 10
107.789271
 20
193.244278
 30
0.0
 10
107.789271
 20
186.609734
 30
0.0
 10
112.833217
 20
186.609734
 30
0.0
 10
112.833217
 20
192.928305
 30
0.0
 10
126.909213
 20
192.928305
 30
0.0
 10
126.909213
 20
186.609734
 30
0.0
 10
140.985211
 20
186.609734
 30
0.0
 10
140.985211
 20
192.928305
 30
0.0
 10
155.061516
 20
192.928305
 30
0.0
 10
155.061516
 20
186.609734
 30
0.0
 10
169.137515
 20
186.609734
 30
0.0
 10
169.137515
 20
192.928305
 30
0.0
 10
183.213511
 20
192.928305
 30
0.0
 10
183.213511
 20
186.609734
 30
0.0
 10
188.257456
 20
186.609734
 30
0.0
 10
188.257456
 20
205.881435
 30
0.0
 10
195.295453
 20
205.881435
 30
0.0
 10
195.295453
 20
218.518593
 30
0.0
 10
188.257456
 20
218.518593
 30
0.0
 10
188.257456
 20
231.156030
 30
0.0
 10
195.295453
 20
231.156030
 30
0.0
 10
195.295453
 20
243.793190
 30
0.0
 10
188.257456
 20
243.793190
 30
0.0
 10
188.257456
 20
256.430347
 30
0.0
 10
195.295453
 20
256.430347
 30
0.0
 10
195.295453
 20
269.067785
 30
0.0
 10
188.257456
 20
269.067785
 30
0.0
 10
188.257456
 20
281.704944
 30
0.0
 10
195.295453
 20
281.704944
 30
0.0
 10
195.295453
 20
294.342101
 30
0.0
 10
188.257456
 20
294.342101
 30
0.0
 10
188.257456
 20
306.979534
 30
0.0
 10
188.257456
 20
313.614091
 30
0.0
 10
183.213511
 20
313.614091
 30
0.0
 10
183.213511
 20
307.295232
 30
0.0
 10
169.137515
 20
307.295232
 30
0.0
 10
169.137515
 20
313.614091
 30
0.0
 10
155.061516
 20
313.614091
 30
0.0
 10
155.061516
 20
307.295232
 30
0.0
 10
140.985211
 20
307.295232
 30
0.0
 10
140.985211
 20
313.614091
 30
0.0
 10
126.909213
 20
313.614091
 30
0.0
 10
126.909213
 20
307.295232
 30
0.0
 10
112.833217
 20
307.295232
 30
0.0
 10
112.833217
 20
313.614091
 30
0.0
  0
LWPOLYLINE
  5
105
100
AcDbEntity
  8
right_outsideCutPath
 62
7
100
AcDbPolyline
 90
4
 70
1
 10
23.298652
 20
264.383233
 30
0.0
 10
78.387224
 20
264.383233
 30
0.0
 10
78.387224
 20
249.156737
 30
0.0
 10
23.298652
 20
249.156737
 30
0.0
  0
LWPOLYLINE
  5
106
100
AcDbEntity
  8
right_outsideCutPath
 62
7
100
AcDbPolyline
 90
4
 70
1
 10
209.138644
 20
205.817036
 30
0.0
 10
213.908766
 20
205.817036
 30
0.0
 10
213.908766
 20
193.046913
 30
0.0
 10
209.138644
 20
193.046913
 30
0.0
  0
LWPOLYLINE
  5
107
100
AcDbEntity
  8
right_outsideCutPath
 62
7
100
AcDbPolyline
 90
4
 70
1
 10
277.201651
 20
180.893099
 30
0.0
 10
281.973555
 20
180.893099
 30
0.0
 10
281.973555
 20
168.324976
 30
0.0
 10
277.201651
 20
168.324976
 30
0.0
  0
LWPOLYLINE
  5
108
100
AcDbEntity
  8
right_outsideCutPath
 62
7
100
AcDbPolyline
 90
4
 70
1
 10
277.071741
 20
205.825076
 30
0.0
 10
281.843645
 20
205.825076
 30
0.0
 10
281.843645
 20
193.256953
 30
0.0
 10
277.071741
 20
193.256953
 30
0.0
  0
LWPOLYLINE
  5
109
100
AcDbEntity
  8
right_outsideCutPath
 62
7
100
AcDbPolyline
 90
4
 70
1
 10
208.928031
 20
180.555861
 30
0.0
 10
213.699935
 20
180.555861
 30
0.0
 10
213.699935
 20
167.987738
 30
0.0
 10
208.928031
 20
167.987738
 30
0.0
  0
LWPOLYLINE
  5
10a
100
AcDbEntity
  8
right_outsideCutPath
 62
7
100
AcDbPolyline
 90
21
 70
1
 10
141.796424
 20
397.155420
 30
0.0
 10
141.796424
 20
392.125235
 30
0.0
 10
143.421648
 20
392.125235
 30
0.0
 10
143.421648
 20
383.372797
 30
0.0
 10
126.573581
 20
357.548014
 30
0.0
 10
103.579634
 20
322.303651
 30
0.0
 10
129.490715
 20
322.303651
 30
0.0
 10
129.490715
 20
318.695086
 30
0.0
 10
142.058941
 20
318.695086
 30
0.0
 10
142.058941
 20
322.303651
 30
0.0
 10
149.567009
 20
322.303651
 30
0.0
 10
154.550169
 20
322.303651
 30
0.0
 10
154.550169
 20
318.485795
 30
0.0
 10
167.320444
 20
318.485795
 30
0.0
 10
167.320444
 20
322.303651
 30
0.0
 10
195.554398
 20
322.303651
 30
0.0
 10
172.560438
 20
357.548014
 30
0.0
 10
156.313369
 20
382.451406
 30
0.0
 10
156.313369
 20
392.125235
 30
0.0
 10
158.697204
 20
392.125235
 30
0.0
 10
158.697204
 20
397.155420
 30
0.0
  0
LWPOLYLINE
  5
10b
100
AcDbEntity
  8
right_outsideCutPath
 62
7
100
AcDbPolyline
 90
21
 70
1
 10
42.123427
 20
398.519585
 30
0.0
 10
42.123427
 20
393.489400
 30
0.0
 10
43.748651
 20
393.489400
 30
0.0
 10
43.748651
 20
384.736962
 30
0.0
 10
26.900584
 20
358.912179
 30
0.0
 10
3.906636
 20
323.667817
 30
0.0
 10
29.817718
 20
323.667817
 30
0.0
 10
29.817718
 20
320.059252
 30
0.0
 10
42.385944
 20
320.059252
 30
0.0
 10
42.385944
 20
323.667817
 30
0.0
 10
49.894012
 20
323.667817
 30
0.0
 10
54.877172
 20
323.667817
 30
0.0
 10
54.877172
 20
319.849961
 30
0.0
 10
67.647447
 20
319.849961
 30
0.0
 10
67.647447
 20
323.667817
 30
0.0
 10
95.881401
 20
323.667817
 30
0.0
 10
72.887441
 20
358.912179
 30
0.0
 10
56.640372
 20
383.815571
 30
0.0
 10
56.640372
 20
393.489400
 30
0.0
 10
59.024207
 20
393.489400
 30
0.0
 10
59.024207
 20
398.519585
 30
0.0
  0
LWPOLYLINE
  5
10c
100
AcDbEntity
  8
right_outsideCutPath
 62
7
100
AcDbPolyline
 90
4
 70
1
 10
151.381426
 20
360.561348
 30
0.0
 10
157.804754
 20
360.561348
 30
0.0
 10
157.804754
 20
352.570136
 30
0.0
 10
151.381426
 20
352.570136
 30
0.0
  0
LWPOLYLINE
  5
10d
100
AcDbEntity
  8
right_outsideCutPath
 62
7
100
AcDbPolyline
 90
4
 70
1
 10
151.599438
 20
349.429954
 30
0.0
 10
158.022766
 20
349.429954
 30
0.0
 10
158.022766
 20
341.438741
 30
0.0
 10
151.599438
 20
341.438741
 30
0.0
  0
LWPOLYLINE
  5
10e
100
AcDbEntity
  8
right_outsideCutPath
 62
7
100
AcDbPolyline
 90
4
 70
1
 10
141.777927
 20
349.429954
 30
0.0
 10
148.201254
 20
349.429954
 30
0.0
 10
148.201254
 20
341.438741
 30
0.0
 10
141.777927
 20
341.438741
 30
0.0
  0
SPLINE
  5
10f
100
AcDbEntity
  8
right_outsideCutPath
 62
7
100
AcDbSpline
 70
8
 71
3
 72
8
 73
4
 74
0
 40
0
 40
0
 40
0
 40
0
 40
1
 40
1
 40
1
 40
1
 10
68.777321
 20
234.503071
 30
0.0
 10
66.244770
 20
234.503071
 30
0.0
 10
63.961591
 20
233.040348
 30
0.0
 10
62.992426
 20
230.796968
 30
0.0
  0
SPLINE
  5
110
100
AcDbEntity
  8
right_outsideCutPath
 62
7
100
AcDbSpline
 70
8
 71
3
 72
8
 73
4
 74
0
 40
0
 40
0
 40
0
 40
0
 40
1
 40
1
 40
1
 40
1
 10
62.992426
 20
230.796968
 30
0.0
 10
62.023261
 20
228.553589
 30
0.0
 10
62.558970
 20
225.971347
 30
0.0
 10
64.349754
 20
224.254338
 30
0.0
  0
SPLINE
  5
111
100
AcDbEntity
  8
right_outsideCutPath
 62
7
100
AcDbSpline
 70
8
 71
3
 72
8
 73
4
 74
0
 40
0
 40
0
 40
0
 40
0
 40
1
 40
1
 40
1
 40
1
 10
64.349754
 20
224.254338
 30
0.0
 10
66.140538
 20
222.537330
 30
0.0
 10
68.833731
 20
222.023690
 30
0.0
 10
71.173503
 20
222.952928
 30
0.0
  0
SPLINE
  5
112
100
AcDbEntity
  8
right_outsideCutPath
 62
7
100
AcDbSpline
 70
8
 71
3
 72
8
 73
4
 74
0
 40
0
 40
0
 40
0
 40
0
 40
1
 40
1
 40
1
 40
1
 10
71.173503
 20
222.952928
 30
0.0
 10
73.513275
 20
223.882166
 30
0.0
 10
75.038846
 20
226.071285
 30
0.0
 10
75.038846
 20
228.499502
 30
0.0
  0
SPLINE
  5
113
100
AcDbEntity
  8
right_outsideCutPath
 62
7
100
AcDbSpline
 70
8
 71
3
 72
8
 73
4
 74
0
 40
0
 40
0
 40
0
 40
0
 40
1
 40
1
 40
1
 40
1
 10
75.038846
 20
228.499502
 30
0.0
 10
75.038846
 20
230.091747
 30
0.0
 10
74.379152
 20
231.618779
 30
0.0
 10
73.204888
 20
232.744666
 30
0.0
  0
SPLINE
  5
114
100
AcDbEntity
  8
right_outsideCutPath
 62
7
100
AcDbSpline
 70
8
 71
3
 72
8
 73
4
 74
0
 40
0
 40
0
 40
0
 40
0
 40
1
 40
1
 40
1
 40
1
 10
73.204888
 20
232.744666
 30
0.0
 10
72.030624
 20
233.870554
 30
0.0
 10
70.437981
 20
234.503071
 30
0.0
 10
68.777321
 20
234.503071
 30
0.0
  0
LWPOLYLINE
  5
115
100
AcDbEntity
  8
right_outsideCutPath
 62
7
100
AcDbPolyline
 90
4
 70
1
 10
141.777927
 20
360.629902
 30
0.0
 10
148.201254
 20
360.629902
 30
0.0
 10
148.201254
 20
352.638690
 30
0.0
 10
141.777927
 20
352.638690
 30
0.0
  0
LWPOLYLINE
  5
116
100
AcDbEntity
  8
right_outsideCutPath
 62
7
100
AcDbPolyline
 90
1
 70
1
 10
68.777321
 20
234.503071
 30
0.0
  0
LWPOLYLINE
  5
117
100
AcDbEntity
  8
bottom_outsideCutPath
 62
7
100
AcDbPolyline
 90
52
 70
1
 10
205.852604
 20
223.046952
 30
0.0
 10
205.852604
 20
218.518593
 30
0.0
 10
198.814607
 20
218.518593
 30
0.0
 10
198.814607
 20
205.881435
 30
0.0
 10
205.852604
 20
205.881435
 30
0.0
 10
205.852604
 20
193.244278
 30
0.0
 10
198.814607
 20
193.244278
 30
0.0
 10
198.814607
 20
180.606846
 30
0.0
 10
205.852604
 20
180.606846
 30
0.0
 10
205.852604
 20
167.969657
 30
0.0
 10
198.814607
 20
167.969657
 30
0.0
 10
198.814607
 20
155.332521
 30
0.0
 10
205.852604
 20
155.332521
 30
0.0
 10
205.852604
 20
150.804177
 30
0.0
 10
210.896552
 20
150.804177
 30
0.0
 10
210.896552
 20
144.485292
 30
0.0
 10
224.972545
 20
144.485292
 30
0.0
 10
224.972545
 20
150.804177
 30
0.0
 10
239.048853
 20
150.804177
 30
0.0
 10
239.048853
 20
144.485292
 30
0.0
 10
253.124860
 20
144.485292
 30
0.0
 10
253.124860
 20
150.804177
 30
0.0
 10
267.200824
 20
150.804177
 30
0.0
 10
267.200824
 20
144.485292
 30
0.0
 10
281.277134
 20
144.485292
 30
0.0
 10
281.277134
 20
150.804177
 30
0.0
 10
286.321098
 20
150.804177
 30
0.0
 10
286.321098
 20
155.332521
 30
0.0
 10
293.359095
 20
155.332521
 30
0.0
 10
293.359095
 20
167.969657
 30
0.0
 10
286.321098
 20
167.969657
 30
0.0
 10
286.321098
 20
180.606846
 30
0.0
 10
293.359095
 20
180.606846
 30
0.0
 10
293.359095
 20
193.244278
 30
0.0
 10
286.321098
 20
193.244278
 30
0.0
 10
286.321098
 20
205.881435
 30
0.0
 10
293.359095
 20
205.881435
 30
0.0
 10
293.359095
 20
218.518593
 30
0.0
 10
286.321098
 20
218.518593
 30
0.0
 10
286.321098
 20
223.046952
 30
0.0
 10
281.277134
 20
223.046952
 30
0.0
 10
281.277134
 20
229.365528
 30
0.0
 10
267.200824
 20
229.365528
 30
0.0
 10
267.200824
 20
223.046952
 30
0.0
 10
253.124860
 20
223.046952
 30
0.0
 10
253.124860
 20
229.365528
 30
0.0
 10
239.048853
 20
229.365528
 30
0.0
 10
239.048853
 20
223.046952
 30
0.0
 10
224.972545
 20
223.046952
 30
0.0
 10
224.972545
 20
229.365528
 30
0.0
 10
210.896552
 20
229.365528
 30
0.0
 10
210.896552
 20
223.046952
 30
0.0
  0
ENDSEC
  0
SECTION
  2
OBJECTS
  0
DICTIONARY
  5
C
330
0
100
AcDbDictionary
  3
ACAD_GROUP
350
D
  3
ACAD_MLINESTYLE
350
17
  0
DICTIONARY
  5
D
330
C
100
AcDbDictionary
  0
DICTIONARY
  5
1A
330
C
100
AcDbDictionary
  0
DICTIONARY
  5
17
330
C
100
AcDbDictionary
  3
STANDARD
350
18
  0
DICTIONARY
  5
19
330
C
100
AcDbDictionary
  0
ENDSEC
  0
EOF
