999
"DXF R12 Output" (www.mydxf.blogspot.com)
 0 
SECTION
 2 
HEADER
 9 
$ACADVER
 1 
AC1009
 9 
$EXTMIN
 10 
 0 
 20 
 0 
 9 
$EXTMAX
 10 
 8.5 
 20 
 11 
 0 
ENDSEC
 0 
SECTION
 2 
ENTITIES
0
LINE
8
Layer 1
10
21.584255
20
293.192501
11
80.940956
21
293.192501
0
LINE
8
Layer 1
10
80.940956
20
293.192501
11
80.940956
21
278.160609
0
LINE
8
Layer 1
10
80.940956
20
278.160609
11
21.584255
21
278.160609
0
LINE
8
Layer 1
10
21.584255
20
278.160609
11
21.584255
21
293.192501
0
LINE
8
Layer 1
10
0.793749
20
420.793749
11
-0.793749
21
419.206251
0
LINE
8
Layer 1
10
0.000000
20
421.322915
11
0.000000
21
418.677085
0
LINE
8
Layer 1
10
2.116664
20
418.941668
11
1.058332
21
417.883336
0
LINE
8
Layer 1
10
1.587498
20
419.470834
11
0.529166
21
418.412502
0
LINE
8
Layer 1
10
1.058332
20
420.000000
11
0.000000
21
418.941668
0
LINE
8
front_outsideCutPath
10
2.687614
20
183.450292
11
2.687614
21
164.178596
0
LINE
8
front_outsideCutPath
10
2.687614
20
164.178596
11
9.725664
21
164.178596
0
LINE
8
front_outsideCutPath
10
9.725664
20
164.178596
11
9.725664
21
151.541186
0
LINE
8
front_outsideCutPath
10
9.725664
20
151.541186
11
2.687614
21
151.541186
0
LINE
8
front_outsideCutPath
10
2.687614
20
151.541186
11
2.687614
21
138.904040
0
LINE
8
front_outsideCutPath
10
2.687614
20
138.904040
11
9.725664
21
138.904040
0
LINE
8
front_outsideCutPath
10
9.725664
20
138.904040
11
9.725664
21
126.266895
0
LINE
8
front_outsideCutPath
10
9.725664
20
126.266895
11
2.687614
21
126.266895
0
LINE
8
front_outsideCutPath
10
2.687614
20
126.266895
11
2.687614
21
113.629485
0
LINE
8
front_outsideCutPath
10
2.687614
20
113.629485
11
9.725664
21
113.629485
0
LINE
8
front_outsideCutPath
10
9.725664
20
113.629485
11
9.725664
21
100.992339
0
LINE
8
front_outsideCutPath
10
9.725664
20
100.992339
11
2.687614
21
100.992339
0
LINE
8
front_outsideCutPath
10
2.687614
20
100.992339
11
2.687614
21
88.355194
0
LINE
8
front_outsideCutPath
10
2.687614
20
88.355194
11
9.725664
21
88.355194
0
LINE
8
front_outsideCutPath
10
9.725664
20
88.355194
11
9.725664
21
75.716672
0
LINE
8
front_outsideCutPath
10
9.725664
20
75.716672
11
2.687614
21
75.716672
0
LINE
8
front_outsideCutPath
10
2.687614
20
75.716672
11
2.687614
21
63.080638
0
LINE
8
front_outsideCutPath
10
2.687614
20
63.080638
11
2.687614
21
56.446378
0
LINE
8
front_outsideCutPath
10
2.687614
20
56.446378
11
14.769572
21
56.446378
0
LINE
8
front_outsideCutPath
10
14.769572
20
56.446378
11
14.769572
21
62.765784
0
LINE
8
front_outsideCutPath
10
14.769572
20
62.765784
11
28.845673
21
62.765784
0
LINE
8
front_outsideCutPath
10
28.845673
20
62.765784
11
28.845673
21
56.446378
0
LINE
8
front_outsideCutPath
10
28.845673
20
56.446378
11
42.921804
21
56.446378
0
LINE
8
front_outsideCutPath
10
42.921804
20
56.446378
11
42.921804
21
62.765784
0
LINE
8
front_outsideCutPath
10
42.921804
20
62.765784
11
56.997783
21
62.765784
0
LINE
8
front_outsideCutPath
10
56.997783
20
62.765784
11
56.997783
21
56.446378
0
LINE
8
front_outsideCutPath
10
56.997783
20
56.446378
11
71.073763
21
56.446378
0
LINE
8
front_outsideCutPath
10
71.073763
20
56.446378
11
71.073763
21
62.765784
0
LINE
8
front_outsideCutPath
10
71.073763
20
62.765784
11
85.150049
21
62.765784
0
LINE
8
front_outsideCutPath
10
85.150049
20
62.765784
11
85.150049
21
56.446378
0
LINE
8
front_outsideCutPath
10
85.150049
20
56.446378
11
97.231976
21
56.446378
0
LINE
8
front_outsideCutPath
10
97.231976
20
56.446378
11
97.231976
21
75.716672
0
LINE
8
front_outsideCutPath
10
97.231976
20
75.716672
11
90.193991
21
75.716672
0
LINE
8
front_outsideCutPath
10
90.193991
20
75.716672
11
90.193991
21
88.355194
0
LINE
8
front_outsideCutPath
10
90.193991
20
88.355194
11
97.231976
21
88.355194
0
LINE
8
front_outsideCutPath
10
97.231976
20
88.355194
11
97.231976
21
100.992339
0
LINE
8
front_outsideCutPath
10
97.231976
20
100.992339
11
90.193991
21
100.992339
0
LINE
8
front_outsideCutPath
10
90.193991
20
100.992339
11
90.193991
21
113.629485
0
LINE
8
front_outsideCutPath
10
90.193991
20
113.629485
11
97.231976
21
113.629485
0
LINE
8
front_outsideCutPath
10
97.231976
20
113.629485
11
97.231976
21
126.266895
0
LINE
8
front_outsideCutPath
10
97.231976
20
126.266895
11
90.193991
21
126.266895
0
LINE
8
front_outsideCutPath
10
90.193991
20
126.266895
11
90.193991
21
138.904040
0
LINE
8
front_outsideCutPath
10
90.193991
20
138.904040
11
97.231976
21
138.904040
0
LINE
8
front_outsideCutPath
10
97.231976
20
138.904040
11
97.231976
21
151.541186
0
LINE
8
front_outsideCutPath
10
97.231976
20
151.541186
11
90.193991
21
151.541186
0
LINE
8
front_outsideCutPath
10
90.193991
20
151.541186
11
90.193991
21
164.178596
0
LINE
8
front_outsideCutPath
10
90.193991
20
164.178596
11
97.231976
21
164.178596
0
LINE
8
front_outsideCutPath
10
97.231976
20
164.178596
11
97.231976
21
176.815768
0
LINE
8
front_outsideCutPath
10
97.231976
20
176.815768
11
97.231976
21
183.450292
0
LINE
8
front_outsideCutPath
10
97.231976
20
183.450292
11
85.150049
21
183.450292
0
LINE
8
front_outsideCutPath
10
85.150049
20
183.450292
11
85.150049
21
177.131733
0
LINE
8
front_outsideCutPath
10
85.150049
20
177.131733
11
71.073763
21
177.131733
0
LINE
8
front_outsideCutPath
10
71.073763
20
177.131733
11
71.073763
21
183.450292
0
LINE
8
front_outsideCutPath
10
71.073763
20
183.450292
11
56.997783
21
183.450292
0
LINE
8
front_outsideCutPath
10
56.997783
20
183.450292
11
56.997783
21
177.131733
0
LINE
8
front_outsideCutPath
10
56.997783
20
177.131733
11
42.921804
21
177.131733
0
LINE
8
front_outsideCutPath
10
42.921804
20
177.131733
11
42.921804
21
183.450292
0
LINE
8
front_outsideCutPath
10
42.921804
20
183.450292
11
28.845673
21
183.450292
0
LINE
8
front_outsideCutPath
10
28.845673
20
183.450292
11
28.845673
21
177.131733
0
LINE
8
front_outsideCutPath
10
28.845673
20
177.131733
11
14.769572
21
177.131733
0
LINE
8
front_outsideCutPath
10
14.769572
20
177.131733
11
14.769572
21
183.450292
0
LINE
8
front_outsideCutPath
10
14.769572
20
183.450292
11
2.687614
21
183.450292
0
LINE
8
left_outsideCutPath
10
107.789115
20
183.450292
11
107.789115
21
164.178596
0
LINE
8
left_outsideCutPath
10
107.789115
20
164.178596
11
100.751125
21
164.178596
0
LINE
8
left_outsideCutPath
10
100.751125
20
164.178596
11
100.751125
21
151.541186
0
LINE
8
left_outsideCutPath
10
100.751125
20
151.541186
11
107.789115
21
151.541186
0
LINE
8
left_outsideCutPath
10
107.789115
20
151.541186
11
107.789115
21
138.904040
0
LINE
8
left_outsideCutPath
10
107.789115
20
138.904040
11
100.751125
21
138.904040
0
LINE
8
left_outsideCutPath
10
100.751125
20
138.904040
11
100.751125
21
126.266895
0
LINE
8
left_outsideCutPath
10
100.751125
20
126.266895
11
107.789115
21
126.266895
0
LINE
8
left_outsideCutPath
10
107.789115
20
126.266895
11
107.789115
21
113.629485
0
LINE
8
left_outsideCutPath
10
107.789115
20
113.629485
11
100.751125
21
113.629485
0
LINE
8
left_outsideCutPath
10
100.751125
20
113.629485
11
100.751125
21
100.992339
0
LINE
8
left_outsideCutPath
10
100.751125
20
100.992339
11
107.789115
21
100.992339
0
LINE
8
left_outsideCutPath
10
107.789115
20
100.992339
11
107.789115
21
88.355194
0
LINE
8
left_outsideCutPath
10
107.789115
20
88.355194
11
100.751125
21
88.355194
0
LINE
8
left_outsideCutPath
10
100.751125
20
88.355194
11
100.751125
21
75.716672
0
LINE
8
left_outsideCutPath
10
100.751125
20
75.716672
11
107.789115
21
75.716672
0
LINE
8
left_outsideCutPath
10
107.789115
20
75.716672
11
107.789115
21
63.080638
0
LINE
8
left_outsideCutPath
10
107.789115
20
63.080638
11
107.789115
21
56.446378
0
LINE
8
left_outsideCutPath
10
107.789115
20
56.446378
11
112.833054
21
56.446378
0
LINE
8
left_outsideCutPath
10
112.833054
20
56.446378
11
112.833054
21
62.765784
0
LINE
8
left_outsideCutPath
10
112.833054
20
62.765784
11
126.909031
21
62.765784
0
LINE
8
left_outsideCutPath
10
126.909031
20
62.765784
11
126.909031
21
56.446378
0
LINE
8
left_outsideCutPath
10
126.909031
20
56.446378
11
140.985011
21
56.446378
0
LINE
8
left_outsideCutPath
10
140.985011
20
56.446378
11
140.985011
21
62.765784
0
LINE
8
left_outsideCutPath
10
140.985011
20
62.765784
11
155.061297
21
62.765784
0
LINE
8
left_outsideCutPath
10
155.061297
20
62.765784
11
155.061297
21
56.446378
0
LINE
8
left_outsideCutPath
10
155.061297
20
56.446378
11
169.137277
21
56.446378
0
LINE
8
left_outsideCutPath
10
169.137277
20
56.446378
11
169.137277
21
62.765784
0
LINE
8
left_outsideCutPath
10
169.137277
20
62.765784
11
183.213254
21
62.765784
0
LINE
8
left_outsideCutPath
10
183.213254
20
62.765784
11
183.213254
21
56.446378
0
LINE
8
left_outsideCutPath
10
183.213254
20
56.446378
11
188.257193
21
56.446378
0
LINE
8
left_outsideCutPath
10
188.257193
20
56.446378
11
188.257193
21
75.716672
0
LINE
8
left_outsideCutPath
10
188.257193
20
75.716672
11
195.295180
21
75.716672
0
LINE
8
left_outsideCutPath
10
195.295180
20
75.716672
11
195.295180
21
88.355194
0
LINE
8
left_outsideCutPath
10
195.295180
20
88.355194
11
188.257193
21
88.355194
0
LINE
8
left_outsideCutPath
10
188.257193
20
88.355194
11
188.257193
21
100.992339
0
LINE
8
left_outsideCutPath
10
188.257193
20
100.992339
11
195.295180
21
100.992339
0
LINE
8
left_outsideCutPath
10
195.295180
20
100.992339
11
195.295180
21
113.629485
0
LINE
8
left_outsideCutPath
10
195.295180
20
113.629485
11
188.257193
21
113.629485
0
LINE
8
left_outsideCutPath
10
188.257193
20
113.629485
11
188.257193
21
126.266895
0
LINE
8
left_outsideCutPath
10
188.257193
20
126.266895
11
195.295180
21
126.266895
0
LINE
8
left_outsideCutPath
10
195.295180
20
126.266895
11
195.295180
21
138.904040
0
LINE
8
left_outsideCutPath
10
195.295180
20
138.904040
11
188.257193
21
138.904040
0
LINE
8
left_outsideCutPath
10
188.257193
20
138.904040
11
188.257193
21
151.541186
0
LINE
8
left_outsideCutPath
10
188.257193
20
151.541186
11
195.295180
21
151.541186
0
LINE
8
left_outsideCutPath
10
195.295180
20
151.541186
11
195.295180
21
164.178596
0
LINE
8
left_outsideCutPath
10
195.295180
20
164.178596
11
188.257193
21
164.178596
0
LINE
8
left_outsideCutPath
10
188.257193
20
164.178596
11
188.257193
21
176.815768
0
LINE
8
left_outsideCutPath
10
188.257193
20
176.815768
11
188.257193
21
183.450292
0
LINE
8
left_outsideCutPath
10
188.257193
20
183.450292
11
183.213254
21
183.450292
0
LINE
8
left_outsideCutPath
10
183.213254
20
183.450292
11
183.213254
21
177.131733
0
LINE
8
left_outsideCutPath
10
183.213254
20
177.131733
11
169.137277
21
177.131733
0
LINE
8
left_outsideCutPath
10
169.137277
20
177.131733
11
169.137277
21
183.450292
0
LINE
8
left_outsideCutPath
10
169.137277
20
183.450292
11
155.061297
21
183.450292
0
LINE
8
left_outsideCutPath
10
155.061297
20
183.450292
11
155.061297
21
177.131733
0
LINE
8
left_outsideCutPath
10
155.061297
20
177.131733
11
140.985011
21
177.131733
0
LINE
8
left_outsideCutPath
10
140.985011
20
177.131733
11
140.985011
21
183.450292
0
LINE
8
left_outsideCutPath
10
140.985011
20
183.450292
11
126.909031
21
183.450292
0
LINE
8
left_outsideCutPath
10
126.909031
20
183.450292
11
126.909031
21
177.131733
0
LINE
8
left_outsideCutPath
10
126.909031
20
177.131733
11
112.833054
21
177.131733
0
LINE
8
left_outsideCutPath
10
112.833054
20
177.131733
11
112.833054
21
183.450292
0
LINE
8
left_outsideCutPath
10
112.833054
20
183.450292
11
107.789115
21
183.450292
0
LINE
8
top_outsideCutPath
10
205.852317
20
135.007632
11
205.852317
21
130.479294
0
LINE
8
top_outsideCutPath
10
205.852317
20
130.479294
11
198.814329
21
130.479294
0
LINE
8
top_outsideCutPath
10
198.814329
20
130.479294
11
198.814329
21
117.841858
0
LINE
8
top_outsideCutPath
10
198.814329
20
117.841858
11
205.852317
21
117.841858
0
LINE
8
top_outsideCutPath
10
205.852317
20
117.841858
11
205.852317
21
105.204712
0
LINE
8
top_outsideCutPath
10
205.852317
20
105.204712
11
198.814329
21
105.204712
0
LINE
8
top_outsideCutPath
10
198.814329
20
105.204712
11
198.814329
21
92.567593
0
LINE
8
top_outsideCutPath
10
198.814329
20
92.567593
11
205.852317
21
92.567593
0
LINE
8
top_outsideCutPath
10
205.852317
20
92.567593
11
205.852317
21
79.929601
0
LINE
8
top_outsideCutPath
10
205.852317
20
79.929601
11
198.814329
21
79.929601
0
LINE
8
top_outsideCutPath
10
198.814329
20
79.929601
11
198.814329
21
67.293567
0
LINE
8
top_outsideCutPath
10
198.814329
20
67.293567
11
205.852317
21
67.293567
0
LINE
8
top_outsideCutPath
10
205.852317
20
67.293567
11
205.852317
21
62.765784
0
LINE
8
top_outsideCutPath
10
205.852317
20
62.765784
11
210.896258
21
62.765784
0
LINE
8
top_outsideCutPath
10
210.896258
20
62.765784
11
210.896258
21
56.446378
0
LINE
8
top_outsideCutPath
10
210.896258
20
56.446378
11
224.972233
21
56.446378
0
LINE
8
top_outsideCutPath
10
224.972233
20
56.446378
11
224.972233
21
62.765784
0
LINE
8
top_outsideCutPath
10
224.972233
20
62.765784
11
239.048522
21
62.765784
0
LINE
8
top_outsideCutPath
10
239.048522
20
62.765784
11
239.048522
21
56.446378
0
LINE
8
top_outsideCutPath
10
239.048522
20
56.446378
11
253.124509
21
56.446378
0
LINE
8
top_outsideCutPath
10
253.124509
20
56.446378
11
253.124509
21
62.765784
0
LINE
8
top_outsideCutPath
10
253.124509
20
62.765784
11
267.200455
21
62.765784
0
LINE
8
top_outsideCutPath
10
267.200455
20
62.765784
11
267.200455
21
56.446378
0
LINE
8
top_outsideCutPath
10
267.200455
20
56.446378
11
281.276746
21
56.446378
0
LINE
8
top_outsideCutPath
10
281.276746
20
56.446378
11
281.276746
21
62.765784
0
LINE
8
top_outsideCutPath
10
281.276746
20
62.765784
11
286.320704
21
62.765784
0
LINE
8
top_outsideCutPath
10
286.320704
20
62.765784
11
286.320704
21
67.293567
0
LINE
8
top_outsideCutPath
10
286.320704
20
67.293567
11
293.358691
21
67.293567
0
LINE
8
top_outsideCutPath
10
293.358691
20
67.293567
11
293.358691
21
79.929601
0
LINE
8
top_outsideCutPath
10
293.358691
20
79.929601
11
286.320704
21
79.929601
0
LINE
8
top_outsideCutPath
10
286.320704
20
79.929601
11
286.320704
21
92.567593
0
LINE
8
top_outsideCutPath
10
286.320704
20
92.567593
11
293.358691
21
92.567593
0
LINE
8
top_outsideCutPath
10
293.358691
20
92.567593
11
293.358691
21
105.204712
0
LINE
8
top_outsideCutPath
10
293.358691
20
105.204712
11
286.320704
21
105.204712
0
LINE
8
top_outsideCutPath
10
286.320704
20
105.204712
11
286.320704
21
117.841858
0
LINE
8
top_outsideCutPath
10
286.320704
20
117.841858
11
293.358691
21
117.841858
0
LINE
8
top_outsideCutPath
10
293.358691
20
117.841858
11
293.358691
21
130.479294
0
LINE
8
top_outsideCutPath
10
293.358691
20
130.479294
11
286.320704
21
130.479294
0
LINE
8
top_outsideCutPath
10
286.320704
20
130.479294
11
286.320704
21
135.007632
0
LINE
8
top_outsideCutPath
10
286.320704
20
135.007632
11
281.276746
21
135.007632
0
LINE
8
top_outsideCutPath
10
281.276746
20
135.007632
11
281.276746
21
141.326218
0
LINE
8
top_outsideCutPath
10
281.276746
20
141.326218
11
267.200455
21
141.326218
0
LINE
8
top_outsideCutPath
10
267.200455
20
141.326218
11
267.200455
21
135.007632
0
LINE
8
top_outsideCutPath
10
267.200455
20
135.007632
11
253.124509
21
135.007632
0
LINE
8
top_outsideCutPath
10
253.124509
20
135.007632
11
253.124509
21
141.326218
0
LINE
8
top_outsideCutPath
10
253.124509
20
141.326218
11
239.048522
21
141.326218
0
LINE
8
top_outsideCutPath
10
239.048522
20
141.326218
11
239.048522
21
135.007632
0
LINE
8
top_outsideCutPath
10
239.048522
20
135.007632
11
224.972233
21
135.007632
0
LINE
8
top_outsideCutPath
10
224.972233
20
135.007632
11
224.972233
21
141.326218
0
LINE
8
top_outsideCutPath
10
224.972233
20
141.326218
11
210.896258
21
141.326218
0
LINE
8
top_outsideCutPath
10
210.896258
20
141.326218
11
210.896258
21
135.007632
0
LINE
8
top_outsideCutPath
10
210.896258
20
135.007632
11
205.852317
21
135.007632
0
LINE
8
back_outsideCutPath
10
2.687614
20
313.613913
11
2.687614
21
294.341949
0
LINE
8
back_outsideCutPath
10
2.687614
20
294.341949
11
9.725664
21
294.341949
0
LINE
8
back_outsideCutPath
10
9.725664
20
294.341949
11
9.725664
21
281.704809
0
LINE
8
back_outsideCutPath
10
9.725664
20
281.704809
11
2.687614
21
281.704809
0
LINE
8
back_outsideCutPath
10
2.687614
20
281.704809
11
2.687614
21
269.067666
0
LINE
8
back_outsideCutPath
10
2.687614
20
269.067666
11
9.725664
21
269.067666
0
LINE
8
back_outsideCutPath
10
9.725664
20
269.067666
11
9.725664
21
256.430245
0
LINE
8
back_outsideCutPath
10
9.725664
20
256.430245
11
2.687614
21
256.430245
0
LINE
8
back_outsideCutPath
10
2.687614
20
256.430245
11
2.687614
21
243.793105
0
LINE
8
back_outsideCutPath
10
2.687614
20
243.793105
11
9.725664
21
243.793105
0
LINE
8
back_outsideCutPath
10
9.725664
20
243.793105
11
9.725664
21
231.155962
0
LINE
8
back_outsideCutPath
10
9.725664
20
231.155962
11
2.687614
21
231.155962
0
LINE
8
back_outsideCutPath
10
2.687614
20
231.155962
11
2.687614
21
218.518541
0
LINE
8
back_outsideCutPath
10
2.687614
20
218.518541
11
9.725664
21
218.518541
0
LINE
8
back_outsideCutPath
10
9.725664
20
218.518541
11
9.725664
21
205.881401
0
LINE
8
back_outsideCutPath
10
9.725664
20
205.881401
11
2.687614
21
205.881401
0
LINE
8
back_outsideCutPath
10
2.687614
20
205.881401
11
2.687614
21
193.244261
0
LINE
8
back_outsideCutPath
10
2.687614
20
193.244261
11
2.687614
21
186.609726
0
LINE
8
back_outsideCutPath
10
2.687614
20
186.609726
11
14.769572
21
186.609726
0
LINE
8
back_outsideCutPath
10
14.769572
20
186.609726
11
14.769572
21
192.928288
0
LINE
8
back_outsideCutPath
10
14.769572
20
192.928288
11
28.845673
21
192.928288
0
LINE
8
back_outsideCutPath
10
28.845673
20
192.928288
11
28.845673
21
186.609726
0
LINE
8
back_outsideCutPath
10
28.845673
20
186.609726
11
42.921804
21
186.609726
0
LINE
8
back_outsideCutPath
10
42.921804
20
186.609726
11
42.921804
21
192.928288
0
LINE
8
back_outsideCutPath
10
42.921804
20
192.928288
11
56.997783
21
192.928288
0
LINE
8
back_outsideCutPath
10
56.997783
20
192.928288
11
56.997783
21
186.609726
0
LINE
8
back_outsideCutPath
10
56.997783
20
186.609726
11
71.073763
21
186.609726
0
LINE
8
back_outsideCutPath
10
71.073763
20
186.609726
11
71.073763
21
192.928288
0
LINE
8
back_outsideCutPath
10
71.073763
20
192.928288
11
85.150049
21
192.928288
0
LINE
8
back_outsideCutPath
10
85.150049
20
192.928288
11
85.150049
21
186.609726
0
LINE
8
back_outsideCutPath
10
85.150049
20
186.609726
11
97.231976
21
186.609726
0
LINE
8
back_outsideCutPath
10
97.231976
20
186.609726
11
97.231976
21
205.881401
0
LINE
8
back_outsideCutPath
10
97.231976
20
205.881401
11
90.193991
21
205.881401
0
LINE
8
back_outsideCutPath
10
90.193991
20
205.881401
11
90.193991
21
218.518541
0
LINE
8
back_outsideCutPath
10
90.193991
20
218.518541
11
97.231976
21
218.518541
0
LINE
8
back_outsideCutPath
10
97.231976
20
218.518541
11
97.231976
21
231.155962
0
LINE
8
back_outsideCutPath
10
97.231976
20
231.155962
11
90.193991
21
231.155962
0
LINE
8
back_outsideCutPath
10
90.193991
20
231.155962
11
90.193991
21
243.793105
0
LINE
8
back_outsideCutPath
10
90.193991
20
243.793105
11
97.231976
21
243.793105
0
LINE
8
back_outsideCutPath
10
97.231976
20
243.793105
11
97.231976
21
256.430245
0
LINE
8
back_outsideCutPath
10
97.231976
20
256.430245
11
90.193991
21
256.430245
0
LINE
8
back_outsideCutPath
10
90.193991
20
256.430245
11
90.193991
21
269.067666
0
LINE
8
back_outsideCutPath
10
90.193991
20
269.067666
11
97.231976
21
269.067666
0
LINE
8
back_outsideCutPath
10
97.231976
20
269.067666
11
97.231976
21
281.704809
0
LINE
8
back_outsideCutPath
10
97.231976
20
281.704809
11
90.193991
21
281.704809
0
LINE
8
back_outsideCutPath
10
90.193991
20
281.704809
11
90.193991
21
294.341949
0
LINE
8
back_outsideCutPath
10
90.193991
20
294.341949
11
97.231976
21
294.341949
0
LINE
8
back_outsideCutPath
10
97.231976
20
294.341949
11
97.231976
21
306.979364
0
LINE
8
back_outsideCutPath
10
97.231976
20
306.979364
11
97.231976
21
313.613913
0
LINE
8
back_outsideCutPath
10
97.231976
20
313.613913
11
85.150049
21
313.613913
0
LINE
8
back_outsideCutPath
10
85.150049
20
313.613913
11
85.150049
21
307.295062
0
LINE
8
back_outsideCutPath
10
85.150049
20
307.295062
11
71.073763
21
307.295062
0
LINE
8
back_outsideCutPath
10
71.073763
20
307.295062
11
71.073763
21
313.613913
0
LINE
8
back_outsideCutPath
10
71.073763
20
313.613913
11
56.997783
21
313.613913
0
LINE
8
back_outsideCutPath
10
56.997783
20
313.613913
11
56.997783
21
307.295062
0
LINE
8
back_outsideCutPath
10
56.997783
20
307.295062
11
42.921804
21
307.295062
0
LINE
8
back_outsideCutPath
10
42.921804
20
307.295062
11
42.921804
21
313.613913
0
LINE
8
back_outsideCutPath
10
42.921804
20
313.613913
11
28.845673
21
313.613913
0
LINE
8
back_outsideCutPath
10
28.845673
20
313.613913
11
28.845673
21
307.295062
0
LINE
8
back_outsideCutPath
10
28.845673
20
307.295062
11
14.769572
21
307.295062
0
LINE
8
back_outsideCutPath
10
14.769572
20
307.295062
11
14.769572
21
313.613913
0
LINE
8
back_outsideCutPath
10
14.769572
20
313.613913
11
2.687614
21
313.613913
0
LINE
8
right_outsideCutPath
10
107.789115
20
313.613913
11
107.789115
21
294.341949
0
LINE
8
right_outsideCutPath
10
107.789115
20
294.341949
11
100.751125
21
294.341949
0
LINE
8
right_outsideCutPath
10
100.751125
20
294.341949
11
100.751125
21
281.704809
0
LINE
8
right_outsideCutPath
10
100.751125
20
281.704809
11
107.789115
21
281.704809
0
LINE
8
right_outsideCutPath
10
107.789115
20
281.704809
11
107.789115
21
269.067666
0
LINE
8
right_outsideCutPath
10
107.789115
20
269.067666
11
100.751125
21
269.067666
0
LINE
8
right_outsideCutPath
10
100.751125
20
269.067666
11
100.751125
21
256.430245
0
LINE
8
right_outsideCutPath
10
100.751125
20
256.430245
11
107.789115
21
256.430245
0
LINE
8
right_outsideCutPath
10
107.789115
20
256.430245
11
107.789115
21
243.793105
0
LINE
8
right_outsideCutPath
10
107.789115
20
243.793105
11
100.751125
21
243.793105
0
LINE
8
right_outsideCutPath
10
100.751125
20
243.793105
11
100.751125
21
231.155962
0
LINE
8
right_outsideCutPath
10
100.751125
20
231.155962
11
107.789115
21
231.155962
0
LINE
8
right_outsideCutPath
10
107.789115
20
231.155962
11
107.789115
21
218.518541
0
LINE
8
right_outsideCutPath
10
107.789115
20
218.518541
11
100.751125
21
218.518541
0
LINE
8
right_outsideCutPath
10
100.751125
20
218.518541
11
100.751125
21
205.881401
0
LINE
8
right_outsideCutPath
10
100.751125
20
205.881401
11
107.789115
21
205.881401
0
LINE
8
right_outsideCutPath
10
107.789115
20
205.881401
11
107.789115
21
193.244261
0
LINE
8
right_outsideCutPath
10
107.789115
20
193.244261
11
107.789115
21
186.609726
0
LINE
8
right_outsideCutPath
10
107.789115
20
186.609726
11
112.833054
21
186.609726
0
LINE
8
right_outsideCutPath
10
112.833054
20
186.609726
11
112.833054
21
192.928288
0
LINE
8
right_outsideCutPath
10
112.833054
20
192.928288
11
126.909031
21
192.928288
0
LINE
8
right_outsideCutPath
10
126.909031
20
192.928288
11
126.909031
21
186.609726
0
LINE
8
right_outsideCutPath
10
126.909031
20
186.609726
11
140.985011
21
186.609726
0
LINE
8
right_outsideCutPath
10
140.985011
20
186.609726
11
140.985011
21
192.928288
0
LINE
8
right_outsideCutPath
10
140.985011
20
192.928288
11
155.061297
21
192.928288
0
LINE
8
right_outsideCutPath
10
155.061297
20
192.928288
11
155.061297
21
186.609726
0
LINE
8
right_outsideCutPath
10
155.061297
20
186.609726
11
169.137277
21
186.609726
0
LINE
8
right_outsideCutPath
10
169.137277
20
186.609726
11
169.137277
21
192.928288
0
LINE
8
right_outsideCutPath
10
169.137277
20
192.928288
11
183.213254
21
192.928288
0
LINE
8
right_outsideCutPath
10
183.213254
20
192.928288
11
183.213254
21
186.609726
0
LINE
8
right_outsideCutPath
10
183.213254
20
186.609726
11
188.257193
21
186.609726
0
LINE
8
right_outsideCutPath
10
188.257193
20
186.609726
11
188.257193
21
205.881401
0
LINE
8
right_outsideCutPath
10
188.257193
20
205.881401
11
195.295180
21
205.881401
0
LINE
8
right_outsideCutPath
10
195.295180
20
205.881401
11
195.295180
21
218.518541
0
LINE
8
right_outsideCutPath
10
195.295180
20
218.518541
11
188.257193
21
218.518541
0
LINE
8
right_outsideCutPath
10
188.257193
20
218.518541
11
188.257193
21
231.155962
0
LINE
8
right_outsideCutPath
10
188.257193
20
231.155962
11
195.295180
21
231.155962
0
LINE
8
right_outsideCutPath
10
195.295180
20
231.155962
11
195.295180
21
243.793105
0
LINE
8
right_outsideCutPath
10
195.295180
20
243.793105
11
188.257193
21
243.793105
0
LINE
8
right_outsideCutPath
10
188.257193
20
243.793105
11
188.257193
21
256.430245
0
LINE
8
right_outsideCutPath
10
188.257193
20
256.430245
11
195.295180
21
256.430245
0
LINE
8
right_outsideCutPath
10
195.295180
20
256.430245
11
195.295180
21
269.067666
0
LINE
8
right_outsideCutPath
10
195.295180
20
269.067666
11
188.257193
21
269.067666
0
LINE
8
right_outsideCutPath
10
188.257193
20
269.067666
11
188.257193
21
281.704809
0
LINE
8
right_outsideCutPath
10
188.257193
20
281.704809
11
195.295180
21
281.704809
0
LINE
8
right_outsideCutPath
10
195.295180
20
281.704809
11
195.295180
21
294.341949
0
LINE
8
right_outsideCutPath
10
195.295180
20
294.341949
11
188.257193
21
294.341949
0
LINE
8
right_outsideCutPath
10
188.257193
20
294.341949
11
188.257193
21
306.979364
0
LINE
8
right_outsideCutPath
10
188.257193
20
306.979364
11
188.257193
21
313.613913
0
LINE
8
right_outsideCutPath
10
188.257193
20
313.613913
11
183.213254
21
313.613913
0
LINE
8
right_outsideCutPath
10
183.213254
20
313.613913
11
183.213254
21
307.295062
0
LINE
8
right_outsideCutPath
10
183.213254
20
307.295062
11
169.137277
21
307.295062
0
LINE
8
right_outsideCutPath
10
169.137277
20
307.295062
11
169.137277
21
313.613913
0
LINE
8
right_outsideCutPath
10
169.137277
20
313.613913
11
155.061297
21
313.613913
0
LINE
8
right_outsideCutPath
10
155.061297
20
313.613913
11
155.061297
21
307.295062
0
LINE
8
right_outsideCutPath
10
155.061297
20
307.295062
11
140.985011
21
307.295062
0
LINE
8
right_outsideCutPath
10
140.985011
20
307.295062
11
140.985011
21
313.613913
0
LINE
8
right_outsideCutPath
10
140.985011
20
313.613913
11
126.909031
21
313.613913
0
LINE
8
right_outsideCutPath
10
126.909031
20
313.613913
11
126.909031
21
307.295062
0
LINE
8
right_outsideCutPath
10
126.909031
20
307.295062
11
112.833054
21
307.295062
0
LINE
8
right_outsideCutPath
10
112.833054
20
307.295062
11
112.833054
21
313.613913
0
LINE
8
right_outsideCutPath
10
112.833054
20
313.613913
11
107.789115
21
313.613913
0
LINE
8
right_outsideCutPath
10
23.298609
20
264.383121
11
78.387107
21
264.383121
0
LINE
8
right_outsideCutPath
10
78.387107
20
264.383121
11
78.387107
21
249.156645
0
LINE
8
right_outsideCutPath
10
78.387107
20
249.156645
11
23.298609
21
249.156645
0
LINE
8
right_outsideCutPath
10
23.298609
20
249.156645
11
23.298609
21
264.383121
0
LINE
8
right_outsideCutPath
10
209.149481
20
205.805876
11
214.897353
21
205.805876
0
LINE
8
right_outsideCutPath
10
214.897353
20
205.805876
11
214.897353
21
193.058013
0
LINE
8
right_outsideCutPath
10
214.897353
20
193.058013
11
209.149481
21
193.058013
0
LINE
8
right_outsideCutPath
10
209.149481
20
193.058013
11
209.149481
21
205.805876
0
LINE
8
right_outsideCutPath
10
277.201269
20
180.893098
11
281.973167
21
180.893098
0
LINE
8
right_outsideCutPath
10
281.973167
20
180.893098
11
281.973167
21
168.324991
0
LINE
8
right_outsideCutPath
10
281.973167
20
168.324991
11
277.201269
21
168.324991
0
LINE
8
right_outsideCutPath
10
277.201269
20
168.324991
11
277.201269
21
180.893098
0
LINE
8
right_outsideCutPath
10
277.071358
20
205.825042
11
281.843256
21
205.825042
0
LINE
8
right_outsideCutPath
10
281.843256
20
205.825042
11
281.843256
21
193.256936
0
LINE
8
right_outsideCutPath
10
281.843256
20
193.256936
11
277.071358
21
193.256936
0
LINE
8
right_outsideCutPath
10
277.071358
20
193.256936
11
277.071358
21
205.825042
0
LINE
8
right_outsideCutPath
10
208.938770
20
180.544827
11
214.688602
21
180.544827
0
LINE
8
right_outsideCutPath
10
214.688602
20
180.544827
11
214.688602
21
167.998785
0
LINE
8
right_outsideCutPath
10
214.688602
20
167.998785
11
208.938770
21
167.998785
0
LINE
8
right_outsideCutPath
10
208.938770
20
167.998785
11
208.938770
21
180.544827
0
LINE
8
right_outsideCutPath
10
141.796222
20
397.155130
11
141.796222
21
392.124952
0
LINE
8
right_outsideCutPath
10
141.796222
20
392.124952
11
143.421444
21
392.124952
0
LINE
8
right_outsideCutPath
10
143.421444
20
392.124952
11
143.421444
21
383.372525
0
LINE
8
right_outsideCutPath
10
143.421444
20
383.372525
11
126.573399
21
357.547777
0
LINE
8
right_outsideCutPath
10
126.573399
20
357.547777
11
103.579483
21
322.303461
0
LINE
8
right_outsideCutPath
10
103.579483
20
322.303461
11
129.490530
21
322.303461
0
LINE
8
right_outsideCutPath
10
129.490530
20
322.303461
11
129.490530
21
318.694901
0
LINE
8
right_outsideCutPath
10
129.490530
20
318.694901
11
142.058739
21
318.694901
0
LINE
8
right_outsideCutPath
10
142.058739
20
318.694901
11
142.058739
21
322.303461
0
LINE
8
right_outsideCutPath
10
142.058739
20
322.303461
11
149.566797
21
322.303461
0
LINE
8
right_outsideCutPath
10
149.566797
20
322.303461
11
154.549951
21
322.303461
0
LINE
8
right_outsideCutPath
10
154.549951
20
322.303461
11
154.549951
21
318.485611
0
LINE
8
right_outsideCutPath
10
154.549951
20
318.485611
11
167.320208
21
318.485611
0
LINE
8
right_outsideCutPath
10
167.320208
20
318.485611
11
167.320208
21
322.303461
0
LINE
8
right_outsideCutPath
10
167.320208
20
322.303461
11
195.554125
21
322.303461
0
LINE
8
right_outsideCutPath
10
195.554125
20
322.303461
11
172.560195
21
357.547777
0
LINE
8
right_outsideCutPath
10
172.560195
20
357.547777
11
156.313148
21
382.451136
0
LINE
8
right_outsideCutPath
10
156.313148
20
382.451136
11
156.313148
21
392.124952
0
LINE
8
right_outsideCutPath
10
156.313148
20
392.124952
11
158.696980
21
392.124952
0
LINE
8
right_outsideCutPath
10
158.696980
20
392.124952
11
158.696980
21
397.155130
0
LINE
8
right_outsideCutPath
10
158.696980
20
397.155130
11
141.796222
21
397.155130
0
LINE
8
right_outsideCutPath
10
42.123358
20
398.519293
11
42.123358
21
393.489115
0
LINE
8
right_outsideCutPath
10
42.123358
20
393.489115
11
43.748581
21
393.489115
0
LINE
8
right_outsideCutPath
10
43.748581
20
393.489115
11
43.748581
21
384.736689
0
LINE
8
right_outsideCutPath
10
43.748581
20
384.736689
11
26.900536
21
358.911941
0
LINE
8
right_outsideCutPath
10
26.900536
20
358.911941
11
3.906619
21
323.667625
0
LINE
8
right_outsideCutPath
10
3.906619
20
323.667625
11
29.817666
21
323.667625
0
LINE
8
right_outsideCutPath
10
29.817666
20
323.667625
11
29.817666
21
320.059065
0
LINE
8
right_outsideCutPath
10
29.817666
20
320.059065
11
42.385875
21
320.059065
0
LINE
8
right_outsideCutPath
10
42.385875
20
320.059065
11
42.385875
21
323.667625
0
LINE
8
right_outsideCutPath
10
42.385875
20
323.667625
11
49.893933
21
323.667625
0
LINE
8
right_outsideCutPath
10
49.893933
20
323.667625
11
54.877087
21
323.667625
0
LINE
8
right_outsideCutPath
10
54.877087
20
323.667625
11
54.877087
21
319.849774
0
LINE
8
right_outsideCutPath
10
54.877087
20
319.849774
11
67.647344
21
319.849774
0
LINE
8
right_outsideCutPath
10
67.647344
20
319.849774
11
67.647344
21
323.667625
0
LINE
8
right_outsideCutPath
10
67.647344
20
323.667625
11
95.881261
21
323.667625
0
LINE
8
right_outsideCutPath
10
95.881261
20
323.667625
11
72.887331
21
358.911941
0
LINE
8
right_outsideCutPath
10
72.887331
20
358.911941
11
56.640284
21
383.815299
0
LINE
8
right_outsideCutPath
10
56.640284
20
383.815299
11
56.640284
21
393.489115
0
LINE
8
right_outsideCutPath
10
56.640284
20
393.489115
11
59.024116
21
393.489115
0
LINE
8
right_outsideCutPath
10
59.024116
20
393.489115
11
59.024116
21
398.519293
0
LINE
8
right_outsideCutPath
10
59.024116
20
398.519293
11
42.123358
21
398.519293
0
LINE
8
right_outsideCutPath
10
151.381212
20
360.561108
11
157.804531
21
360.561108
0
LINE
8
right_outsideCutPath
10
157.804531
20
360.561108
11
157.804531
21
352.569906
0
LINE
8
right_outsideCutPath
10
157.804531
20
352.569906
11
151.381212
21
352.569906
0
LINE
8
right_outsideCutPath
10
151.381212
20
352.569906
11
151.381212
21
360.561108
0
LINE
8
right_outsideCutPath
10
151.599223
20
349.429728
11
158.022543
21
349.429728
0
LINE
8
right_outsideCutPath
10
158.022543
20
349.429728
11
158.022543
21
341.438526
0
LINE
8
right_outsideCutPath
10
158.022543
20
341.438526
11
151.599223
21
341.438526
0
LINE
8
right_outsideCutPath
10
151.599223
20
341.438526
11
151.599223
21
349.429728
0
LINE
8
right_outsideCutPath
10
141.777725
20
349.429728
11
148.201044
21
349.429728
0
LINE
8
right_outsideCutPath
10
148.201044
20
349.429728
11
148.201044
21
341.438526
0
LINE
8
right_outsideCutPath
10
148.201044
20
341.438526
11
141.777725
21
341.438526
0
LINE
8
right_outsideCutPath
10
141.777725
20
341.438526
11
141.777725
21
349.429728
0
LINE
8
right_outsideCutPath
10
141.777725
20
360.629661
11
148.201044
21
360.629661
0
LINE
8
right_outsideCutPath
10
148.201044
20
360.629661
11
148.201044
21
352.638459
0
LINE
8
right_outsideCutPath
10
148.201044
20
352.638459
11
141.777725
21
352.638459
0
LINE
8
right_outsideCutPath
10
141.777725
20
352.638459
11
141.777725
21
360.629661
0
LINE
8
right_outsideCutPath
10
68.777217
20
234.502998
11
67.515303
21
234.381027
0
LINE
8
right_outsideCutPath
10
67.515303
20
234.381027
11
66.339952
21
234.031209
0
LINE
8
right_outsideCutPath
10
66.339952
20
234.031209
11
65.276343
21
233.477684
0
LINE
8
right_outsideCutPath
10
65.276343
20
233.477684
11
64.349656
21
232.744596
0
LINE
8
right_outsideCutPath
10
64.349656
20
232.744596
11
63.585069
21
231.856085
0
LINE
8
right_outsideCutPath
10
63.585069
20
231.856085
11
63.007761
21
230.836294
0
LINE
8
right_outsideCutPath
10
63.007761
20
230.836294
11
62.642912
21
229.709364
0
LINE
8
right_outsideCutPath
10
62.642912
20
229.709364
11
62.515700
21
228.499438
0
LINE
8
right_outsideCutPath
10
62.515700
20
228.499438
11
62.642912
21
227.289511
0
LINE
8
right_outsideCutPath
10
62.642912
20
227.289511
11
63.007761
21
226.162581
0
LINE
8
right_outsideCutPath
10
63.007761
20
226.162581
11
63.585069
21
225.142790
0
LINE
8
right_outsideCutPath
10
63.585069
20
225.142790
11
64.349656
21
224.254279
0
LINE
8
right_outsideCutPath
10
64.349656
20
224.254279
11
65.276343
21
223.521191
0
LINE
8
right_outsideCutPath
10
65.276343
20
223.521191
11
66.339952
21
222.967667
0
LINE
8
right_outsideCutPath
10
66.339952
20
222.967667
11
67.515303
21
222.617848
0
LINE
8
right_outsideCutPath
10
67.515303
20
222.617848
11
68.777217
21
222.495877
0
LINE
8
right_outsideCutPath
10
68.777217
20
222.495877
11
70.039131
21
222.617848
0
LINE
8
right_outsideCutPath
10
70.039131
20
222.617848
11
71.214482
21
222.967667
0
LINE
8
right_outsideCutPath
10
71.214482
20
222.967667
11
72.278091
21
223.521191
0
LINE
8
right_outsideCutPath
10
72.278091
20
223.521191
11
73.204778
21
224.254279
0
LINE
8
right_outsideCutPath
10
73.204778
20
224.254279
11
73.969365
21
225.142790
0
LINE
8
right_outsideCutPath
10
73.969365
20
225.142790
11
74.546673
21
226.162581
0
LINE
8
right_outsideCutPath
10
74.546673
20
226.162581
11
74.911522
21
227.289511
0
LINE
8
right_outsideCutPath
10
74.911522
20
227.289511
11
75.038734
21
228.499438
0
LINE
8
right_outsideCutPath
10
75.038734
20
228.499438
11
74.917309
21
229.676143
0
LINE
8
right_outsideCutPath
10
74.917309
20
229.676143
11
74.562104
21
230.796901
0
LINE
8
right_outsideCutPath
10
74.562104
20
230.796901
11
73.986725
21
231.830216
0
LINE
8
right_outsideCutPath
10
73.986725
20
231.830216
11
73.204778
21
232.744596
0
LINE
8
right_outsideCutPath
10
73.204778
20
232.744596
11
72.251110
21
233.494329
0
LINE
8
right_outsideCutPath
10
72.251110
20
233.494329
11
71.173396
21
234.046004
0
LINE
8
right_outsideCutPath
10
71.173396
20
234.046004
11
70.004483
21
234.386575
0
LINE
8
right_outsideCutPath
10
70.004483
20
234.386575
11
68.777217
21
234.502998
0
LINE
8
right_outsideCutPath
10
68.777217
20
234.502998
11
68.777217
21
234.502998
0
LINE
8
bottom_outsideCutPath
10
205.852317
20
223.046895
11
205.852317
21
218.518541
0
LINE
8
bottom_outsideCutPath
10
205.852317
20
218.518541
11
198.814329
21
218.518541
0
LINE
8
bottom_outsideCutPath
10
198.814329
20
218.518541
11
198.814329
21
205.881401
0
LINE
8
bottom_outsideCutPath
10
198.814329
20
205.881401
11
205.852317
21
205.881401
0
LINE
8
bottom_outsideCutPath
10
205.852317
20
205.881401
11
205.852317
21
193.244261
0
LINE
8
bottom_outsideCutPath
10
205.852317
20
193.244261
11
198.814329
21
193.244261
0
LINE
8
bottom_outsideCutPath
10
198.814329
20
193.244261
11
198.814329
21
180.606845
0
LINE
8
bottom_outsideCutPath
10
198.814329
20
180.606845
11
205.852317
21
180.606845
0
LINE
8
bottom_outsideCutPath
10
205.852317
20
180.606845
11
205.852317
21
167.969673
0
LINE
8
bottom_outsideCutPath
10
205.852317
20
167.969673
11
198.814329
21
167.969673
0
LINE
8
bottom_outsideCutPath
10
198.814329
20
167.969673
11
198.814329
21
155.332554
0
LINE
8
bottom_outsideCutPath
10
198.814329
20
155.332554
11
205.852317
21
155.332554
0
LINE
8
bottom_outsideCutPath
10
205.852317
20
155.332554
11
205.852317
21
150.804216
0
LINE
8
bottom_outsideCutPath
10
205.852317
20
150.804216
11
210.896258
21
150.804216
0
LINE
8
bottom_outsideCutPath
10
210.896258
20
150.804216
11
210.896258
21
144.485339
0
LINE
8
bottom_outsideCutPath
10
210.896258
20
144.485339
11
224.972233
21
144.485339
0
LINE
8
bottom_outsideCutPath
10
224.972233
20
144.485339
11
224.972233
21
150.804216
0
LINE
8
bottom_outsideCutPath
10
224.972233
20
150.804216
11
239.048522
21
150.804216
0
LINE
8
bottom_outsideCutPath
10
239.048522
20
150.804216
11
239.048522
21
144.485339
0
LINE
8
bottom_outsideCutPath
10
239.048522
20
144.485339
11
253.124509
21
144.485339
0
LINE
8
bottom_outsideCutPath
10
253.124509
20
144.485339
11
253.124509
21
150.804216
0
LINE
8
bottom_outsideCutPath
10
253.124509
20
150.804216
11
267.200455
21
150.804216
0
LINE
8
bottom_outsideCutPath
10
267.200455
20
150.804216
11
267.200455
21
144.485339
0
LINE
8
bottom_outsideCutPath
10
267.200455
20
144.485339
11
281.276746
21
144.485339
0
LINE
8
bottom_outsideCutPath
10
281.276746
20
144.485339
11
281.276746
21
150.804216
0
LINE
8
bottom_outsideCutPath
10
281.276746
20
150.804216
11
286.320704
21
150.804216
0
LINE
8
bottom_outsideCutPath
10
286.320704
20
150.804216
11
286.320704
21
155.332554
0
LINE
8
bottom_outsideCutPath
10
286.320704
20
155.332554
11
293.358691
21
155.332554
0
LINE
8
bottom_outsideCutPath
10
293.358691
20
155.332554
11
293.358691
21
167.969673
0
LINE
8
bottom_outsideCutPath
10
293.358691
20
167.969673
11
286.320704
21
167.969673
0
LINE
8
bottom_outsideCutPath
10
286.320704
20
167.969673
11
286.320704
21
180.606845
0
LINE
8
bottom_outsideCutPath
10
286.320704
20
180.606845
11
293.358691
21
180.606845
0
LINE
8
bottom_outsideCutPath
10
293.358691
20
180.606845
11
293.358691
21
193.244261
0
LINE
8
bottom_outsideCutPath
10
293.358691
20
193.244261
11
286.320704
21
193.244261
0
LINE
8
bottom_outsideCutPath
10
286.320704
20
193.244261
11
286.320704
21
205.881401
0
LINE
8
bottom_outsideCutPath
10
286.320704
20
205.881401
11
293.358691
21
205.881401
0
LINE
8
bottom_outsideCutPath
10
293.358691
20
205.881401
11
293.358691
21
218.518541
0
LINE
8
bottom_outsideCutPath
10
293.358691
20
218.518541
11
286.320704
21
218.518541
0
LINE
8
bottom_outsideCutPath
10
286.320704
20
218.518541
11
286.320704
21
223.046895
0
LINE
8
bottom_outsideCutPath
10
286.320704
20
223.046895
11
281.276746
21
223.046895
0
LINE
8
bottom_outsideCutPath
10
281.276746
20
223.046895
11
281.276746
21
229.365463
0
LINE
8
bottom_outsideCutPath
10
281.276746
20
229.365463
11
267.200455
21
229.365463
0
LINE
8
bottom_outsideCutPath
10
267.200455
20
229.365463
11
267.200455
21
223.046895
0
LINE
8
bottom_outsideCutPath
10
267.200455
20
223.046895
11
253.124509
21
223.046895
0
LINE
8
bottom_outsideCutPath
10
253.124509
20
223.046895
11
253.124509
21
229.365463
0
LINE
8
bottom_outsideCutPath
10
253.124509
20
229.365463
11
239.048522
21
229.365463
0
LINE
8
bottom_outsideCutPath
10
239.048522
20
229.365463
11
239.048522
21
223.046895
0
LINE
8
bottom_outsideCutPath
10
239.048522
20
223.046895
11
224.972233
21
223.046895
0
LINE
8
bottom_outsideCutPath
10
224.972233
20
223.046895
11
224.972233
21
229.365463
0
LINE
8
bottom_outsideCutPath
10
224.972233
20
229.365463
11
210.896258
21
229.365463
0
LINE
8
bottom_outsideCutPath
10
210.896258
20
229.365463
11
210.896258
21
223.046895
0
LINE
8
bottom_outsideCutPath
10
210.896258
20
223.046895
11
205.852317
21
223.046895
 0 
ENDSEC
 0 
EOF